<?xml version="1.0" standalone="no"?>
<!DOCTYPE svg PUBLIC "-//W3C//DTD SVG 1.1//EN" "http://www.w3.org/Graphics/SVG/1.1/DTD/svg11.dtd" >
<svg xmlns="http://www.w3.org/2000/svg" xmlns:xlink="http://www.w3.org/1999/xlink" version="1.1">
<metadata>
Created by FontForge 20170731 at Thu May  5 02:31:20 2005
 By Aleksey,,,
Copyright (c) Dino dos Santos _ DSType, 2000. All rights reserved.
</metadata>
<defs>
<font id="MonoxRegular" horiz-adv-x="500" >
  <font-face 
    font-family="MonoxRegular"
    font-weight="400"
    font-stretch="normal"
    units-per-em="1000"
    panose-1="2 0 5 9 2 0 0 2 0 4"
    ascent="800"
    descent="-200"
    x-height="460"
    cap-height="600"
    bbox="-7 -200 507 816"
    underline-thickness="20"
    underline-position="-163"
    unicode-range="U+0005-2122"
  />
<missing-glyph 
d="M33 0v666h265v-666h-265zM66 33h199v600h-199v-600z" />
    <glyph glyph-name=".notdef" 
d="M33 0v666h265v-666h-265zM66 33h199v600h-199v-600z" />
    <glyph glyph-name=".null" horiz-adv-x="0" 
 />
    <glyph glyph-name="nonmarkingreturn" 
 />
    <glyph glyph-name="Scaron" 
d="M448 161q0 -42 -17.5 -73.5t-46.5 -53.5t-67.5 -33t-79.5 -11q-51 0 -93 16t-93 50l31 57q47 -28 82 -41t73 -13q29 0 52.5 8t40.5 22t26.5 32.5t9.5 39.5q0 37 -22.5 60t-56.5 39.5t-73.5 30.5t-73.5 34t-56.5 50t-22.5 78q0 29 10.5 57t33.5 50t58.5 36t86.5 14
q48 0 89 -14.5t91 -44.5l-34 -58q-45 25 -78 36.5t-68 11.5q-58 0 -82.5 -26t-24.5 -61q0 -33 22.5 -52.5t56.5 -34t73.5 -28.5t73.5 -35.5t56.5 -55t22.5 -87.5zM286 642h-72l-118 130l38 34l116 -94l116 94l36 -34z" />
    <glyph glyph-name="scaron" 
d="M450 134q0 -38 -17.5 -65t-46.5 -44.5t-66.5 -26t-77.5 -8.5q-49 0 -93.5 12.5t-98.5 39.5l29 54q47 -21 85.5 -30t77.5 -9q63 0 93 21.5t30 50.5q0 28 -22 43.5t-55 25.5t-72 18.5t-72 22.5t-55 37.5t-22 63.5q0 26 11 49.5t34 41.5t58.5 28.5t84.5 10.5q23 0 44 -2.5
t42.5 -8.5t44 -14.5t48.5 -20.5l-30 -55q-45 18 -78.5 26t-70.5 8q-31 0 -51 -5t-31.5 -13.5t-16 -20t-4.5 -23.5q0 -21 22 -33t55 -20.5t72 -18t72 -25.5t55 -41.5t22 -68.5zM286 522h-72l-118 130l38 34l116 -94l116 94l36 -34z" />
    <glyph glyph-name="Yacute" 
d="M290 211v-211h-80v211l-185 389h89l136 -302l136 302h89zM255 650l-50 17l95 149l74 -41z" />
    <glyph glyph-name="yacute" 
d="M290 -56q-10 -27 -24.5 -53t-37 -46t-54.5 -32.5t-77 -12.5q-14 0 -29 1.5t-45 6.5l9 71q23 -6 43 -9t38 -1q41 4 69 30.5t41 91.5l-190 469h88l143 -372l121 372h88zM255 510l-50 17l95 149l74 -41z" />
    <glyph glyph-name="Zcaron" 
d="M50 0v55l286 472h-276v73h380v-55l-286 -472h296v-73h-400zM286 642h-72l-118 130l38 34l116 -94l116 94l36 -34z" />
    <glyph glyph-name="Zcaron" unicode="&#x17d;" 
d="M50 0v55l286 472h-276v73h380v-55l-286 -472h296v-73h-400zM286 642h-72l-118 130l38 34l116 -94l116 94l36 -34z" />
    <glyph glyph-name="zcaron" 
d="M50 0v51l280 343h-270v66h380v-51l-278 -343h288v-66h-400zM286 522h-72l-118 130l38 34l116 -94l116 94l36 -34z" />
    <glyph glyph-name="zcaron" unicode="&#x17e;" 
d="M50 0v51l280 343h-270v66h380v-51l-278 -343h288v-66h-400zM286 522h-72l-118 130l38 34l116 -94l116 94l36 -34z" />
    <glyph glyph-name="onehalf" 
 />
    <glyph glyph-name="onequarter" 
 />
    <glyph glyph-name="onesuperior" 
 />
    <glyph glyph-name="threequarters" 
 />
    <glyph glyph-name="threesuperior" 
 />
    <glyph glyph-name="twosuperior" 
 />
    <glyph glyph-name="brokenbar" 
d="M210 361v249h80v-249h-80zM210 0v240h80v-240h-80z" />
    <glyph glyph-name="minus" 
d="M60 230v77h380v-77h-380z" />
    <glyph glyph-name="minus" unicode="&#x2212;" 
d="M60 230v77h380v-77h-380z" />
    <glyph glyph-name="multiply" 
d="M364 101l-114 113l-114 -113l-54 54l114 114l-114 113l54 54l114 -113l114 113l54 -54l-113 -113l113 -114z" />
    <glyph glyph-name="space" unicode=" " 
 />
    <glyph glyph-name="exclam" unicode="!" 
d="M288 170h-76l-5 430h86zM313 58q0 -26 -18.5 -44.5t-44.5 -18.5t-44.5 18t-18.5 44t18.5 44.5t44.5 18.5t44.5 -18.5t18.5 -44.5v1z" />
    <glyph glyph-name="quotedbl" unicode="&#x22;" 
d="M374 415h-74l-7 205h88zM200 415h-74l-7 205h88z" />
    <glyph glyph-name="numbersign" unicode="#" 
d="M353 175v-90h-62v90h-81v-90h-62v90h-81v62h81v65h-81v62h80v89h62v-89h81v89h62v-89h81v-62h-81v-65h81v-62h-80zM291 302h-82v-65h81z" />
    <glyph glyph-name="dollar" unicode="$" 
d="M450 142q0 -32 -13 -58t-34.5 -44.5t-50.5 -31t-62 -17.5v-61h-80v58q-42 3 -81 17t-85 42l21 53q47 -25 90 -35.5t82 -10.5q60 0 95.5 26t35.5 61q0 31 -23 50t-57.5 33.5t-74.5 27.5t-74.5 32t-57.5 46.5t-23 70.5q0 24 9 47t27.5 42t47.5 32.5t68 17.5v60h80v-60
q35 -4 68 -15.5t75 -35.5l-24 -54q-45 22 -84 31.5t-75 9.5q-60 0 -85 -22.5t-25 -51.5q0 -27 23 -43.5t57.5 -29t74.5 -25t74.5 -32.5t57.5 -50.5t23 -79.5z" />
    <glyph glyph-name="percent" unicode="%" 
d="M245 431q0 -42 -29 -71t-71 -29t-71 29t-29 71t29 71t71 29t71 -29t29 -71zM193 431q0 20 -14 34t-34 14t-34 -14t-14 -34t14 -34t34 -14t34 14t14 34zM137 -20h-90l315 570h91zM455 100q0 -42 -29 -71t-71 -29t-71 29t-29 71t29 71t71 29t71 -29t29 -71zM403 100
q0 20 -14 34t-34 14t-34 -14t-14 -34t14 -34t34 -14t34 14t14 34z" />
    <glyph glyph-name="ampersand" unicode="&#x26;" 
d="M500 20q-32 -17 -55.5 -23.5t-54.5 -6.5q-63 0 -104 41q-22 -20 -50 -30.5t-60 -10.5q-36 0 -68 14t-56 38t-38 56.5t-14 69.5v9q0 45 20.5 82.5t53.5 60.5q-27 21 -43.5 52.5t-16.5 69.5q0 33 12.5 61.5t33.5 50t49 34t60 12.5h135v-245h91v-68h-91v-133q0 -42 24 -69
t62 -27q12 0 21.5 0.5t20 3t24 6.5t32.5 11l12 -59v0zM233 532h-60q-36 0 -61.5 -26t-25.5 -63q0 -36 25.5 -62t61.5 -26h60v177zM248 88q-15 36 -15 80v119h-54q-22 0 -41.5 -9t-34 -24t-23 -35t-8.5 -43v-22q0 -19 8.5 -36.5t23 -30.5t33.5 -21t39 -8t39 8t33 22z" />
    <glyph glyph-name="quotesingle" unicode="'" 
d="M287 415h-74l-7 205h88z" />
    <glyph glyph-name="parenleft" unicode="(" 
d="M334 -74q-93 58 -144.5 158t-51.5 221t51.5 221t144.5 158l35 -47q-72 -57 -111.5 -142.5t-39.5 -189.5t39.5 -189.5t111.5 -142.5z" />
    <glyph glyph-name="parenright" unicode=")" 
d="M362 305q0 -121 -51.5 -221t-144.5 -158l-35 47q72 57 111.5 142.5t39.5 189.5t-39.5 189.5t-111.5 142.5l35 47q93 -58 144.5 -158t51.5 -221z" />
    <glyph glyph-name="asterisk" unicode="*" 
d="M304 559l88 -99l-55 -46l-87 110l-87 -110l-55 46l88 99l-125 41l24 68l123 -49l-4 132h72l-4 -132l123 49l24 -68z" />
    <glyph glyph-name="plus" unicode="+" 
d="M289 230v-159h-77v159h-152v77h151v160h77v-160h152v-77h-151z" />
    <glyph glyph-name="comma" unicode="," 
d="M312 58v-10q0 -4 -2 -9l-88 -214l-53 17l50 162q-16 8 -26 22t-10 31q0 27 19 46t46 19t46 -19t19 -45h-1z" />
    <glyph glyph-name="hyphen" unicode="-" 
d="M60 230v77h380v-77h-380z" />
    <glyph glyph-name="period" unicode="." 
d="M313 58q0 -26 -18.5 -44.5t-44.5 -18.5t-44.5 18t-18.5 44t18.5 44.5t44.5 18.5t44.5 -18t18.5 -44z" />
    <glyph glyph-name="slash" unicode="/" 
d="M141 -20h-89l306 640h90z" />
    <glyph glyph-name="zero" unicode="0" 
d="M445 265q0 -45 -8 -94t-29.5 -89t-59.5 -66t-98 -26t-98 26t-59.5 66t-29.5 89t-8 94t8 94t29.5 89t59.5 66t98 26t98 -26t59.5 -66t29.5 -89t8 -94zM365 265q0 31 -2 67.5t-13 67.5t-34.5 51.5t-65.5 20.5t-65.5 -20.5t-34.5 -51.5t-13 -67.5t-2 -67.5t2 -67.5t13 -67.5
t34.5 -51.5t65.5 -20.5t65.5 20.5t34.5 51.5t13 67.5t2 67.5z" />
    <glyph glyph-name="one" unicode="1" 
d="M60 0v65l150 10v380h-145v64l225 11v-455l150 -10v-65h-380z" />
    <glyph glyph-name="two" unicode="2" 
d="M50 0v65q4 2 28.5 16.5t59 37.5t73.5 53t72 64t55 69.5t22 69.5q0 42 -26.5 69.5t-80.5 27.5q-35 0 -71.5 -12t-83.5 -37l-29 59q49 30 92.5 44t91.5 14q53 0 89 -14t58 -37t32 -52.5t10 -60.5q0 -36 -16 -71t-41.5 -66.5t-56.5 -59t-60.5 -50t-53.5 -38t-36 -23.5h272
v-68h-400z" />
    <glyph glyph-name="three" unicode="3" 
d="M440 161q0 -51 -27.5 -87.5t-68.5 -61t-89 -39t-89 -22t-96 -12.5l-14 62q8 0 34 2.5t59.5 8.5t70.5 16.5t67.5 28t50.5 42.5t20 59q0 23 -11 38t-29 22.5t-39.5 9.5t-42.5 -1q-18 -3 -35.5 -6t-32 -6.5t-25 -6t-14.5 -3.5q-13 67 0 69t32.5 6t42 8.5t40.5 8.5
q47 12 77.5 35t30.5 57q0 40 -23 61.5t-82 21.5q-35 0 -71.5 -12.5t-83.5 -37.5l-29 59q49 31 92.5 45t91.5 14q50 0 85.5 -12t58 -32.5t33 -48t10.5 -59.5q0 -34 -21 -63t-52 -49q34 -14 56.5 -41t22.5 -74z" />
    <glyph glyph-name="four" unicode="4" 
d="M380 93v-153h-80v153h-260v60l239 392l68 -22l-207 -361h160l12 146h68v-146h80v-69h-80z" />
    <glyph glyph-name="five" unicode="5" 
d="M440 168q0 -51 -27.5 -88t-68.5 -62t-89 -41t-89 -24t-96 -14l-14 62q8 0 34 3t59.5 9.5t70.5 18.5t67.5 30t50.5 43.5t20 59.5q0 38 -24.5 57.5t-60 25.5t-74.5 2t-69 -14l-35 24v270h345v-68h-265v-77q0 -5 -0.5 -16t-1 -22.5t-1.5 -21.5t-1 -14q37 9 83 9
q47 0 88.5 -14.5t69.5 -47t28 -90.5z" />
    <glyph glyph-name="six" unicode="6" 
d="M440 183q0 -38 -12.5 -73t-36.5 -61.5t-59 -42.5t-80 -16q-52 0 -88.5 19t-59.5 48t-33.5 62.5t-10.5 63.5q0 72 22.5 138.5t65 121.5t103 94.5t136.5 55.5l24 -56q-39 -9 -74 -28t-64.5 -44.5t-53 -56t-39.5 -63.5q14 8 34.5 16t49.5 8q44 0 77 -15.5t55 -41t33 -59.5
t11 -70zM360 183q0 56 -23 87t-85 31q-11 0 -24.5 -3.5t-28 -9t-27.5 -12t-22 -13.5q-6 -20 -8 -39.5t-2 -40.5q0 -23 7.5 -45.5t22 -40t35 -28.5t47.5 -11q55 0 81.5 35.5t26.5 89.5z" />
    <glyph glyph-name="seven" unicode="7" 
d="M440 469l-17.5 -24.5t-43 -61.5t-53.5 -79.5t-49 -78.5q-30 -52 -56.5 -104t-46.5 -93.5t-43 -92.5q-67 23 -56 49t30 68t43.5 94.5t52.5 104.5q17 30 37 63.5t39.5 63t34.5 52.5t21 32h-273v68h380v-61v0z" />
    <glyph glyph-name="eight" unicode="8" 
d="M440 149q0 -38 -15.5 -67.5t-42 -50t-61 -31t-72.5 -10.5t-72 10.5t-60 31t-41.5 50t-15.5 67.5q0 33 11 57t26 40.5t29.5 27t20.5 14.5q-32 22 -47.5 50.5t-15.5 56.5q0 66 43.5 105.5t121.5 39.5t122.5 -39.5t44.5 -105.5q0 -22 -8.5 -40.5t-20 -33.5t-22.5 -25.5
t-16 -15.5q47 -22 69 -58.5t22 -72.5zM340 395q0 35 -23 57t-68 22q-44 0 -66.5 -22t-22.5 -57q0 -40 29.5 -59.5t84.5 -28.5q28 12 47 37t19 51zM364 149q0 27 -10 44t-29.5 28t-47.5 18.5t-64 15.5q-13 -7 -27 -17t-25 -22.5t-18 -29t-7 -37.5q0 -20 9 -37t24.5 -29.5
t36 -19.5t43.5 -7t44 7t36.5 19.5t25 29.5t9.5 37z" />
    <glyph glyph-name="nine" unicode="9" 
d="M440 347q0 -71 -22.5 -137.5t-64.5 -121.5t-102.5 -95t-137.5 -56l-24 56q39 9 74 28t64.5 44.5t53 56t39.5 63.5q-14 -8 -34.5 -16t-49.5 -8q-44 0 -77 15.5t-55 41t-33 59.5t-11 70q0 38 12.5 73t36.5 61.5t59 42.5t80 16q52 0 88.5 -19t59.5 -48t33.5 -62.5
t10.5 -63.5zM360 347q0 23 -7.5 45.5t-22 40t-35 28.5t-47.5 11q-55 0 -81.5 -35.5t-26.5 -89.5q0 -56 23.5 -87t84.5 -31q11 0 24.5 3.5t28 9t27.5 12t22 13.5q6 20 8 39.5t2 40.5z" />
    <glyph glyph-name="colon" unicode=":" 
d="M313 397q0 -26 -18.5 -44.5t-44.5 -18.5t-44.5 18.5t-18.5 44.5t18.5 44.5t44.5 18.5t44.5 -18.5t18.5 -44.5zM313 140q0 -26 -18.5 -44.5t-44.5 -18.5t-44.5 18.5t-18.5 44.5t18.5 44.5t44.5 18.5t44.5 -18.5t18.5 -44.5z" />
    <glyph glyph-name="semicolon" unicode=";" 
d="M313 397q0 -26 -18.5 -44.5t-44.5 -18.5t-44.5 18.5t-18.5 44.5t18.5 44.5t44.5 18.5t44.5 -18.5t18.5 -44.5zM312 58v-10q0 -4 -2 -9l-88 -214l-53 17l50 162q-16 8 -26 22t-10 31q0 27 19 46t46 19t46 -19t19 -46z" />
    <glyph glyph-name="less" unicode="&#x3c;" 
d="M50 235v67l400 157v-76l-305 -114l305 -111v-76z" />
    <glyph glyph-name="equal" unicode="=" 
d="M60 315v77h380v-77h-380zM60 145v77h380v-77h-380z" />
    <glyph glyph-name="greater" unicode="&#x3e;" 
d="M50 82v76l305 111l-305 114v76l400 -157v-67z" />
    <glyph glyph-name="question" unicode="?" 
d="M421 468q0 -40 -23.5 -68.5t-53.5 -46.5q-32 -20 -59 -38t-35 -44q-6 -20 -0.5 -40.5t17.5 -44.5l-48 -23q-29 33 -34 63t1 56q7 29 27 52t45 40q11 8 25.5 18.5t27.5 22t21.5 24t8.5 25.5q0 34 -25 56.5t-65 22.5q-33 0 -67 -11t-81 -37l-25 52q25 15 46.5 27t42 20
t41 12t44.5 4q44 0 76 -12.5t52.5 -32.5t30.5 -45.5t10 -51.5zM303 57q0 -26 -18.5 -44t-44.5 -18t-44.5 18t-18.5 44t18.5 44.5t44.5 18.5t44 -18.5t18 -44.5h1z" />
    <glyph glyph-name="at" unicode="@" 
d="M287 227q-19 -25 -42.5 -44.5t-58.5 -19.5q-24 0 -37 9.5t-18 25t-4.5 34t4.5 37.5t8.5 36t6.5 28q5 22 15 42t25 35t34.5 24t43.5 9q16 0 33.5 -9.5t31.5 -18.5l8 28h41l-48 -228q-5 -25 12.5 -37.5t40.5 -5t43 38.5t20 94q0 41 -15.5 76.5t-42 62t-62 42t-76.5 15.5
q-40 0 -76 -15.5t-62.5 -42t-42 -62t-15.5 -76.5t15.5 -78.5t43.5 -66.5t65.5 -46.5t81.5 -17.5v-37q-55 0 -101.5 19.5t-80.5 52.5t-53.5 78t-19.5 96t19 96t52.5 78t78 52.5t95.5 19.5t95.5 -19.5t78 -52.5t52.5 -78t19 -96q0 -55 -17.5 -92t-43 -57t-54 -25t-52 5t-36 33
t-5.5 58zM289 391q-19 11 -30 11q-25 0 -43 -18.5t-24 -46.5l-20 -91q-5 -25 2.5 -33t18.5 -8q17 0 33 11t31 27t27 34t20 32l14 61q-8 5 -15 10.5t-14 10.5z" />
    <glyph glyph-name="A" unicode="A" 
d="M360 0v226h-220v-226h-80v420q0 39 15 74t40.5 60.5t60.5 40.5t74 15t74 -15t60.5 -40.5t40.5 -60.5t15 -74v-420h-80zM360 432q0 22 -9 41t-24 33.5t-35 23t-42 8.5t-42 -8.5t-35 -22.5t-24 -33.5t-9 -40.5v-134h220v133z" />
    <glyph glyph-name="B" unicode="B" 
d="M450 179q0 -37 -14 -69.5t-38.5 -57t-57 -38.5t-69.5 -14h-211v600h223q32 0 60 -12t49 -33t33.5 -49t12.5 -60q0 -38 -19 -70.5t-49 -52.5q35 -22 57.5 -60.5t22.5 -83.5zM353 443q0 35 -25 60t-60 25h-128v-169h128q18 0 33 6.5t26.5 18t18 27t6.5 32.5h1zM365 179
q0 22 -8.5 41.5t-23 34t-33.5 23t-41 8.5h-119v-214h119q22 0 41 8.5t33.5 23t23 34t8.5 41.5z" />
    <glyph glyph-name="C" unicode="C" 
d="M440 37q-51 -25 -97 -36t-93 -11q-39 0 -74 15t-60.5 40.5t-40.5 60.5t-15 74v240q0 39 15 74t40.5 60.5t60.5 40.5t74 15q45 0 90 -10.5t96 -34.5l-19 -60q-45 19 -87.5 26t-79.5 7q-22 0 -42 -8.5t-35 -22.5t-24 -33.5t-9 -40.5v-266q0 -21 9 -40.5t24 -33.5t35 -22.5
t42 -8.5q38 0 81.5 8t90.5 28l18 -61v0z" />
    <glyph glyph-name="D" unicode="D" 
d="M440 190q0 -39 -15 -74t-40.5 -60.5t-60.5 -40.5t-74 -15h-190v600h190q39 0 74 -15t60.5 -40.5t40.5 -60.5t15 -74v-220v0zM360 422q0 22 -9 41t-24 33.5t-35 23t-42 8.5h-110v-456l110 1q22 0 42 8t35 22.5t24 33.5t9 40v245z" />
    <glyph glyph-name="E" unicode="E" 
d="M60 0v600h380v-72h-300v-169h250v-73h-250v-213h300v-73h-380z" />
    <glyph glyph-name="F" unicode="F" 
d="M140 528v-169h250v-73h-250v-286h-80v600h380v-72h-300z" />
    <glyph glyph-name="G" unicode="G" 
d="M250 -10q-39 0 -74 15t-60.5 40.5t-40.5 60.5t-15 74v240q0 39 15 74t40.5 60.5t60.5 40.5t74 15q45 0 90 -10.5t96 -34.5l-19 -60q-45 19 -87.5 26t-79.5 7q-22 0 -42 -8.5t-35 -22.5t-24 -33.5t-9 -40.5v-266q0 -21 9 -40.5t24 -33.5t35 -22.5t42 -8.5q26 0 53.5 3
t56.5 11v177h-130v70h210v-286q-51 -25 -97 -36t-93 -11z" />
    <glyph glyph-name="H" unicode="H" 
d="M360 0v286h-220v-286h-80v600h80v-241h220v241h80v-600h-80z" />
    <glyph glyph-name="I" unicode="I" 
d="M60 0v65l150 10v450l-150 10v65h380v-65l-150 -10v-450l150 -10v-65h-380z" />
    <glyph glyph-name="J" unicode="J" 
d="M440 175q0 -39 -15 -73t-41 -59t-60.5 -39t-73.5 -14q-48 0 -93 11.5t-97 36.5l20 60q47 -20 89 -28t80 -8q22 0 42 8.5t35.5 22.5t24.5 33.5t9 40.5v360h-260v73h340v-425v0z" />
    <glyph glyph-name="K" unicode="K" 
d="M366 0l-194 266l-32 -39v-227h-80v600h80v-265l210 265h95l-222 -280l242 -320h-99z" />
    <glyph glyph-name="L" unicode="L" 
d="M60 0v600h80v-527h310v-73h-390z" />
    <glyph glyph-name="M" unicode="M" 
d="M380 0v454l-96 -219h-68l-96 219v-454h-80v600h90l120 -274l120 274h90v-600h-80z" />
    <glyph glyph-name="N" unicode="N" 
d="M357 0l-217 438v-438h-80v600h83l217 -438v438h80v-600h-83z" />
    <glyph glyph-name="O" unicode="O" 
d="M440 180q0 -39 -15 -74t-40.5 -60.5t-60.5 -40.5t-74 -15t-74 15t-60.5 40.5t-40.5 60t-15 73.5v241q0 39 15 74t40.5 60.5t60.5 40.5t74 15t74 -15t60.5 -40.5t40.5 -60.5t15 -74v-240v0zM360 432q0 22 -9 41t-24 33.5t-35 23t-42 8.5t-42 -8.5t-35 -22.5t-24 -33.5
t-9 -40.5v-265q0 -22 9 -41t24 -33.5t35 -23t42 -8.5t42 8.5t35 22.5t24 33.5t9 40.5v265z" />
    <glyph glyph-name="P" unicode="P" 
d="M448 422q0 -37 -14 -69t-38 -56t-56.5 -38t-69.5 -14h-130v-245h-80v600h210q37 0 69.5 -14t56.5 -38t38 -56.5t14 -69.5zM365 423q0 22 -8.5 41t-23 33.5t-34 22.5t-41.5 8h-118v-211h118q22 0 41.5 8.5t34 22.5t23 33.5t8.5 41.5z" />
    <glyph glyph-name="Q" unicode="Q" 
d="M493 -121q-41 -23 -75 -34.5t-78 -11.5q-37 0 -64.5 13.5t-45.5 37t-27.5 53.5t-11.5 63q-29 9 -54 26.5t-43 40.5t-28.5 52t-10.5 60v241q0 39 15.5 74t42.5 60.5t62.5 40.5t74.5 15t74.5 -15t62.5 -40.5t42.5 -60.5t15.5 -74v-240q0 -37 -14 -69.5t-38 -58t-55.5 -41.5
t-67.5 -19q2 -37 20 -63t50 -26q21 0 37 2t30 6.5t28 11t32 15.5l26 -59v0zM365 432q0 22 -10 41t-26 33.5t-36.5 23t-42.5 8.5t-42.5 -8.5t-36.5 -22.5t-26 -33.5t-10 -40.5v-265q0 -22 10 -41t26 -33.5t36.5 -23t42.5 -8.5t42.5 8.5t36.5 23t26 33.5t10 41v264z" />
    <glyph glyph-name="R" unicode="R" 
d="M377 0l-146 246h-91v-246h-80v600h205q37 0 69.5 -14t56.5 -38t38 -56.5t14 -69.5q0 -60 -35.5 -105.5t-89.5 -62.5l152 -254h-93zM360 423q0 22 -8.5 41t-23 33.5t-34 22.5t-41.5 8h-113v-210h113q22 0 41.5 8t34 22.5t23 33.5t8.5 41z" />
    <glyph glyph-name="S" unicode="S" 
d="M448 161q0 -42 -17.5 -73.5t-46.5 -53.5t-67.5 -33t-79.5 -11q-51 0 -93 16t-93 50l31 57q47 -28 82 -41t73 -13q29 0 52.5 8t40.5 22t26.5 32.5t9.5 39.5q0 37 -22.5 60t-56.5 39.5t-73.5 30.5t-73.5 34t-56.5 50t-22.5 78q0 29 10.5 57t33.5 50t58.5 36t86.5 14
q48 0 89 -14.5t91 -44.5l-34 -58q-45 25 -78 36.5t-68 11.5q-58 0 -82.5 -26t-24.5 -61q0 -33 22.5 -52.5t56.5 -34t73.5 -28.5t73.5 -35.5t56.5 -55t22.5 -87.5z" />
    <glyph glyph-name="T" unicode="T" 
d="M290 528v-528h-80v527h-160v73h400v-72h-160z" />
    <glyph glyph-name="U" unicode="U" 
d="M440 180q0 -39 -15 -74t-40.5 -60.5t-60.5 -40.5t-74 -15t-74 15t-60.5 40.5t-40.5 60t-15 73.5v421h80v-432q0 -22 9 -41t24 -33.5t35 -23t42 -8.5t42 8.5t35 22.5t24 33.5t9 40.5v433h80v-420v0z" />
    <glyph glyph-name="V" unicode="V" 
d="M292 -3h-84l-183 603h86l139 -481l139 481h86z" />
    <glyph glyph-name="W" unicode="W" 
d="M369 -3h-80l-39 195l-39 -195h-80l-111 603h82l76 -460l43 224h58l43 -224l76 460h82z" />
    <glyph glyph-name="X" unicode="X" 
d="M380 0l-131 247l-129 -247h-95l178 317l-164 283h90l121 -215l122 215h91l-167 -283l179 -317h-95z" />
    <glyph glyph-name="Y" unicode="Y" 
d="M290 211v-211h-80v211l-185 389h89l136 -302l136 302h89z" />
    <glyph glyph-name="Z" unicode="Z" 
d="M50 0v55l286 472h-276v73h380v-55l-286 -472h296v-73h-400z" />
    <glyph glyph-name="bracketleft" unicode="[" 
d="M100 -150v900h300v-75h-220v-750h220v-75h-300z" />
    <glyph glyph-name="backslash" unicode="\" 
d="M359 -20l-307 640h90l306 -640h-89z" />
    <glyph glyph-name="bracketright" unicode="]" 
d="M100 -150v75h220v750h-220v75h300v-900h-300z" />
    <glyph glyph-name="asciicircum" unicode="^" 
d="M366 524l-116 94l-116 -94l-36 35l117 129h71l118 -129z" />
    <glyph glyph-name="underscore" unicode="_" 
d="M60 -112v77h380v-77h-380z" />
    <glyph glyph-name="grave" unicode="`" 
d="M245 510l-119 125l74 41l95 -149z" />
    <glyph glyph-name="a" unicode="a" 
d="M449 -10q-15 0 -32.5 3.5t-32 11.5t-23.5 23t-8 37l2 29h-5q-16 -19 -33.5 -37.5t-38.5 -33.5t-47.5 -24t-60.5 -9q-40 0 -64.5 12t-37.5 28.5t-17.5 34.5t-4.5 31q0 48 29.5 80t74.5 52t98.5 28.5t102.5 8.5v79q0 1 -1 10t-7 20t-20 20t-40 9q-32 0 -61 -6t-51.5 -13.5
t-49.5 -19.5l-21 51q9 5 28 14t44.5 18t55 16t59.5 7q32 0 58.5 -9t45.5 -25.5t29.5 -39t10.5 -49.5v-263q0 -2 1 -7t4 -10t8.5 -8.5t14.5 -3.5zM351 220q-55 0 -97.5 -10t-70.5 -26t-42.5 -36.5t-14.5 -41.5q0 -24 18.5 -36.5t41.5 -12.5q38 0 68.5 14.5t52 31.5t44.5 46
v71z" />
    <glyph glyph-name="b" unicode="b" 
d="M440 169q0 -37 -15 -69.5t-40.5 -57t-60.5 -38.5t-74 -14q-15 0 -38.5 4.5t-50 14t-53.5 24t-48 34.5v593h80v-240q0 -11 -1.5 -30.5t-2.5 -33t-1 -15.5h5q11 15 26.5 37t36.5 42.5t48.5 35t61.5 14.5q35 0 59 -12.5t39 -32t22 -44t7 -47.5v-165v0zM360 334
q0 38 -16 51.5t-34 13.5q-32 0 -61 -21t-51.5 -48t-37.5 -53t-20 -37v-149q29 -17 58 -24.5t52 -7.5q21 0 41 8t35.5 21t24.5 30.5t9 36.5v179z" />
    <glyph glyph-name="c" unicode="c" 
d="M440 37q-51 -25 -97 -36t-93 -11q-39 0 -74 15t-60.5 40.5t-40.5 60.5t-15 74v100q0 39 15 74t40.5 60.5t60.5 40.5t74 15q45 0 90 -10.5t96 -34.5l-19 -60q-45 19 -87.5 26t-79.5 7q-22 0 -42 -8.5t-35 -22.5t-24 -33.5t-9 -40.5v-126q0 -21 9 -40.5t24 -33.5t35 -22.5
t42 -8.5q38 0 81.5 8t90.5 28l18 -61v0z" />
    <glyph glyph-name="d" unicode="d" 
d="M360 0v68q0 9 1.5 21.5t2.5 20.5t1 9h-5q-11 -15 -26.5 -37t-36.5 -42.5t-48.5 -35t-61.5 -14.5t-58.5 12.5t-39.5 32t-22 44t-7 47.5v165q0 37 15 69.5t40.5 57t60.5 38.5t74 14q23 0 52.5 -8t57.5 -20v218h80v-660h-80zM360 369q-29 17 -58 24.5t-52 7.5q-21 0 -41 -8
t-35.5 -21t-24.5 -30.5t-9 -36.5v-179q0 -38 16 -51.5t34 -13.5q32 0 61 21t51.5 48t38 53t19.5 37v149z" />
    <glyph glyph-name="e" unicode="e" 
d="M440 37q-51 -25 -97 -36t-93 -11q-39 0 -74 15t-60.5 40.5t-40.5 60.5t-15 74v100q0 39 15 74t40.5 60.5t60.5 40.5t74 15t74 -15t60.5 -40.5t40.5 -60.5t15 -74v-82h-300v-31q0 -21 9 -40.5t24 -33.5t35 -22.5t42 -8.5q38 0 81.5 8t90.5 28l18 -61v0zM360 287
q0 23 -8.5 43t-23.5 35t-35 24t-43 9t-43 -9t-35 -24t-23.5 -35t-8.5 -43v-20h220v20z" />
    <glyph glyph-name="f" unicode="f" 
d="M450 563q-40 20 -69.5 27.5t-64.5 7.5q-24 0 -42 -8t-30 -21t-18 -30t-6 -34v-45h200v-70h-200v-390h-80v390h-100v70h100v36q0 32 9.5 63t30.5 55.5t53.5 40t77.5 15.5q42 0 82 -11.5t85 -36.5z" />
    <glyph glyph-name="g" unicode="g" 
d="M440 -10q0 -39 -14 -74t-40 -60.5t-62 -40.5t-81 -15q-48 0 -96 11.5t-100 36.5l21 60q46 -20 91 -28t83 -8q22 0 43 8t37.5 22.5t27 33.5t10.5 41v63q0 11 1.5 30.5t2.5 33t1 15.5h-5q-11 -15 -26.5 -37t-36.5 -42.5t-48.5 -35t-61.5 -14.5t-58.5 12.5t-39.5 32t-22 44
t-7 47.5v165q0 37 15 69.5t40.5 57t60.5 38.5t74 14q15 0 38.5 -4.5t50 -14t53.5 -24t48 -34.5v-403v0zM360 369q-29 17 -58 24.5t-52 7.5q-21 0 -41 -8t-35.5 -21t-24.5 -30.5t-9 -36.5v-179q0 -38 16 -51.5t34 -13.5q32 0 61 21t51.5 48t38 53t19.5 37v149z" />
    <glyph glyph-name="h" unicode="h" 
d="M360 0v334q0 38 -16 51.5t-34 13.5q-32 0 -61 -21t-51.5 -48t-37.5 -53t-20 -37v-240h-80v660h80v-242q0 -10 -1.5 -29t-2.5 -32.5t-1 -15.5h5q11 15 26.5 37t36.5 42.5t48.5 35t61.5 14.5q35 0 59 -12.5t39 -32t22 -44t7 -47.5v-334h-80z" />
    <glyph glyph-name="i" unicode="i" 
d="M300 565q0 -21 -14.5 -35.5t-35.5 -14.5t-35.5 14.5t-14.5 35.5t14.5 35.5t35.5 14.5t35.5 -14.5t14.5 -35.5zM60 0v65l150 10v310h-140v64l220 11v-385l150 -10v-65h-380z" />
    <glyph glyph-name="j" unicode="j" 
d="M423 565q0 -21 -15 -35.5t-35 -14.5q-21 0 -36 14.5t-15 35.5t15 35.5t35 14.5q21 0 36 -14.5t15 -35.5zM413 -10q0 -39 -14 -74t-40 -60.5t-62.5 -40.5t-81.5 -15q-47 0 -95 11.5t-100 36.5l20 60q47 -20 92 -28t83 -8q22 0 43 8.5t37.5 22.5t27 33.5t10.5 40.5v408
h-251v64l330 11v-470h1z" />
    <glyph glyph-name="k" unicode="k" 
d="M367 0l-163 225l-64 -63v-162h-80v660h80v-332q0 -10 -1.5 -29t-3 -32.5t-1.5 -15.5h6l224 220l71 -32l-174 -165l204 -274h-98z" />
    <glyph glyph-name="l" unicode="l" 
d="M60 0v65l150 10v510h-140v64l220 11v-585l150 -10v-65h-380z" />
    <glyph glyph-name="m" unicode="m" 
d="M399 0v354q0 24 -7 29.5t-13 5.5q-15 0 -30.5 -15t-28.5 -33t-22 -34t-10 -18v-289h-76v354q0 24 -7 29.5t-13 5.5q-15 0 -30.5 -15t-28.5 -33t-22 -34t-10 -18v-289h-76v460h76v-49q0 -10 -1.5 -24.5t-2.5 -23.5t-1 -10h4q4 8 16 27t29 39t37 35.5t41 15.5q31 0 49 -21
t18 -61v-27q5 6 16.5 24t28 37t35.5 33.5t37 14.5q35 0 51.5 -25.5t16.5 -71.5v-373h-76z" />
    <glyph glyph-name="n" unicode="n" 
d="M360 0v334q0 38 -16 51.5t-34 13.5q-32 0 -61 -21.5t-51.5 -49.5t-37.5 -55t-20 -38v-235h-80v460h80v-67q0 -10 -1.5 -24t-2.5 -23t-1 -10h5q11 15 26.5 38t36.5 44t48.5 36.5t61.5 15.5q35 0 59 -12.5t39 -32t22 -44t7 -47.5v-334h-80z" />
    <glyph glyph-name="o" unicode="o" 
d="M440 180q0 -39 -15 -74t-40.5 -60.5t-60.5 -40.5t-74 -15t-74 15t-60.5 40.5t-40.5 60t-15 73.5v101q0 39 15 74t40.5 60.5t60.5 40.5t74 15t74 -15t60.5 -40.5t40.5 -60.5t15 -74v-100v0zM360 287q0 23 -8.5 43t-23.5 35t-35 24t-43 9t-43 -9t-35 -24t-23.5 -35
t-8.5 -43v-114q0 -23 8.5 -43t23.5 -35t35 -24t43 -9t43 9t35 24t23.5 35t8.5 43v114z" />
    <glyph glyph-name="p" unicode="p" 
d="M440 169q0 -37 -15 -69.5t-40.5 -57t-60.5 -38.5t-74 -14q-23 0 -52.5 8t-57.5 20v-208h-80v650h80v-68q0 -9 -1.5 -21.5t-2.5 -20.5t-1 -9h5q11 15 26.5 37t36.5 42.5t48.5 35t61.5 14.5q35 0 59 -12.5t39 -32t22 -44t7 -47.5v-165v0zM360 334q0 38 -16 51.5t-34 13.5
q-32 0 -61 -21t-51.5 -48t-37.5 -53t-20 -37v-149q29 -17 58 -24.5t52 -7.5q21 0 41 8t35.5 21t24.5 30.5t9 36.5v179z" />
    <glyph glyph-name="q" unicode="q" 
d="M360 -190v230q0 11 1.5 30.5t2.5 33t1 15.5h-5q-11 -15 -26.5 -37t-36.5 -42.5t-48.5 -35t-61.5 -14.5t-58.5 12.5t-39.5 32t-22 44t-7 47.5v165q0 37 15 69.5t40.5 57t60.5 38.5t74 14q15 0 38.5 -4.5t50 -14t53.5 -24t48 -34.5v-583h-80zM360 369q-29 17 -58 24.5
t-52 7.5q-21 0 -41 -8t-35.5 -21t-24.5 -30.5t-9 -36.5v-179q0 -38 16 -51.5t34 -13.5q32 0 61 21t51.5 48t38 53t19.5 37v149z" />
    <glyph glyph-name="r" unicode="r" 
d="M432 372q-28 14 -53 11.5t-46.5 -14.5t-39 -31t-30.5 -38.5t-21.5 -36t-11.5 -23.5v-165l120 -10v-65h-325v65l125 10v314h-115v61l194 10v-77q0 -10 -1.5 -24t-3 -23t-1.5 -10h5q10 15 24 39.5t34 47.5t47 40t63 17q19 0 34 -5.5t37 -16.5z" />
    <glyph glyph-name="s" unicode="s" 
d="M450 134q0 -38 -17.5 -65t-46.5 -44.5t-66.5 -26t-77.5 -8.5q-49 0 -93.5 12.5t-98.5 39.5l29 54q47 -21 85.5 -30t77.5 -9q63 0 93 21.5t30 50.5q0 28 -22 43.5t-55 25.5t-72 18.5t-72 22.5t-55 37.5t-22 63.5q0 26 11 49.5t34 41.5t58.5 28.5t84.5 10.5q23 0 44 -2.5
t42.5 -8.5t44 -14.5t48.5 -20.5l-30 -55q-45 18 -78.5 26t-70.5 8q-31 0 -51 -5t-31.5 -13.5t-16 -20t-4.5 -23.5q0 -21 22 -33t55 -20.5t72 -18t72 -25.5t55 -41.5t22 -68.5z" />
    <glyph glyph-name="t" unicode="t" 
d="M455 38q-45 -25 -83.5 -36.5t-80.5 -11.5q-45 0 -77.5 15t-53.5 40.5t-30.5 60t-9.5 73.5v212h-90v69h90v83l80 55v-138h200v-69h-200v-224q0 -44 23.5 -74.5t72.5 -30.5q35 0 68.5 7.5t72.5 27.5l18 -59v0z" />
    <glyph glyph-name="u" unicode="u" 
d="M360 0v67q0 10 1.5 24t2.5 23t1 10h-5q-11 -15 -26.5 -38t-36.5 -44t-48.5 -36.5t-61.5 -15.5t-58.5 12.5t-39.5 32t-22 44t-7 47.5v334h80v-334q0 -38 16 -51.5t34 -13.5q32 0 61 21.5t51.5 49.5t38 55t19.5 38v235h80v-460h-80z" />
    <glyph glyph-name="v" unicode="v" 
d="M289 -3h-78l-184 463h89l134 -367l134 367h89z" />
    <glyph glyph-name="w" unicode="w" 
d="M366 -3h-74l-42 197l-42 -197h-74l-112 463h82l71 -367l41 213h68l41 -213l71 367h82z" />
    <glyph glyph-name="x" unicode="x" 
d="M373 0l-123 177l-123 -177h-100l173 235l-155 225h94l111 -166l111 166h94l-155 -225l173 -235h-100z" />
    <glyph glyph-name="y" unicode="y" 
d="M290 -56q-10 -27 -24.5 -53t-37 -46t-54.5 -32.5t-77 -12.5q-14 0 -29 1.5t-45 6.5l9 71q23 -6 43 -9t38 -1q41 4 69 30.5t41 91.5l-190 469h88l143 -372l121 372h88z" />
    <glyph glyph-name="z" unicode="z" 
d="M50 0v51l280 343h-270v66h380v-51l-278 -343h288v-66h-400z" />
    <glyph glyph-name="braceleft" unicode="{" 
d="M420 -150q-47 0 -85.5 14t-66.5 39t-43 57.5t-15 70.5v129q0 20 -9.5 37.5t-26.5 30.5t-41 21t-53 8v70q29 0 53 8t41 21t26.5 31t9.5 37v145q0 38 15 70.5t43 57.5t66.5 39t85.5 14v-70q-29 0 -53 -8t-41 -21t-26.5 -30.5t-9.5 -37.5v-145q0 -46 -22 -84.5t-59 -61.5
q37 -23 59 -61.5t22 -84.5v-129q0 -20 9.5 -37.5t26.5 -30.5t41 -21t53 -8v-70v0z" />
    <glyph glyph-name="bar" unicode="|" 
d="M210 -20v640h80v-640h-80z" />
    <glyph glyph-name="braceright" unicode="}" 
d="M420 257q-29 0 -53 -8t-41 -21t-26.5 -30.5t-9.5 -37.5v-129q0 -38 -15 -70.5t-43 -57.5t-66.5 -39t-85.5 -14v70q29 0 53 8t41 21t26.5 30.5t9.5 37.5v129q0 46 22 84.5t59 61.5q-37 23 -59 61.5t-22 84.5v145q0 20 -9.5 37.5t-26.5 30.5t-41 21t-53 8v70q47 0 85.5 -14
t66.5 -39t43 -57.5t15 -70.5v-145q0 -19 9.5 -37t26.5 -31t41 -21t53 -8v-70v0z" />
    <glyph glyph-name="asciitilde" unicode="~" 
d="M384 575q-18 -21 -37.5 -32t-50.5 -11q-17 0 -29.5 4.5t-23.5 12t-21.5 16.5t-23.5 19q-12 9 -33.5 1t-44.5 -36l-32 30q12 14 22.5 28t23 24.5t28 17t36.5 6.5q18 0 31 -6.5t24 -15t21 -17t22 -12.5q10 -3 18.5 -4t18 2.5t20.5 13t26 27.5l34 -31q-13 -17 -18.5 -24.5
t-10.5 -12.5z" />
    <glyph glyph-name="Aring" 
d="M360 0v226h-220v-226h-80v420q0 39 15 74t40.5 60.5t60.5 40.5t74 15t74 -15t60.5 -40.5t40.5 -60.5t15 -74v-420h-80zM360 432q0 22 -9 41t-24 33.5t-35 23t-42 8.5t-42 -8.5t-35 -22.5t-24 -33.5t-9 -40.5v-134h220v133zM325 705q0 -31 -22 -53t-53 -22t-53 22t-22 53
t22 53t53 22t53 -22t22 -53zM285 705q0 14 -10.5 24.5t-24.5 10.5t-24.5 -10.5t-10.5 -24.5t10.5 -24.5t24.5 -10.5t24.5 10.5t10.5 24.5z" />
    <glyph glyph-name="ccedilla" 
d="M440 37q-93 -44 -176 -47l-12 -42q35 2 58 -17.5t23 -45.5q0 -31 -23 -53t-62 -22q-24 0 -43.5 5.5t-40.5 19.5l14 30q14 -7 30.5 -11t31 -3t24.5 9t10 25q0 14 -18.5 23t-45.5 5l-6 12l10 69q-33 6 -61 22.5t-49 41.5t-32.5 56t-11.5 66v100q0 39 15 74t40.5 60.5
t60.5 40.5t74 15q45 0 90 -10.5t96 -34.5l-19 -60q-45 19 -87.5 26t-79.5 7q-22 0 -42 -8.5t-35 -22.5t-24 -33.5t-9 -40.5v-126q0 -21 9 -40.5t24 -33.5t35 -22.5t42 -8.5q38 0 81.5 8t90.5 28l18 -61v0z" />
    <glyph glyph-name="eacute" 
d="M440 37q-51 -25 -97 -36t-93 -11q-39 0 -74 15t-60.5 40.5t-40.5 60.5t-15 74v100q0 39 15 74t40.5 60.5t60.5 40.5t74 15t74 -15t60.5 -40.5t40.5 -60.5t15 -74v-82h-300v-31q0 -21 9 -40.5t24 -33.5t35 -22.5t42 -8.5q38 0 81.5 8t90.5 28l18 -61v0zM360 287
q0 23 -8.5 43t-23.5 35t-35 24t-43 9t-43 -9t-35 -24t-23.5 -35t-8.5 -43v-20h220v20zM255 510l-50 17l95 149l74 -41z" />
    <glyph glyph-name="egrave" 
d="M245 510l-119 125l74 41l95 -149zM440 37q-51 -25 -97 -36t-93 -11q-39 0 -74 15t-60.5 40.5t-40.5 60.5t-15 74v100q0 39 15 74t40.5 60.5t60.5 40.5t74 15t74 -15t60.5 -40.5t40.5 -60.5t15 -74v-82h-300v-31q0 -21 9 -40.5t24 -33.5t35 -22.5t42 -8.5q38 0 81.5 8
t90.5 28l18 -61v0zM360 287q0 23 -8.5 43t-23.5 35t-35 24t-43 9t-43 -9t-35 -24t-23.5 -35t-8.5 -43v-20h220v20z" />
    <glyph glyph-name="ecircumflex" 
d="M440 37q-51 -25 -97 -36t-93 -11q-39 0 -74 15t-60.5 40.5t-40.5 60.5t-15 74v100q0 39 15 74t40.5 60.5t60.5 40.5t74 15t74 -15t60.5 -40.5t40.5 -60.5t15 -74v-82h-300v-31q0 -21 9 -40.5t24 -33.5t35 -22.5t42 -8.5q38 0 81.5 8t90.5 28l18 -61v0zM360 287
q0 23 -8.5 43t-23.5 35t-35 24t-43 9t-43 -9t-35 -24t-23.5 -35t-8.5 -43v-20h220v20zM366 524l-116 94l-116 -94l-36 35l117 129h71l118 -129z" />
    <glyph glyph-name="ugrave" 
d="M245 510l-119 125l74 41l95 -149zM360 0v67q0 10 1.5 24t2.5 23t1 10h-5q-11 -15 -26.5 -38t-36.5 -44t-48.5 -36.5t-61.5 -15.5t-58.5 12.5t-39.5 32t-22 44t-7 47.5v334h80v-334q0 -38 16 -51.5t34 -13.5q32 0 61 21.5t51.5 49.5t38 55t19.5 38v235h80v-460h-80z" />
    <glyph glyph-name="ucircumflex" 
d="M360 0v67q0 10 1.5 24t2.5 23t1 10h-5q-11 -15 -26.5 -38t-36.5 -44t-48.5 -36.5t-61.5 -15.5t-58.5 12.5t-39.5 32t-22 44t-7 47.5v334h80v-334q0 -38 16 -51.5t34 -13.5q32 0 61 21.5t51.5 49.5t38 55t19.5 38v235h80v-460h-80zM366 524l-116 94l-116 -94l-36 35
l117 129h71l118 -129z" />
    <glyph glyph-name="dagger" unicode="&#xa0;" 
d="M290 271v-281h-80v281l-180 -8v80l180 -8v285h80v-285l180 8v-80z" />
    <glyph glyph-name="degree" unicode="&#xa1;" 
d="M385 495q0 -28 -10.5 -52.5t-29 -43t-43 -29t-52.5 -10.5t-52.5 10.5t-43 29t-29 43t-10.5 52.5t10.5 52.5t29 43t43 29t52.5 10.5t52.5 -10.5t43 -29t29 -43t10.5 -52.5zM315 495q0 27 -19 46t-46 19t-46 -19t-19 -46t19 -46t46 -19t46 19t19 46z" />
    <glyph glyph-name="cent" unicode="&#xa2;" 
d="M440 37q-69 -34 -137 -42v-65h-80v62q-34 5 -64 21.5t-52 41.5t-34.5 57t-12.5 68v100q0 36 12.5 68t34.5 57t51.5 41.5t63.5 21.5v62h80v-65q68 -8 134 -40l-19 -60q-58 25 -115 29v-328q30 3 60.5 10.5t59.5 21.5l18 -61v0zM223 393q-35 -8 -59 -36t-24 -64v-126
q0 -36 24 -64t58 -36z" />
    <glyph glyph-name="sterling" unicode="&#xa3;" 
d="M60 70h50v362q0 39 11.5 71.5t33.5 56.5t53.5 37t71.5 13q23 0 43.5 -2.5t41 -8.5t42 -15t47.5 -22l-35 -57q-22 9 -40 16t-34 11t-31.5 6t-33.5 2q-40 0 -65 -26.5t-25 -67.5v-89h210v-71h-210v-216h260v-70h-390v70z" />
    <glyph glyph-name="section" unicode="&#xa4;" 
d="M237 -83q-51 0 -96 16t-96 51l30 59q48 -29 86 -42t76 -13q29 0 53 8.5t41 22.5t27 34t10 42q0 37 -23 58.5t-57.5 37t-74.5 28t-74.5 31.5t-57.5 48t-23 77q0 40 16 75q-16 29 -16 66q0 32 11 62t34 53t59.5 37.5t87.5 14.5q48 0 90 -14.5t92 -46.5l-33 -60
q-46 26 -80 38t-69 12q-57 0 -83.5 -26.5t-26.5 -68.5q0 -32 23 -50.5t57.5 -31.5t74.5 -25.5t74.5 -33t57.5 -53.5t23 -87q0 -37 -14 -70q14 -31 14 -71q0 -44 -18 -77.5t-47.5 -56t-68 -33.5t-79.5 -11zM368 236q0 31 -17.5 51.5t-43.5 35t-55.5 23.5t-53.5 18
q-14 6 -28.5 12t-28.5 13q-1 -3 -1 -7v-6q0 -32 22 -50.5t64 -33.5q36 -14 72.5 -25t69.5 -31z" />
    <glyph glyph-name="bullet" unicode="&#xa5;" 
d="M350 268q0 -42 -29 -71t-71 -29t-71 29t-29 71t29 71t71 29t71 -29t29 -71z" />
    <glyph glyph-name="paragraph" unicode="&#xa6;" 
d="M230 256q-37 1 -70 14.5t-57.5 37t-38.5 54.5t-14 66q0 36 14.5 67t39 54.5t58 37t71.5 13.5h217v-600h-80v256h-60v-256h-80v256v0zM310 534v-212h60v212h-60zM230 534q-23 0 -43 -8.5t-35 -23t-23.5 -33.5t-8.5 -41t8.5 -41t23.5 -33.5t35 -23t43 -8.5v212z" />
    <glyph glyph-name="germandbls" unicode="&#xa7;" 
d="M207 56q47 0 78.5 8.5t50.5 23.5t26.5 34.5t7.5 41.5q0 30 -15.5 47t-34 30.5t-34 29t-15.5 43.5q0 21 12 40t27 35.5t27 31.5t12 28q0 40 -28 65t-77 25t-76.5 -24.5t-27.5 -65.5v-559h-80v559q0 39 15 69.5t40 50.5t58 30.5t70 10.5t71 -10.5t59.5 -30.5t40.5 -50.5
t15 -69.5q0 -26 -11 -46t-24.5 -36t-24.5 -29t-11 -24q0 -9 14.5 -18.5t31.5 -25.5t31.5 -40.5t14.5 -65.5q0 -46 -17.5 -78.5t-49.5 -53t-77 -29.5t-99 -9v62z" />
    <glyph glyph-name="registered" unicode="&#xa8;" 
d="M495 310q0 -51 -19.5 -95.5t-52.5 -77.5t-77.5 -52.5t-95.5 -19.5t-95.5 19.5t-77.5 52.5t-52.5 77.5t-19.5 95.5t19.5 95.5t52.5 77.5t77.5 52.5t95.5 19.5t95.5 -19.5t77.5 -52.5t52.5 -77.5t19.5 -95.5zM445 310q0 41 -15.5 76.5t-41.5 61.5t-61.5 41.5t-76.5 15.5
q-40 0 -76 -15.5t-62 -41.5t-41.5 -61.5t-15.5 -76.5q0 -40 15.5 -76t41.5 -62t62 -41.5t76 -15.5q41 0 76.5 15.5t61.5 41.5t41.5 62t15.5 76zM313 173l-75 108h-38v-108h-50v280h100q42 0 71 -25t29 -67q0 -31 -17.5 -50.5t-42.5 -25.5l81 -112h-58zM300 361
q0 22 -15 33.5t-37 11.5h-48v-90h48q22 0 37 11.5t15 33.5z" />
    <glyph glyph-name="copyright" unicode="&#xa9;" 
d="M495 310q0 -51 -19.5 -95.5t-52.5 -77.5t-77.5 -52.5t-95.5 -19.5t-95.5 19.5t-77.5 52.5t-52.5 77.5t-19.5 95.5t19.5 95.5t52.5 77.5t77.5 52.5t95.5 19.5t95.5 -19.5t77.5 -52.5t52.5 -77.5t19.5 -95.5zM445 310q0 41 -15.5 76.5t-41.5 61.5t-61.5 41.5t-76.5 15.5
q-40 0 -76 -15.5t-62 -41.5t-41.5 -61.5t-15.5 -76.5q0 -40 15.5 -76t41.5 -62t62 -41.5t76 -15.5q41 0 76.5 15.5t61.5 41.5t41.5 62t15.5 76zM355 182q-30 -17 -57.5 -24t-52.5 -7q-20 0 -39 8t-33.5 21.5t-23.5 31.5t-9 39v115q0 21 9 39.5t23.5 32t33.5 21t39 7.5
q23 0 49.5 -6.5t56.5 -21.5l-22 -40q-25 11 -45.5 16t-38.5 5q-21 0 -38 -14t-17 -31v-130q0 -17 17 -31.5t38 -14.5q40 0 89 23l21 -39v0z" />
    <glyph glyph-name="trademark" unicode="&#xaa;" 
d="M428 293v181l-45 -106h-31l-44 106v-181h-51v280h50l60 -131l61 131h50v-280h-50zM153 525v-232h-50v231h-81v49h210v-48h-79z" />
    <glyph glyph-name="acute" unicode="&#xab;" 
d="M255 510l-50 17l95 149l74 -41z" />
    <glyph glyph-name="dieresis" unicode="&#xac;" 
d="M408 609q0 -25 -17.5 -42.5t-42.5 -17.5q-26 0 -43.5 17.5t-17.5 42.5t17.5 42.5t42.5 17.5q26 0 43.5 -17.5t17.5 -42.5zM214 609q0 -25 -17.5 -42.5t-42.5 -17.5q-26 0 -43.5 17.5t-17.5 42.5t17.5 42.5t42.5 17.5q26 0 43 -17.5t17 -42.5h1z" />
    <glyph glyph-name="notequal" unicode="&#xad;" 
d="M344 402h96v-77h-132l-43 -86h175v-77h-212l-91 -182h-90l91 181h-78v77h115l42 87h-157v77h194l108 218h91z" />
    <glyph glyph-name="notequal" unicode="&#x2260;" 
d="M344 402h96v-77h-132l-43 -86h175v-77h-212l-91 -182h-90l91 181h-78v77h115l42 87h-157v77h194l108 218h91z" />
    <glyph glyph-name="AE" unicode="&#xae;" 
d="M230 0v270h-150v-270h-70v434q0 35 7.5 66.5t25 56t45 39t67.5 14.5q23 0 42 -6t33 -17v13h260v-60h-190v-207h150v-63h-150v-209h190v-61h-260zM230 448q0 47 -17.5 74t-57.5 27t-57.5 -27t-17.5 -74v-115h150v115z" />
    <glyph glyph-name="Oslash" unicode="&#xaf;" 
d="M405 530q17 -23 26 -51t9 -59v-240q0 -39 -15 -74t-40.5 -60.5t-60.5 -40.5t-74 -15q-26 0 -49 6.5t-44 17.5l-16 -34h-89l43 89q-17 23 -26 51t-9 59v241q0 39 15 74t40.5 60.5t60.5 40.5t74 15q25 0 48.5 -6.5t43.5 -17.5l16 34h90zM310 520q-29 18 -60 18
q-22 0 -42 -8.5t-35 -22.5t-24 -33.5t-9 -40.5v-265v-4l170 356v0zM360 432v5l-171 -356q29 -19 61 -19q22 0 42 8.5t35 22.5t24 33.5t9 40.5v265z" />
    <glyph glyph-name="plusminus" unicode="&#xb1;" 
d="M289 307v-159h-77v159h-152v77h151v160h77v-160h152v-77h-151zM60 35v78h380v-78h-380z" />
    <glyph glyph-name="lessequal" unicode="&#xb2;" 
d="M50 304v68l400 157v-76l-305 -115l305 -111v-76zM50 38v77h400v-77h-400z" />
    <glyph glyph-name="lessequal" unicode="&#x2264;" 
d="M50 304v68l400 157v-76l-305 -115l305 -111v-76zM50 38v77h400v-77h-400z" />
    <glyph glyph-name="greaterequal" unicode="&#xb3;" 
d="M50 151v76l305 111l-305 115v76l400 -157v-68zM50 38v77h400v-77h-400z" />
    <glyph glyph-name="greaterequal" unicode="&#x2265;" 
d="M50 151v76l305 111l-305 115v76l400 -157v-68zM50 38v77h400v-77h-400z" />
    <glyph glyph-name="yen" unicode="&#xb4;" 
d="M318 290h122v-65h-150v-46h150v-65h-150v-114h-80v114h-150v64h150v47h-150v64h122l-157 311h89l136 -282l136 282h89z" />
    <glyph glyph-name="mu" unicode="&#xb5;" 
d="M360 0v67q0 10 1.5 24t3 23t1.5 10h-6q-11 -15 -26.5 -38t-36.5 -44.5t-48.5 -36.5t-61.5 -15q-26 0 -47 13v-193h-80v650h80v-334q0 -38 16 -51.5t34 -13.5q32 0 61 21.5t51.5 49.5t38 55t19.5 38v235h80v-460h-80z" />
    <glyph glyph-name="partialdiff" unicode="&#xb6;" 
d="M248 -10q-45 0 -80.5 16t-59.5 42.5t-37 61.5t-13 73q0 37 11.5 70.5t34 59.5t56 41.5t78.5 15.5q17 0 36 -6q-31 38 -65 72.5t-63 60.5t-67 57q54 44 76.5 26t57 -49.5t74 -72.5t74 -87.5t57 -94.5t22.5 -93q0 -30 -10.5 -63.5t-33.5 -62.5t-59.5 -48t-88.5 -19z
M329 271q-17 11 -38.5 19.5t-42.5 8.5q-62 0 -86 -29.5t-24 -86.5q0 -53 27 -88t83 -35q26 0 46.5 11t34.5 28t21.5 39.5t7.5 44.5q0 36 -29 88z" />
    <glyph glyph-name="partialdiff" unicode="&#x2202;" 
d="M248 -10q-45 0 -80.5 16t-59.5 42.5t-37 61.5t-13 73q0 37 11.5 70.5t34 59.5t56 41.5t78.5 15.5q17 0 36 -6q-31 38 -65 72.5t-63 60.5t-67 57q54 44 76.5 26t57 -49.5t74 -72.5t74 -87.5t57 -94.5t22.5 -93q0 -30 -10.5 -63.5t-33.5 -62.5t-59.5 -48t-88.5 -19z
M329 271q-17 11 -38.5 19.5t-42.5 8.5q-62 0 -86 -29.5t-24 -86.5q0 -53 27 -88t83 -35q26 0 46.5 11t34.5 28t21.5 39.5t7.5 44.5q0 36 -29 88z" />
    <glyph glyph-name="summation" unicode="&#xb7;" 
d="M16 0l187 319l-167 281h404v-68h-272l124 -212l-144 -252h292v-68h-424z" />
    <glyph glyph-name="summation" unicode="&#x2211;" 
d="M16 0l187 319l-167 281h404v-68h-272l124 -212l-144 -252h292v-68h-424z" />
    <glyph glyph-name="product" unicode="&#xb8;" 
d="M468 565q-5 -4 -16.5 -14t-26 -20.5t-30 -19.5t-28.5 -12v-499h-80v493q-23 3 -41.5 14t-35.5 17v-524h-80v538q-33 -7 -60 -33l-38 35q16 14 30 27t29.5 22.5t36 15t49.5 5.5q22 0 40 -6.5t34.5 -15t31.5 -16.5t31 -11q10 -2 21.5 -3t26 2.5t31.5 12t38 25.5l37 -33v0z
" />
    <glyph glyph-name="product" unicode="&#x220f;" 
d="M468 565q-5 -4 -16.5 -14t-26 -20.5t-30 -19.5t-28.5 -12v-499h-80v493q-23 3 -41.5 14t-35.5 17v-524h-80v538q-33 -7 -60 -33l-38 35q16 14 30 27t29.5 22.5t36 15t49.5 5.5q22 0 40 -6.5t34.5 -15t31.5 -16.5t31 -11q10 -2 21.5 -3t26 2.5t31.5 12t38 25.5l37 -33v0z
" />
    <glyph glyph-name="pi" unicode="&#xb9;" 
d="M468 425q-5 -4 -16.5 -14t-26 -20.5t-30 -19.5t-28.5 -12v-359h-80v353q-23 3 -41.5 14t-35.5 17v-384h-80v398q-31 -7 -60 -33l-38 35q16 14 30 27t29.5 22.5t36 15t49.5 5.5q22 0 40 -6.5t34.5 -15t31.5 -17t31 -11.5q10 -2 21.5 -2.5t26 2.5t31.5 12t38 26l37 -33v0z
" />
    <glyph glyph-name="pi" unicode="&#x3c0;" 
d="M468 425q-5 -4 -16.5 -14t-26 -20.5t-30 -19.5t-28.5 -12v-359h-80v353q-23 3 -41.5 14t-35.5 17v-384h-80v398q-31 -7 -60 -33l-38 35q16 14 30 27t29.5 22.5t36 15t49.5 5.5q22 0 40 -6.5t34.5 -15t31.5 -17t31 -11.5q10 -2 21.5 -2.5t26 2.5t31.5 12t38 26l37 -33v0z
" />
    <glyph glyph-name="integral" unicode="&#xba;" 
d="M473 559q-17 8 -31 15.5t-27.5 13t-29 9t-35.5 3.5q-35 0 -47.5 -24t-12.5 -73v-521q0 -35 -8 -67.5t-25.5 -58t-46 -41t-70.5 -15.5q-26 0 -52.5 8.5t-47.5 18.5t-47 27l34 57q2 -2 18 -11t43 -19.5t52 -10.5q36 0 53 25.5t17 71.5v521q0 34 6 67t21.5 58.5t43 41
t69.5 15.5q27 0 46.5 -4t37 -11.5t34.5 -17t39 -21.5z" />
    <glyph glyph-name="integral" unicode="&#x222b;" 
d="M473 559q-17 8 -31 15.5t-27.5 13t-29 9t-35.5 3.5q-35 0 -47.5 -24t-12.5 -73v-521q0 -35 -8 -67.5t-25.5 -58t-46 -41t-70.5 -15.5q-26 0 -52.5 8.5t-47.5 18.5t-47 27l34 57q2 -2 18 -11t43 -19.5t52 -10.5q36 0 53 25.5t17 71.5v521q0 34 6 67t21.5 58.5t43 41
t69.5 15.5q27 0 46.5 -4t37 -11.5t34.5 -17t39 -21.5z" />
    <glyph glyph-name="ordfeminine" unicode="&#xbb;" 
d="M366 303q-9 0 -20 2t-19.5 7t-14 14t-4.5 22l1 18h-3q-9 -11 -19.5 -22.5t-23 -20.5t-28.5 -14.5t-37 -5.5q-24 0 -38.5 7t-22.5 17t-10.5 21t-2.5 19q0 29 17.5 48t44.5 31t59 17t62 5v47q0 1 -0.5 6.5t-4 12t-12 12t-24.5 5.5q-25 0 -48 -6t-35 -11t-14 -6l-13 30
q6 3 17.5 8.5t26.5 11t32.5 9.5t35.5 4q38 0 62.5 -21t24.5 -53v-157q0 -3 2.5 -10.5t13.5 -7.5zM307 441q-67 0 -101 -21.5t-34 -46.5q0 -15 11 -22.5t25 -7.5q23 0 41.5 8.5t31 19t26.5 27.5v43z" />
    <glyph glyph-name="ordmasculine" unicode="&#xbc;" 
d="M364 417q0 -24 -9 -44.5t-24.5 -36t-36 -24.5t-44.5 -9t-44.5 9t-36 24.5t-24.5 36t-9 44.5v60q0 24 9 44.5t24.5 36t36 24.5t44.5 9t44.5 -9t36 -24.5t24.5 -36t9 -44.5v-60v0zM316 485q0 26 -20 44.5t-46 18.5t-46 -18.5t-20 -44.5v-75q0 -26 20 -44.5t46 -18.5
t46 18.5t20 44.5v75z" />
    <glyph glyph-name="Omega" unicode="&#xbd;" 
d="M292 0v185q39 15 53.5 39t14.5 53v169q0 19 -9 36.5t-24.5 30.5t-35.5 21t-41 8t-41 -8t-35.5 -21t-24.5 -30.5t-9 -36.5v-169q0 -29 14.5 -53t53.5 -39l-1 -185h-192v70h125v76q-36 24 -58 62t-22 83v141q0 37 15 69.5t40.5 56.5t60.5 38t74 14t74 -14t60.5 -38
t40.5 -56.5t15 -69.5v-141q0 -45 -22 -83t-58 -62v-76h125v-70h-193z" />
    <glyph glyph-name="Omega" unicode="&#x3a9;" 
d="M292 0v185q39 15 53.5 39t14.5 53v169q0 19 -9 36.5t-24.5 30.5t-35.5 21t-41 8t-41 -8t-35.5 -21t-24.5 -30.5t-9 -36.5v-169q0 -29 14.5 -53t53.5 -39l-1 -185h-192v70h125v76q-36 24 -58 62t-22 83v141q0 37 15 69.5t40.5 56.5t60.5 38t74 14t74 -14t60.5 -38
t40.5 -56.5t15 -69.5v-141q0 -45 -22 -83t-58 -62v-76h125v-70h-193z" />
    <glyph glyph-name="ae" unicode="&#xbe;" 
d="M433 2q-14 -6 -31 -9t-42 -3q-41 0 -68 14.5t-44 39.5q-20 -21 -49 -37.5t-69 -16.5t-65.5 13.5t-40 32t-19.5 38.5t-5 32q0 50 20 81t51.5 48.5t71 24t77.5 7.5v76q0 3 -1.5 12t-7 19.5t-15.5 18.5t-28 8q-19 0 -34.5 -3.5t-30 -9.5t-28 -14t-29.5 -17l-30 53
q18 10 35.5 20.5t35 19.5t37 14.5t42.5 5.5q32 0 56.5 -9t41.5 -25q17 16 40.5 25t55.5 9q42 0 69.5 -15t43 -40t21.5 -56t6 -64v-97h-200v-46q0 -48 12.5 -70.5t47.5 -22.5q19 0 32.5 3.5t26 9t25 12.5t29.5 15l27 -57q-23 -17 -39 -25.5t-28 -14.5zM420 308
q0 48 -12.5 70.5t-47.5 22.5t-47.5 -22.5t-12.5 -70.5v-41h120v41v0zM220 202q-49 -1 -77.5 -10.5t-42 -23t-17 -30t-3.5 -32.5q0 -23 17.5 -35t40.5 -12q32 0 53 15t33 35q-2 13 -3 27t-1 29v37z" />
    <glyph glyph-name="oslash" unicode="&#xbf;" 
d="M300 384q-25 14 -52 14q-23 0 -43 -9t-35 -24t-24 -35t-9 -43v-114q0 -20 8 -41zM199 74q11 -5 23 -8.5t25 -3.5q23 0 43 9t35 24t24 35t9 43v114q0 17 -7 36zM397 397q19 -24 30 -54t11 -63v-100q0 -39 -15 -74t-41 -60.5t-60.5 -40.5t-73.5 -15q-24 0 -46 5.5t-42 15.5
l-19 -31h-89l49 79q-20 25 -32 55.5t-12 64.5v101q0 39 15 74t41 60.5t60.5 40.5t73.5 15q50 0 91 -23l20 33h90z" />
    <glyph glyph-name="questiondown" unicode="&#xc0;" 
d="M78 137q0 40 23.5 68.5t53.5 46.5q32 20 59 38t35 44q5 20 0 40.5t-17 44.5l48 23q29 -33 34 -63t-1 -56q-7 -29 -27 -52t-45 -40q-12 -8 -26 -18.5t-27 -22t-21.5 -24t-8.5 -25.5q0 -34 25 -56.5t65 -22.5q33 0 67 11t81 37l25 -52q-49 -31 -88 -47t-86 -16
q-45 0 -77 12.5t-52.5 32.5t-30 45.5t-9.5 51.5zM196 547q0 26 18.5 44.5t44.5 18.5t44 -18.5t18 -44.5t-18 -44t-44 -18t-44.5 18t-18.5 44z" />
    <glyph glyph-name="exclamdown" unicode="&#xc1;" 
d="M313 543q0 -26 -18.5 -44.5t-44.5 -18.5t-44.5 18t-18.5 44t18.5 44.5t44.5 18.5t44.5 -18t18.5 -44zM207 0l5 431h76l5 -431h-86z" />
    <glyph glyph-name="logicalnot" unicode="&#xc2;" 
d="M360 103v127h-300v77h380v-204h-80z" />
    <glyph glyph-name="radical" unicode="&#xc3;" 
d="M218 -3h-77l-89 241h88l44 -146l178 368h89z" />
    <glyph glyph-name="radical" unicode="&#x221a;" 
d="M218 -3h-77l-89 241h88l44 -146l178 368h89z" />
    <glyph glyph-name="florin" unicode="&#xc4;" 
d="M473 559q-17 8 -31 15.5t-27.5 13t-29 9t-35.5 3.5q-35 0 -47.5 -24t-12.5 -73v-150h150v-71h-150v-300q0 -35 -8 -67.5t-25.5 -58t-46 -41t-70.5 -15.5q-26 0 -52.5 8.5t-47.5 18.5t-47 27l34 57q2 -2 18 -11t43 -19.5t52 -10.5q36 0 53 25.5t17 71.5v315h-150v71h150
v135q0 34 6 67t21.5 58.5t43 41t69.5 15.5q27 0 46.5 -4t37 -11.5t34.5 -17t39 -21.5z" />
    <glyph glyph-name="approxequal" unicode="&#xc5;" 
d="M384 331q-18 -21 -37.5 -32t-50.5 -11q-17 0 -29.5 4.5t-23.5 12t-21.5 16.5t-23.5 19q-12 9 -33.5 1t-44.5 -36l-32 30q12 14 22.5 28t23 24.5t28 17t36.5 6.5q18 0 31 -6.5t24 -15t21 -17t22 -12.5q10 -3 18.5 -4t18 2.5t20.5 13t26 27.5l34 -31q-13 -17 -18.5 -24.5
t-10.5 -12.5zM384 169q-18 -21 -37.5 -32t-50.5 -11q-17 0 -29.5 4.5t-23.5 12t-21.5 16.5t-23.5 19q-12 9 -33.5 1t-44.5 -36l-32 30q12 14 22.5 28t23 24.5t28 17t36.5 6.5q18 0 31 -6.5t24 -15t21 -17t22 -12.5q10 -3 18.5 -4t18 2.5t20.5 13t26 27.5l34 -31
q-13 -17 -18.5 -24.5t-10.5 -12.5z" />
    <glyph glyph-name="approxequal" unicode="&#x2248;" 
d="M384 331q-18 -21 -37.5 -32t-50.5 -11q-17 0 -29.5 4.5t-23.5 12t-21.5 16.5t-23.5 19q-12 9 -33.5 1t-44.5 -36l-32 30q12 14 22.5 28t23 24.5t28 17t36.5 6.5q18 0 31 -6.5t24 -15t21 -17t22 -12.5q10 -3 18.5 -4t18 2.5t20.5 13t26 27.5l34 -31q-13 -17 -18.5 -24.5
t-10.5 -12.5zM384 169q-18 -21 -37.5 -32t-50.5 -11q-17 0 -29.5 4.5t-23.5 12t-21.5 16.5t-23.5 19q-12 9 -33.5 1t-44.5 -36l-32 30q12 14 22.5 28t23 24.5t28 17t36.5 6.5q18 0 31 -6.5t24 -15t21 -17t22 -12.5q10 -3 18.5 -4t18 2.5t20.5 13t26 27.5l34 -31
q-13 -17 -18.5 -24.5t-10.5 -12.5z" />
    <glyph glyph-name="Delta" unicode="&#xc6;" 
d="M21 0l190 463h78l190 -463h-458zM250 367l-112 -296h224z" />
    <glyph glyph-name="Delta" unicode="&#x2206;" 
d="M21 0l190 463h78l190 -463h-458zM250 367l-112 -296h224z" />
    <glyph glyph-name="guillemotleft" unicode="&#xc7;" 
d="M237 237v64l236 154v-79l-161 -106l161 -104v-79zM27 237v64l236 154v-79l-161 -106l161 -104v-79z" />
    <glyph glyph-name="guillemotright" unicode="&#xc8;" 
d="M237 87v79l161 104l-161 106v79l236 -154v-64zM27 87v79l161 104l-161 106v79l236 -154v-64z" />
    <glyph glyph-name="ellipsis" unicode="&#xc9;" 
d="M473 58q0 -26 -18.5 -44.5t-44.5 -18.5t-44.5 18t-18.5 44t18.5 44.5t44.5 18.5t44.5 -18t18.5 -44zM313 58q0 -26 -18.5 -44.5t-44.5 -18.5t-44.5 18t-18.5 44t18.5 44.5t44.5 18.5t44 -18t18 -44h1zM153 58q0 -26 -18.5 -44.5t-44.5 -18.5t-44.5 18t-18.5 44t18.5 44.5
t44.5 18.5t44 -18t18 -44h1z" />
    <glyph glyph-name="nonbreakingspace" unicode="&#xca;" 
 />
    <glyph glyph-name="Agrave" unicode="&#xcb;" 
d="M360 0v226h-220v-226h-80v420q0 39 15 74t40.5 60.5t60.5 40.5t74 15t74 -15t60.5 -40.5t40.5 -60.5t15 -74v-420h-80zM360 432q0 22 -9 41t-24 33.5t-35 23t-42 8.5t-42 -8.5t-35 -22.5t-24 -33.5t-9 -40.5v-134h220v133zM245 650l-119 125l74 41l95 -149z" />
    <glyph glyph-name="Atilde" unicode="&#xcc;" 
d="M360 0v226h-220v-226h-80v420q0 39 15 74t40.5 60.5t60.5 40.5t74 15t74 -15t60.5 -40.5t40.5 -60.5t15 -74v-420h-80zM360 432q0 22 -9 41t-24 33.5t-35 23t-42 8.5t-42 -8.5t-35 -22.5t-24 -33.5t-9 -40.5v-134h220v133zM384 695q-18 -21 -37.5 -32t-50.5 -11
q-17 0 -29.5 4.5t-23.5 12t-21.5 16.5t-23.5 19q-12 9 -33.5 1t-44.5 -36l-32 30q12 14 22.5 28t23 24.5t28 17t36.5 6.5q18 0 31 -6.5t24 -15t21 -17t22 -12.5q10 -3 18.5 -4t18 2.5t20.5 13t26 27.5l34 -31q-13 -17 -18.5 -24.5t-10.5 -12.5z" />
    <glyph glyph-name="Otilde" unicode="&#xcd;" 
d="M440 180q0 -39 -15 -74t-40.5 -60.5t-60.5 -40.5t-74 -15t-74 15t-60.5 40.5t-40.5 60t-15 73.5v241q0 39 15 74t40.5 60.5t60.5 40.5t74 15t74 -15t60.5 -40.5t40.5 -60.5t15 -74v-240v0zM360 432q0 22 -9 41t-24 33.5t-35 23t-42 8.5t-42 -8.5t-35 -22.5t-24 -33.5
t-9 -40.5v-265q0 -22 9 -41t24 -33.5t35 -23t42 -8.5t42 8.5t35 22.5t24 33.5t9 40.5v265zM384 695q-18 -21 -37.5 -32t-50.5 -11q-17 0 -29.5 4.5t-23.5 12t-21.5 16.5t-23.5 19q-12 9 -33.5 1t-44.5 -36l-32 30q12 14 22.5 28t23 24.5t28 17t36.5 6.5q18 0 31 -6.5t24 -15
t21 -17t22 -12.5q10 -3 18.5 -4t18 2.5t20.5 13t26 27.5l34 -31q-13 -17 -18.5 -24.5t-10.5 -12.5z" />
    <glyph glyph-name="OE" unicode="&#xce;" 
d="M230 601h260v-71h-180v-192h140v-73h-140v-195h180v-71h-260v6q-30 -15 -70 -15q-42 0 -70.5 15t-46 40t-25.5 57t-8 66v264q0 34 8 66t25.5 57t46 40t70.5 15q40 0 70 -15v6zM230 446q0 45 -17 69.5t-53 24.5t-53 -24.5t-17 -69.5v-292q0 -45 17 -69.5t53 -24.5t53 24.5
t17 69.5v292v0z" />
    <glyph glyph-name="oe" unicode="&#xcf;" 
d="M430 2q-15 -6 -32.5 -9t-42.5 -3q-68 0 -106 41q-36 -41 -104 -41q-42 0 -70 15t-44.5 39.5t-23.5 56t-7 64.5v130q0 33 7 64.5t23.5 56t44.5 39.5t70 15q35 0 61.5 -11t43.5 -31q17 20 43.5 31t61.5 11q42 0 70 -15t44.5 -39.5t23.5 -56t7 -64.5v-97h-210v-46
q0 -46 15 -69.5t50 -23.5q20 0 34 3t27 8.5t26.5 13t30.5 15.5l27 -57q-26 -18 -41 -26.5t-29 -13.5zM420 308q0 46 -15 69.5t-50 23.5t-50 -23.5t-15 -69.5v-41h130v41v0zM210 308q0 46 -15 69.5t-50 23.5t-50 -23.5t-15 -69.5v-156q0 -46 15 -69.5t50 -23.5t50 23.5
t15 69.5v156v0z" />
    <glyph glyph-name="endash" unicode="&#xd0;" 
d="M110 256v77h280v-77h-280z" />
    <glyph glyph-name="emdash" unicode="&#xd1;" 
d="M60 256v77h380v-77h-380z" />
    <glyph glyph-name="quotedblleft" unicode="&#xd2;" 
d="M328 509l-75 40l107 126l50 -18zM164 509l-74 40l107 126l50 -18z" />
    <glyph glyph-name="quotedblright" unicode="&#xd3;" 
d="M303 510l-50 17l83 149l74 -41zM140 510l-50 17l82 149l75 -41z" />
    <glyph glyph-name="quoteleft" unicode="&#xd4;" 
d="M246 505l-75 41l108 125l50 -17z" />
    <glyph glyph-name="quoteright" unicode="&#xd5;" 
d="M221 510l-50 17l83 149l75 -41z" />
    <glyph glyph-name="divide" unicode="&#xd6;" 
d="M313 422q0 -26 -18.5 -44.5t-44.5 -18.5t-44.5 18.5t-18.5 44.5t18.5 44.5t44.5 18.5t44.5 -18.5t18.5 -44.5zM60 230v77h380v-77h-380zM313 115q0 -26 -18.5 -44.5t-44.5 -18.5t-44.5 18.5t-18.5 44.5t18.5 44.5t44.5 18.5t44.5 -18.5t18.5 -44.5z" />
    <glyph glyph-name="lozenge" unicode="&#xd7;" 
d="M287 0h-75l-114 230l114 230h75l115 -230zM250 373l-68 -143l68 -143l68 143z" />
    <glyph glyph-name="lozenge" unicode="&#x25ca;" 
d="M287 0h-75l-114 230l114 230h75l115 -230zM250 373l-68 -143l68 -143l68 143z" />
    <glyph glyph-name="ydieresis" unicode="&#xd8;" 
d="M290 -56q-10 -27 -24.5 -53t-37 -46t-54.5 -32.5t-77 -12.5q-14 0 -29 1.5t-45 6.5l9 71q23 -6 43 -9t38 -1q41 4 69 30.5t41 91.5l-190 469h88l143 -372l121 372h88zM408 609q0 -25 -17.5 -42.5t-42.5 -17.5q-26 0 -43.5 17.5t-17.5 42.5t17.5 42.5t42.5 17.5
q26 0 43.5 -17.5t17.5 -42.5zM214 609q0 -25 -17.5 -42.5t-42.5 -17.5q-26 0 -43.5 17.5t-17.5 42.5t17.5 42.5t42.5 17.5q26 0 43 -17.5t17 -42.5h1z" />
    <glyph glyph-name="Ydieresis" unicode="&#xd9;" 
d="M290 211v-211h-80v211l-185 389h89l136 -302l136 302h89zM408 709q0 -25 -17.5 -42.5t-42.5 -17.5q-26 0 -43.5 17.5t-17.5 42.5t17.5 42.5t42.5 17.5q26 0 43.5 -17.5t17.5 -42.5zM214 709q0 -25 -17.5 -42.5t-42.5 -17.5q-26 0 -43.5 17.5t-17.5 42.5t17.5 42.5
t42.5 17.5q26 0 43 -17.5t17 -42.5h1z" />
    <glyph glyph-name="fraction" unicode="&#xda;" 
d="M137 -20h-90l315 640h91z" />
    <glyph glyph-name="fraction" unicode="&#x2044;" 
d="M137 -20h-90l315 640h91z" />
    <glyph glyph-name="currency" unicode="&#xdb;" 
d="M165 167q0 -21 9 -40.5t24 -33.5t35 -22.5t42 -8.5q38 0 81.5 8t90.5 28l18 -61q-51 -25 -97 -36t-93 -11q-39 0 -74 15t-60.5 40.5t-40.5 60.5t-15 74v19h-65l21 73h44v47h-65l21 72h44v29q0 39 15 74t40.5 60.5t60.5 40.5t74 15q45 0 90 -10.5t96 -34.5l-19 -60
q-45 19 -87.5 26t-79.5 7q-22 0 -42 -8.5t-35 -22.5t-24 -33.5t-9 -40.5v-42h266l-21 -72h-245v-47h236l-21 -73h-215v-32z" />
    <glyph glyph-name="guilsinglleft" unicode="&#xdc;" 
d="M110 263v64l280 154v-79l-190 -107l190 -103v-78z" />
    <glyph glyph-name="guilsinglright" unicode="&#xdd;" 
d="M110 114v78l190 103l-190 107v79l280 -154v-64z" />
    <glyph glyph-name="fi" unicode="&#xde;" 
d="M246 0v65l82 10v315h-159v-390h-80v390h-79v70h79v36q0 32 9 63t29 55.5t51.5 40t77.5 15.5q42 0 79 -11.5t82 -36.5l-28 -59q-20 10 -36 16.5t-30.5 10.5t-29.5 6t-32 2q-25 0 -42.5 -8t-28.5 -21t-16 -30t-5 -34v-45h239v-385l82 -10v-65h-244z" />
    <glyph glyph-name="fi" unicode="&#xfb01;" 
d="M246 0v65l82 10v315h-159v-390h-80v390h-79v70h79v36q0 32 9 63t29 55.5t51.5 40t77.5 15.5q42 0 79 -11.5t82 -36.5l-28 -59q-20 10 -36 16.5t-30.5 10.5t-29.5 6t-32 2q-25 0 -42.5 -8t-28.5 -21t-16 -30t-5 -34v-45h239v-385l82 -10v-65h-244z" />
    <glyph glyph-name="fl" unicode="&#xdf;" 
d="M246 0v65l82 10v315h-159v-390h-80v390h-79v70h79v36q0 32 9.5 63t30.5 55.5t53.5 40t78.5 15.5q38 0 73.5 -11t73.5 -31v-553l82 -10v-65h-244zM329 584q-16 7 -29.5 10.5t-33.5 3.5q-25 0 -43 -8t-30 -21t-18 -30t-6 -34v-45h160v124z" />
    <glyph glyph-name="fl" unicode="&#xfb02;" 
d="M246 0v65l82 10v315h-159v-390h-80v390h-79v70h79v36q0 32 9.5 63t30.5 55.5t53.5 40t78.5 15.5q38 0 73.5 -11t73.5 -31v-553l82 -10v-65h-244zM329 584q-16 7 -29.5 10.5t-33.5 3.5q-25 0 -43 -8t-30 -21t-18 -30t-6 -34v-45h160v124z" />
    <glyph glyph-name="daggerdbl" unicode="&#xe0;" 
d="M290 165v-185h-80v185l-180 -8v80l180 -8v148l-180 -9v81l180 -8v179h80v-179l180 8v-81l-180 9v-148l180 8v-80z" />
    <glyph glyph-name="periodcentered" unicode="&#xe1;" 
d="M300 283q0 -21 -14.5 -35.5t-35.5 -14.5t-35.5 14.5t-14.5 35.5t14.5 35.5t35.5 14.5t35.5 -14.5t14.5 -35.5z" />
    <glyph glyph-name="quotesinglbase" unicode="&#xe2;" 
d="M287 -160h-74l-7 205h88z" />
    <glyph glyph-name="quotedblbase" unicode="&#xe3;" 
d="M374 -160h-74l-7 205h88zM200 -160h-74l-7 205h88z" />
    <glyph glyph-name="perthousand" unicode="&#xe4;" 
d="M240 431q0 -42 -29 -71t-71 -29t-71 29t-29 71t29 71t71 29t71 -29t29 -71zM188 431q0 20 -14 34t-34 14t-34 -14t-14 -34t14 -34t34 -14t34 14t14 34zM125 -20h-90l310 570h91zM385 165q-33 0 -56 23.5t-23 56.5t23 56t56 23t56.5 -23t23.5 -56t-23.5 -56.5t-56.5 -23.5
zM385 278q-14 0 -23.5 -9.5t-9.5 -23.5t9.5 -24t23.5 -10t24 10t10 24t-10 23.5t-24 9.5zM385 -10q-33 0 -56 23.5t-23 56.5t23 56.5t56 23.5t56.5 -23.5t23.5 -56.5t-23.5 -56.5t-56.5 -23.5zM385 104q-14 0 -23.5 -10t-9.5 -24t9.5 -24t23.5 -10t24 10t10 24t-10 24
t-24 10z" />
    <glyph glyph-name="Acircumflex" unicode="&#xe5;" 
d="M360 0v226h-220v-226h-80v420q0 39 15 74t40.5 60.5t60.5 40.5t74 15t74 -15t60.5 -40.5t40.5 -60.5t15 -74v-420h-80zM360 432q0 22 -9 41t-24 33.5t-35 23t-42 8.5t-42 -8.5t-35 -22.5t-24 -33.5t-9 -40.5v-134h220v133zM366 644l-116 94l-116 -94l-36 35l117 129h71
l118 -129z" />
    <glyph glyph-name="Ecircumflex" unicode="&#xe6;" 
d="M60 0v600h380v-72h-300v-169h250v-73h-250v-213h300v-73h-380zM366 644l-116 94l-116 -94l-36 35l117 129h71l118 -129z" />
    <glyph glyph-name="Aacute" unicode="&#xe7;" 
d="M360 0v226h-220v-226h-80v420q0 39 15 74t40.5 60.5t60.5 40.5t74 15t74 -15t60.5 -40.5t40.5 -60.5t15 -74v-420h-80zM360 432q0 22 -9 41t-24 33.5t-35 23t-42 8.5t-42 -8.5t-35 -22.5t-24 -33.5t-9 -40.5v-134h220v133zM255 650l-50 17l95 149l74 -41z" />
    <glyph glyph-name="Edieresis" unicode="&#xe8;" 
d="M60 0v600h380v-72h-300v-169h250v-73h-250v-213h300v-73h-380zM408 709q0 -25 -17.5 -42.5t-42.5 -17.5q-26 0 -43.5 17.5t-17.5 42.5t17.5 42.5t42.5 17.5q26 0 43.5 -17.5t17.5 -42.5zM214 709q0 -25 -17.5 -42.5t-42.5 -17.5q-26 0 -43.5 17.5t-17.5 42.5t17.5 42.5
t42.5 17.5q26 0 43 -17.5t17 -42.5h1z" />
    <glyph glyph-name="Egrave" unicode="&#xe9;" 
d="M60 0v600h380v-72h-300v-169h250v-73h-250v-213h300v-73h-380zM245 650l-119 125l74 41l95 -149z" />
    <glyph glyph-name="Iacute" unicode="&#xea;" 
d="M60 0v65l150 10v450l-150 10v65h380v-65l-150 -10v-450l150 -10v-65h-380zM255 650l-50 17l95 149l74 -41z" />
    <glyph glyph-name="Icircumflex" unicode="&#xeb;" 
d="M60 0v65l150 10v450l-150 10v65h380v-65l-150 -10v-450l150 -10v-65h-380zM366 644l-116 94l-116 -94l-36 35l117 129h71l118 -129z" />
    <glyph glyph-name="Idieresis" unicode="&#xec;" 
d="M60 0v65l150 10v450l-150 10v65h380v-65l-150 -10v-450l150 -10v-65h-380zM408 709q0 -25 -17.5 -42.5t-42.5 -17.5q-26 0 -43.5 17.5t-17.5 42.5t17.5 42.5t42.5 17.5q26 0 43.5 -17.5t17.5 -42.5zM214 709q0 -25 -17.5 -42.5t-42.5 -17.5q-26 0 -43.5 17.5t-17.5 42.5
t17.5 42.5t42.5 17.5q26 0 43 -17.5t17 -42.5h1z" />
    <glyph glyph-name="Igrave" unicode="&#xed;" 
d="M60 0v65l150 10v450l-150 10v65h380v-65l-150 -10v-450l150 -10v-65h-380zM245 650l-119 125l74 41l95 -149z" />
    <glyph glyph-name="Oacute" unicode="&#xee;" 
d="M440 180q0 -39 -15 -74t-40.5 -60.5t-60.5 -40.5t-74 -15t-74 15t-60.5 40.5t-40.5 60t-15 73.5v241q0 39 15 74t40.5 60.5t60.5 40.5t74 15t74 -15t60.5 -40.5t40.5 -60.5t15 -74v-240v0zM360 432q0 22 -9 41t-24 33.5t-35 23t-42 8.5t-42 -8.5t-35 -22.5t-24 -33.5
t-9 -40.5v-265q0 -22 9 -41t24 -33.5t35 -23t42 -8.5t42 8.5t35 22.5t24 33.5t9 40.5v265zM255 650l-50 17l95 149l74 -41z" />
    <glyph glyph-name="Ocircumflex" unicode="&#xef;" 
d="M440 180q0 -39 -15 -74t-40.5 -60.5t-60.5 -40.5t-74 -15t-74 15t-60.5 40.5t-40.5 60t-15 73.5v241q0 39 15 74t40.5 60.5t60.5 40.5t74 15t74 -15t60.5 -40.5t40.5 -60.5t15 -74v-240v0zM360 432q0 22 -9 41t-24 33.5t-35 23t-42 8.5t-42 -8.5t-35 -22.5t-24 -33.5
t-9 -40.5v-265q0 -22 9 -41t24 -33.5t35 -23t42 -8.5t42 8.5t35 22.5t24 33.5t9 40.5v265zM366 644l-116 94l-116 -94l-36 35l117 129h71l118 -129z" />
    <glyph glyph-name="Ograve" unicode="&#xf1;" 
d="M440 180q0 -39 -15 -74t-40.5 -60.5t-60.5 -40.5t-74 -15t-74 15t-60.5 40.5t-40.5 60t-15 73.5v241q0 39 15 74t40.5 60.5t60.5 40.5t74 15t74 -15t60.5 -40.5t40.5 -60.5t15 -74v-240v0zM360 432q0 22 -9 41t-24 33.5t-35 23t-42 8.5t-42 -8.5t-35 -22.5t-24 -33.5
t-9 -40.5v-265q0 -22 9 -41t24 -33.5t35 -23t42 -8.5t42 8.5t35 22.5t24 33.5t9 40.5v265zM245 650l-119 125l74 41l95 -149z" />
    <glyph glyph-name="Uacute" unicode="&#xf2;" 
d="M440 180q0 -39 -15 -74t-40.5 -60.5t-60.5 -40.5t-74 -15t-74 15t-60.5 40.5t-40.5 60t-15 73.5v421h80v-432q0 -22 9 -41t24 -33.5t35 -23t42 -8.5t42 8.5t35 22.5t24 33.5t9 40.5v433h80v-420v0zM255 650l-50 17l95 149l74 -41z" />
    <glyph glyph-name="Ucircumflex" unicode="&#xf3;" 
d="M440 180q0 -39 -15 -74t-40.5 -60.5t-60.5 -40.5t-74 -15t-74 15t-60.5 40.5t-40.5 60t-15 73.5v421h80v-432q0 -22 9 -41t24 -33.5t35 -23t42 -8.5t42 8.5t35 22.5t24 33.5t9 40.5v433h80v-420v0zM366 644l-116 94l-116 -94l-36 35l117 129h71l118 -129z" />
    <glyph glyph-name="Ugrave" unicode="&#xf4;" 
d="M440 180q0 -39 -15 -74t-40.5 -60.5t-60.5 -40.5t-74 -15t-74 15t-60.5 40.5t-40.5 60t-15 73.5v421h80v-432q0 -22 9 -41t24 -33.5t35 -23t42 -8.5t42 8.5t35 22.5t24 33.5t9 40.5v433h80v-420v0zM245 650l-119 125l74 41l95 -149z" />
    <glyph glyph-name="dotlessi" unicode="&#xf5;" 
d="M60 0v65l150 10v310h-140v64l220 11v-385l150 -10v-65h-380z" />
    <glyph glyph-name="dotlessi" unicode="&#x131;" 
d="M60 0v65l150 10v310h-140v64l220 11v-385l150 -10v-65h-380z" />
    <glyph glyph-name="circumflex" unicode="&#xf6;" 
d="M366 524l-116 94l-116 -94l-36 35l117 129h71l118 -129z" />
    <glyph glyph-name="tilde" unicode="&#xf7;" 
d="M384 575q-18 -21 -37.5 -32t-50.5 -11q-17 0 -29.5 4.5t-23.5 12t-21.5 16.5t-23.5 19q-12 9 -33.5 1t-44.5 -36l-32 30q12 14 22.5 28t23 24.5t28 17t36.5 6.5q18 0 31 -6.5t24 -15t21 -17t22 -12.5q10 -3 18.5 -4t18 2.5t20.5 13t26 27.5l34 -31q-13 -17 -18.5 -24.5
t-10.5 -12.5z" />
    <glyph glyph-name="macron" unicode="&#xf8;" 
d="M100 565v75h300v-75h-300z" />
    <glyph glyph-name="breve" unicode="&#xf9;" 
d="M395 630l-12.5 -17t-32.5 -37t-46.5 -37t-53.5 -17t-53.5 17t-46.5 37t-45 54l48 47q6 -10 18 -23.5t25.5 -25.5t28 -20t25.5 -8t25 8t28 20t26 25t18 23l48 -46v0z" />
    <glyph glyph-name="breve" unicode="&#x2d8;" 
d="M395 630l-12.5 -17t-32.5 -37t-46.5 -37t-53.5 -17t-53.5 17t-46.5 37t-45 54l48 47q6 -10 18 -23.5t25.5 -25.5t28 -20t25.5 -8t25 8t28 20t26 25t18 23l48 -46v0z" />
    <glyph glyph-name="dotaccent" unicode="&#xfa;" 
d="M310 609q0 -25 -17.5 -42.5t-42.5 -17.5t-42.5 17.5t-17.5 42.5t17.5 42.5t42.5 17.5t42.5 -17.5t17.5 -42.5z" />
    <glyph glyph-name="dotaccent" unicode="&#x2d9;" 
d="M310 609q0 -25 -17.5 -42.5t-42.5 -17.5t-42.5 17.5t-17.5 42.5t17.5 42.5t42.5 17.5t42.5 -17.5t17.5 -42.5z" />
    <glyph glyph-name="ring" unicode="&#xfb;" 
d="M325 595q0 -31 -22 -53t-53 -22t-53 22t-22 53t22 53t53 22t53 -22t22 -53zM285 595q0 14 -10.5 24.5t-24.5 10.5t-24.5 -10.5t-10.5 -24.5t10.5 -24.5t24.5 -10.5t24.5 10.5t10.5 24.5z" />
    <glyph glyph-name="ring" unicode="&#x2da;" 
d="M325 595q0 -31 -22 -53t-53 -22t-53 22t-22 53t22 53t53 22t53 -22t22 -53zM285 595q0 14 -10.5 24.5t-24.5 10.5t-24.5 -10.5t-10.5 -24.5t10.5 -24.5t24.5 -10.5t24.5 10.5t10.5 24.5z" />
    <glyph glyph-name="cedilla" unicode="&#xfc;" 
d="M333 -115q0 -31 -23 -53t-62 -22q-24 0 -43.5 5.5t-40.5 19.5l14 30q14 -7 30.5 -11t31 -3t24.5 9t10 25q0 14 -18.5 23t-45.5 5l-6 12l11 77h52l-15 -54q35 2 58 -17.5t23 -45.5z" />
    <glyph glyph-name="hungarumlaut" unicode="&#xfd;" 
d="M310 509l-53 20l80 150l75 -31zM158 509l-53 20l80 150l75 -31z" />
    <glyph glyph-name="hungarumlaut" unicode="&#x2dd;" 
d="M310 509l-53 20l80 150l75 -31zM158 509l-53 20l80 150l75 -31z" />
    <glyph glyph-name="ogonek" unicode="&#xfe;" 
d="M340 -172q-22 -14 -43.5 -21t-44.5 -7q-38 0 -62 24.5t-24 57.5q0 16 8 32.5t23 29.5t36 21t47 8l8 -44q-21 0 -33.5 -5.5t-20 -13t-10 -15.5t-2.5 -13q0 -21 12.5 -28t29 -6.5t34 7t27.5 12.5l15 -39v0z" />
    <glyph glyph-name="ogonek" unicode="&#x2db;" 
d="M340 -172q-22 -14 -43.5 -21t-44.5 -7q-38 0 -62 24.5t-24 57.5q0 16 8 32.5t23 29.5t36 21t47 8l8 -44q-21 0 -33.5 -5.5t-20 -13t-10 -15.5t-2.5 -13q0 -21 12.5 -28t29 -6.5t34 7t27.5 12.5l15 -39v0z" />
    <glyph glyph-name="caron" unicode="&#xff;" 
d="M286 522h-72l-118 130l38 34l116 -94l116 94l36 -34z" />
    <glyph glyph-name="caron" unicode="&#x2c7;" 
d="M286 522h-72l-118 130l38 34l116 -94l116 94l36 -34z" />
    <glyph glyph-name="aring" unicode="&#x152;" 
d="M449 -10q-15 0 -32.5 3.5t-32 11.5t-23.5 23t-8 37l2 29h-5q-16 -19 -33.5 -37.5t-38.5 -33.5t-47.5 -24t-60.5 -9q-40 0 -64.5 12t-37.5 28.5t-17.5 34.5t-4.5 31q0 48 29.5 80t74.5 52t98.5 28.5t102.5 8.5v79q0 1 -1 10t-7 20t-20 20t-40 9q-32 0 -61 -6t-51.5 -13.5
t-49.5 -19.5l-21 51q9 5 28 14t44.5 18t55 16t59.5 7q32 0 58.5 -9t45.5 -25.5t29.5 -39t10.5 -49.5v-263q0 -2 1 -7t4 -10t8.5 -8.5t14.5 -3.5zM351 220q-55 0 -97.5 -10t-70.5 -26t-42.5 -36.5t-14.5 -41.5q0 -24 18.5 -36.5t41.5 -12.5q38 0 68.5 14.5t52 31.5t44.5 46
v71zM325 595q0 -31 -22 -53t-53 -22t-53 22t-22 53t22 53t53 22t53 -22t22 -53zM285 595q0 14 -10.5 24.5t-24.5 10.5t-24.5 -10.5t-10.5 -24.5t10.5 -24.5t24.5 -10.5t24.5 10.5t10.5 24.5z" />
    <glyph glyph-name="uacute" unicode="&#x153;" 
d="M360 0v67q0 10 1.5 24t2.5 23t1 10h-5q-11 -15 -26.5 -38t-36.5 -44t-48.5 -36.5t-61.5 -15.5t-58.5 12.5t-39.5 32t-22 44t-7 47.5v334h80v-334q0 -38 16 -51.5t34 -13.5q32 0 61 21.5t51.5 49.5t38 55t19.5 38v235h80v-460h-80zM255 510l-50 17l95 149l74 -41z" />
    <glyph glyph-name="adieresis" unicode="&#x160;" 
d="M449 -10q-15 0 -32.5 3.5t-32 11.5t-23.5 23t-8 37l2 29h-5q-16 -19 -33.5 -37.5t-38.5 -33.5t-47.5 -24t-60.5 -9q-40 0 -64.5 12t-37.5 28.5t-17.5 34.5t-4.5 31q0 48 29.5 80t74.5 52t98.5 28.5t102.5 8.5v79q0 1 -1 10t-7 20t-20 20t-40 9q-32 0 -61 -6t-51.5 -13.5
t-49.5 -19.5l-21 51q9 5 28 14t44.5 18t55 16t59.5 7q32 0 58.5 -9t45.5 -25.5t29.5 -39t10.5 -49.5v-263q0 -2 1 -7t4 -10t8.5 -8.5t14.5 -3.5zM351 220q-55 0 -97.5 -10t-70.5 -26t-42.5 -36.5t-14.5 -41.5q0 -24 18.5 -36.5t41.5 -12.5q38 0 68.5 14.5t52 31.5t44.5 46
v71zM408 609q0 -25 -17.5 -42.5t-42.5 -17.5q-26 0 -43.5 17.5t-17.5 42.5t17.5 42.5t42.5 17.5q26 0 43.5 -17.5t17.5 -42.5zM214 609q0 -25 -17.5 -42.5t-42.5 -17.5q-26 0 -43.5 17.5t-17.5 42.5t17.5 42.5t42.5 17.5q26 0 43 -17.5t17 -42.5h1z" />
    <glyph glyph-name="odieresis" unicode="&#x161;" 
d="M440 180q0 -39 -15 -74t-40.5 -60.5t-60.5 -40.5t-74 -15t-74 15t-60.5 40.5t-40.5 60t-15 73.5v101q0 39 15 74t40.5 60.5t60.5 40.5t74 15t74 -15t60.5 -40.5t40.5 -60.5t15 -74v-100v0zM360 287q0 23 -8.5 43t-23.5 35t-35 24t-43 9t-43 -9t-35 -24t-23.5 -35
t-8.5 -43v-114q0 -23 8.5 -43t23.5 -35t35 -24t43 -9t43 9t35 24t23.5 35t8.5 43v114zM408 609q0 -25 -17.5 -42.5t-42.5 -17.5q-26 0 -43.5 17.5t-17.5 42.5t17.5 42.5t42.5 17.5q26 0 43.5 -17.5t17.5 -42.5zM214 609q0 -25 -17.5 -42.5t-42.5 -17.5q-26 0 -43.5 17.5
t-17.5 42.5t17.5 42.5t42.5 17.5q26 0 43 -17.5t17 -42.5h1z" />
    <glyph glyph-name="udieresis" unicode="&#x178;" 
d="M360 0v67q0 10 1.5 24t2.5 23t1 10h-5q-11 -15 -26.5 -38t-36.5 -44t-48.5 -36.5t-61.5 -15.5t-58.5 12.5t-39.5 32t-22 44t-7 47.5v334h80v-334q0 -38 16 -51.5t34 -13.5q32 0 61 21.5t51.5 49.5t38 55t19.5 38v235h80v-460h-80zM408 609q0 -25 -17.5 -42.5t-42.5 -17.5
q-26 0 -43.5 17.5t-17.5 42.5t17.5 42.5t42.5 17.5q26 0 43.5 -17.5t17.5 -42.5zM214 609q0 -25 -17.5 -42.5t-42.5 -17.5q-26 0 -43.5 17.5t-17.5 42.5t17.5 42.5t42.5 17.5q26 0 43 -17.5t17 -42.5h1z" />
    <glyph glyph-name="Eacute" unicode="&#x192;" 
d="M60 0v600h380v-72h-300v-169h250v-73h-250v-213h300v-73h-380zM255 650l-50 17l95 149l74 -41z" />
    <glyph glyph-name="agrave" unicode="&#x2c6;" 
d="M245 510l-119 125l74 41l95 -149zM449 -10q-15 0 -32.5 3.5t-32 11.5t-23.5 23t-8 37l2 29h-5q-16 -19 -33.5 -37.5t-38.5 -33.5t-47.5 -24t-60.5 -9q-40 0 -64.5 12t-37.5 28.5t-17.5 34.5t-4.5 31q0 48 29.5 80t74.5 52t98.5 28.5t102.5 8.5v79q0 1 -1 10t-7 20t-20 20
t-40 9q-32 0 -61 -6t-51.5 -13.5t-49.5 -19.5l-21 51q9 5 28 14t44.5 18t55 16t59.5 7q32 0 58.5 -9t45.5 -25.5t29.5 -39t10.5 -49.5v-263q0 -2 1 -7t4 -10t8.5 -8.5t14.5 -3.5zM351 220q-55 0 -97.5 -10t-70.5 -26t-42.5 -36.5t-14.5 -41.5q0 -24 18.5 -36.5t41.5 -12.5
q38 0 68.5 14.5t52 31.5t44.5 46v71z" />
    <glyph glyph-name="ograve" unicode="&#x2dc;" 
d="M245 510l-119 125l74 41l95 -149zM440 180q0 -39 -15 -74t-40.5 -60.5t-60.5 -40.5t-74 -15t-74 15t-60.5 40.5t-40.5 60t-15 73.5v101q0 39 15 74t40.5 60.5t60.5 40.5t74 15t74 -15t60.5 -40.5t40.5 -60.5t15 -74v-100v0zM360 287q0 23 -8.5 43t-23.5 35t-35 24t-43 9
t-43 -9t-35 -24t-23.5 -35t-8.5 -43v-114q0 -23 8.5 -43t23.5 -35t35 -24t43 -9t43 9t35 24t23.5 35t8.5 43v114z" />
    <glyph glyph-name="ntilde" unicode="&#x2013;" 
d="M360 0v334q0 38 -16 51.5t-34 13.5q-32 0 -61 -21.5t-51.5 -49.5t-37.5 -55t-20 -38v-235h-80v460h80v-67q0 -10 -1.5 -24t-2.5 -23t-1 -10h5q11 15 26.5 38t36.5 44t48.5 36.5t61.5 15.5q35 0 59 -12.5t39 -32t22 -44t7 -47.5v-334h-80zM384 575q-18 -21 -37.5 -32
t-50.5 -11q-17 0 -29.5 4.5t-23.5 12t-21.5 16.5t-23.5 19q-12 9 -33.5 1t-44.5 -36l-32 30q12 14 22.5 28t23 24.5t28 17t36.5 6.5q18 0 31 -6.5t24 -15t21 -17t22 -12.5q10 -3 18.5 -4t18 2.5t20.5 13t26 27.5l34 -31q-13 -17 -18.5 -24.5t-10.5 -12.5z" />
    <glyph glyph-name="oacute" unicode="&#x2014;" 
d="M440 180q0 -39 -15 -74t-40.5 -60.5t-60.5 -40.5t-74 -15t-74 15t-60.5 40.5t-40.5 60t-15 73.5v101q0 39 15 74t40.5 60.5t60.5 40.5t74 15t74 -15t60.5 -40.5t40.5 -60.5t15 -74v-100v0zM360 287q0 23 -8.5 43t-23.5 35t-35 24t-43 9t-43 -9t-35 -24t-23.5 -35
t-8.5 -43v-114q0 -23 8.5 -43t23.5 -35t35 -24t43 -9t43 9t35 24t23.5 35t8.5 43v114zM255 510l-50 17l95 149l74 -41z" />
    <glyph glyph-name="edieresis" unicode="&#x2018;" 
d="M440 37q-51 -25 -97 -36t-93 -11q-39 0 -74 15t-60.5 40.5t-40.5 60.5t-15 74v100q0 39 15 74t40.5 60.5t60.5 40.5t74 15t74 -15t60.5 -40.5t40.5 -60.5t15 -74v-82h-300v-31q0 -21 9 -40.5t24 -33.5t35 -22.5t42 -8.5q38 0 81.5 8t90.5 28l18 -61v0zM360 287
q0 23 -8.5 43t-23.5 35t-35 24t-43 9t-43 -9t-35 -24t-23.5 -35t-8.5 -43v-20h220v20zM408 609q0 -25 -17.5 -42.5t-42.5 -17.5q-26 0 -43.5 17.5t-17.5 42.5t17.5 42.5t42.5 17.5q26 0 43.5 -17.5t17.5 -42.5zM214 609q0 -25 -17.5 -42.5t-42.5 -17.5q-26 0 -43.5 17.5
t-17.5 42.5t17.5 42.5t42.5 17.5q26 0 43 -17.5t17 -42.5h1z" />
    <glyph glyph-name="iacute" unicode="&#x2019;" 
d="M255 510l-50 17l95 149l74 -41zM60 0v65l150 10v310h-140v64l220 11v-385l150 -10v-65h-380z" />
    <glyph glyph-name="Ccedilla" unicode="&#x201a;" 
d="M440 37q-93 -44 -176 -47l-12 -42q35 2 58 -17.5t23 -45.5q0 -31 -23 -53t-62 -22q-24 0 -43.5 5.5t-40.5 19.5l14 30q14 -7 30.5 -11t31 -3t24.5 9t10 25q0 14 -18.5 23t-45.5 5l-6 12l10 69q-33 6 -61 22.5t-49 41.5t-32.5 56t-11.5 66v240q0 39 15 74t40.5 60.5
t60.5 40.5t74 15q45 0 90 -10.5t96 -34.5l-19 -60q-45 19 -87.5 26t-79.5 7q-22 0 -42 -8.5t-35 -22.5t-24 -33.5t-9 -40.5v-266q0 -21 9 -40.5t24 -33.5t35 -22.5t42 -8.5q38 0 81.5 8t90.5 28l18 -61v0z" />
    <glyph glyph-name="igrave" unicode="&#x201c;" 
d="M245 510l-119 125l74 41l95 -149zM60 0v65l150 10v310h-140v64l220 11v-385l150 -10v-65h-380z" />
    <glyph glyph-name="icircumflex" unicode="&#x201d;" 
d="M60 0v65l150 10v310h-140v64l220 11v-385l150 -10v-65h-380zM366 524l-116 94l-116 -94l-36 35l117 129h71l118 -129z" />
    <glyph glyph-name="Ntilde" unicode="&#x201e;" 
d="M357 0l-217 438v-438h-80v600h83l217 -438v438h80v-600h-83zM384 695q-18 -21 -37.5 -32t-50.5 -11q-17 0 -29.5 4.5t-23.5 12t-21.5 16.5t-23.5 19q-12 9 -33.5 1t-44.5 -36l-32 30q12 14 22.5 28t23 24.5t28 17t36.5 6.5q18 0 31 -6.5t24 -15t21 -17t22 -12.5
q10 -3 18.5 -4t18 2.5t20.5 13t26 27.5l34 -31q-13 -17 -18.5 -24.5t-10.5 -12.5z" />
    <glyph glyph-name="Udieresis" unicode="&#x2020;" 
d="M440 180q0 -39 -15 -74t-40.5 -60.5t-60.5 -40.5t-74 -15t-74 15t-60.5 40.5t-40.5 60t-15 73.5v421h80v-432q0 -22 9 -41t24 -33.5t35 -23t42 -8.5t42 8.5t35 22.5t24 33.5t9 40.5v433h80v-420v0zM408 709q0 -25 -17.5 -42.5t-42.5 -17.5q-26 0 -43.5 17.5t-17.5 42.5
t17.5 42.5t42.5 17.5q26 0 43.5 -17.5t17.5 -42.5zM214 709q0 -25 -17.5 -42.5t-42.5 -17.5q-26 0 -43.5 17.5t-17.5 42.5t17.5 42.5t42.5 17.5q26 0 43 -17.5t17 -42.5h1z" />
    <glyph glyph-name="aacute" unicode="&#x2021;" 
d="M449 -10q-15 0 -32.5 3.5t-32 11.5t-23.5 23t-8 37l2 29h-5q-16 -19 -33.5 -37.5t-38.5 -33.5t-47.5 -24t-60.5 -9q-40 0 -64.5 12t-37.5 28.5t-17.5 34.5t-4.5 31q0 48 29.5 80t74.5 52t98.5 28.5t102.5 8.5v79q0 1 -1 10t-7 20t-20 20t-40 9q-32 0 -61 -6t-51.5 -13.5
t-49.5 -19.5l-21 51q9 5 28 14t44.5 18t55 16t59.5 7q32 0 58.5 -9t45.5 -25.5t29.5 -39t10.5 -49.5v-263q0 -2 1 -7t4 -10t8.5 -8.5t14.5 -3.5zM351 220q-55 0 -97.5 -10t-70.5 -26t-42.5 -36.5t-14.5 -41.5q0 -24 18.5 -36.5t41.5 -12.5q38 0 68.5 14.5t52 31.5t44.5 46
v71zM255 510l-50 17l95 149l74 -41z" />
    <glyph glyph-name="idieresis" unicode="&#x2022;" 
d="M408 609q0 -25 -17.5 -42.5t-42.5 -17.5q-26 0 -43.5 17.5t-17.5 42.5t17.5 42.5t42.5 17.5q26 0 43.5 -17.5t17.5 -42.5zM214 609q0 -25 -17.5 -42.5t-42.5 -17.5q-26 0 -43.5 17.5t-17.5 42.5t17.5 42.5t42.5 17.5q26 0 43 -17.5t17 -42.5h1zM60 0v65l150 10v310h-140
v64l220 11v-385l150 -10v-65h-380z" />
    <glyph glyph-name="Odieresis" unicode="&#x2026;" 
d="M440 180q0 -39 -15 -74t-40.5 -60.5t-60.5 -40.5t-74 -15t-74 15t-60.5 40.5t-40.5 60t-15 73.5v241q0 39 15 74t40.5 60.5t60.5 40.5t74 15t74 -15t60.5 -40.5t40.5 -60.5t15 -74v-240v0zM360 432q0 22 -9 41t-24 33.5t-35 23t-42 8.5t-42 -8.5t-35 -22.5t-24 -33.5
t-9 -40.5v-265q0 -22 9 -41t24 -33.5t35 -23t42 -8.5t42 8.5t35 22.5t24 33.5t9 40.5v265zM408 709q0 -25 -17.5 -42.5t-42.5 -17.5q-26 0 -43.5 17.5t-17.5 42.5t17.5 42.5t42.5 17.5q26 0 43.5 -17.5t17.5 -42.5zM214 709q0 -25 -17.5 -42.5t-42.5 -17.5q-26 0 -43.5 17.5
t-17.5 42.5t17.5 42.5t42.5 17.5q26 0 43 -17.5t17 -42.5h1z" />
    <glyph glyph-name="acircumflex" unicode="&#x2030;" 
d="M449 -10q-15 0 -32.5 3.5t-32 11.5t-23.5 23t-8 37l2 29h-5q-16 -19 -33.5 -37.5t-38.5 -33.5t-47.5 -24t-60.5 -9q-40 0 -64.5 12t-37.5 28.5t-17.5 34.5t-4.5 31q0 48 29.5 80t74.5 52t98.5 28.5t102.5 8.5v79q0 1 -1 10t-7 20t-20 20t-40 9q-32 0 -61 -6t-51.5 -13.5
t-49.5 -19.5l-21 51q9 5 28 14t44.5 18t55 16t59.5 7q32 0 58.5 -9t45.5 -25.5t29.5 -39t10.5 -49.5v-263q0 -2 1 -7t4 -10t8.5 -8.5t14.5 -3.5zM351 220q-55 0 -97.5 -10t-70.5 -26t-42.5 -36.5t-14.5 -41.5q0 -24 18.5 -36.5t41.5 -12.5q38 0 68.5 14.5t52 31.5t44.5 46
v71zM366 524l-116 94l-116 -94l-36 35l117 129h71l118 -129z" />
    <glyph glyph-name="atilde" unicode="&#x2039;" 
d="M449 -10q-15 0 -32.5 3.5t-32 11.5t-23.5 23t-8 37l2 29h-5q-16 -19 -33.5 -37.5t-38.5 -33.5t-47.5 -24t-60.5 -9q-40 0 -64.5 12t-37.5 28.5t-17.5 34.5t-4.5 31q0 48 29.5 80t74.5 52t98.5 28.5t102.5 8.5v79q0 1 -1 10t-7 20t-20 20t-40 9q-32 0 -61 -6t-51.5 -13.5
t-49.5 -19.5l-21 51q9 5 28 14t44.5 18t55 16t59.5 7q32 0 58.5 -9t45.5 -25.5t29.5 -39t10.5 -49.5v-263q0 -2 1 -7t4 -10t8.5 -8.5t14.5 -3.5zM351 220q-55 0 -97.5 -10t-70.5 -26t-42.5 -36.5t-14.5 -41.5q0 -24 18.5 -36.5t41.5 -12.5q38 0 68.5 14.5t52 31.5t44.5 46
v71zM384 575q-18 -21 -37.5 -32t-50.5 -11q-17 0 -29.5 4.5t-23.5 12t-21.5 16.5t-23.5 19q-12 9 -33.5 1t-44.5 -36l-32 30q12 14 22.5 28t23 24.5t28 17t36.5 6.5q18 0 31 -6.5t24 -15t21 -17t22 -12.5q10 -3 18.5 -4t18 2.5t20.5 13t26 27.5l34 -31q-13 -17 -18.5 -24.5
t-10.5 -12.5z" />
    <glyph glyph-name="otilde" unicode="&#x203a;" 
d="M440 180q0 -39 -15 -74t-40.5 -60.5t-60.5 -40.5t-74 -15t-74 15t-60.5 40.5t-40.5 60t-15 73.5v101q0 39 15 74t40.5 60.5t60.5 40.5t74 15t74 -15t60.5 -40.5t40.5 -60.5t15 -74v-100v0zM360 287q0 23 -8.5 43t-23.5 35t-35 24t-43 9t-43 -9t-35 -24t-23.5 -35
t-8.5 -43v-114q0 -23 8.5 -43t23.5 -35t35 -24t43 -9t43 9t35 24t23.5 35t8.5 43v114zM384 575q-18 -21 -37.5 -32t-50.5 -11q-17 0 -29.5 4.5t-23.5 12t-21.5 16.5t-23.5 19q-12 9 -33.5 1t-44.5 -36l-32 30q12 14 22.5 28t23 24.5t28 17t36.5 6.5q18 0 31 -6.5t24 -15
t21 -17t22 -12.5q10 -3 18.5 -4t18 2.5t20.5 13t26 27.5l34 -31q-13 -17 -18.5 -24.5t-10.5 -12.5z" />
    <glyph glyph-name="Adieresis" unicode="&#x20ac;" 
d="M360 0v226h-220v-226h-80v420q0 39 15 74t40.5 60.5t60.5 40.5t74 15t74 -15t60.5 -40.5t40.5 -60.5t15 -74v-420h-80zM360 432q0 22 -9 41t-24 33.5t-35 23t-42 8.5t-42 -8.5t-35 -22.5t-24 -33.5t-9 -40.5v-134h220v133zM408 709q0 -25 -17.5 -42.5t-42.5 -17.5
q-26 0 -43.5 17.5t-17.5 42.5t17.5 42.5t42.5 17.5q26 0 43.5 -17.5t17.5 -42.5zM214 709q0 -25 -17.5 -42.5t-42.5 -17.5q-26 0 -43.5 17.5t-17.5 42.5t17.5 42.5t42.5 17.5q26 0 43 -17.5t17 -42.5h1z" />
    <glyph glyph-name="ocircumflex" unicode="&#x2122;" 
d="M440 180q0 -39 -15 -74t-40.5 -60.5t-60.5 -40.5t-74 -15t-74 15t-60.5 40.5t-40.5 60t-15 73.5v101q0 39 15 74t40.5 60.5t60.5 40.5t74 15t74 -15t60.5 -40.5t40.5 -60.5t15 -74v-100v0zM360 287q0 23 -8.5 43t-23.5 35t-35 24t-43 9t-43 -9t-35 -24t-23.5 -35
t-8.5 -43v-114q0 -23 8.5 -43t23.5 -35t35 -24t43 -9t43 9t35 24t23.5 35t8.5 43v114zM366 524l-116 94l-116 -94l-36 35l117 129h71l118 -129z" />
  </font>
</defs>
</svg>
