<?xml version="1.0" standalone="no"?>
<!DOCTYPE svg PUBLIC "-//W3C//DTD SVG 1.1//EN" "http://www.w3.org/Graphics/SVG/1.1/DTD/svg11.dtd" >
<svg xmlns="http://www.w3.org/2000/svg" xmlns:xlink="http://www.w3.org/1999/xlink" version="1.1">
<metadata>
Created by FontForge 20170731 at Wed Feb 22 14:34:22 2023
 By Aleksey,,,
Copyright (c) 2009 by The Entente (AS &#38; EH). All rights reserved.
</metadata>
<defs>
<font id="Reader-Bold" horiz-adv-x="1208" >
  <font-face 
    font-family="Reader"
    font-weight="700"
    font-stretch="normal"
    units-per-em="2048"
    panose-1="2 0 0 0 0 0 0 0 0 0"
    ascent="1536"
    descent="-512"
    x-height="1083"
    cap-height="1454"
    bbox="-129 -485 2234 1923"
    underline-thickness="102"
    underline-position="-307"
    unicode-range="U+0020-FB02"
  />
<missing-glyph horiz-adv-x="1130" 
d="M987 0h-844v1454h844v-1454zM317 1280v-1108h496v1108h-496z" />
    <glyph glyph-name=".notdef" horiz-adv-x="1130" 
d="M987 0h-844v1454h844v-1454zM317 1280v-1108h496v1108h-496z" />
    <glyph glyph-name=".null" horiz-adv-x="0" 
 />
    <glyph glyph-name="nonmarkingreturn" horiz-adv-x="682" 
 />
    <glyph glyph-name="space" unicode=" " horiz-adv-x="628" 
 />
    <glyph glyph-name="exclam" unicode="!" horiz-adv-x="575" 
d="M442 0h-301v283h301v-283zM399 451h-217l-37 643v360h293v-360z" />
    <glyph glyph-name="quotedbl" unicode="&#x22;" horiz-adv-x="843" 
d="M332 1454v-203l-29 -280h-184l-27 280v203h240zM752 1454v-203l-29 -280h-184l-27 280v203h240z" />
    <glyph glyph-name="numbersign" unicode="#" horiz-adv-x="1394" 
d="M868 1126l68 328h283l-68 -328h213v-274h-270l-47 -223h225v-275h-281l-73 -354h-283l74 354h-234l-74 -354h-282l74 354h-183v275h238l47 223h-193v274h250l68 328h285l-70 -328h233zM811 852h-233l-46 -223h232z" />
    <glyph glyph-name="dollar" unicode="$" 
d="M471 1464v162h262v-164q85 -12 159.5 -39t122.5 -59.5t76.5 -58.5t43.5 -48l12 -20l-248 -141q-15 25 -61 54.5t-105 45.5v-332q210 -35 340 -121q162 -98 162 -311q0 -137 -98 -268q-53 -71 -159 -119.5t-245 -58.5v-154h-262v162q-363 46 -500 282l238 140
q26 -49 96 -91.5t166 -62.5v354q-187 24 -317 113q-144 106 -144 313q0 178 118.5 287.5t342.5 134.5zM940 432q0 70 -49.5 105t-157.5 53v-342q142 15 178 71q18 30 23.5 52.5t5.5 60.5zM301 1042q0 -69 39 -100t131 -49v311q-170 -35 -170 -162z" />
    <glyph glyph-name="percent" unicode="%" horiz-adv-x="1388" 
d="M340 0h-234l951 1454h235zM662 1124q0 -358 -310 -358q-311 0 -311 358q0 147 72 248q70 101 239 101q170 0 240 -101q70 -98 70 -248zM473 1124q0 105 -25 152t-96 47t-97 -47t-26 -152q0 -107 26 -156.5t97 -49.5t96 49t25 157zM1352 340q0 -358 -310 -358
q-311 0 -311 358q0 147 72 248q69 100 239 100q171 0 240 -100q70 -98 70 -248zM1163 340q0 105 -25 152t-96 47t-96.5 -47t-25.5 -152q0 -108 25.5 -157.5t96.5 -49.5t96 49.5t25 157.5z" />
    <glyph glyph-name="ampersand" unicode="&#x26;" horiz-adv-x="1392" 
d="M1110 690l186 -203q-51 -98 -139 -196l275 -291h-326l-107 125q-62 -62 -184 -102q-125 -41 -237 -41q-181 0 -342 84q-87 45 -136 136t-49 216q0 250 309 399q-151 177 -151 336q0 150 111 235t294 85q173 0 287 -97q113 -94 113 -260q0 -118 -69.5 -220t-184.5 -167
l219 -242q51 62 131 203zM612 1225q-59 0 -94 -28t-35 -81q0 -108 113 -215q77 38 110 85t33 130q0 109 -127 109zM334 416q0 -91 76 -140t170 -49q164 0 249 82l-297 330q-89 -31 -143.5 -89.5t-54.5 -133.5z" />
    <glyph glyph-name="quotesingle" unicode="'" horiz-adv-x="423" 
d="M332 1454v-203l-29 -280h-184l-27 280v203h240z" />
    <glyph glyph-name="parenleft" unicode="(" horiz-adv-x="811" 
d="M164 547q0 607 397 1030l193 -170q-334 -346 -334 -860q0 -516 334 -862l-193 -170q-397 423 -397 1032z" />
    <glyph glyph-name="parenright" unicode=")" horiz-adv-x="811" 
d="M647 547q0 -609 -397 -1032l-193 170q334 346 334 862q0 514 -334 860l193 170q397 -423 397 -1030z" />
    <glyph glyph-name="asterisk" unicode="*" horiz-adv-x="1015" 
d="M973 1040l-266 -73l170 -224l-209 -153l-160 227l-160 -227l-209 153l170 224l-266 73l80 248l264 -92l-12 277h266l-12 -277l264 92z" />
    <glyph glyph-name="plus" unicode="+" horiz-adv-x="1228" 
d="M485 713v446h260v-446h422v-226h-422v-460h-260v460h-424v226h424z" />
    <glyph glyph-name="comma" unicode="," horiz-adv-x="577" 
d="M135 289h307v-289q0 -105 -28 -147q-27 -40 -154 -140l-96 119q67 41 91 75t24 79v14h-144v289z" />
    <glyph glyph-name="hyphen" unicode="-" horiz-adv-x="864" 
d="M782 483h-700v236h700v-236z" />
    <glyph glyph-name="period" unicode="." horiz-adv-x="577" 
d="M442 289v-289h-307v289h307z" />
    <glyph glyph-name="slash" unicode="/" horiz-adv-x="1081" 
d="M1061 1473l-799 -1473h-303l797 1473h305z" />
    <glyph glyph-name="zero" unicode="0" 
d="M1143 735q0 -171 -21 -291t-75 -229q-115 -233 -445 -233q-129 0 -229 40.5t-162 110.5q-57 65 -92 170q-34 98 -46 197t-12 237q0 128 12.5 222.5t45.5 189.5q113 324 483 324q129 0 229.5 -42t159.5 -114q61 -70 94 -168q58 -164 58 -414zM852 715v39q0 151 -21 256
q-18 98 -71 146t-158 54q-127 0 -192 -94q-25 -42 -39 -106q-19 -107 -19 -256v-39q0 -155 19 -264q19 -98 74 -149.5t157 -57.5q65 0 115 27.5t76 70.5q25 38 38 109q21 107 21 264z" />
    <glyph glyph-name="one" unicode="1" 
d="M553 1454h283v-1454h-291v944h-350v262q54 0 129 15q97 20 160 75.5t69 157.5z" />
    <glyph glyph-name="two" unicode="2" 
d="M379 262h698v-262h-991v213q0 136 68 244t178 174q39 23 103 58t106 58t93 57t81 64.5t50.5 71t20.5 84.5q0 90 -61 138t-164 48q-94 0 -155.5 -30t-131.5 -101l-186 195q199 199 473 199q254 0 385 -116t131 -333q0 -86 -39 -161t-100.5 -129t-135.5 -102t-148 -90
t-135.5 -83t-100.5 -91.5t-39 -105.5z" />
    <glyph glyph-name="three" unicode="3" 
d="M860 795q124 -40 192 -136.5t68 -214.5q0 -225 -162 -344q-156 -118 -403 -118q-149 0 -297 59q-147 63 -205 178l193 168q60 -78 129.5 -110.5t179.5 -32.5q131 0 202.5 52t71.5 148q0 114 -73 162q-34 24 -82 35q-66 16 -180 16v263q116 0 204 24q99 27 99 133
q0 65 -63 101t-165 36q-95 0 -165 -30.5t-136 -106.5l-186 174q78 108 204 165t269 57q235 0 379 -99q145 -95 145 -297q0 -101 -61 -181.5t-158 -100.5z" />
    <glyph glyph-name="four" unicode="4" 
d="M946 518h244v-262h-244v-256h-291v256h-635v262l543 936h324l-543 -936h311v395h291v-395z" />
    <glyph glyph-name="five" unicode="5" 
d="M651 1020q211 0 350 -133q138 -132 138 -373q0 -228 -156 -381q-157 -151 -395 -151q-334 0 -518 211l219 180q95 -129 299 -129q118 0 189 74t71 196q0 116 -65 180t-171 64q-171 0 -260 -133h-250l64 829h885v-262h-641l-21 -262q84 90 262 90z" />
    <glyph glyph-name="six" unicode="6" 
d="M625 -18q-268 0 -416 151q-146 152 -146 504q0 404 162 620t445 216q296 0 446 -144l-153 -213q-104 94 -293 94q-119 0 -215 -84q-94 -82 -97 -247q94 122 295 122q224 0 369 -139t145 -352q0 -244 -149 -387q-147 -141 -393 -141zM625 739q-119 0 -192 -61.5
t-73 -183.5q0 -250 265 -250q109 0 177 70t68 180q0 109 -68 177t-177 68z" />
    <glyph glyph-name="seven" unicode="7" 
d="M100 1192v262h1026v-262q-220 -249 -321 -537q-100 -285 -121 -655h-291q0 296 113 604q118 320 317 588h-723z" />
    <glyph glyph-name="eight" unicode="8" 
d="M332 770q-92 37 -142.5 116t-50.5 175q0 196 131 303q133 109 334 109t334 -109q131 -107 131 -303q0 -96 -50 -175t-142 -116q98 -27 161 -127q66 -104 66 -217q0 -208 -141 -328q-137 -116 -359 -116q-220 0 -360 116q-140 122 -140 328q0 116 64 217q63 99 164 127z
M422 1055q0 -164 182 -164t182 164q0 76 -47.5 126t-134.5 50t-134.5 -50t-47.5 -126zM813 426q0 95 -55 149t-154 54t-154 -54t-55 -149q0 -87 53.5 -134.5t155.5 -47.5t155.5 47.5t53.5 134.5z" />
    <glyph glyph-name="nine" unicode="9" 
d="M584 1473q267 0 413 -152q148 -151 148 -504q0 -404 -161.5 -619.5t-444.5 -215.5q-298 0 -447 143l154 213q104 -94 293 -94q117 0 213 84q95 83 98 247q-94 -122 -295 -122q-226 0 -369 137q-145 139 -145 354q0 244 147 385q150 144 396 144zM584 715q119 0 191.5 62
t72.5 184q0 249 -264 249q-109 0 -177.5 -69.5t-68.5 -179.5q0 -109 68.5 -177.5t177.5 -68.5z" />
    <glyph glyph-name="colon" unicode=":" horiz-adv-x="577" 
d="M442 289v-289h-307v289h307zM442 1096v-289h-307v289h307z" />
    <glyph glyph-name="semicolon" unicode=";" horiz-adv-x="577" 
d="M135 289h307v-289q0 -105 -28 -147q-27 -40 -154 -140l-96 119q67 41 91 75t24 79v14h-144v289zM442 1096v-289h-307v289h307z" />
    <glyph glyph-name="less" unicode="&#x3c;" horiz-adv-x="1228" 
d="M1012 195l-168 -195l-680 590v119l680 589l168 -194l-527 -455z" />
    <glyph glyph-name="equal" unicode="=" horiz-adv-x="1228" 
d="M145 440h938v-286h-938v286zM145 926h938v-287h-938v287z" />
    <glyph glyph-name="greater" unicode="&#x3e;" horiz-adv-x="1228" 
d="M1065 709v-119l-680 -590l-168 195l526 454l-526 455l168 194z" />
    <glyph glyph-name="question" unicode="?" horiz-adv-x="1079" 
d="M555 1473q195 0 338 -101q147 -102 147 -287q0 -68 -21 -123.5t-54.5 -94t-74 -74t-81.5 -71.5t-74.5 -77.5t-54.5 -102t-21 -134.5h-280q0 129 37 227.5t96 152.5q24 22 64.5 54.5t67.5 55t54.5 52.5t41.5 63.5t14 71.5q0 63 -53.5 101.5t-145.5 38.5q-202 0 -328 -187
l-190 170q84 116 227 189q143 76 291 76zM670 0h-301v283h301v-283z" />
    <glyph glyph-name="at" unicode="@" horiz-adv-x="1579" 
d="M780 311q113 0 148 35.5t35 130.5v66q-40 -43 -152 -43q-85 0 -121.5 -24t-36.5 -79q0 -86 127 -86zM1481 604q0 -223 -83.5 -342t-234.5 -119q-37 1 -67.5 6.5t-48.5 13t-30 16t-16 15t-2 9.5q-80 -74 -243 -74q-120 0 -215 68q-95 71 -95 194q-10 158 117 225
q31 20 86 29q51 10 92 14l113 11q94 6 94 55q0 78 -125 78q-122 0 -198 -94l-131 129q54 67 143 106t186 39q322 0 322 -311v-269q0 -34 8 -51.5t35 -17.5q31 0 43 56.5t12 213.5q0 243 -102 356t-336 113q-210 0 -342 -147q-129 -144 -129 -375q0 -270 110.5 -402.5
t360.5 -132.5q213 0 375 72l114 -166q-110 -72 -209 -92q-106 -25 -284 -25q-331 0 -520 195q-187 196 -187 551q0 310 197 528q196 217 514 217q327 0 501.5 -177t174.5 -515z" />
    <glyph glyph-name="A" unicode="A" horiz-adv-x="1456" 
d="M1458 0h-321l-121 319h-576l-121 -319h-321l571 1454h318zM729 1073l-188 -491h374z" />
    <glyph glyph-name="B" unicode="B" horiz-adv-x="1392" 
d="M1106 797q219 -115 219 -359q0 -232 -120.5 -335t-364.5 -103h-697v1454h697q205 0 316.5 -101.5t111.5 -297.5q0 -82 -35.5 -141t-126.5 -117zM821 1192h-383v-307h383q69 0 110.5 38.5t41.5 114.5q0 77 -41.5 115.5t-110.5 38.5zM438 262h406q186 0 186 180
q0 181 -186 181h-406v-361z" />
    <glyph glyph-name="C" unicode="C" horiz-adv-x="1374" 
d="M768 244q217 0 328 205l241 -142q-93 -154 -240.5 -239.5t-328.5 -85.5q-297 0 -494 215q-194 218 -194 530q0 313 194 528q197 218 494 218q181 0 328 -86t241 -240l-241 -139q-114 202 -328 202q-176 0 -285 -139q-108 -138 -108 -344t108 -344q109 -139 285 -139z" />
    <glyph glyph-name="D" unicode="D" horiz-adv-x="1431" 
d="M143 1454h502q309 0 506 -209q197 -206 197 -518q0 -311 -197 -520q-198 -207 -506 -207h-502v1454zM438 262h197q190 0 303 131q117 132 117 334q0 200 -117 332q-115 133 -303 133h-197v-930z" />
    <glyph glyph-name="E" unicode="E" horiz-adv-x="1214" 
d="M438 627v-365h723v-262h-1018v1454h1008v-262h-713v-303h576v-262h-576z" />
    <glyph glyph-name="F" unicode="F" horiz-adv-x="1136" 
d="M1104 1454v-262h-666v-303h531v-262h-531v-627h-295v1454h961z" />
    <glyph glyph-name="G" unicode="G" horiz-adv-x="1519" 
d="M793 821h593v-821h-292l-37 72q-116 -90 -262 -90q-328 0 -523 213q-192 210 -192 532q0 313 203 528q203 218 512 218q186 0 339 -85t252 -235l-258 -149q-111 206 -348 206q-192 0 -299 -137q-106 -135 -106 -346t106 -346q107 -137 299 -137q145 0 228.5 76t83.5 239
h-299v262z" />
    <glyph glyph-name="H" unicode="H" horiz-adv-x="1406" 
d="M969 881v573h295v-1454h-295v618h-531v-618h-295v1454h295v-573h531z" />
    <glyph glyph-name="I" unicode="I" horiz-adv-x="581" 
d="M438 1454v-1454h-295v1454h295z" />
    <glyph glyph-name="J" unicode="J" horiz-adv-x="1105" 
d="M678 1454h295v-1051q0 -228 -115.5 -324.5t-359.5 -96.5q-239 0 -357 124q-121 127 -121 304h297q0 -168 181 -168q180 0 180 161v1051z" />
    <glyph glyph-name="K" unicode="K" horiz-adv-x="1357" 
d="M438 836l537 618h381l-549 -614l561 -840h-348l-402 631l-180 -203v-428h-295v1454h295v-618z" />
    <glyph glyph-name="L" unicode="L" horiz-adv-x="1159" 
d="M438 1454v-1192h678v-262h-973v1454h295z" />
    <glyph glyph-name="M" unicode="M" horiz-adv-x="1937" 
d="M967 381l331 1073h496v-1454h-295v1108l-373 -1108h-315l-373 1110v-1110h-295v1454h496z" />
    <glyph glyph-name="N" unicode="N" horiz-adv-x="1429" 
d="M991 516v938h295v-1454h-295l-553 938v-938h-295v1454h295z" />
    <glyph glyph-name="O" unicode="O" horiz-adv-x="1589" 
d="M1307 1255q202 -214 202 -528q0 -313 -202 -530q-203 -215 -512 -215t-512 215q-203 218 -203 530q0 313 203 528q203 218 512 218t512 -218zM1098 383q116 137 116 344t-116 344q-118 139 -303 139t-303 -139q-117 -138 -117 -344t117 -344q118 -139 303 -139t303 139z
" />
    <glyph glyph-name="P" unicode="P" horiz-adv-x="1374" 
d="M811 512h-373v-512h-295v1454h668q122 0 211 -20t166 -68q168 -102 168 -383t-168 -383q-77 -48 -166 -68t-211 -20zM438 1192v-418h381q124 0 183 47t59 162t-59 162t-183 47h-381z" />
    <glyph glyph-name="Q" unicode="Q" horiz-adv-x="1579" 
d="M1405 330q57 -51 186 -54v-294q-229 0 -385 129q-182 -129 -411 -129q-309 0 -512 215q-203 218 -203 530q0 313 203 528q203 218 512 218t512 -218q202 -214 202 -528q0 -220 -104 -397zM795 244q138 0 245 82q-78 93 -254 96v295q247 0 412 -137q16 75 16 147
q0 207 -116 344q-118 139 -303 139t-303 -139q-117 -138 -117 -344t117 -344q118 -139 303 -139z" />
    <glyph glyph-name="R" unicode="R" horiz-adv-x="1458" 
d="M1356 983q0 -363 -312 -446l392 -537h-363l-375 512h-260v-512h-295v1454h668q122 0 211 -20t166 -68q168 -102 168 -383zM438 1192v-418h381q124 0 183 47t59 162t-59 162t-183 47h-381z" />
    <glyph glyph-name="S" unicode="S" horiz-adv-x="1316" 
d="M14 276l238 140q41 -71 158.5 -121.5t279.5 -50.5q183 0 234 71q39 51 39 117q0 54 -30.5 88.5t-81.5 50.5t-117.5 24t-140 14.5t-147.5 17.5t-140.5 39t-117.5 71.5t-81.5 121t-30.5 183.5q0 203 152 317t434 114q114 0 215.5 -23.5t160.5 -60.5q58 -31 101 -66t57 -61
l16 -25l-247 -141q-23 41 -108.5 77.5t-194.5 36.5q-291 0 -291 -168q0 -27 6.5 -48.5t22.5 -38t32 -28.5t45 -21.5t50.5 -15t60.5 -10.5t62.5 -7.5t68.5 -6.5q218 -14 362 -84q81 -40 128.5 -130t47.5 -220q0 -55 -12.5 -109.5t-50 -118t-97 -111t-164 -79.5t-239.5 -32
q-505 0 -680 294z" />
    <glyph glyph-name="T" unicode="T" horiz-adv-x="1220" 
d="M12 1454h1196v-262h-450v-1192h-295v1192h-451v262z" />
    <glyph glyph-name="U" unicode="U" horiz-adv-x="1435" 
d="M1028 1454h295v-749q0 -150 -15 -254.5t-55 -194.5q-62 -138 -192 -206t-354 -68q-350 0 -480 194q-62 96 -88 220.5t-26 308.5v749h295v-749q0 -114 4 -171.5t20 -115.5q28 -91 89 -129.5t186 -44.5q165 0 245 80q38 38 52 102q16 63 20 116.5t4 162.5v749z" />
    <glyph glyph-name="V" unicode="V" horiz-adv-x="1310" 
d="M1317 1454l-502 -1454h-317l-504 1454h321l340 -1073l340 1073h322z" />
    <glyph glyph-name="W" unicode="W" horiz-adv-x="2146" 
d="M1552 381l275 1073h321l-436 -1454h-317l-322 993l-321 -993h-318l-436 1454h321l275 -1073l317 1073h324z" />
    <glyph glyph-name="X" unicode="X" horiz-adv-x="1406" 
d="M1051 0l-346 520l-351 -520h-352l537 766l-484 688h355l295 -440l292 440h353l-482 -688l537 -766h-354z" />
    <glyph glyph-name="Y" unicode="Y" horiz-adv-x="1261" 
d="M326 1454l305 -614l305 614h336l-494 -905v-549h-295v549l-493 905h336z" />
    <glyph glyph-name="Z" unicode="Z" 
d="M1124 1192l-690 -930h711v-262h-1077v262l690 930h-662v262h1028v-262z" />
    <glyph glyph-name="bracketleft" unicode="[" horiz-adv-x="655" 
d="M629 -326h-506v1911h506v-256h-240v-1399h240v-256z" />
    <glyph glyph-name="backslash" unicode="\" horiz-adv-x="1122" 
d="M315 1473l797 -1473h-303l-799 1473h305z" />
    <glyph glyph-name="bracketright" unicode="]" horiz-adv-x="655" 
d="M27 1585h505v-1911h-505v256h239v1399h-239v256z" />
    <glyph glyph-name="asciicircum" unicode="^" horiz-adv-x="1501" 
d="M586 971h-340l309 483h391l309 -483h-340l-165 213z" />
    <glyph glyph-name="underscore" unicode="_" horiz-adv-x="1011" 
d="M-10 0h1032v-270h-1032v270z" />
    <glyph glyph-name="grave" unicode="`" horiz-adv-x="839" 
d="M205 1473h262l168 -306h-217z" />
    <glyph glyph-name="a" unicode="a" horiz-adv-x="1150" 
d="M1036 10l8 -10h-245q-51 17 -54 98q-35 -53 -102 -80q-40 -18 -76.5 -26.5t-48.5 -9t-41 -0.5q-420 0 -420 325q0 94 35 167.5t88 113.5q49 35 129 57q72 19 124.5 24t133.5 5q176 0 176 76q0 50 -43 84t-135 34q-140 0 -254 -102l-180 145q67 91 184.5 141t249.5 50
q210 0 328.5 -101.5t118.5 -261.5v-647q0 -48 24 -82zM743 377v127q-79 -42 -211 -45q-192 -6 -192 -137q0 -62 44.5 -99t121.5 -37q102 0 169.5 50.5t67.5 140.5z" />
    <glyph glyph-name="b" unicode="b" horiz-adv-x="1337" 
d="M731 1102q244 0 393 -152q150 -150 150 -409q0 -253 -141 -406t-402 -153q-159 0 -274 92l-29 -74h-285v1454h285v-485q118 133 303 133zM711 217q131 0 204.5 91t73.5 233q0 143 -71 233t-207 90q-140 0 -222 -94q-83 -95 -83 -229q0 -136 79 -230q82 -94 226 -94z" />
    <glyph glyph-name="c" unicode="c" horiz-adv-x="1120" 
d="M631 219q154 0 233 131l242 -123q-91 -129 -203 -187t-272 -58q-247 0 -408 161q-160 165 -160 400q0 229 150 393q150 166 418 166q167 0 280 -60.5t195 -193.5l-248 -117q-77 133 -227 133q-131 0 -207 -94q-76 -91 -76 -227q0 -140 76.5 -232t206.5 -92z" />
    <glyph glyph-name="d" unicode="d" horiz-adv-x="1337" 
d="M606 1102q185 0 303 -133v485h285v-1454h-285l-28 74q-115 -92 -275 -92q-260 0 -401 153q-142 154 -142 406q0 258 148 409q152 152 395 152zM627 217q144 0 223 94q82 94 82 230q0 133 -84 229q-82 94 -221 94q-136 0 -207.5 -90t-71.5 -233q0 -141 74 -232.5
t205 -91.5z" />
    <glyph glyph-name="e" unicode="e" horiz-adv-x="1216" 
d="M610 219q183 0 256 125l217 -113q-74 -117 -197.5 -183t-275.5 -66q-258 0 -403 157q-144 159 -144 402q0 88 19.5 168.5t62 152.5t105 125t155 84t205.5 31q258 0 402 -166q145 -168 145 -395v-109h-817q44 -213 270 -213zM610 864q-197 0 -262 -194h524
q-65 194 -262 194z" />
    <glyph glyph-name="f" unicode="f" horiz-adv-x="724" 
d="M571 1473q67 0 148 -19v-237q-74 18 -137 18q-95 0 -95 -152h191v-235h-193v-848h-282v848h-183v235h183q1 210 92.5 300t275.5 90z" />
    <glyph glyph-name="g" unicode="g" horiz-adv-x="1296" 
d="M1169 1083v-1020q0 -203 -157 -327q-156 -123 -400 -123q-203 0 -346 59q-59 24 -108 52t-71 46.5t-26 26.5l172 160q107 -107 379 -107q160 0 217 54q56 53 56 139v51q-105 -114 -262 -114q-237 0 -400 163q-162 162 -162 400q0 222 158 391q155 168 404 168
q121 0 231 -84l31 65h284zM623 217q126 0 202 94t76 232q0 132 -74 227q-70 94 -204 94q-126 0 -201.5 -90.5t-75.5 -230.5q0 -142 74 -234t203 -92z" />
    <glyph glyph-name="h" unicode="h" horiz-adv-x="1284" 
d="M1159 670v-670h-285v6v6v6v7v6v6v6v6v6v6v7v6v6v6v6v6v6v7v6v6v6v6v6v6v7v6v6v6v6v6v6v7v6v6v6v6v6v6v7v6v6v6v6v6v6v7v6v6v6v6v6v6v7v6v6v6v6v6v6v7v6v6v6v6v6v7v6v6v6v6v6v6v7v6v6v6v6v6v6v7v6v6v4v6v6v6v6v7v6v6v6v6v6v6v7v6v6v6v6v6v6v7v4v6v6v6v6v15q0 98 -40 147
t-144 49q-122 0 -197 -90.5t-75 -234.5v-539h-285v1454h285v-514q43 65 124 113.5t187 48.5q215 0 322 -94q108 -94 108 -338z" />
    <glyph glyph-name="i" unicode="i" horiz-adv-x="563" 
d="M424 1083v-1083h-285v1083h285zM430 1454v-268h-297v268h297z" />
    <glyph glyph-name="j" unicode="j" horiz-adv-x="600" 
d="M176 -10v1087h285v-1087q0 -67 -2 -90q-5 -117 -35 -166q-66 -121 -227 -121q-169 0 -228 18v230q49 -15 133 -15q74 0 74 144zM467 1454v-268h-297v268h297z" />
    <glyph glyph-name="k" unicode="k" horiz-adv-x="1220" 
d="M1126 1083l-374 -405l473 -678h-334l-316 487l-157 -170v-317h-285v1454h285v-764l340 393h368z" />
    <glyph glyph-name="l" unicode="l" horiz-adv-x="550" 
d="M418 1454v-1454h-285v1454h285z" />
    <glyph glyph-name="m" unicode="m" horiz-adv-x="1828" 
d="M1704 668v-668h-285v668q0 80 -22 133q-26 69 -142 69q-172 0 -172 -290v-580h-284v668q0 202 -185 202q-105 0 -150.5 -77t-45.5 -230v-563h-285v1083h285l35 -75q76 94 237 94q237 0 332 -164q114 164 301 164q96 0 157.5 -17t114.5 -61q109 -84 109 -356z" />
    <glyph glyph-name="n" unicode="n" horiz-adv-x="1280" 
d="M1155 668v-668h-285v668q0 202 -182 202q-129 0 -199.5 -86t-70.5 -249v-535h-285v1083h285l43 -94q113 113 264 113q96 0 166.5 -18.5t132.5 -61.5q131 -92 131 -354z" />
    <glyph glyph-name="o" unicode="o" horiz-adv-x="1265" 
d="M1202 541q0 -234 -162 -396q-159 -163 -407 -163q-247 0 -410 163q-160 165 -160 396q0 232 160 397q164 164 410 164q248 0 407 -164q162 -162 162 -397zM348 541q0 -140 76.5 -231t208.5 -91t208.5 91t76.5 231q0 139 -77 231t-208 92t-208 -92t-77 -231z" />
    <glyph glyph-name="p" unicode="p" horiz-adv-x="1337" 
d="M731 -18q-185 0 -303 133v-484h-285v1452h285l29 -73q115 92 274 92q260 0 402 -154q141 -153 141 -405q0 -262 -150 -412q-146 -149 -393 -149zM711 866q-144 0 -226 -94q-79 -94 -79 -229t83 -230q82 -94 222 -94q135 0 206.5 90t71.5 234q0 142 -73.5 232.5
t-204.5 90.5z" />
    <glyph glyph-name="q" unicode="q" horiz-adv-x="1327" 
d="M606 -18q-246 0 -395 149q-148 151 -148 412q0 251 142 405t401 154q160 0 275 -92l28 73h285v-1452h-285v484q-118 -133 -303 -133zM627 866q-131 0 -205 -91t-74 -232q0 -143 71.5 -233.5t207.5 -90.5q139 0 221 94q84 96 84 230q0 135 -82 229q-79 94 -223 94z" />
    <glyph glyph-name="r" unicode="r" horiz-adv-x="845" 
d="M729 1102q53 0 105 -19v-243q-58 30 -144 30q-128 0 -200 -99t-72 -267v-504h-285v1083h283l45 -98q114 117 268 117z" />
    <glyph glyph-name="s" unicode="s" horiz-adv-x="1060" 
d="M39 197l-12 24l231 92q6 -9 23 -26q29 -21 103.5 -44.5t164.5 -23.5q101 0 134.5 21t33.5 71q0 35 -36 58t-93.5 36.5t-126.5 27t-138.5 36.5t-127 57.5t-93.5 97.5t-36 150q0 35 10.5 73.5t41 85.5t78 83.5t130 61t188.5 24.5q115 0 219 -39q112 -42 156 -78l49 -39
l-176 -160q-9 9 -27 21q-22 17 -88 37t-133 20q-164 0 -164 -90q0 -41 28 -69t73.5 -41t104 -26t120 -22.5t120 -32t104 -53t73.5 -87t28 -132.5q0 -155 -106 -242t-330 -87q-120 0 -222.5 23.5t-160.5 60.5q-117 78 -143 131z" />
    <glyph glyph-name="t" unicode="t" horiz-adv-x="778" 
d="M727 1083v-235h-260v-488q0 -50 16 -90q25 -51 121 -51l123 19v-238q-120 -18 -244 -18q-176 0 -237 94q-60 97 -60 291v481h-192v235h192v371h281v-371h260z" />
    <glyph glyph-name="u" unicode="u" horiz-adv-x="1275" 
d="M121 416v667h285v-667q0 -203 182 -203q129 0 199.5 86.5t70.5 249.5v534h285v-1083h-285l-43 94q-112 -112 -264 -112q-97 0 -167.5 18t-131.5 61q-131 92 -131 355z" />
    <glyph glyph-name="v" unicode="v" horiz-adv-x="1200" 
d="M760 0h-320l-444 1083h289l315 -788l315 788h289z" />
    <glyph glyph-name="w" unicode="w" horiz-adv-x="1667" 
d="M1034 0l-200 748l-201 -748h-316l-321 1083h299l184 -739l191 739h327l191 -739l184 739h299l-321 -1083h-316z" />
    <glyph glyph-name="x" unicode="x" horiz-adv-x="1028" 
d="M516 780l191 303h327l-366 -532l370 -551h-325l-197 317l-197 -317h-325l371 551l-367 532h328z" />
    <glyph glyph-name="y" unicode="y" horiz-adv-x="1183" 
d="M291 1083l293 -804l307 804h297l-457 -1169q-114 -301 -332 -301h-223v237h146q38 0 67 30.5t29 78.5q0 29 -12 66l-410 1058h295z" />
    <glyph glyph-name="z" unicode="z" horiz-adv-x="1003" 
d="M918 846l-498 -608h522v-238h-876v238l497 608h-467v237h822v-237z" />
    <glyph glyph-name="braceleft" unicode="{" horiz-adv-x="843" 
d="M633 1157v-205q0 -256 -248 -323q248 -67 248 -318v-209q0 -122 22.5 -159t100.5 -37h55v-232h-131q-167 0 -240 89.5t-73 263.5v266q0 108 -54.5 165t-189.5 58v227q61 2 105.5 15t71 33t42 49.5t20.5 58.5t5 66v268q0 173 73 262.5t240 89.5h131v-231h-55
q-77 0 -100 -37.5t-23 -159.5z" />
    <glyph glyph-name="bar" unicode="|" horiz-adv-x="507" 
d="M385 -369h-262v1842h262v-1842z" />
    <glyph glyph-name="braceright" unicode="}" horiz-adv-x="843" 
d="M211 952v205q0 122 -23 159.5t-100 37.5h-55v231h131q167 0 240 -89.5t73 -262.5v-268q0 -37 5 -66t20.5 -58.5t42 -49.5t71 -33t105.5 -15v-227q-135 -1 -189.5 -58t-54.5 -165v-266q0 -174 -73 -263.5t-240 -89.5h-131v232h55q78 0 100.5 37t22.5 159v209
q0 251 248 318q-248 67 -248 323z" />
    <glyph glyph-name="asciitilde" unicode="~" horiz-adv-x="1497" 
d="M330 459l-27 -39l-190 153q29 51 65 97q138 175 324 180q72 0 145 -32t123 -75q123 -106 199 -106q44 0 94.5 37.5t79.5 83.5l28 39l189 -158q-23 -41 -68 -96q-40 -49 -80 -84q-45 -39 -110.5 -66.5t-128.5 -27.5q-77 0 -152.5 30.5t-126.5 75.5q-49 45 -101 76t-91 31
q-42 0 -93 -37.5t-79 -81.5z" />
    <glyph glyph-name="exclamdown" unicode="&#xa1;" horiz-adv-x="575" 
d="M434 803h-301v282h301v-282zM137 -369v361l37 643h217l39 -643v-361h-293z" />
    <glyph glyph-name="cent" unicode="&#xa2;" 
d="M766 -18h-211v194q-201 41 -326 193t-125 358q0 200 117 356q120 156 334 193v197h211v-193q241 -27 381 -248l-248 -117q-56 90 -133 117v-614q85 29 139 117l242 -123q-153 -215 -381 -242v-188zM389 727q0 -104 43.5 -184.5t122.5 -116.5v598q-77 -36 -121.5 -117
t-44.5 -180z" />
    <glyph glyph-name="sterling" unicode="&#xa3;" 
d="M938 381l197 -176q-85 -111 -187 -160q-86 -45 -237 -45h-643v270q151 62 151 211v166h-125v262h123q0 87 17 167.5t54.5 153.5t93.5 126.5t139.5 85t185.5 31.5q223 0 370 -199l-213 -170q-66 106 -157 106q-119 0 -160 -96q-34 -86 -37 -205h408v-262h-406v-178
q0 -70 -2 -88q-2 -29 -19 -62.5t-47 -56.5h267q78 0 127.5 26.5t99.5 92.5z" />
    <glyph glyph-name="currency" unicode="&#xa4;" horiz-adv-x="1341" 
d="M252 793l-141 125l184 184l123 -141q117 69 252 69q133 0 250 -69l127 141l184 -184l-141 -125q69 -117 69 -250q0 -135 -69 -252l141 -123l-184 -186l-125 141q-113 -70 -252 -70q-140 0 -250 70l-125 -141l-184 186l139 123q-68 117 -67.5 252t69.5 250zM670 315
q97 0 162 65.5t65 162.5q0 94 -68 159q-65 68 -159 68t-162 -68q-66 -66 -66 -159q0 -94 67 -161t161 -67z" />
    <glyph glyph-name="yen" unicode="&#xa5;" 
d="M862 756h217v-226h-327v-102h327v-225h-327v-203h-295v203h-328v225h328v102h-328v226h217l-342 698h336l264 -655l264 655h336z" />
    <glyph glyph-name="brokenbar" unicode="&#xa6;" horiz-adv-x="501" 
d="M379 868h-256v605h256v-605zM379 0h-256v604h256v-604z" />
    <glyph glyph-name="section" unicode="&#xa7;" 
d="M154 1198q0 183 145 275q143 94 336 94q239 0 409 -170l-180 -183q-76 91 -229 91q-79 0 -134 -29t-55 -78q0 -24 15.5 -40t47.5 -26t65 -16.5t83.5 -16t87.5 -20.5q85 -23 144 -55q70 -33 112.5 -111.5t42.5 -185.5q0 -112 -83 -221q83 -83 83 -221q0 -182 -145 -277
q-145 -92 -336 -92q-239 0 -409 170l180 182q75 -90 229 -90q79 0 134 29t55 78q0 24 -15.5 40t-47.5 25.5t-65 16t-83.5 16t-87.5 20.5q-79 22 -146 56q-68 33 -110.5 111.5t-42.5 185.5q0 111 84 221q-84 81 -84 221zM782 727q0 48 -63 72q-21 12 -94 28q-7 2 -119 27
q-90 -47 -90 -98q0 -26 16 -42.5t47 -31.5q8 -4 94 -29l119 -24q90 47 90 98z" />
    <glyph glyph-name="dieresis" unicode="&#xa8;" horiz-adv-x="1021" 
d="M205 1473h239v-246h-239v246zM578 1473h239v-246h-239v246z" />
    <glyph glyph-name="copyright" unicode="&#xa9;" horiz-adv-x="1613" 
d="M279 199q-218 218 -218 528q0 308 218 526q220 220 528 220q306 0 526 -220q219 -219 219 -526q0 -309 -219 -528q-217 -217 -526 -217q-311 0 -528 217zM807 489q112 0 172 97l180 -90q-129 -185 -352 -185q-184 0 -305 121q-119 122 -119 297q0 171 113 293
q114 123 311 123q123 0 206.5 -46t145.5 -145l-184 -86q-58 101 -168 101q-96 0 -153.5 -68.5t-57.5 -171.5q0 -105 56.5 -172.5t154.5 -67.5zM432 1104q-156 -156 -156 -377q0 -220 156 -379q158 -158 375 -158t375 158q155 158 155 379q0 222 -155 377q-157 160 -375 160
t-375 -160z" />
    <glyph glyph-name="ordfeminine" unicode="&#xaa;" horiz-adv-x="933" 
d="M807 698l6 -8h-174q-36 12 -39 70q-55 -82 -190 -82q-297 0 -297 229q0 68 25 120t63 79q33 25 90 41q82 20 184 20q125 0 125 56q0 35 -30.5 59.5t-96.5 24.5q-100 0 -180 -74l-129 104q48 64 132 100t177 36q148 0 233 -72.5t85 -186.5v-458q0 -31 16 -58zM600 958v89
q-58 -28 -151 -31q-136 -6 -136 -98q0 -43 31 -69t86 -26q73 0 121.5 35t48.5 100z" />
    <glyph glyph-name="guillemotleft" unicode="&#xab;" horiz-adv-x="1257" 
d="M1139 258l-191 -160l-375 445v96l373 444l191 -159l-277 -332zM668 258l-191 -160l-375 445v96l373 444l191 -159l-277 -332z" />
    <glyph glyph-name="logicalnot" unicode="&#xac;" horiz-adv-x="1228" 
d="M1110 721v-533h-295v271h-723v262h1018z" />
    <glyph glyph-name="registered" unicode="&#xae;" horiz-adv-x="1613" 
d="M279 199q-218 218 -218 528q0 308 218 526q220 220 528 220q306 0 526 -220q219 -219 219 -526q0 -309 -219 -528q-217 -217 -526 -217q-311 0 -528 217zM1130 870q0 -98 -48 -163t-117 -86l161 -299h-204l-154 284h-74v-284h-188v811h309q315 0 315 -263zM694 987v-233
h117q68 0 99.5 26t31.5 90t-31.5 90.5t-99.5 26.5h-117zM432 1104q-156 -156 -156 -377q0 -220 156 -379q158 -158 375 -158t375 158q155 158 155 379q0 222 -155 377q-157 160 -375 160t-375 -160z" />
    <glyph glyph-name="degree" unicode="&#xb0;" horiz-adv-x="780" 
d="M391 1493q129 0 221 -92q95 -92 95 -219q0 -130 -95 -219q-94 -91 -221 -91q-131 0 -225 91q-92 89 -92 219q0 127 92 219q95 92 225 92zM330 1122q36 -38 84.5 -21t60.5 59t-24 81q-25 25 -60 25t-61 -25q-25 -25 -25 -59.5t25 -59.5z" />
    <glyph glyph-name="plusminus" unicode="&#xb1;" horiz-adv-x="1228" 
d="M494 823v322h247v-322h357v-215h-357v-321h-247v321h-361v215h361zM133 213h965v-213h-965v213z" />
    <glyph glyph-name="uni00B2" unicode="&#xb2;" horiz-adv-x="808" 
d="M268 715h434v-164h-620v133q0 66 23.5 119.5t61.5 88.5t83.5 64.5t91 54t83.5 49.5t61.5 58.5t23.5 73.5q0 56 -37 86.5t-100 30.5q-57 0 -92.5 -18t-79.5 -64l-117 121q119 125 289 125q148 0 233.5 -76.5t85.5 -204.5q0 -88 -62.5 -162.5t-150.5 -116.5
q-84 -44 -145 -92q-66 -54 -66 -106z" />
    <glyph glyph-name="uni00B3" unicode="&#xb3;" horiz-adv-x="808" 
d="M588 1040q125 -43 125 -211q0 -143 -88 -215.5t-244 -72.5q-94 0 -181.5 37.5t-133.5 103.5l120 109q72 -97 195 -97q154 0 154 135q0 73 -48.5 100t-144.5 27v156q77 0 129 12q64 21 64 95q0 46 -38 75t-116 29q-113 0 -197 -100l-96 110q103 140 293 140q147 0 233 -65
t86 -189q0 -64 -31.5 -116.5t-80.5 -62.5z" />
    <glyph glyph-name="acute" unicode="&#xb4;" horiz-adv-x="839" 
d="M422 1167h-217l168 306h262z" />
    <glyph glyph-name="mu" unicode="&#xb5;" horiz-adv-x="1288" 
d="M418 -369h-285v1452h285v-667q0 -203 182 -203q129 0 199.5 86.5t70.5 249.5v534h285v-1083h-285l-43 94q-112 -112 -264 -112q-77 0 -145 12v-363z" />
    <glyph glyph-name="mu" unicode="&#x3bc;" horiz-adv-x="1288" 
d="M418 -369h-285v1452h285v-667q0 -203 182 -203q129 0 199.5 86.5t70.5 249.5v534h285v-1083h-285l-43 94q-112 -112 -264 -112q-77 0 -145 12v-363z" />
    <glyph glyph-name="paragraph" unicode="&#xb6;" horiz-adv-x="1355" 
d="M682 -250h-207v832q-182 0 -309 127t-127 307q0 182 127 309q126 129 309 129h778v-240h-180v-1464h-205v1464h-186v-1464z" />
    <glyph glyph-name="middot" unicode="&#xb7;" horiz-adv-x="577" 
d="M442 805v-289h-307v289h307z" />
    <glyph glyph-name="cedilla" unicode="&#xb8;" horiz-adv-x="911" 
d="M205 -233l96 333l176 -47l-39 -145q30 18 105 18q79 0 121.5 -45.5t42.5 -120.5q0 -85 -66 -137.5t-166 -52.5v139q23 4 39 20.5t16 34.5q0 29 -34 29q-41 0 -80 -23.5t-54 -50.5l-14 -24z" />
    <glyph glyph-name="uni00B9" unicode="&#xb9;" horiz-adv-x="808" 
d="M381 1473h176v-902h-180v586h-217v162q31 0 80 10q59 13 100 47t41 97z" />
    <glyph glyph-name="ordmasculine" unicode="&#xba;" horiz-adv-x="933" 
d="M885 1073q0 -162 -115 -280q-115 -115 -289 -115q-173 0 -288 115q-115 118 -115 280q0 165 115 283q114 117 288 117q175 0 289 -117q115 -118 115 -283zM682 1073q0 99 -54.5 164.5t-146.5 65.5q-96 0 -149 -68q-53 -65 -53 -162t53 -162t149 -65q94 0 147.5 63
t53.5 164z" />
    <glyph glyph-name="guillemotright" unicode="&#xbb;" horiz-adv-x="1257" 
d="M684 639v-96l-375 -445l-190 160l278 334l-276 332l190 159zM1155 639v-96l-375 -445l-190 160l278 334l-276 332l190 159z" />
    <glyph glyph-name="onequarter" unicode="&#xbc;" horiz-adv-x="1740" 
d="M453 0h-234l950 1454h236zM295 1473h176v-902h-180v586h-217v162q31 0 80 10q59 13 100 47t41 97zM1432 319h151v-161h-151v-158h-179v158h-393v161l336 580h201l-336 -580h192v246h179v-246z" />
    <glyph glyph-name="onehalf" unicode="&#xbd;" horiz-adv-x="1740" 
d="M416 0h-234l951 1454h235zM1245 164h434v-164h-620v133q0 66 23.5 119.5t61.5 88.5t83.5 64.5t91 54t83.5 49.5t61.5 58.5t23.5 73.5q0 56 -37 86.5t-100 30.5q-57 0 -92.5 -18t-79.5 -64l-117 121q119 125 289 125q148 0 233.5 -76.5t85.5 -204.5q0 -88 -62.5 -162.5
t-150.5 -116.5q-84 -44 -145 -92q-66 -54 -66 -106zM258 1473h176v-902h-180v586h-217v162q31 0 80 10q59 13 100 47t41 97z" />
    <glyph glyph-name="threequarters" unicode="&#xbe;" horiz-adv-x="1740" 
d="M561 0h-233l950 1454h235zM1509 319h152v-161h-152v-158h-178v158h-393v161l336 580h201l-336 -580h192v246h178v-246zM567 1040q125 -43 125 -211q0 -143 -88 -215.5t-244 -72.5q-94 0 -181.5 37.5t-133.5 103.5l121 109q72 -97 194 -97q154 0 154 135q0 73 -48 100
t-144 27v156q77 0 129 12q63 21 63 95q0 46 -38 75t-116 29q-112 0 -196 -100l-96 110q103 140 292 140q147 0 233.5 -65t86.5 -189q0 -64 -32 -116.5t-81 -62.5z" />
    <glyph glyph-name="questiondown" unicode="&#xbf;" horiz-adv-x="1079" 
d="M524 -387q-196 0 -340 100q-145 103 -145 287q0 68 21 123.5t54.5 94t74.5 74t81.5 72t74 78t54.5 102t21 134.5h280q0 -129 -37 -228t-96 -153q-27 -26 -79.5 -68t-82 -68.5t-54.5 -70t-25 -90.5q0 -63 53 -101t145 -38q203 0 328 186l190 -170q-83 -114 -227 -188
q-143 -76 -291 -76zM410 1085h301v-282h-301v282z" />
    <glyph glyph-name="Agrave" unicode="&#xc0;" horiz-adv-x="1456" 
d="M1458 0h-321l-121 319h-576l-121 -319h-321l571 1454h318zM729 1073l-188 -491h374zM410 1923h262l168 -305h-217z" />
    <glyph glyph-name="Aacute" unicode="&#xc1;" horiz-adv-x="1456" 
d="M1458 0h-321l-121 319h-576l-121 -319h-321l571 1454h318zM729 1073l-188 -491h374zM831 1618h-217l168 305h262z" />
    <glyph glyph-name="Acircumflex" unicode="&#xc2;" horiz-adv-x="1456" 
d="M1458 0h-321l-121 319h-576l-121 -319h-321l571 1454h318zM729 1073l-188 -491h374zM727 1739l-88 -121h-233l192 305h258l195 -305h-234z" />
    <glyph glyph-name="Atilde" unicode="&#xc3;" horiz-adv-x="1456" 
d="M1458 0h-321l-121 319h-576l-121 -319h-321l571 1454h318zM729 1073l-188 -491h374zM485 1661l-20 -23l-117 119l33 41q22 29 82 68q64 43 127 43q69 0 151 -58q80 -57 117 -57q22 0 54.5 21t56.5 45l20 22l117 -119l-33 -43q-19 -22 -86 -67q-65 -41 -125 -41
q-71 0 -151 57t-115 57q-24 0 -56.5 -20t-54.5 -45z" />
    <glyph glyph-name="Adieresis" unicode="&#xc4;" horiz-adv-x="1456" 
d="M1458 0h-321l-121 319h-576l-121 -319h-321l571 1454h318zM729 1073l-188 -491h374zM422 1864h240v-246h-240v246zM795 1864h239v-246h-239v246z" />
    <glyph glyph-name="Aring" unicode="&#xc5;" horiz-adv-x="1456" 
d="M995 1534q0 -103 -69 -178l532 -1356h-321l-121 319h-576l-121 -319h-321l532 1356q-69 75 -69 178q0 108 78 186q80 80 188 80t188 -80q80 -77 80 -186zM729 1073l-188 -491h374zM719 1454h8q35 0 58.5 23.5t23.5 56.5q0 32 -25 56t-57 24q-48 2 -68 -38.5t-2.5 -81.5
t62.5 -40z" />
    <glyph glyph-name="AE" unicode="&#xc6;" horiz-adv-x="1955" 
d="M1180 627v-365h723v-262h-1018v319h-408l-147 -319h-332l696 1454h1198v-262h-712v-303h575v-262h-575zM885 1192l-285 -610h285v610z" />
    <glyph glyph-name="Ccedilla" unicode="&#xc7;" horiz-adv-x="1374" 
d="M768 244q217 0 328 205l241 -142q-93 -154 -240.5 -239.5t-328.5 -85.5q-7 0 -29.5 1t-27.5 1l-21 -76q30 18 105 18q79 0 121 -45.5t42 -120.5q0 -85 -65.5 -137.5t-165.5 -52.5v139q23 4 39 20.5t16 34.5q0 29 -34 29q-41 0 -80 -23.5t-54 -50.5l-14 -24l-143 72
l73 258q-203 75 -327 268q-123 190 -123 434q0 313 194 528q197 218 494 218q181 0 328 -86t241 -240l-241 -139q-114 202 -328 202q-176 0 -285 -139q-108 -138 -108 -344t108 -344q109 -139 285 -139z" />
    <glyph glyph-name="Egrave" unicode="&#xc8;" horiz-adv-x="1214" 
d="M438 627v-365h723v-262h-1018v1454h1008v-262h-713v-303h576v-262h-576zM436 1923h262l168 -305h-217z" />
    <glyph glyph-name="Eacute" unicode="&#xc9;" horiz-adv-x="1214" 
d="M438 627v-365h723v-262h-1018v1454h1008v-262h-713v-303h576v-262h-576zM653 1618h-217l168 305h262z" />
    <glyph glyph-name="Ecircumflex" unicode="&#xca;" horiz-adv-x="1214" 
d="M438 627v-365h723v-262h-1018v1454h1008v-262h-713v-303h576v-262h-576zM651 1739l-88 -121h-233l192 305h258l195 -305h-234z" />
    <glyph glyph-name="Edieresis" unicode="&#xcb;" horiz-adv-x="1214" 
d="M438 627v-365h723v-262h-1018v1454h1008v-262h-713v-303h576v-262h-576zM346 1864h240v-246h-240v246zM719 1864h239v-246h-239v246z" />
    <glyph glyph-name="Igrave" unicode="&#xcc;" horiz-adv-x="581" 
d="M438 1454v-1454h-295v1454h295zM76 1923h262l168 -305h-217z" />
    <glyph glyph-name="Iacute" unicode="&#xcd;" horiz-adv-x="581" 
d="M438 1454v-1454h-295v1454h295zM293 1618h-217l168 305h262z" />
    <glyph glyph-name="Icircumflex" unicode="&#xce;" horiz-adv-x="581" 
d="M438 1454v-1454h-295v1454h295zM289 1739l-88 -121h-234l193 305h258l194 -305h-233z" />
    <glyph glyph-name="Idieresis" unicode="&#xcf;" horiz-adv-x="581" 
d="M438 1454v-1454h-295v1454h295zM-16 1864h239v-246h-239v246zM356 1864h240v-246h-240v246z" />
    <glyph glyph-name="Eth" unicode="&#xd0;" horiz-adv-x="1480" 
d="M193 629h-187v196h187v629h501q309 0 506 -209q197 -206 197 -518q0 -311 -197 -520q-198 -207 -506 -207h-501v629zM487 262h197q190 0 303 131q117 132 117 334q0 200 -117 332q-115 133 -303 133h-197v-367h220v-196h-220v-367z" />
    <glyph glyph-name="Ntilde" unicode="&#xd1;" horiz-adv-x="1429" 
d="M991 516v938h295v-1454h-295l-553 938v-938h-295v1454h295zM473 1661l-20 -23l-117 119l33 41q22 29 82 68q64 43 127 43q69 0 151 -58q80 -57 117 -57q44 0 110 66l21 22l117 -119l-33 -43q-19 -22 -86 -67q-65 -41 -125 -41q-72 0 -152 57t-114 57q-24 0 -56.5 -20
t-54.5 -45z" />
    <glyph glyph-name="Ograve" unicode="&#xd2;" horiz-adv-x="1589" 
d="M1307 1255q202 -214 202 -528q0 -313 -202 -530q-203 -215 -512 -215t-512 215q-203 218 -203 530q0 313 203 528q203 218 512 218t512 -218zM1098 383q116 137 116 344t-116 344q-118 139 -303 139t-303 -139q-117 -138 -117 -344t117 -344q118 -139 303 -139t303 139z
M473 1923h262l168 -305h-217z" />
    <glyph glyph-name="Oacute" unicode="&#xd3;" horiz-adv-x="1589" 
d="M1307 1255q202 -214 202 -528q0 -313 -202 -530q-203 -215 -512 -215t-512 215q-203 218 -203 530q0 313 203 528q203 218 512 218t512 -218zM1098 383q116 137 116 344t-116 344q-118 139 -303 139t-303 -139q-117 -138 -117 -344t117 -344q118 -139 303 -139t303 139z
M903 1618h-217l168 305h262z" />
    <glyph glyph-name="Ocircumflex" unicode="&#xd4;" horiz-adv-x="1589" 
d="M1307 1255q202 -214 202 -528q0 -313 -202 -530q-203 -215 -512 -215t-512 215q-203 218 -203 530q0 313 203 528q203 218 512 218t512 -218zM1098 383q116 137 116 344t-116 344q-118 139 -303 139t-303 -139q-117 -138 -117 -344t117 -344q118 -139 303 -139t303 139z
M795 1739l-88 -121h-234l193 305h258l194 -305h-233z" />
    <glyph glyph-name="Otilde" unicode="&#xd5;" horiz-adv-x="1589" 
d="M1307 1255q202 -214 202 -528q0 -313 -202 -530q-203 -215 -512 -215t-512 215q-203 218 -203 530q0 313 203 528q203 218 512 218t512 -218zM1098 383q116 137 116 344t-116 344q-118 139 -303 139t-303 -139q-117 -138 -117 -344t117 -344q118 -139 303 -139t303 139z
M553 1661l-21 -23l-116 119l33 41q23 30 81 68q64 43 127 43q70 0 152 -58q80 -57 117 -57q44 0 110 66l21 22l117 -119l-33 -43q-19 -22 -86 -67q-65 -41 -125 -41q-72 0 -152 57t-114 57q-24 0 -56.5 -20t-54.5 -45z" />
    <glyph glyph-name="Odieresis" unicode="&#xd6;" horiz-adv-x="1589" 
d="M1307 1255q202 -214 202 -528q0 -313 -202 -530q-203 -215 -512 -215t-512 215q-203 218 -203 530q0 313 203 528q203 218 512 218t512 -218zM1098 383q116 137 116 344t-116 344q-118 139 -303 139t-303 -139q-117 -138 -117 -344t117 -344q118 -139 303 -139t303 139z
M487 1864h240v-246h-240v246zM860 1864h240v-246h-240v246z" />
    <glyph glyph-name="multiply" unicode="&#xd7;" horiz-adv-x="1228" 
d="M467 584l-334 334l148 141l329 -332l332 332l148 -141l-334 -334l334 -334l-148 -141l-332 329l-329 -329l-148 141z" />
    <glyph glyph-name="Oslash" unicode="&#xd8;" horiz-adv-x="1589" 
d="M1513 727q0 -313 -202 -530q-203 -215 -512 -215q-183 0 -342 84l-172 -230l-211 160l178 240q-168 204 -168 491q0 313 203 528q203 218 512 218q178 0 321 -76l162 217l215 -158l-166 -223q182 -212 182 -506zM1219 727q0 147 -66 270l-535 -712q84 -41 181 -41
q185 0 303 139q117 138 117 344zM799 1210q-185 0 -303 -139q-117 -138 -117 -344q0 -140 55 -250l522 701q-71 32 -157 32z" />
    <glyph glyph-name="Ugrave" unicode="&#xd9;" horiz-adv-x="1435" 
d="M1028 1454h295v-749q0 -150 -15 -254.5t-55 -194.5q-62 -138 -192 -206t-354 -68q-350 0 -480 194q-62 96 -88 220.5t-26 308.5v749h295v-749q0 -114 4 -171.5t20 -115.5q28 -91 89 -129.5t186 -44.5q165 0 245 80q38 38 52 102q16 63 20 116.5t4 162.5v749zM502 1923
h262l168 -305h-217z" />
    <glyph glyph-name="Uacute" unicode="&#xda;" horiz-adv-x="1435" 
d="M1028 1454h295v-749q0 -150 -15 -254.5t-55 -194.5q-62 -138 -192 -206t-354 -68q-350 0 -480 194q-62 96 -88 220.5t-26 308.5v749h295v-749q0 -114 4 -171.5t20 -115.5q28 -91 89 -129.5t186 -44.5q165 0 245 80q38 38 52 102q16 63 20 116.5t4 162.5v749zM719 1618
h-217l168 305h262z" />
    <glyph glyph-name="Ucircumflex" unicode="&#xdb;" horiz-adv-x="1435" 
d="M1028 1454h295v-749q0 -150 -15 -254.5t-55 -194.5q-62 -138 -192 -206t-354 -68q-350 0 -480 194q-62 96 -88 220.5t-26 308.5v749h295v-749q0 -114 4 -171.5t20 -115.5q28 -91 89 -129.5t186 -44.5q165 0 245 80q38 38 52 102q16 63 20 116.5t4 162.5v749zM717 1739
l-88 -121h-234l193 305h258l194 -305h-233z" />
    <glyph glyph-name="Udieresis" unicode="&#xdc;" horiz-adv-x="1435" 
d="M1028 1454h295v-749q0 -150 -15 -254.5t-55 -194.5q-62 -138 -192 -206t-354 -68q-350 0 -480 194q-62 96 -88 220.5t-26 308.5v749h295v-749q0 -114 4 -171.5t20 -115.5q28 -91 89 -129.5t186 -44.5q165 0 245 80q38 38 52 102q16 63 20 116.5t4 162.5v749zM412 1864
h239v-246h-239v246zM784 1864h240v-246h-240v246z" />
    <glyph glyph-name="Yacute" unicode="&#xdd;" horiz-adv-x="1261" 
d="M326 1454l305 -614l305 614h336l-494 -905v-549h-295v549l-493 905h336zM633 1618h-217l168 305h262z" />
    <glyph glyph-name="Thorn" unicode="&#xde;" horiz-adv-x="1286" 
d="M723 256h-285v-256h-295v1454h295v-256h285q122 0 211 -20t166 -68q168 -102 168 -383t-168 -383q-77 -48 -166 -68t-211 -20zM438 936v-418h293q124 0 183 47t59 162t-59 162t-183 47h-293z" />
    <glyph glyph-name="germandbls" unicode="&#xdf;" horiz-adv-x="1189" 
d="M688 -18h-166v262h111q180 0 180 170t-180 170h-80v262q99 0 141.5 42.5t42.5 137.5q0 184 -153 184q-156 0 -156 -184v-1026h-295v1012q0 212 121 336.5t330 124.5q215 0 331 -125q119 -125 119 -316q0 -90 -38 -166.5t-113 -115.5q122 -43 174.5 -128t52.5 -225
q0 -188 -121 -303q-118 -112 -301 -112z" />
    <glyph glyph-name="agrave" unicode="&#xe0;" horiz-adv-x="1150" 
d="M264 1552h262l168 -305h-217zM1036 10l8 -10h-245q-51 17 -54 98q-35 -53 -102 -80q-40 -18 -76.5 -26.5t-48.5 -9t-41 -0.5q-420 0 -420 325q0 94 35 167.5t88 113.5q49 35 129 57q72 19 124.5 24t133.5 5q176 0 176 76q0 50 -43 84t-135 34q-140 0 -254 -102l-180 145
q67 91 184.5 141t249.5 50q210 0 328.5 -101.5t118.5 -261.5v-647q0 -48 24 -82zM743 377v127q-79 -42 -211 -45q-192 -6 -192 -137q0 -62 44.5 -99t121.5 -37q102 0 169.5 50.5t67.5 140.5z" />
    <glyph glyph-name="aacute" unicode="&#xe1;" horiz-adv-x="1150" 
d="M674 1247h-217l168 305h262zM1036 10l8 -10h-245q-51 17 -54 98q-35 -53 -102 -80q-40 -18 -76.5 -26.5t-48.5 -9t-41 -0.5q-420 0 -420 325q0 94 35 167.5t88 113.5q49 35 129 57q72 19 124.5 24t133.5 5q176 0 176 76q0 50 -43 84t-135 34q-140 0 -254 -102l-180 145
q67 91 184.5 141t249.5 50q210 0 328.5 -101.5t118.5 -261.5v-647q0 -48 24 -82zM743 377v127q-79 -42 -211 -45q-192 -6 -192 -137q0 -62 44.5 -99t121.5 -37q102 0 169.5 50.5t67.5 140.5z" />
    <glyph glyph-name="acircumflex" unicode="&#xe2;" horiz-adv-x="1150" 
d="M565 1368l-88 -121h-233l192 305h258l195 -305h-234zM1036 10l8 -10h-245q-51 17 -54 98q-35 -53 -102 -80q-40 -18 -76.5 -26.5t-48.5 -9t-41 -0.5q-420 0 -420 325q0 94 35 167.5t88 113.5q49 35 129 57q72 19 124.5 24t133.5 5q176 0 176 76q0 50 -43 84t-135 34
q-140 0 -254 -102l-180 145q67 91 184.5 141t249.5 50q210 0 328.5 -101.5t118.5 -261.5v-647q0 -48 24 -82zM743 377v127q-79 -42 -211 -45q-192 -6 -192 -137q0 -62 44.5 -99t121.5 -37q102 0 169.5 50.5t67.5 140.5z" />
    <glyph glyph-name="atilde" unicode="&#xe3;" horiz-adv-x="1150" 
d="M309 1290l-20 -22l-117 118l33 41q22 29 82 68q64 43 127 43q71 0 151 -57q82 -58 117 -58q23 0 56 20.5t55 45.5l20 22l117 -118l-33 -43q-21 -24 -86 -68q-65 -41 -125 -41q-71 0 -151 57q-82 58 -115 58q-22 0 -54.5 -21t-56.5 -45zM1036 10l8 -10h-245q-51 17 -54 98
q-35 -53 -102 -80q-40 -18 -76.5 -26.5t-48.5 -9t-41 -0.5q-420 0 -420 325q0 94 35 167.5t88 113.5q49 35 129 57q72 19 124.5 24t133.5 5q176 0 176 76q0 50 -43 84t-135 34q-140 0 -254 -102l-180 145q67 91 184.5 141t249.5 50q210 0 328.5 -101.5t118.5 -261.5v-647
q0 -48 24 -82zM743 377v127q-79 -42 -211 -45q-192 -6 -192 -137q0 -62 44.5 -99t121.5 -37q102 0 169.5 50.5t67.5 140.5z" />
    <glyph glyph-name="adieresis" unicode="&#xe4;" horiz-adv-x="1150" 
d="M266 1493h240v-246h-240v246zM639 1493h240v-246h-240v246zM1036 10l8 -10h-245q-51 17 -54 98q-35 -53 -102 -80q-40 -18 -76.5 -26.5t-48.5 -9t-41 -0.5q-420 0 -420 325q0 94 35 167.5t88 113.5q49 35 129 57q72 19 124.5 24t133.5 5q176 0 176 76q0 50 -43 84
t-135 34q-140 0 -254 -102l-180 145q67 91 184.5 141t249.5 50q210 0 328.5 -101.5t118.5 -261.5v-647q0 -48 24 -82zM743 377v127q-79 -42 -211 -45q-192 -6 -192 -137q0 -62 44.5 -99t121.5 -37q102 0 169.5 50.5t67.5 140.5z" />
    <glyph glyph-name="aring" unicode="&#xe5;" horiz-adv-x="1150" 
d="M565 1382q35 0 58.5 23.5t23.5 56.5q0 32 -25 56t-57 24q-29 1 -49 -15.5t-24.5 -40.5t0 -48t24.5 -40.5t49 -15.5zM377 1649q80 80 188 80q109 0 189 -80q80 -77 80 -187q0 -108 -80 -188q-81 -78 -189 -78q-107 0 -188 78q-78 81 -78 188q0 109 78 187zM1036 10l8 -10
h-245q-51 17 -54 98q-35 -53 -102 -80q-40 -18 -76.5 -26.5t-48.5 -9t-41 -0.5q-420 0 -420 325q0 94 35 167.5t88 113.5q49 35 129 57q72 19 124.5 24t133.5 5q176 0 176 76q0 50 -43 84t-135 34q-140 0 -254 -102l-180 145q67 91 184.5 141t249.5 50q210 0 328.5 -101.5
t118.5 -261.5v-647q0 -48 24 -82zM743 377v127q-79 -42 -211 -45q-192 -6 -192 -137q0 -62 44.5 -99t121.5 -37q102 0 169.5 50.5t67.5 140.5z" />
    <glyph glyph-name="ae" unicode="&#xe6;" horiz-adv-x="1898" 
d="M1292 219q183 0 256 125l217 -113q-74 -117 -197.5 -183t-275.5 -66q-259 0 -409 163q-65 -78 -173 -120.5t-233 -42.5q-420 0 -420 325q0 94 35 167.5t88 113.5q49 35 129 57q72 19 124.5 24t133.5 5q176 0 176 76q0 50 -43 84t-135 34q-140 0 -254 -102l-180 145
q67 91 184.5 141t249.5 50q231 0 355 -127q142 127 372 127q258 0 402 -166q145 -168 145 -395v-109h-817q44 -213 270 -213zM743 377v127q-79 -42 -211 -45q-91 -1 -141.5 -38.5t-50.5 -98.5q0 -62 44.5 -99t121.5 -37q83 0 162 54q75 54 75 137zM1292 864
q-197 0 -262 -194h524q-65 194 -262 194z" />
    <glyph glyph-name="ccedilla" unicode="&#xe7;" horiz-adv-x="1120" 
d="M631 219q154 0 233 131l242 -123q-91 -129 -203 -187t-272 -58q-5 0 -22 1t-21 1l-21 -76q30 18 105 18q79 0 121.5 -45.5t42.5 -120.5q0 -85 -66 -137.5t-166 -52.5v139q23 4 39 20.5t16 34.5q0 29 -34 29q-41 0 -79.5 -23.5t-53.5 -50.5l-15 -24l-143 72l74 256
q-159 63 -252 203t-93 317q0 229 150 393q150 166 418 166q167 0 280 -60.5t195 -193.5l-248 -117q-77 133 -227 133q-131 0 -207 -94q-76 -91 -76 -227q0 -140 76.5 -232t206.5 -92z" />
    <glyph glyph-name="egrave" unicode="&#xe8;" horiz-adv-x="1216" 
d="M610 219q183 0 256 125l217 -113q-74 -117 -197.5 -183t-275.5 -66q-258 0 -403 157q-144 159 -144 402q0 88 19.5 168.5t62 152.5t105 125t155 84t205.5 31q258 0 402 -166q145 -168 145 -395v-109h-817q44 -213 270 -213zM610 864q-197 0 -262 -194h524
q-65 194 -262 194zM289 1552h262l168 -305h-217z" />
    <glyph glyph-name="eacute" unicode="&#xe9;" horiz-adv-x="1216" 
d="M610 219q183 0 256 125l217 -113q-74 -117 -197.5 -183t-275.5 -66q-258 0 -403 157q-144 159 -144 402q0 88 19.5 168.5t62 152.5t105 125t155 84t205.5 31q258 0 402 -166q145 -168 145 -395v-109h-817q44 -213 270 -213zM610 864q-197 0 -262 -194h524
q-65 194 -262 194zM719 1247h-217l168 305h262z" />
    <glyph glyph-name="ecircumflex" unicode="&#xea;" horiz-adv-x="1216" 
d="M610 219q183 0 256 125l217 -113q-74 -117 -197.5 -183t-275.5 -66q-258 0 -403 157q-144 159 -144 402q0 88 19.5 168.5t62 152.5t105 125t155 84t205.5 31q258 0 402 -166q145 -168 145 -395v-109h-817q44 -213 270 -213zM610 864q-197 0 -262 -194h524
q-65 194 -262 194zM610 1368l-88 -121h-233l192 305h258l195 -305h-234z" />
    <glyph glyph-name="edieresis" unicode="&#xeb;" horiz-adv-x="1216" 
d="M610 219q183 0 256 125l217 -113q-74 -117 -197.5 -183t-275.5 -66q-258 0 -403 157q-144 159 -144 402q0 88 19.5 168.5t62 152.5t105 125t155 84t205.5 31q258 0 402 -166q145 -168 145 -395v-109h-817q44 -213 270 -213zM610 864q-197 0 -262 -194h524
q-65 194 -262 194zM303 1493h240v-246h-240v246zM676 1493h239v-246h-239v246z" />
    <glyph glyph-name="igrave" unicode="&#xec;" horiz-adv-x="563" 
d="M424 1083v-1083h-285v1083h285zM68 1552h262l168 -305h-217z" />
    <glyph glyph-name="iacute" unicode="&#xed;" horiz-adv-x="563" 
d="M424 1083v-1083h-285v1083h285zM285 1247h-217l168 305h262z" />
    <glyph glyph-name="icircumflex" unicode="&#xee;" horiz-adv-x="563" 
d="M276 1368l-88 -121h-233l192 305h259l194 -305h-233zM424 1083v-1083h-285v1083h285z" />
    <glyph glyph-name="idieresis" unicode="&#xef;" horiz-adv-x="563" 
d="M424 1083v-1083h-285v1083h285zM-23 1493h240v-246h-240v246zM350 1493h240v-246h-240v246z" />
    <glyph glyph-name="eth" unicode="&#xf0;" horiz-adv-x="1155" 
d="M655 1204h-358v240h252l178 117q10 -10 80 -117h164v-240h-43q162 -389 162 -647q0 -278 -128.5 -426.5t-379.5 -148.5q-240 0 -377 155q-139 157 -139 391q0 269 139 437q137 168 352 168q100 0 145 -39l-20 49q-8 23 -27 61zM393 795q-57 -92 -57 -238q0 -144 57 -240
q59 -96 185 -96q125 0 184 96q57 96 57 240q0 146 -57 238q-58 98 -184 98q-127 0 -185 -98z" />
    <glyph glyph-name="ntilde" unicode="&#xf1;" horiz-adv-x="1280" 
d="M1155 668v-668h-285v668q0 202 -182 202q-129 0 -199.5 -86t-70.5 -249v-535h-285v1083h285l43 -94q113 113 264 113q96 0 166.5 -18.5t132.5 -61.5q131 -92 131 -354zM401 1290l-20 -22l-117 118l33 41q22 29 82 68q64 43 127 43q71 0 151 -57q82 -58 117 -58
q23 0 56 20.5t55 45.5l20 22l117 -118l-33 -43q-21 -24 -86 -68q-65 -41 -125 -41q-71 0 -151 57q-82 58 -115 58q-22 0 -54.5 -21t-56.5 -45z" />
    <glyph glyph-name="ograve" unicode="&#xf2;" horiz-adv-x="1265" 
d="M1202 541q0 -234 -162 -396q-159 -163 -407 -163q-247 0 -410 163q-160 165 -160 396q0 232 160 397q164 164 410 164q248 0 407 -164q162 -162 162 -397zM348 541q0 -140 76.5 -231t208.5 -91t208.5 91t76.5 231q0 139 -77 231t-208 92t-208 -92t-77 -231zM307 1552h262
l168 -305h-217z" />
    <glyph glyph-name="oacute" unicode="&#xf3;" horiz-adv-x="1265" 
d="M1202 541q0 -234 -162 -396q-159 -163 -407 -163q-247 0 -410 163q-160 165 -160 396q0 232 160 397q164 164 410 164q248 0 407 -164q162 -162 162 -397zM348 541q0 -140 76.5 -231t208.5 -91t208.5 91t76.5 231q0 139 -77 231t-208 92t-208 -92t-77 -231zM737 1247
h-217l168 305h262z" />
    <glyph glyph-name="ocircumflex" unicode="&#xf4;" horiz-adv-x="1265" 
d="M1202 541q0 -234 -162 -396q-159 -163 -407 -163q-247 0 -410 163q-160 165 -160 396q0 232 160 397q164 164 410 164q248 0 407 -164q162 -162 162 -397zM348 541q0 -140 76.5 -231t208.5 -91t208.5 91t76.5 231q0 139 -77 231t-208 92t-208 -92t-77 -231zM633 1368
l-88 -121h-234l193 305h258l194 -305h-233z" />
    <glyph glyph-name="otilde" unicode="&#xf5;" horiz-adv-x="1265" 
d="M1202 541q0 -234 -162 -396q-159 -163 -407 -163q-247 0 -410 163q-160 165 -160 396q0 232 160 397q164 164 410 164q248 0 407 -164q162 -162 162 -397zM348 541q0 -140 76.5 -231t208.5 -91t208.5 91t76.5 231q0 139 -77 231t-208 92t-208 -92t-77 -231zM391 1290
l-20 -22l-117 118l33 41q22 29 82 68q64 43 127 43q71 0 151 -57q82 -58 117 -58q23 0 55.5 20.5t54.5 45.5l21 22l117 -118l-33 -43q-21 -24 -86 -68q-65 -41 -125 -41q-72 0 -152 57q-82 58 -114 58q-22 0 -54.5 -21t-56.5 -45z" />
    <glyph glyph-name="odieresis" unicode="&#xf6;" horiz-adv-x="1265" 
d="M1202 541q0 -234 -162 -396q-159 -163 -407 -163q-247 0 -410 163q-160 165 -160 396q0 232 160 397q164 164 410 164q248 0 407 -164q162 -162 162 -397zM348 541q0 -140 76.5 -231t208.5 -91t208.5 91t76.5 231q0 139 -77 231t-208 92t-208 -92t-77 -231zM326 1493h239
v-246h-239v246zM698 1493h240v-246h-240v246z" />
    <glyph glyph-name="divide" unicode="&#xf7;" horiz-adv-x="1228" 
d="M758 289v-289h-307v289h307zM758 1096v-289h-307v289h307zM94 692h1022v-282h-1022v282z" />
    <glyph glyph-name="oslash" unicode="&#xf8;" horiz-adv-x="1265" 
d="M492 -2l-107 -197l-233 125l102 191q-191 164 -191 424q0 232 160 397q164 164 410 164q61 0 141 -17l98 185l244 -125l-100 -184q186 -162 186 -420q0 -234 -162 -396q-159 -163 -407 -163q-66 0 -141 16zM348 541q0 -102 39 -176l266 497q-1 0 -10 1t-10 1
q-131 0 -208 -92t-77 -231zM881 711l-269 -492h21q132 0 208.5 91t76.5 231q0 97 -37 170z" />
    <glyph glyph-name="ugrave" unicode="&#xf9;" horiz-adv-x="1275" 
d="M121 416v667h285v-667q0 -203 182 -203q129 0 199.5 86.5t70.5 249.5v534h285v-1083h-285l-43 94q-112 -112 -264 -112q-97 0 -167.5 18t-131.5 61q-131 92 -131 355zM416 1552h262l168 -305h-217z" />
    <glyph glyph-name="uacute" unicode="&#xfa;" horiz-adv-x="1275" 
d="M121 416v667h285v-667q0 -203 182 -203q129 0 199.5 86.5t70.5 249.5v534h285v-1083h-285l-43 94q-112 -112 -264 -112q-97 0 -167.5 18t-131.5 61q-131 92 -131 355zM633 1247h-217l168 305h262z" />
    <glyph glyph-name="ucircumflex" unicode="&#xfb;" horiz-adv-x="1275" 
d="M121 416v667h285v-667q0 -203 182 -203q129 0 199.5 86.5t70.5 249.5v534h285v-1083h-285l-43 94q-112 -112 -264 -112q-97 0 -167.5 18t-131.5 61q-131 92 -131 355zM631 1368l-88 -121h-234l193 305h258l194 -305h-233z" />
    <glyph glyph-name="udieresis" unicode="&#xfc;" horiz-adv-x="1275" 
d="M121 416v667h285v-667q0 -203 182 -203q129 0 199.5 86.5t70.5 249.5v534h285v-1083h-285l-43 94q-112 -112 -264 -112q-97 0 -167.5 18t-131.5 61q-131 92 -131 355zM326 1493h239v-246h-239v246zM698 1493h240v-246h-240v246z" />
    <glyph glyph-name="yacute" unicode="&#xfd;" horiz-adv-x="1183" 
d="M291 1083l293 -804l307 804h297l-457 -1169q-114 -301 -332 -301h-223v237h146q38 0 67 30.5t29 78.5q0 29 -12 66l-410 1058h295zM594 1247h-217l168 305h262z" />
    <glyph glyph-name="thorn" unicode="&#xfe;" horiz-adv-x="1337" 
d="M731 1102q244 0 393 -152q150 -150 150 -409q0 -253 -141 -406t-402 -153q-183 0 -303 135v-486h-285v1823h285v-485q118 133 303 133zM711 217q131 0 204.5 91t73.5 233q0 143 -71 233t-207 90q-140 0 -222 -94q-83 -95 -83 -229q0 -136 79 -230q82 -94 226 -94z" />
    <glyph glyph-name="ydieresis" unicode="&#xff;" horiz-adv-x="1183" 
d="M291 1083l293 -804l307 804h297l-457 -1169q-114 -301 -332 -301h-223v237h146q38 0 67 30.5t29 78.5q0 29 -12 66l-410 1058h295zM285 1493h239v-246h-239v246zM657 1493h240v-246h-240v246z" />
    <glyph glyph-name="dotlessi" unicode="&#x131;" horiz-adv-x="563" 
d="M424 1083v-1083h-285v1083h285z" />
    <glyph glyph-name="Lslash" unicode="&#x141;" horiz-adv-x="1204" 
d="M483 711v-449h678v-262h-973v424l-51 -49l-147 157l198 191v731h295v-450l123 118l146 -151z" />
    <glyph glyph-name="lslash" unicode="&#x142;" horiz-adv-x="780" 
d="M504 713v-713h-285v436l-69 -67l-148 157l217 207v721h285v-448l114 110l146 -151z" />
    <glyph glyph-name="OE" unicode="&#x152;" horiz-adv-x="2287" 
d="M1511 627v-365h723v-262h-1017v158q-56 -77 -177 -127q-119 -49 -245 -49q-309 0 -512 215q-203 218 -203 530q0 313 203 528q203 218 512 218q126 0 245 -52q121 -50 177 -127v160h1007v-262h-713v-303h576v-262h-576zM1098 393q116 131 116 334t-116 334
q-113 131 -303 131t-306 -131q-114 -132 -114 -334t114 -334q116 -131 306 -131t303 131z" />
    <glyph glyph-name="oe" unicode="&#x153;" horiz-adv-x="2076" 
d="M633 1102q256 0 418 -174q146 174 419 174q258 0 402 -166q145 -168 145 -395v-109h-817q44 -213 270 -213q183 0 256 125l218 -113q-74 -117 -198 -183t-276 -66q-273 0 -417 176q-164 -176 -420 -176q-247 0 -410 163q-160 165 -160 396q0 232 160 397q164 164 410 164
zM348 541q0 -140 76.5 -231t208.5 -91t208.5 91t76.5 231q0 139 -77 231t-208 92t-208 -92t-77 -231zM1470 864q-197 0 -262 -194h525q-65 194 -263 194z" />
    <glyph glyph-name="Scaron" unicode="&#x160;" horiz-adv-x="1316" 
d="M14 276l238 140q41 -71 158.5 -121.5t279.5 -50.5q183 0 234 71q39 51 39 117q0 54 -30.5 88.5t-81.5 50.5t-117.5 24t-140 14.5t-147.5 17.5t-140.5 39t-117.5 71.5t-81.5 121t-30.5 183.5q0 203 152 317t434 114q114 0 215.5 -23.5t160.5 -60.5q58 -31 101 -66t57 -61
l16 -25l-247 -141q-23 41 -108.5 77.5t-194.5 36.5q-291 0 -291 -168q0 -27 6.5 -48.5t22.5 -38t32 -28.5t45 -21.5t50.5 -15t60.5 -10.5t62.5 -7.5t68.5 -6.5q218 -14 362 -84q81 -40 128.5 -130t47.5 -220q0 -55 -12.5 -109.5t-50 -118t-97 -111t-164 -79.5t-239.5 -32
q-505 0 -680 294zM532 1618l-192 305h233l89 -121l90 121h233l-194 -305h-259z" />
    <glyph glyph-name="scaron" unicode="&#x161;" horiz-adv-x="1060" 
d="M39 197l-12 24l231 92q6 -9 23 -26q29 -21 103.5 -44.5t164.5 -23.5q101 0 134.5 21t33.5 71q0 35 -36 58t-93.5 36.5t-126.5 27t-138.5 36.5t-127 57.5t-93.5 97.5t-36 150q0 35 10.5 73.5t41 85.5t78 83.5t130 61t188.5 24.5q115 0 219 -39q112 -42 156 -78l49 -39
l-176 -160q-9 9 -27 21q-22 17 -88 37t-133 20q-164 0 -164 -90q0 -41 28 -69t73.5 -41t104 -26t120 -22.5t120 -32t104 -53t73.5 -87t28 -132.5q0 -155 -106 -242t-330 -87q-120 0 -222.5 23.5t-160.5 60.5q-117 78 -143 131zM385 1247l-192 305h233l88 -120l90 120h234
l-195 -305h-258z" />
    <glyph glyph-name="Ydieresis" unicode="&#x178;" horiz-adv-x="1261" 
d="M326 1454l305 -614l305 614h336l-494 -905v-549h-295v549l-493 905h336zM324 1864h239v-246h-239v246zM696 1864h240v-246h-240v246z" />
    <glyph glyph-name="Zcaron" unicode="&#x17d;" 
d="M1124 1192l-690 -930h711v-262h-1077v262l690 930h-662v262h1028v-262zM475 1618l-192 305h233l88 -121l90 121h234l-195 -305h-258z" />
    <glyph glyph-name="zcaron" unicode="&#x17e;" horiz-adv-x="1003" 
d="M918 846l-498 -608h522v-238h-876v238l497 608h-467v237h822v-237zM373 1247l-193 305h234l88 -120l90 120h233l-194 -305h-258z" />
    <glyph glyph-name="florin" unicode="&#x192;" horiz-adv-x="1228" 
d="M965 1473q44 0 131 -19v-262q-68 18 -111 18q-97 0 -121 -106l-10 -43h231v-262h-290l-203 -887q-31 -135 -134 -217t-245 -82q-63 0 -127 18v263q78 -19 107 -19q87 0 114 117l182 807h-172v262h234l22 100q33 144 137 228t255 84z" />
    <glyph glyph-name="circumflex" unicode="&#x2c6;" horiz-adv-x="1054" 
d="M526 1288l-88 -121h-233l192 306h258l195 -306h-234z" />
    <glyph glyph-name="caron" unicode="&#x2c7;" horiz-adv-x="1054" 
d="M397 1167l-192 306h233l88 -121l90 121h234l-195 -306h-258z" />
    <glyph glyph-name="breve" unicode="&#x2d8;" horiz-adv-x="1046" 
d="M600 1462h242q0 -135 -94 -217q-91 -82 -226 -82q-134 0 -225 82q-92 83 -92 217h241q0 -34 22 -52.5t54 -18.5q34 0 56 18t22 53z" />
    <glyph glyph-name="dotaccent" unicode="&#x2d9;" horiz-adv-x="706" 
d="M502 1454v-268h-297v268h297z" />
    <glyph glyph-name="ring" unicode="&#x2da;" horiz-adv-x="944" 
d="M471 1126q54 0 74.5 50.5t-17.5 85.5q-28 23 -58.5 23.5t-54.5 -22.5t-24 -57q0 -35 23.5 -57.5t56.5 -22.5zM283 1393q80 80 188 80t188 -80q80 -77 80 -187q0 -108 -80 -188q-81 -78 -188 -78t-188 78q-78 81 -78 188q0 109 78 187z" />
    <glyph glyph-name="ogonek" unicode="&#x2db;" horiz-adv-x="862" 
d="M377 41l20 12h240q-16 -5 -27 -12q-18 -8 -59 -35t-72 -53q-44 -37 -70 -95q-34 -74 19 -82q6 -1 12 -1q53 0 111 49l106 -148q-115 -86 -219 -86q-97 0 -165 53.5t-68 141.5q0 45 19 88.5t50 77t54.5 53.5t48.5 37z" />
    <glyph glyph-name="tilde" unicode="&#x2dc;" horiz-adv-x="1167" 
d="M342 1178l-20 -23l-117 119l33 41q22 28 81 67q64 43 127 43q72 0 152 -57t117 -57q22 0 54 20.5t56 44.5l21 23l117 -119l-33 -43q-21 -24 -86 -68q-65 -41 -125 -41q-70 0 -152 58q-80 57 -114 57q-24 0 -56.5 -20t-54.5 -45z" />
    <glyph glyph-name="hungarumlaut" unicode="&#x2dd;" horiz-adv-x="1269" 
d="M422 1167h-217l168 306h262zM852 1167h-217l168 306h262z" />
    <glyph glyph-name="uni2206" unicode="&#x394;" horiz-adv-x="1228" 
d="M463 1454h303l592 -1454h-1487zM614 1065l-319 -803h639z" />
    <glyph glyph-name="uni2206" unicode="&#x2206;" horiz-adv-x="1228" 
d="M463 1454h303l592 -1454h-1487zM614 1065l-319 -803h639z" />
    <glyph glyph-name="uni2126" unicode="&#x3a9;" horiz-adv-x="1544" 
d="M1421 260v-260h-592v260q141 84 211 250q72 173 72 340q0 146 -84 256q-82 108 -256 108t-256 -108q-84 -110 -84 -256q0 -167 72 -340q70 -166 211 -250v-260h-592v260h297q-244 221 -244 608q0 246 170 416t426 170t426 -170t170 -416q0 -387 -244 -608h297z" />
    <glyph glyph-name="uni2126" unicode="&#x2126;" horiz-adv-x="1544" 
d="M1421 260v-260h-592v260q141 84 211 250q72 173 72 340q0 146 -84 256q-82 108 -256 108t-256 -108q-84 -110 -84 -256q0 -167 72 -340q70 -166 211 -250v-260h-592v260h297q-244 221 -244 608q0 246 170 416t426 170t426 -170t170 -416q0 -387 -244 -608h297z" />
    <glyph glyph-name="pi" unicode="&#x3c0;" horiz-adv-x="1458" 
d="M295 821h-207v262h1253v-262h-208v-485q0 -89 110 -92q37 0 98 12v-266q-41 -8 -98 -8q-401 0 -401 344v495h-256v-821h-291v821z" />
    <glyph glyph-name="endash" unicode="&#x2013;" horiz-adv-x="1228" 
d="M102 725h1022v-283h-1022v283z" />
    <glyph glyph-name="emdash" unicode="&#x2014;" horiz-adv-x="1884" 
d="M102 725h1678v-283h-1678v283z" />
    <glyph glyph-name="quoteleft" unicode="&#x2018;" horiz-adv-x="512" 
d="M399 897h-307v289q0 109 35 162q41 57 156 125l75 -121q-65 -37 -83.5 -65.5t-18.5 -86.5v-14h143v-289z" />
    <glyph glyph-name="quoteright" unicode="&#x2019;" horiz-adv-x="512" 
d="M113 1473h307v-289q0 -110 -37 -162q-37 -56 -154 -125l-75 121q66 37 84 65.5t18 85.5v15h-143v289z" />
    <glyph glyph-name="quotesinglbase" unicode="&#x201a;" horiz-adv-x="577" 
d="M135 289h307v-289q0 -112 -36 -162q-37 -56 -154 -125l-76 121q66 37 84.5 66t18.5 86v14h-144v289z" />
    <glyph glyph-name="quotedblleft" unicode="&#x201c;" horiz-adv-x="952" 
d="M399 897h-307v289q0 109 35 162q41 57 156 125l75 -121q-65 -37 -83.5 -65.5t-18.5 -86.5v-14h143v-289zM840 897h-308v289q0 109 35 162q41 57 156 125l76 -121q-66 -37 -84.5 -66t-18.5 -86v-14h144v-289z" />
    <glyph glyph-name="quotedblright" unicode="&#x201d;" horiz-adv-x="952" 
d="M553 1473h307v-289q0 -110 -37 -162q-38 -57 -153 -125l-76 121q66 37 84 65.5t18 85.5v15h-143v289zM113 1473h307v-289q0 -110 -37 -162q-37 -56 -154 -125l-75 121q66 37 84 65.5t18 85.5v15h-143v289z" />
    <glyph glyph-name="quotedblbase" unicode="&#x201e;" horiz-adv-x="1017" 
d="M575 289h308v-289q0 -110 -37 -162q-37 -56 -154 -125l-76 121q66 37 84.5 66t18.5 86v14h-144v289zM135 289h307v-289q0 -112 -36 -162q-37 -56 -154 -125l-76 121q66 37 84.5 66t18.5 86v14h-144v289z" />
    <glyph glyph-name="dagger" unicode="&#x2020;" horiz-adv-x="1298" 
d="M506 848h-412v235h412v371h287v-371h411v-235h-411v-1217h-287v1217z" />
    <glyph glyph-name="daggerdbl" unicode="&#x2021;" horiz-adv-x="1298" 
d="M506 0h-412v236h412v614h-412v235h412v369h287v-369h411v-235h-411v-614h411v-236h-411v-369h-287v369z" />
    <glyph glyph-name="bullet" unicode="&#x2022;" horiz-adv-x="724" 
d="M84 590q0 112 82 194q84 84 196 84q111 0 195 -84t84 -194q0 -115 -82 -197t-197 -82q-116 0 -198 82q-80 83 -80 197z" />
    <glyph glyph-name="ellipsis" unicode="&#x2026;" horiz-adv-x="1724" 
d="M442 289v-289h-307v289h307zM1016 289v-289h-307v289h307zM1589 289v-289h-307v289h307z" />
    <glyph glyph-name="perthousand" unicode="&#x2030;" horiz-adv-x="1966" 
d="M635 1161q0 -313 -277 -313q-276 0 -276 313q0 312 276 312q277 0 277 -312zM465 1161q0 90 -23.5 134t-83.5 44t-83 -43.5t-23 -134.5q0 -93 23 -136.5t83 -43.5t83.5 43.5t23.5 136.5zM1260 295q0 -313 -277 -313q-276 0 -276 313q0 311 276 311q277 0 277 -311z
M1090 295q0 90 -23.5 134t-83.5 44t-83 -43.5t-23 -134.5q0 -93 23 -136.5t83 -43.5t83.5 43.5t23.5 136.5zM1874 295q0 -313 -277 -313q-276 0 -276 313q0 311 276 311q277 0 277 -311zM1704 295q0 90 -23.5 134t-83.5 44t-83 -43.5t-23 -134.5q0 -93 23 -136.5t83 -43.5
t83.5 43.5t23.5 136.5zM311 0h-233l950 1454h236z" />
    <glyph glyph-name="guilsinglleft" unicode="&#x2039;" horiz-adv-x="786" 
d="M668 258l-191 -160l-375 445v96l373 444l191 -159l-277 -332z" />
    <glyph glyph-name="guilsinglright" unicode="&#x203a;" horiz-adv-x="786" 
d="M684 639v-96l-375 -445l-190 160l278 334l-276 332l190 159z" />
    <glyph glyph-name="fraction" unicode="&#x2044;" horiz-adv-x="1198" 
d="M240 0h-234l950 1454h236z" />
    <glyph glyph-name="Euro" unicode="&#x20ac;" 
d="M436 690h465l-41 -205h-405q46 -241 231 -241q182 0 264 116l234 -145q-57 -112 -186 -172.5t-312 -60.5q-252 0 -373 133q-118 130 -153 370h-135v205h120v84h-120v205h135q18 111 51 193.5t92 152.5q123 148 383 148q183 0 312 -60.5t186 -173.5l-234 -145
q-82 116 -264 116q-184 0 -231 -231h508l-41 -205h-486v-84z" />
    <glyph glyph-name="trademark" unicode="&#x2122;" horiz-adv-x="1703" 
d="M51 1454h606v-137h-219v-600h-168v600h-219v137zM1135 918l163 536h263v-737h-168v538l-179 -538h-159l-174 538v-538h-168v737h262z" />
    <glyph glyph-name="partialdiff" unicode="&#x2202;" horiz-adv-x="1169" 
d="M78 512q0 253 125 408q126 159 354 159q125 0 217 -69q-49 101 -158 151q-105 51 -219 51v261q110 0 204.5 -27t164.5 -74t126 -114t93 -143t61.5 -164t35 -175.5t10.5 -179.5q0 -270 -123 -442t-377 -172q-231 0 -373 151q-141 150 -141 379zM356 512
q5 -121 68.5 -194.5t171.5 -73.5q142 0 184 106q33 88 33 225v70q-69 100 -127.5 144.5t-124.5 44.5q-73 -3 -123 -62q-82 -92 -82 -260z" />
    <glyph glyph-name="product" unicode="&#x220f;" horiz-adv-x="1810" 
d="M631 -369h-297v1561h-242v262h1641v-262h-242v-1561h-297v1561h-563v-1561z" />
    <glyph glyph-name="summation" unicode="&#x2211;" horiz-adv-x="1427" 
d="M1372 -106v-263h-1300v263l497 651l-497 647v262h1300v-262h-942l498 -647l-500 -651h944z" />
    <glyph glyph-name="minus" unicode="&#x2212;" horiz-adv-x="1228" 
d="M102 725h1022v-283h-1022v283z" />
    <glyph glyph-name="radical" unicode="&#x221a;" horiz-adv-x="1228" 
d="M729 498l385 1323h307l-530 -1821h-307l-242 739h-311v295h524z" />
    <glyph glyph-name="infinity" unicode="&#x221e;" horiz-adv-x="1351" 
d="M938 838q143 0 217 -74.5t74 -202.5t-74 -201t-217 -73q-136 0 -264 143q-128 -143 -260 -143q-140 0 -215.5 73.5t-75.5 200.5t75.5 202t215.5 75q75 0 131.5 -33.5t128.5 -112.5q73 78 131 112t133 34zM408 434q70 0 165 127l-30 43q-23 30 -62.5 58t-72.5 28
q-109 0 -109 -129q0 -127 109 -127zM946 434q107 0 107 127q0 129 -107 129q-30 0 -72 -30t-69 -66l-25 -33q92 -127 166 -127z" />
    <glyph glyph-name="integral" unicode="&#x222b;" horiz-adv-x="1159" 
d="M944 1473q44 0 131 -19v-262q-67 18 -110 18q-97 0 -121 -106l-273 -1192q-31 -136 -133.5 -217.5t-244.5 -81.5q-62 0 -127 18v263q78 -19 106 -19q88 0 115 117l266 1169q33 144 136.5 228t254.5 84z" />
    <glyph glyph-name="approxequal" unicode="&#x2248;" horiz-adv-x="1228" 
d="M209 827l-27 -39l-190 154q27 47 65 96q139 176 324 181q72 0 145 -32t123 -75q123 -106 199 -106q44 0 93.5 36.5t82.5 83.5l27 39l188 -157q-25 -44 -68 -97q-42 -52 -79 -84q-45 -39 -111 -66.5t-129 -27.5q-77 0 -152 31t-127 76q-48 45 -100.5 75.5t-91.5 30.5
q-42 0 -93 -37.5t-79 -81.5zM209 254l-27 -39l-190 154q27 47 65 96q138 175 324 180q72 0 145 -31.5t123 -74.5q124 -107 199 -107q44 0 93.5 37t82.5 84l27 39l188 -158q-23 -41 -68 -96q-42 -52 -79 -84q-45 -39 -111 -66.5t-129 -27.5q-77 0 -152.5 30.5t-126.5 75.5
q-49 45 -101 76t-91 31q-42 0 -93 -37.5t-79 -81.5z" />
    <glyph glyph-name="notequal" unicode="&#x2260;" horiz-adv-x="1228" 
d="M926 926h178v-287h-295l-80 -199h375v-286h-492l-129 -318h-297l129 318h-176v286h293l80 199h-373v287h490l114 282h297z" />
    <glyph glyph-name="lessequal" unicode="&#x2264;" horiz-adv-x="1228" 
d="M1030 606l-106 -153l-746 508v118l746 508l106 -153l-608 -414zM178 221h862v-221h-862v221z" />
    <glyph glyph-name="greaterequal" unicode="&#x2265;" horiz-adv-x="1228" 
d="M1051 1079v-118l-746 -508l-106 153l608 414l-608 414l106 153zM1051 0h-863v221h863v-221z" />
    <glyph glyph-name="lozenge" unicode="&#x25ca;" 
d="M1130 739l-442 -739h-168l-442 739l442 715h168zM786 739l-182 289l-182 -289l182 -305z" />
    <glyph glyph-name="uniFB01" unicode="&#xfb01;" horiz-adv-x="1230" 
d="M571 1473q67 0 148 -19v-237q-74 18 -137 18q-95 0 -95 -152h191v-235h-193v-848h-282v848h-183v235h183q1 210 92.5 300t275.5 90zM1092 1083v-1083h-285v1083h285zM1098 1454v-268h-297v268h297z" />
    <glyph glyph-name="uniFB02" unicode="&#xfb02;" horiz-adv-x="1224" 
d="M571 1473q67 0 148 -19v-237q-74 18 -137 18q-95 0 -95 -152h191v-235h-193v-848h-282v848h-183v235h183q1 210 92.5 300t275.5 90zM1092 1454v-1454h-285v1454h285z" />
    <glyph glyph-name="NULL" horiz-adv-x="0" 
 />
    <glyph glyph-name="CR" horiz-adv-x="681" 
 />
    <glyph glyph-name="apple" horiz-adv-x="1540" 
d="M1376 1264v-1219q0 -19 -13 -32t-32 -13q-8 0 -14 2l-547 158l-547 -158q-6 -2 -14 -2q-19 0 -32 13t-13 32v1219q0 36 33 45l553 159q20 8 41 0l552 -159q33 -9 33 -45zM725 750v620l-471 -137q12 -191 145 -330q135 -138 326 -153zM1286 1233l-471 137v-620
q192 15 324 153q135 138 147 330zM252 948v-844l473 138v417q-149 12 -274 89t-199 200zM815 242l473 -138v844q-75 -124 -200 -200.5t-273 -88.5v-417z" />
    </font>
</defs>
</svg>
