<svg id="e3fhrgaT1Re1" xmlns="http://www.w3.org/2000/svg" xmlns:xlink="http://www.w3.org/1999/xlink" viewBox="0 0 962 962" shape-rendering="geometricPrecision" text-rendering="geometricPrecision">
<style><![CDATA[
#e3fhrgaT1Re3_tr {animation: e3fhrgaT1Re3_tr__tr 5000ms linear infinite normal forwards}@keyframes e3fhrgaT1Re3_tr__tr { 0% {transform: translate(481.000183px,481.000183px) rotate(0deg)} 100% {transform: translate(481.000183px,481.000183px) rotate(90deg)}} #e3fhrgaT1Re4_ts {animation: e3fhrgaT1Re4_ts__ts 5000ms linear infinite normal forwards}@keyframes e3fhrgaT1Re4_ts__ts { 0% {transform: translate(480.999496px,481.000015px) scale(1,1)} 34% {transform: translate(480.999496px,481.000015px) scale(0.685954,0.685954)} 100% {transform: translate(480.999496px,481.000015px) scale(1,1)}} #e3fhrgaT1Re5_ts {animation: e3fhrgaT1Re5_ts__ts 5000ms linear infinite normal forwards}@keyframes e3fhrgaT1Re5_ts__ts { 0% {transform: translate(481.000301px,481.000302px) scale(1,1)} 34% {transform: translate(481.000301px,481.000302px) scale(1.140956,1.140956)} 100% {transform: translate(481.000301px,481.000302px) scale(1,1)}} #e3fhrgaT1Re14_ts {animation: e3fhrgaT1Re14_ts__ts 5000ms linear infinite normal forwards}@keyframes e3fhrgaT1Re14_ts__ts { 0% {transform: translate(481.000183px,481.000183px) scale(1,1)} 34% {transform: translate(481.000183px,481.000183px) scale(0.543783,0.543783)} 100% {transform: translate(481.000183px,481.000183px) scale(1,1)}}
]]></style>
<g clip-path="url(#e3fhrgaT1Re23)"><g id="e3fhrgaT1Re3_tr" transform="translate(481.000183,481.000183) rotate(0)"><g transform="translate(-481.000183,-481.000183)"><g id="e3fhrgaT1Re4_ts" transform="translate(480.999496,481.000015) scale(1,1)"><path d="M481,249.054c127.895,0,231.946,104.051,231.946,231.946c0,127.896-104.051,231.947-231.946,231.947-127.896,0-231.947-104.051-231.947-231.947s104.051-231.946,231.947-231.946Zm0-1.235c-128.783,0-233.181,104.399-233.181,233.181s104.398,233.181,233.181,233.181c128.782,0,233.18-104.399,233.18-233.181s-104.398-233.181-233.18-233.181Z" transform="translate(-480.999496,-481.000015)" fill="#dbaa47"/></g><g id="e3fhrgaT1Re5_ts" transform="translate(481.000301,481.000302) scale(1,1)"><g transform="translate(-481.000301,-481.000302)"><path d="M481,151.233v-94.9444" fill="none" stroke="#dbaa47" stroke-miterlimit="10"/><path d="M714.181,247.819l67.135-67.135" fill="none" stroke="#dbaa47" stroke-miterlimit="10"/><path d="M810.768,481h94.944" fill="none" stroke="#dbaa47" stroke-width="0.5" stroke-miterlimit="10"/><path d="M714.181,714.181l67.135,67.135" fill="none" stroke="#dbaa47" stroke-miterlimit="10"/><path d="M481,810.768v94.944" fill="none" stroke="#dbaa47" stroke-miterlimit="10"/><path d="M247.819,714.181l-67.135,67.135" fill="none" stroke="#dbaa47" stroke-miterlimit="10"/><path d="M151.233,481h-94.9444" fill="none" stroke="#dbaa47" stroke-width="0.5" stroke-miterlimit="10"/><path d="M247.819,247.819l-67.135-67.135" fill="none" stroke="#dbaa47" stroke-miterlimit="10"/></g></g><g id="e3fhrgaT1Re14_ts" transform="translate(481.000183,481.000183) scale(1,1)"><g transform="translate(-481.000183,-481.000183)"><path d="M606.171,175.912L678.248,0.234375" fill="none" stroke="#dbaa47" stroke-miterlimit="10"/><path d="M785.239,353.779l175.189-73.257" fill="none" stroke="#dbaa47" stroke-miterlimit="10"/><path d="M786.088,606.171l175.678,72.077" fill="none" stroke="#dbaa47" stroke-miterlimit="10"/><path d="M608.221,785.239l73.257,175.189" fill="none" stroke="#dbaa47" stroke-miterlimit="10"/><path d="M355.829,786.088L283.752,961.766" fill="none" stroke="#dbaa47" stroke-miterlimit="10"/><path d="M176.761,608.221L1.57227,681.478" fill="none" stroke="#dbaa47" stroke-miterlimit="10"/><path d="M175.912,355.829L0.234375,283.752" fill="none" stroke="#dbaa47" stroke-miterlimit="10"/><path d="M353.779,176.761L280.522,1.57227" fill="none" stroke="#dbaa47" stroke-miterlimit="10"/></g></g></g></g><clipPath id="e3fhrgaT1Re23"><rect width="962" height="962" rx="0" ry="0" fill="#fff"/></clipPath></g></svg>
