<?xml version="1.0" standalone="no"?>
<!DOCTYPE svg PUBLIC "-//W3C//DTD SVG 1.1//EN" "http://www.w3.org/Graphics/SVG/1.1/DTD/svg11.dtd" >
<svg xmlns="http://www.w3.org/2000/svg" xmlns:xlink="http://www.w3.org/1999/xlink" version="1.1">
<metadata>
Created by FontForge 20170731 at Wed Oct 31 00:25:39 2018
 By Aleksey,,,
Alternative E
</metadata>
<defs>
<font id="JoaneStencil-Thin" horiz-adv-x="675" >
  <font-face 
    font-family="Joane Stencil Thin"
    font-weight="100"
    font-stretch="normal"
    units-per-em="2048"
    panose-1="0 0 2 0 0 0 0 0 0 0"
    ascent="1638"
    descent="-410"
    x-height="1075"
    cap-height="1475"
    bbox="-31 -512 2234 1733"
    underline-thickness="102"
    underline-position="-816"
    unicode-range="U+0020-25FC"
  />
<missing-glyph horiz-adv-x="748" 
d="M68 0v1365h544v-1365h-544zM136 68h408v1229h-408v-1229z" />
    <glyph glyph-name=".notdef" horiz-adv-x="748" 
d="M68 0v1365h544v-1365h-544zM136 68h408v1229h-408v-1229z" />
    <glyph glyph-name="glyph1" horiz-adv-x="0" 
 />
    <glyph glyph-name="glyph2" horiz-adv-x="682" 
 />
    <glyph glyph-name="space" unicode=" " horiz-adv-x="409" 
 />
    <glyph glyph-name="exclam" unicode="!" horiz-adv-x="301" 
d="M137 365h-8l-47 1099l4 11h94l4 -11zM131 143q38 0 63 -21.5t25 -55.5t-25 -55t-63 -21q-40 0 -65 21t-25 55t25 55.5t65 21.5z" />
    <glyph glyph-name="quotedbl" unicode="&#x22;" horiz-adv-x="485" 
d="M61 1550l48 -499h8l47 499l-4 6h-94zM281 1550l47 -499h8l47 499l-4 6h-94z" />
    <glyph glyph-name="numbersign" unicode="#" horiz-adv-x="1617" 
d="M1597 1067h-348l-186 -678h391v-24h-399l-158 -574l-27 8l156 566h-604l-158 -574l-26 8l155 566h-352v24h360l187 678h-404v25h410l149 538l27 -8l-147 -530h604l149 538l27 -8l-148 -530h342v-25zM1034 389l187 678h-605l-186 -678h604z" />
    <glyph glyph-name="dollar" unicode="$" horiz-adv-x="1032" 
d="M526 799q165 -93 224 -137q156 -115 176 -258q4 -24 4 -50q0 -39 -9 -80t-32.5 -85.5t-58 -81t-91 -66t-127.5 -41.5v8q127 30 187.5 117.5t60.5 189.5q0 43 -11 82.5t-27 71t-44.5 63t-54 53.5t-67 49t-70.5 44t-76 43v-952h-29v221q-135 3 -236 47t-143 90l31 301l6 2
q9 -203 102.5 -306.5t239.5 -109.5v723q-57 32 -90 51.5t-81.5 52.5t-76.5 62.5t-56 68.5t-41 85t-13 98q0 111 75 204.5t197 123.5v-8q-93 -34 -150 -108t-57 -175q0 -65 24 -121t72 -102.5t95.5 -80t118.5 -73.5v918h28v-238q123 -5 217.5 -48.5t135.5 -88.5l-31 -322
l-6 -2q-9 220 -89.5 323.5t-226.5 112.5v-671z" />
    <glyph glyph-name="percent" unicode="%" horiz-adv-x="1638" 
d="M1466 1495l23 -16l-1215 -1483l-20 14l1139 1393q-124 -82 -281 -82q-172 0 -311 129l4 4q77 -60 146 -85.5t161 -25.5q192 0 354 152zM375 756v-8q-129 26 -217 126t-88 238q0 143 88 246t217 129v-8q-100 -26 -156.5 -117.5t-56.5 -249.5q0 -154 56.5 -242t156.5 -114z
M807 1112q0 -139 -83.5 -239.5t-205.5 -124.5v8q92 28 144.5 116t52.5 240q0 157 -52.5 249t-144.5 118v8q123 -26 206 -129t83 -246zM897 362q0 143 88 246t217 129v-8q-100 -26 -156.5 -117.5t-56.5 -249.5q0 -154 56.5 -242t156.5 -114v-8q-129 26 -217 126t-88 238z
M1346 737q123 -26 205.5 -128.5t82.5 -246.5q0 -139 -83 -239.5t-205 -124.5v8q196 59 196 356q0 157 -52.5 249t-143.5 118v8z" />
    <glyph glyph-name="ampersand" unicode="&#x26;" horiz-adv-x="1525" 
d="M393 1135q0 137 70.5 233t187.5 121v-10q-99 -31 -158 -115t-59 -199q0 -102 43.5 -195t157.5 -233l276 -340q122 -150 207 -231t134.5 -106t101.5 -25q60 0 103.5 45t62.5 125l6 -2q-9 -82 -62 -147.5t-143 -65.5q-110 0 -245.5 114.5t-393.5 427.5
q-158 192 -223.5 334.5t-65.5 268.5zM1051 1190q0 -135 -91 -222t-245 -116l-4 8q140 31 210 116t70 206q0 243 -196 297v10q119 -22 187.5 -108.5t68.5 -190.5zM82 391q0 143 82 239.5t203 133.5l2 -8q-217 -93 -217 -338q0 -170 115.5 -282.5t310.5 -112.5q147 0 276 71
l6 -6q-136 -98 -319 -98q-192 0 -325.5 112t-133.5 289zM1090 416q40 102 40 200q0 53 -28 78t-111 37v6h338v-6q-85 -13 -117 -40t-45 -83q-31 -122 -69 -196z" />
    <glyph glyph-name="quotesingle" unicode="'" horiz-adv-x="225" 
d="M61 1550l48 -499h8l47 499l-4 6h-94z" />
    <glyph glyph-name="parenleft" unicode="(" horiz-adv-x="622" 
d="M76 596q0 184 73.5 365.5t185 315t243.5 218.5l4 -4q-207 -176 -305.5 -412.5t-98.5 -482.5t98.5 -482.5t305.5 -412.5l-4 -4q-132 85 -243.5 218.5t-185 315t-73.5 365.5z" />
    <glyph glyph-name="parenright" unicode=")" horiz-adv-x="622" 
d="M547 596q0 -184 -73.5 -365.5t-185 -315t-243.5 -218.5l-4 4q106 90 186 200.5t126 227.5t68.5 233t22.5 234t-22.5 234t-68.5 233t-126 227.5t-186 200.5l4 4q132 -85 243.5 -218.5t185 -315t73.5 -365.5z" />
    <glyph glyph-name="asterisk" unicode="*" horiz-adv-x="577" 
d="M293 1204q14 125 43 264l-6 7h-76l-6 -7q29 -139 43 -264h2zM246 1169v2q-123 61 -234 132l-8 -5l-24 -69l2 -8q136 -19 264 -52zM332 1169q128 33 264 52l2 8l-25 69l-8 5q-115 -73 -233 -132v-2zM266 1120l-2 2q-94 -99 -196 -184l2 -8l59 -47l8 2q53 110 129 235z
M319 1120q81 -134 130 -235l8 -2l59 47l2 8q-102 85 -196 184z" />
    <glyph glyph-name="plus" unicode="+" horiz-adv-x="1228" 
d="M1065 569v-41h-477v-501h-49v501h-478v41h478v502h49v-502h477z" />
    <glyph glyph-name="comma" unicode="," horiz-adv-x="346" 
d="M195 160q43 0 69.5 -31t26.5 -82q0 -61 -41.5 -131t-108.5 -96l-2 2q54 33 77 85.5t17 90.5h-2q-54 -16 -94.5 3.5t-40.5 72.5q0 38 27.5 62t71.5 24z" />
    <glyph glyph-name="hyphen" unicode="-" 
d="M41 553l594 41v41l-594 -41v-41z" />
    <glyph glyph-name="period" unicode="." horiz-adv-x="337" 
d="M190 152q40 0 66.5 -23.5t26.5 -58.5t-26.5 -57.5t-66.5 -22.5q-41 0 -67.5 22.5t-26.5 57.5t26.5 58.5t67.5 23.5z" />
    <glyph glyph-name="slash" unicode="/" horiz-adv-x="694" 
d="M649 1632l25 -10l-629 -1831l-25 10z" />
    <glyph glyph-name="zero" unicode="0" horiz-adv-x="1478" 
d="M143 743q0 162 40.5 297.5t111 228.5t165 150t204.5 72v-10q-206 -34 -312 -221t-106 -517q0 -673 418 -739v-10q-110 15 -204 71t-165 148.5t-111.5 228.5t-40.5 301zM807 -6v10q426 59 426 739q0 333 -107.5 520t-318.5 218v10q112 -13 207.5 -69t167 -149
t112.5 -229.5t41 -300.5q0 -166 -41 -303t-113 -229.5t-167 -148t-207 -68.5z" />
    <glyph glyph-name="one" unicode="1" horiz-adv-x="694" 
d="M414 291q0 -113 12.5 -173t33 -81t60.5 -31v-6h-305v6q38 10 59 30.5t34.5 82t13.5 172.5v995h-107v8q65 33 122.5 89.5t82.5 111.5l4 -2q-10 -71 -10 -207v-995z" />
    <glyph glyph-name="two" unicode="2" horiz-adv-x="1251" 
d="M141 225q30 68 92.5 126t136 100.5t157 86.5t159.5 95t138.5 113.5t99.5 154.5t37 207q0 161 -78 254t-193 119v10q166 -23 269.5 -134.5t103.5 -266.5q0 -102 -31.5 -185.5t-84 -139.5t-123 -105t-145.5 -83t-155 -73t-149.5 -75t-130 -89t-94.5 -115h-9zM162 1337
q62 60 163.5 102t221.5 52v-10q-185 -27 -255.5 -154.5t-37.5 -386.5l-4 -2zM113 80v12h665q185 0 256 28t99 113l6 -2l-41 -231h-963q-22 36 -22 80z" />
    <glyph glyph-name="three" unicode="3" horiz-adv-x="1284" 
d="M569 1382q-140 0 -207.5 -14t-95.5 -44.5t-47 -100.5l-6 2l37 250h833l2 -2l-104 -91h-412zM621 926q227 0 378.5 -130.5t151.5 -324.5q0 -198 -131.5 -329t-347.5 -150v10q185 24 281 150t96 313q0 199 -123 315.5t-328 116.5q-183 0 -289 -96l-16 16l524 432h10
l-409 -356q93 33 203 33zM197 549q-6 -258 76.5 -388.5t254.5 -158.5v-10q-125 12 -224.5 53t-160.5 102l47 400z" />
    <glyph glyph-name="four" unicode="4" horiz-adv-x="1087" 
d="M803 1475q0 -104 -21.5 -197t-58 -165t-84.5 -136.5t-102.5 -118t-110 -102.5t-109.5 -96t-98.5 -92.5t-78 -99.5t-48.5 -110h-8q12 68 51 132.5t91.5 119.5t113.5 115t119.5 132.5t106 157t77 203t29.5 257.5h131zM1026 360h-248v-69q0 -85 6 -139t21 -84t32.5 -42.5
t47.5 -19.5v-6h-305v6q38 10 58.5 30.5t34 82t13.5 172.5v69l-450 -2v9l450 16v385q59 34 86 86l6 -2v-467h258z" />
    <glyph glyph-name="five" unicode="5" horiz-adv-x="1269" 
d="M1083 1579l-45 -197h-762l11 93h432q144 0 213 9.5t97.5 30t47.5 66.5zM625 934q229 0 372.5 -132t143.5 -331q0 -196 -127.5 -326.5t-335.5 -150.5v10q176 27 268 152.5t92 308.5q0 202 -122.5 321t-327.5 119q-118 0 -206.5 -33.5t-143.5 -83.5l-21 15l47 446h8
l-32 -430q155 115 385 115zM195 549q-7 -259 78 -389.5t262 -155.5v-10q-128 9 -230 50t-164 103l47 400z" />
    <glyph glyph-name="six" unicode="6" horiz-adv-x="1228" 
d="M156 555q0 174 63 337t170.5 287.5t257.5 208.5t318 107v-6q-149 -29 -278 -109t-227.5 -204t-155 -300t-56.5 -382q0 -211 84.5 -333t218.5 -155v-10q-177 28 -286 178.5t-109 380.5zM461 911l-2 4q36 32 97 50t116 18q198 0 326 -132t128 -337q0 -210 -121 -352
t-311 -166v10q150 32 239.5 169t90.5 339q1 195 -100 319.5t-260 124.5q-116 0 -203 -47z" />
    <glyph glyph-name="seven" unicode="7" horiz-adv-x="1003" 
d="M20 1253l41 222h861q18 -36 18 -72v-10h-559q-127 0 -197 -13.5t-104.5 -42.5t-52.5 -86zM350 0q0 153 23.5 286t64 233t89.5 185.5t105.5 157.5t106.5 134t97 131t73 133h6q-18 -57 -55 -120.5t-78 -122.5t-88 -129.5t-89 -157t-76.5 -189t-55 -242t-20.5 -299.5h-103z
" />
    <glyph glyph-name="eight" unicode="8" horiz-adv-x="1187" 
d="M215 1147q0 127 88.5 224t231.5 118v-10q-111 -29 -182.5 -108t-71.5 -187q0 -71 28 -130t75.5 -101.5t109 -79t129 -68t135.5 -62.5t129.5 -68.5t109 -80.5t75.5 -103.5t28 -132.5q0 -60 -25.5 -119t-75.5 -111t-134 -88.5t-191 -45.5v10q172 22 264 111.5t92 208.5
q0 67 -28 124t-75 98.5t-108 78t-129 68.5t-135.5 64t-128.5 70.5t-108 82.5t-75 104.5t-28 132.5zM678 1479v10q152 -17 244 -105.5t92 -209.5q0 -109 -66 -188.5t-190 -119.5l-4 4q98 42 143 121t45 178q0 127 -70.5 206.5t-193.5 103.5zM96 352q0 121 80.5 211t210.5 135
l4 -4q-107 -52 -165 -136.5t-58 -195.5q0 -152 101 -242.5t261 -115.5v-10q-185 18 -309.5 114t-124.5 244z" />
    <glyph glyph-name="nine" unicode="9" horiz-adv-x="1228" 
d="M813 590l2 -4q-41 -39 -108.5 -61.5t-128.5 -22.5q-198 0 -326.5 132t-128.5 337q0 210 121 352t311 166v-10q-150 -32 -239.5 -169t-90.5 -339q-1 -195 100.5 -320t260.5 -125q127 0 227 64zM1094 930q0 -174 -63 -337t-170.5 -287.5t-257.5 -208.5t-318 -107v6
q149 29 278 109t227 204t154.5 300t56.5 382q0 211 -84.5 333t-218.5 155v10q178 -28 287 -178.5t109 -380.5z" />
    <glyph glyph-name="colon" unicode=":" horiz-adv-x="337" 
d="M190 1085q40 0 66.5 -23t26.5 -58t-26.5 -57.5t-66.5 -22.5q-41 0 -67.5 22.5t-26.5 57.5t26.5 58t67.5 23zM190 152q40 0 66.5 -23.5t26.5 -58.5t-26.5 -57.5t-66.5 -22.5q-41 0 -67.5 22.5t-26.5 57.5t26.5 58.5t67.5 23.5z" />
    <glyph glyph-name="semicolon" unicode=";" horiz-adv-x="346" 
d="M190 924q-41 0 -67.5 22.5t-26.5 57.5t26.5 58t67.5 23q40 0 66.5 -23t26.5 -58t-26.5 -57.5t-66.5 -22.5zM195 160q43 0 69.5 -31t26.5 -82q0 -61 -41.5 -131t-108.5 -96l-2 2q54 33 77 85.5t17 90.5h-2q-54 -16 -94.5 3.5t-40.5 72.5q0 38 27.5 62t71.5 24z" />
    <glyph glyph-name="less" unicode="&#x3c;" horiz-adv-x="1044" 
d="M41 559l922 -371v52l-842 329l842 310v51l-922 -350v-21z" />
    <glyph glyph-name="equal" unicode="=" horiz-adv-x="1013" 
d="M61 733h891v41h-891v-41zM61 324h891v41h-891v-41z" />
    <glyph glyph-name="greater" unicode="&#x3e;" horiz-adv-x="1044" 
d="M41 188l922 351v20l-922 371v-51l842 -330l-842 -309v-52z" />
    <glyph glyph-name="question" unicode="?" horiz-adv-x="933" 
d="M20 1337q132 129 310 152v-10q-131 -29 -191 -161.5t-26 -377.5l-4 -2zM311 236q23 85 75.5 171.5t108.5 159.5t110 152t89 180t35 213q0 162 -67 254t-189 113v10q172 -20 265 -130.5t93 -266.5q0 -75 -23 -144.5t-62 -126t-86.5 -110.5t-99.5 -108.5t-98 -108.5
t-85.5 -122t-59.5 -139zM381 143q38 0 63 -21.5t25 -55.5t-25 -55t-63 -21q-40 0 -65 21t-25 55t25 55.5t65 21.5z" />
    <glyph glyph-name="at" unicode="@" horiz-adv-x="2107" 
d="M1098 -487q638 0 895 524l6 -2q-127 -269 -357 -408t-544 -139q-210 0 -394.5 75.5t-316.5 208.5t-208.5 323.5t-76.5 410.5q0 214 68.5 394.5t189.5 305.5t287 200t361 87v-10q-378 -29 -595.5 -289t-217.5 -688q0 -212 63.5 -395t179 -315t286 -207.5t374.5 -75.5z
M1282 664q0 176 -46 276.5t-144 130.5v8q131 -25 201.5 -130.5t70.5 -284.5v-381q0 -101 8 -148.5t26.5 -64.5t57.5 -17q223 0 340 148.5t117 423.5q0 233 -92.5 420.5t-266 303t-403.5 134.5v10q246 -15 441 -131t304 -309t109 -428q0 -140 -45.5 -253.5t-123 -185.5
t-175 -110.5t-205.5 -38.5q-41 1 -89.5 -12t-82.5 -35l-2 2v672zM958 1071q-85 -25 -138.5 -118.5t-49.5 -243.5l-4 -2l-47 251q104 101 239 121v-8zM664 264q0 46 15.5 92t37.5 70l440 123v-8l-381 -123q-33 -56 -33 -129q0 -120 69.5 -182t168.5 -62q113 0 186 64l4 -3
q-22 -49 -83.5 -82.5t-137.5 -33.5q-123 0 -204.5 75.5t-81.5 198.5z" />
    <glyph glyph-name="A" unicode="A" horiz-adv-x="1378" 
d="M1147 334q49 -133 82.5 -200t60.5 -92t68 -36v-6h-344v6q52 13 75.5 37t22.5 76.5t-33 140.5l-92 254l-500 6l5 10l485 9l-313 858l30 78h31zM250 264q-36 -95 -37.5 -145t27 -74.5t100.5 -38.5v-6h-330v6q50 14 78.5 34t58 67.5t66.5 140.5l389 991l4 -8z" />
    <glyph glyph-name="B" unicode="B" horiz-adv-x="1204" 
d="M143 1468v7h191v-1475h-191v6q35 10 54 30.5t32 82t13 172.5v893q0 84 -6.5 138.5t-21 84t-30 41.5t-41.5 20zM625 772q218 -18 342.5 -113.5t124.5 -267.5q0 -190 -156 -290.5t-459 -100.5v10q512 0 512 381q0 88 -25 154t-68 107.5t-108 67t-137 35.5t-164 11v12
q421 6 424 340q1 168 -111 257t-323 89v11q264 0 400.5 -101t136.5 -256q0 -136 -114.5 -229t-274.5 -113v-4z" />
    <glyph glyph-name="C" unicode="C" horiz-adv-x="1452" 
d="M123 741q0 314 185 520.5t480 231.5v-10q-254 -27 -408.5 -223t-154.5 -519q0 -317 155 -514t408 -225v-10q-194 17 -345 116.5t-235.5 264.5t-84.5 368zM932 1483v10q211 -11 340 -94l14 -338l-6 -2q-34 214 -109 312t-239 112zM932 -8v10q179 13 266.5 112.5
t124.5 321.5l6 -2l-43 -354q-128 -74 -354 -88z" />
    <glyph glyph-name="D" unicode="D" horiz-adv-x="1480" 
d="M143 1468v7h191v-1475h-191v6q35 10 54 30.5t32 82t13 172.5v893q0 84 -6.5 138.5t-21 84t-30 41.5t-41.5 20zM477 1475q218 -2 386 -56t276 -151.5t163.5 -231t55.5 -299.5q0 -335 -222.5 -531.5t-658.5 -205.5v10q384 8 581 188.5t197 538.5q0 361 -199 542.5
t-579 184.5v11z" />
    <glyph glyph-name="E" unicode="E" horiz-adv-x="1241" 
d="M143 1468v7h191v-1475h-191v6q35 10 54 30.5t32 82t13 172.5v893q0 84 -6.5 138.5t-21 84t-30 41.5t-41.5 20zM1034 1077q-20 116 -45 185t-71.5 113.5t-109.5 61.5t-167 21l-164 6v11h545l18 -394zM887 553q-11 59 -24.5 93t-44.5 64t-86 43.5t-142 14.5l-113 2v10
l113 4q71 2 119.5 10.5t79.5 21.5t50.5 36.5t29.5 49.5t18 67h6v-416h-6zM1102 412l6 -4l-45 -408h-586v10l150 6q91 4 150 14t114.5 34t91.5 67t66 111.5t53 169.5z" />
    <glyph glyph-name="F" unicode="F" horiz-adv-x="1132" 
d="M334 309q0 -119 14 -183.5t35.5 -86.5t62.5 -33v-6h-303v6q35 10 54 30.5t32 82t13 172.5v893q0 84 -6.5 138.5t-21 84t-30 41.5t-41.5 20v7h191v-1166zM1022 1475l18 -394l-6 -4q-20 116 -45 185t-71.5 113.5t-109.5 61.5t-167 21l-164 6v11h545zM590 772
q71 2 119.5 10.5t79.5 21t50.5 36.5t29.5 49.5t18 66.5h6v-426h-6q-7 40 -14.5 67t-21 54.5t-34 44.5t-51 31.5t-74.5 21t-102 7.5l-113 2v10z" />
    <glyph glyph-name="G" unicode="G" horiz-adv-x="1583" 
d="M123 741q0 314 187 520.5t485 231.5v-10q-125 -12 -229.5 -68t-180 -149t-118 -227.5t-42.5 -297.5t42.5 -297t118.5 -226.5t180 -148t229 -67.5v-10q-298 23 -485 229t-187 520zM938 1493q258 -12 385 -94l14 -338l-6 -2q-17 108 -42 179.5t-69.5 126t-113 83
t-168.5 35.5v10zM938 -8v10q130 7 204.5 44.5t111 119.5t36.5 223q0 90 -9 147.5t-31 89t-48 44.5t-69 20v4h327v-4q-34 -9 -53.5 -32t-32 -88.5t-12.5 -180.5q0 -186 4.5 -248.5t22.5 -138.5l-5 -4l-69 121q-49 -49 -146.5 -83.5t-230.5 -43.5z" />
    <glyph glyph-name="H" unicode="H" horiz-adv-x="1593" 
d="M334 291q0 -112 13 -173t32.5 -81.5t56.5 -30.5v-6h-293v6q35 10 54 30.5t32 82t13 172.5v893q0 84 -6.5 138.5t-21 84t-30 41.5t-41.5 20v7h289v-7q-37 -10 -56 -30.5t-30.5 -81t-11.5 -172.5v-893zM1317 291q0 -112 13 -173t32.5 -81.5t56.5 -30.5v-6h-293v6
q35 10 54 30.5t32 82t13 172.5v489l-748 6v11l748 8v379q0 84 -6.5 138.5t-21 84t-30 41.5t-41.5 20v7h289v-7q-37 -10 -56 -30.5t-30.5 -81t-11.5 -172.5v-893z" />
    <glyph glyph-name="I" unicode="I" horiz-adv-x="606" 
d="M432 1468q-37 -10 -56 -30.5t-30.5 -81t-11.5 -172.5v-893q0 -112 11.5 -172.5t30.5 -81.5t56 -31v-6h-289v6q35 10 54 30.5t32 82t13 172.5v893q0 84 -6.5 138.5t-21 84t-30 41.5t-41.5 20v7h289v-7z" />
    <glyph glyph-name="J" unicode="J" horiz-adv-x="954" 
d="M492 1475h288v-7q-37 -10 -56 -30.5t-30.5 -81t-11.5 -172.5v-713q0 -209 -69.5 -330.5t-204.5 -144.5v10q182 50 182 408v770q0 111 -13 172.5t-31.5 81.5t-53.5 30v7zM55 510q10 -165 38.5 -273t70 -160t100.5 -71v-10q-74 11 -138.5 42.5t-105.5 70.5l29 399z" />
    <glyph glyph-name="K" unicode="K" horiz-adv-x="1318" 
d="M334 291q0 -112 13 -173t32.5 -81.5t56.5 -30.5v-6h-293v6q35 10 54 30.5t32 82t13 172.5v893q0 84 -6.5 138.5t-21 84t-30 41.5t-41.5 20v7h289v-7q-37 -10 -56 -30.5t-30.5 -81t-11.5 -172.5v-893zM625 928l284 325q77 88 66.5 144t-109.5 71v7h371v-7
q-75 -20 -138.5 -69t-176.5 -170l-287 -307zM1165 104q40 -47 71.5 -69t72.5 -29v-6h-185l-641 766v2l4 4q60 -26 144 -45z" />
    <glyph glyph-name="L" unicode="L" horiz-adv-x="1093" 
d="M143 1468v7h289v-7q-37 -10 -56 -30.5t-30.5 -81t-11.5 -172.5v-1184h-191v6q35 10 54 30.5t32 82t13 172.5v893q0 84 -6.5 138.5t-21 84t-30 41.5t-41.5 20zM1067 432l6 -4l-51 -428h-545v10l150 6q65 3 111 10.5t91.5 25t77.5 46t62 74t53.5 109t44.5 151.5z" />
    <glyph glyph-name="M" unicode="M" horiz-adv-x="1929" 
d="M123 1475h203l659 -1405l-31 -70h-30l-629 1339q-25 61 -61 88t-111 41v7zM1659 287q0 -110 12 -170t30.5 -80.5t53.5 -30.5v-6h-297v6q39 10 60 30.5t35 81t14 169.5v1087l-510 -1136l-8 14l532 1223h168v-7q-35 -7 -53.5 -33t-27.5 -89t-9 -179v-880zM307 377
q2 -115 12 -185.5t33 -110t52.5 -54.5t80.5 -21v-6h-372v6q46 6 74 21.5t51 54.5t33 110.5t10 184.5l2 739l10 -14z" />
    <glyph glyph-name="N" unicode="N" horiz-adv-x="1642" 
d="M317 1475h-215v-7q72 -13 131 -60t136 -146l977 -1262h26v111zM1346 1098l14 -776l10 -15l2 791q0 152 15 229.5t44 105t89 35.5v7h-353v-7q37 -5 62 -15t48 -33.5t36.5 -63.5t22 -104t10.5 -154zM287 377l-15 801l-10 12l-2 -813q0 -113 -10 -184.5t-33 -110.5
t-51 -54.5t-74 -21.5v-6h373v6q-50 6 -80 21.5t-53 55.5t-33 110t-12 184z" />
    <glyph glyph-name="O" unicode="O" horiz-adv-x="1646" 
d="M123 743q0 314 174.5 519.5t454.5 230.5v-10q-237 -27 -382 -222.5t-145 -517.5q0 -316 146 -513.5t381 -225.5v-10q-184 17 -327 117t-222.5 265t-79.5 367zM895 4q235 28 380.5 225.5t145.5 513.5q0 322 -145 517.5t-381 222.5v10q280 -25 454.5 -230.5t174.5 -519.5
q0 -202 -79.5 -367t-222.5 -265t-327 -117v10z" />
    <glyph glyph-name="P" unicode="P" horiz-adv-x="1093" 
d="M334 309q0 -119 14 -183.5t35.5 -86.5t62.5 -33v-6h-303v6q35 10 54 30.5t32 82t13 172.5v893q0 84 -6.5 138.5t-21 84t-30 41.5t-41.5 20v7h191v-1166zM498 1475q251 -6 397.5 -129t146.5 -332q0 -216 -126 -340.5t-332 -124.5q-65 0 -92 18l2 4q18 -6 59 -6
q170 0 278.5 121.5t108.5 327.5q0 210 -113 323t-329 127v11z" />
    <glyph glyph-name="Q" unicode="Q" horiz-adv-x="1667" 
d="M123 743q0 314 174.5 519.5t454.5 230.5v-10q-237 -27 -382 -222.5t-145 -517.5q0 -316 146 -513.5t381 -225.5v-10q-184 17 -327 117t-222.5 265t-79.5 367zM895 4q235 28 380.5 225.5t145.5 513.5q0 322 -145 517.5t-381 222.5v10q280 -25 454.5 -230.5t174.5 -519.5
q0 -202 -79.5 -367t-222.5 -265t-327 -117v10zM690 -172q13 22 45.5 41.5t85.5 19.5q64 0 135.5 -32t139 -77.5t140 -90.5t164 -77t185.5 -32q258 0 326 234l4 -2q-6 -57 -29 -112.5t-61.5 -103.5t-98.5 -78t-131 -30q-92 0 -183.5 40t-165.5 97t-144.5 113.5t-146 96.5
t-144.5 40q-77 0 -115 -49z" />
    <glyph glyph-name="R" unicode="R" horiz-adv-x="1193" 
d="M334 309q0 -119 14 -183.5t35.5 -86.5t62.5 -33v-6h-303v6q35 10 54 30.5t32 82t13 172.5v893q0 84 -6.5 138.5t-21 84t-30 41.5t-41.5 20v7h191v-1166zM1049 203q87 -134 108 -159q27 -29 47 -34v-10h-147l-424 694q-82 -14 -156 -14v10q99 2 174.5 24.5t122.5 58
t76.5 86t41 102t11.5 112.5q0 384 -426 391v11q124 -1 219 -25.5t152.5 -62.5t94 -91.5t50 -106.5t13.5 -114q0 -85 -34.5 -158.5t-117 -134.5t-205.5 -86l2 -4q39 -17 109 -37z" />
    <glyph glyph-name="S" unicode="S" horiz-adv-x="1097" 
d="M152 1155q0 120 96 216.5t248 119.5v-10q-120 -24 -194.5 -100.5t-74.5 -188.5q0 -64 26.5 -117.5t71 -92.5t102.5 -73.5t122 -65t128 -62.5t122 -71t102.5 -84.5t71 -109.5t26.5 -141q0 -45 -11 -90.5t-40.5 -95.5t-73.5 -89.5t-116.5 -68.5t-163.5 -37v10
q73 7 130.5 31t93.5 57.5t59.5 76t33 83.5t9.5 84q0 73 -26.5 134t-70.5 104.5t-102 81.5t-121.5 69l-127 62t-121.5 67t-102 77t-70.5 98.5t-26.5 125.5zM639 1481v10q108 -11 191.5 -52t119.5 -81l-30 -322l-7 -2q-7 210 -76.5 317t-197.5 130zM111 127l30 301l6 2
q7 -189 89.5 -295t214.5 -131v-10q-120 11 -211 52t-129 81z" />
    <glyph glyph-name="T" unicode="T" horiz-adv-x="1218" 
d="M20 1081l19 394h381v-11h-21q-96 0 -156 -16.5t-103 -62.5t-67.5 -117t-45.5 -191zM655 291q0 -112 13.5 -173t34.5 -81.5t61 -30.5v-6h-311v6q40 10 61 30.5t35 82t14 172.5v1184h92v-1184zM1180 1475l18 -394l-6 -4q-27 157 -68 238.5t-111 115t-194 33.5h-20v11h381z
" />
    <glyph glyph-name="U" unicode="U" horiz-adv-x="1484" 
d="M123 1468v7h289v-7q-37 -10 -56 -30.5t-31 -81t-12 -172.5v-604q0 -253 90 -399.5t287 -176.5v-10q-229 21 -349 167.5t-120 418.5v604q0 111 -13 172.5t-31.5 81.5t-53.5 30zM834 -6v10q133 19 227.5 103.5t140 213t45.5 289.5v486q0 112 -10 184t-32.5 110.5t-49.5 54
t-70 21.5v7h338v-7q-59 -8 -88.5 -36t-44 -104.5t-14.5 -229.5v-486q0 -165 -48.5 -296.5t-149.5 -217.5t-244 -102z" />
    <glyph glyph-name="V" unicode="V" horiz-adv-x="1327" 
d="M313 1468q-52 -13 -75.5 -37t-23 -76.5t33.5 -140.5l428 -1136l-31 -78h-31l-434 1141q-50 134 -83.5 200t-60 91t-67.5 36v7h344v-7zM1317 1468q-50 -14 -79 -33.5t-58.5 -67t-65.5 -140.5l-379 -994l-6 11l350 966q35 94 36.5 144t-28 75t-100.5 39v7h330v-7z" />
    <glyph glyph-name="W" unicode="W" horiz-adv-x="2244" 
d="M317 1468q-51 -13 -74 -36.5t-22.5 -76t31.5 -141.5l397 -1136l-31 -78h-30l-408 1141q-48 133 -82 200.5t-60.5 91.5t-68.5 35v7h348v-7zM1260 1468q-52 -13 -76 -37t-23.5 -76.5t33.5 -140.5l420 -1132l-31 -82h-31l-428 1141l-34 90l-381 -998l-7 11l371 1028
q-45 107 -78 145t-82 51v7h347v-7zM1905 1475h329v-7q-75 -20 -114.5 -64t-87.5 -177l-363 -991l-6 10l332 964q47 135 29.5 186.5t-119.5 71.5v7z" />
    <glyph glyph-name="X" unicode="X" horiz-adv-x="1376" 
d="M90 1468q130 -39 289 -278l577 -864q76 -113 97.5 -180t0 -97t-84.5 -43v-6h397v6q-38 12 -72 35.5t-94.5 94.5t-142.5 194l-570 852q-54 81 -79 128.5t-28 81.5t18.5 50t70.5 26v7h-379v-7zM1311 1468v7h-396v-7q68 -9 103.5 -43.5t34.5 -81t-33 -96.5l-211 -329l4 -7
l236 332q149 211 262 225zM-20 6v-6h395v6q-68 9 -104.5 43.5t-35.5 82t35 95.5l310 445l-7 6l-331 -447q-79 -106 -141 -162t-121 -63z" />
    <glyph glyph-name="Y" unicode="Y" horiz-adv-x="1177" 
d="M647 291q0 -112 13.5 -173t34.5 -81.5t61 -30.5v-6h-310v6q29 8 46.5 20.5t33 42t22.5 84t7 138.5v270l-313 584q-95 178 -149.5 241.5t-123.5 81.5v7h355v-7q-149 -24 -43 -223l366 -684v-270zM848 1475h319v-7q-57 -10 -99 -58.5t-99 -168.5l-258 -547l-4 11l237 555
q41 97 17.5 146.5t-113.5 61.5v7z" />
    <glyph glyph-name="Z" unicode="Z" horiz-adv-x="1247" 
d="M1126 1475l4 -7l-808 -1255q-54 -83 -70 -118t-16 -70v-25h-150l-4 6l942 1469h102zM870 1464l-135 -4q-129 -4 -217.5 -18.5t-151.5 -40.5t-102.5 -72.5t-63 -105t-40.5 -146.5l-6 4l39 394h686zM379 10l153 4q135 4 227.5 18.5t157.5 40.5t106 72.5t64.5 105
t40.5 146.5l7 -4l-39 -393h-717v10z" />
    <glyph glyph-name="bracketleft" unicode="[" horiz-adv-x="524" 
d="M61 -221v1696h443v-21h-340v-1655h340v-20h-443z" />
    <glyph glyph-name="backslash" unicode="\" horiz-adv-x="684" 
d="M45 1632l629 -1831l-25 -10l-629 1831z" />
    <glyph glyph-name="bracketright" unicode="]" horiz-adv-x="524" 
d="M463 1475v-1696h-443v20h340v1655h-340v21h443z" />
    <glyph glyph-name="asciicircum" unicode="^" horiz-adv-x="909" 
d="M102 1012l21 -19l332 461l331 -461l21 19l-338 463h-29z" />
    <glyph glyph-name="underscore" unicode="_" horiz-adv-x="942" 
d="M41 -102h860v26h-860v-26z" />
    <glyph glyph-name="grave" unicode="`" horiz-adv-x="339" 
d="M299 1255v2q-73 21 -112 71.5t-68 150.5h-4l-74 -37q27 -88 98.5 -136.5t159.5 -50.5z" />
    <glyph glyph-name="a" unicode="a" horiz-adv-x="1060" 
d="M250 709l-4 -2l-47 251q104 101 239 121v-8q-85 -25 -138.5 -118.5t-49.5 -243.5zM844 283q0 -97 10 -146t27 -65.5t55 -26.5v-4q-41 1 -89.5 -13.5t-82.5 -37.5l-2 2v672q0 175 -46 276t-145 131v8q131 -25 202 -130.5t71 -284.5v-381zM461 45q113 0 186 64l4 -3
q-22 -49 -83.5 -82.5t-137.5 -33.5q-123 0 -205 75.5t-82 198.5q0 46 16 92t38 70l440 123v-8l-381 -123q-33 -56 -33 -129q0 -120 69.5 -182t168.5 -62z" />
    <glyph glyph-name="b" unicode="b" horiz-adv-x="1255" 
d="M328 410q0 -359 241 -406v-8q-165 27 -254 164l-92 -170l-6 4q29 139 29 416v925q0 78 -10 121t-31 63.5t-62 32.5l2 4q105 13 199 82l2 -2q-18 -90 -18 -301v-925zM713 1085q121 0 212 -66.5t139 -182t48 -261.5q0 -132 -31 -238t-86 -175.5t-126 -111t-156 -54.5v8
q137 26 220 163.5t83 371.5q0 237 -98 362t-259 125q-59 0 -113.5 -25t-88.5 -67l-2 2q31 61 99 105t159 44z" />
    <glyph glyph-name="c" unicode="c" horiz-adv-x="1099" 
d="M143 516q0 226 117 381.5t299 183.5v-8q-143 -30 -232 -164.5t-89 -328.5q0 -233 128.5 -371.5t325.5 -138.5q97 0 171 32.5t138 108.5l7 -2q-52 -111 -150.5 -165t-222.5 -54q-146 0 -259.5 72t-173 191t-59.5 263zM702 1073v8q89 -10 156 -41.5t103 -72.5l-56 -260
l-4 2q0 321 -199 364z" />
    <glyph glyph-name="d" unicode="d" horiz-adv-x="1236" 
d="M1010 283q0 -97 10 -146t27 -65.5t55 -26.5v-4q-41 1 -89.5 -13.5t-82.5 -37.5l-2 2v674q0 358 -242 405v8q153 -23 242 -147v403q0 78 -10 121t-31 63.5t-62 32.5l2 4q105 13 199 82l2 -2q-18 -90 -18 -301v-1052zM596 49q59 0 114 25t89 67l2 -2q-31 -61 -99 -105
t-159 -44q-182 0 -291 143.5t-109 366.5q0 132 31 238t86.5 175.5t126.5 111t156 54.5v-8q-137 -26 -220 -163t-83 -371q0 -237 97.5 -362.5t258.5 -125.5z" />
    <glyph glyph-name="e" unicode="e" horiz-adv-x="1138" 
d="M143 541q0 212 113.5 362t288.5 176v-8q-134 -28 -220.5 -158t-86.5 -309q0 -247 128 -390.5t326 -143.5q97 0 171 32.5t138 108.5l7 -2q-52 -111 -150.5 -165t-222.5 -54q-146 0 -259 74t-173 198.5t-60 278.5zM379 623v8l524 12q8 31 8 84q0 138 -55 230t-168 114v8
q102 -15 174.5 -74t104.5 -138t32 -169q0 -51 -8 -75h-612z" />
    <glyph glyph-name="f" unicode="f" horiz-adv-x="714" 
d="M352 1280v-205h314v-18h-314v-852q0 -76 15.5 -116t45.5 -57t91 -28v-4h-340v4q44 14 65 31t31 56t10 114v852h-67v18h67v205q0 152 59 240t165 110v-8q-68 -31 -105 -118.5t-37 -223.5zM618 1630q115 -24 179 -76l-29 -239l-4 2q-21 257 -146 305v8z" />
    <glyph glyph-name="g" unicode="g" horiz-adv-x="1142" 
d="M940 1274l2 4l94 31q35 -54 35 -109q0 -53 -37 -89.5t-92 -51.5l-2 2q37 40 37 100q0 67 -37 113zM193 676q0 160 95 270t251 133v-8q-115 -25 -181 -128t-63 -267q3 -151 68.5 -245t175.5 -118v-8q-156 20 -251 122t-95 249zM682 305v8q108 25 172.5 121.5t67.5 249.5
q3 161 -62 261.5t-178 125.5v8q154 -22 248 -129.5t94 -265.5q0 -150 -94 -253.5t-248 -125.5zM184 162q80 42 140 94l4 -4q-49 -61 -49 -105q0 -75 112 -75h418q155 0 233 -70.5t78 -177.5q0 -43 -14.5 -84t-47.5 -81t-82 -70.5t-123.5 -51.5t-166.5 -26v8q177 12 276 86.5
t99 181.5q0 98 -70 150.5t-231 52.5h-377q-99 0 -149 40t-50 132zM123 -223q0 56 38.5 92t90.5 43l2 -4q-39 -55 -39 -131q0 -108 83 -177t245 -81v-8q-92 5 -166 24.5t-120 46.5t-77.5 62t-44 68t-12.5 65z" />
    <glyph glyph-name="h" unicode="h" horiz-adv-x="1331" 
d="M352 205q0 -75 12 -115.5t34 -57.5t65 -28v-4h-299v4q44 14 65 31t31 56t10 114v1130q0 79 -9.5 121.5t-30.5 63t-62 32.5l2 4q105 13 199 82l2 -2q-19 -95 -19 -301v-1130zM1069 205q0 -75 10.5 -114t31.5 -56t65 -31v-4h-299v4q64 16 87 54t23 147v475q0 168 -76 257
t-213 89q-139 0 -217 -92l-2 2q28 59 99 104t165 45q150 0 238 -98.5t88 -251.5v-530z" />
    <glyph glyph-name="i" unicode="i" horiz-adv-x="634" 
d="M322 1272q-40 0 -65.5 21t-25.5 55q0 35 25.5 56t65.5 21q39 0 63.5 -21t24.5 -56q0 -34 -25 -55t-63 -21zM373 205q0 -75 11 -115.5t32 -57.5t63 -28v-4h-295v4q44 14 65 31t31.5 56t10.5 114v577q0 78 -10 121t-31 63.5t-62 32.5l2 5q107 13 199 81l2 -2
q-18 -90 -18 -301v-577z" />
    <glyph glyph-name="j" unicode="j" horiz-adv-x="540" 
d="M266 1268q-40 0 -65 20.5t-25 54.5q0 35 25 56.5t65 21.5q39 0 63.5 -21.5t24.5 -56.5q0 -33 -24.5 -54t-63.5 -21zM135 1004q107 13 199 81l2 -2q-19 -95 -19 -301v-1097q0 -114 -29 -155.5t-87 -41.5q-38 0 -60 16l2 2q58 0 75.5 32.5t17.5 146.5v1097q0 78 -10 121
t-31 63.5t-62 32.5z" />
    <glyph glyph-name="k" unicode="k" horiz-adv-x="1161" 
d="M352 205q0 -75 12 -115.5t34 -57.5t65 -28v-4h-299v4q44 14 65 31t31 56t10 114v1130q0 79 -9.5 121.5t-30.5 63t-62 32.5l2 4q105 13 199 82l2 -2q-19 -95 -19 -301v-1130zM575 707l160 159q34 34 50.5 67t14 62t-33 49.5t-86.5 26.5v4h354v-4q-73 -26 -194 -137
l-256 -236zM993 109q53 -57 83.5 -77t74.5 -28v-4h-190q0 28 -17 45l-485 512v39l41 39z" />
    <glyph glyph-name="l" unicode="l" horiz-adv-x="593" 
d="M352 205q0 -75 11.5 -115.5t32.5 -57.5t63 -28v-4h-295v4q44 14 65 31t31 56t10 114v1130q0 79 -9.5 121.5t-30.5 63t-62 32.5l2 4q105 13 199 82l2 -2q-19 -95 -19 -301v-1130z" />
    <glyph glyph-name="m" unicode="m" horiz-adv-x="2019" 
d="M373 205q0 -109 23 -147t87 -54v-4h-299v4q44 14 65 31t31.5 56t10.5 114v577q0 78 -10 121t-31 63.5t-62 32.5l2 5q107 13 199 81l2 -2q-18 -90 -18 -301v-577zM1065 205q0 -75 10 -114t31 -56t65 -31v-4h-299v4q43 11 65 28t34 57.5t12 115.5v475q0 169 -69 257.5
t-195 88.5q-139 0 -217 -92l-2 2q28 59 99 104t165 45q138 0 219.5 -98.5t81.5 -251.5v-530zM1757 205q0 -75 10.5 -114t31.5 -56t65 -31v-4h-299v4q64 16 87 54t23 147v475q0 169 -69 257.5t-195 88.5q-144 0 -225 -92l-2 2q28 59 101.5 104t170.5 45q138 0 219.5 -98.5
t81.5 -251.5v-530z" />
    <glyph glyph-name="n" unicode="n" horiz-adv-x="1351" 
d="M373 205q0 -109 23 -147t87 -54v-4h-299v4q44 14 65 31t31.5 56t10.5 114v577q0 78 -10 121t-31 63.5t-62 32.5l2 5q107 13 199 81l2 -2q-18 -90 -18 -301v-577zM1090 205q0 -75 10 -114t31 -56t65 -31v-4h-299v4q43 11 65 28t34 57.5t12 115.5v475q0 168 -76 257
t-213 89q-139 0 -217 -92l-2 2q28 59 99 104t165 45q150 0 238 -98.5t88 -251.5v-530z" />
    <glyph glyph-name="o" unicode="o" horiz-adv-x="1286" 
d="M143 537q0 96 29 187t82 166t136 126.5t183 64.5v-8q-97 -22 -172.5 -100.5t-115 -192t-39.5 -243.5q0 -216 88.5 -361t238.5 -174v-8q-201 24 -315.5 175.5t-114.5 367.5zM717 1073v8q131 -19 230 -102t147.5 -198.5t48.5 -243.5q0 -214 -113.5 -365.5t-312.5 -177.5v8
q148 29 235.5 174t87.5 361q0 197 -89 348.5t-234 187.5z" />
    <glyph glyph-name="p" unicode="p" horiz-adv-x="1280" 
d="M352 410q0 -359 242 -406v-8q-153 23 -242 147v-409q0 -75 12.5 -115.5t35 -57.5t67.5 -28v-4h-303v4q44 14 65 31t31 56t10 114v1048q0 79 -9.5 121.5t-30.5 63t-62 32.5l2 5q107 13 199 81l2 -2q-19 -95 -19 -301v-372zM737 1085q182 0 291 -143.5t109 -366.5
q0 -132 -31 -238t-86.5 -175.5t-126.5 -111t-156 -54.5v8q137 26 220 163.5t83 371.5q0 237 -97.5 362t-258.5 125q-59 0 -114 -25t-89 -67l-2 2q31 61 99 105t159 44z" />
    <glyph glyph-name="q" unicode="q" horiz-adv-x="1251" 
d="M1010 -266q0 -75 11 -115.5t32 -57.5t63 -28v-4h-303v4q48 14 70 31t33.5 56t11.5 114v932q0 358 -242 405v8q167 -27 254 -166l92 172l6 -4q-28 -134 -28 -415v-932zM596 49q59 0 114 25t89 67l2 -2q-31 -61 -99 -105t-159 -44q-182 0 -291 143.5t-109 366.5
q0 132 31 238t86.5 175.5t126.5 111t156 54.5v-8q-137 -26 -220 -163t-83 -371q0 -237 97.5 -362.5t258.5 -125.5z" />
    <glyph glyph-name="r" unicode="r" horiz-adv-x="813" 
d="M373 205q0 -75 13.5 -115.5t38.5 -57.5t75 -28v-4h-316v4q44 14 65 31t31.5 56t10.5 114v577q0 78 -10 121t-31 63.5t-62 32.5l2 5q107 13 199 81l2 -2q-18 -90 -18 -301v-577zM723 1085q60 0 100 -28l-18 -70h-4q-37 33 -113 33q-122 0 -194 -129l-2 2q27 84 86.5 138
t144.5 54z" />
    <glyph glyph-name="s" unicode="s" horiz-adv-x="954" 
d="M178 813q0 97 67.5 171t180.5 95v-8q-75 -20 -121.5 -78.5t-46.5 -134.5q0 -53 24 -97.5t64 -74.5t90.5 -59.5t103 -53t103 -54.5t90.5 -64t64 -81t24 -106q0 -100 -69 -175.5t-187 -96.5v8q174 38 174 221q0 61 -31 110.5t-80.5 84t-109.5 66t-119.5 63t-109 66.5
t-80.5 85.5t-31 112.5zM569 1071v8q140 -22 224 -98l-43 -242h-2q-23 282 -179 332zM143 94l43 242h2q16 -155 80 -233.5t154 -98.5v-8q-167 16 -279 98z" />
    <glyph glyph-name="t" unicode="t" horiz-adv-x="710" 
d="M715 174l6 -2q-3 -27 -19 -57.5t-42.5 -59t-69 -47t-92.5 -18.5q-126 0 -196.5 79.5t-70.5 239.5v748h-67v8q39 17 82 66.5t61 95.5l6 -2v-150h357v-18h-357v-733q0 -293 199 -293q75 0 127.5 37t75.5 106z" />
    <glyph glyph-name="u" unicode="u" horiz-adv-x="1275" 
d="M621 49q139 0 217 92l2 -2q-28 -59 -99.5 -104t-165.5 -45q-150 0 -237.5 98.5t-87.5 251.5v442q0 78 -10 121t-31 63.5t-62 32.5l3 5q106 13 198 81l2 -2q-18 -90 -18 -301v-387q0 -168 76 -257t213 -89zM1049 283q0 -97 10 -146t27 -65.5t55 -26.5v-4
q-41 1 -89.5 -13.5t-82.5 -37.5l-2 2v790q0 78 -10 121t-31 63.5t-62 32.5l2 5q107 13 199 81l2 -2q-18 -90 -18 -301v-499z" />
    <glyph glyph-name="v" unicode="v" horiz-adv-x="1052" 
d="M10 1071v4h307v-4q-49 -12 -70.5 -36t-20.5 -54t18 -74l334 -868l-15 -39h-51l-360 928q-27 69 -65 103.5t-77 39.5zM623 186l241 711q24 70 -8.5 114.5t-112.5 59.5v4h299v-4q-40 -10 -79 -46.5t-62 -100.5l-274 -752z" />
    <glyph glyph-name="w" unicode="w" horiz-adv-x="1759" 
d="M317 1071q-49 -12 -70.5 -36t-20.5 -54t18 -74l334 -868l-15 -39h-51l-360 928q-27 69 -65 103.5t-77 39.5v4h307v-4zM1024 1071q-49 -12 -71 -36t-21 -54t18 -74l334 -868l-14 -39h-51l-338 868l-254 -696l-4 14l243 719l-8 23q-27 69 -64.5 103.5t-76.5 39.5v4h307v-4z
M1450 1075h299v-4q-40 -10 -79 -46.5t-62 -100.5l-275 -752l-4 14l242 711q48 142 -121 174v4z" />
    <glyph glyph-name="x" unicode="x" horiz-adv-x="1067" 
d="M63 1071v4h320v-4q-69 -10 -86 -55.5t25 -100.5l561 -755q63 -83 94.5 -113.5t69.5 -42.5v-4h-328v4q76 9 93 55t-34 115l-577 780q-72 95 -138 117zM635 676l133 211q102 161 -39 184v4h266v-4q-86 -29 -200 -186l-156 -215zM414 442l-158 -252q-50 -78 -41.5 -126
t72.5 -58v-4h-267v4q103 35 209 187l181 258z" />
    <glyph glyph-name="y" unicode="y" horiz-adv-x="1103" 
d="M82 1071v4h307v-4q-49 -12 -71 -36t-21 -54t18 -74l334 -870l-12 -37h-53l-361 928q-27 69 -64.5 103.5t-76.5 39.5zM795 1071v4h299v-4q-41 -11 -80 -46.5t-62 -100.5l-252 -736l-4 15l222 694q45 142 -123 174zM31 -471l32 94h7q37 -37 141 -37q226 0 367 281h8
q-46 -110 -97 -186.5t-105 -117.5t-106 -58t-112 -17q-42 0 -79 11t-56 30z" />
    <glyph glyph-name="z" unicode="z" horiz-adv-x="1052" 
d="M113 0l718 1075h97l-641 -928q-41 -59 -41 -129v-18h-133zM162 709l47 366h479l-6 -8l-166 -10q-79 -5 -128.5 -20t-91 -55t-70.5 -104t-60 -171zM389 0v8l203 8q104 4 164 34.5t102.5 102t83.5 212.5l4 -3l-47 -362h-510z" />
    <glyph glyph-name="braceleft" unicode="{" horiz-adv-x="747" 
d="M61 578v24h56q143 0 218 52.5t75 142.5q0 55 -14 105t-34.5 88t-41 75t-34.5 84t-14 98q0 111 73 179.5t194 68.5q110 0 168 -20v-5h-76q-266 0 -266 -213q0 -75 21 -155.5t42 -152.5t21 -128q0 -103 -67.5 -162.5t-162.5 -66.5v-4q94 -5 162 -65t68 -163q0 -61 -42 -199
t-42 -233q0 -215 266 -215h76v-4q-58 -20 -168 -20q-121 0 -194 69.5t-73 180.5q0 61 21.5 119t47.5 98t47.5 100.5t21.5 126.5q0 90 -75 142.5t-218 52.5h-56z" />
    <glyph glyph-name="bar" unicode="|" horiz-adv-x="229" 
d="M102 1638v-1896h25v1896h-25z" />
    <glyph glyph-name="braceright" unicode="}" horiz-adv-x="747" 
d="M686 606v-24h-55q-143 0 -218 -52.5t-75 -142.5q0 -67 21.5 -129t47 -102t47 -98.5t21.5 -120.5q0 -111 -72.5 -179.5t-193.5 -68.5q-110 0 -168 20v4h76q266 0 266 213q0 75 -21 155.5t-42 152.5t-21 128q0 104 67.5 163.5t161.5 66.5v4q-94 5 -161.5 64.5t-67.5 162.5
q0 61 42 199t42 233q0 215 -266 215h-76v5q58 20 168 20q121 0 193.5 -69.5t72.5 -180.5q0 -61 -21.5 -119t-47 -98t-47 -100.5t-21.5 -126.5q0 -90 75 -142.5t218 -52.5h55z" />
    <glyph glyph-name="asciitilde" unicode="~" horiz-adv-x="661" 
d="M182 602q50 0 98 -23.5t97.5 -47t103.5 -23.5q50 0 72.5 31.5t9.5 72.5h4q13 -22 13 -55q0 -46 -36 -82.5t-102 -36.5q-49 0 -98 23.5t-95 47t-87 23.5q-55 0 -75.5 -31t-8.5 -73h-4q-13 22 -13 55q0 45 33 82t88 37z" />
    <glyph glyph-name="uni00A0" unicode="&#xa0;" horiz-adv-x="409" 
 />
    <glyph glyph-name="cent" unicode="&#xa2;" horiz-adv-x="1099" 
d="M1008 209q-50 -108 -146.5 -162.5t-216.5 -56.5v-185h-24v185q-142 4 -252 76.5t-168 190t-58 259.5q0 203 95 350t251 197v-8q-116 -55 -183.5 -180.5t-67.5 -294.5q0 -210 106.5 -345t276.5 -159l2 1208h24v-201q108 -3 190 -36t124 -80l-56 -260l-4 2q0 353 -254 364
l-2 -1001q16 -2 47 -2q97 0 171 32.5t138 108.5z" />
    <glyph glyph-name="sterling" unicode="&#xa3;" horiz-adv-x="1212" 
d="M440 502q0 109 -45 219h-270v27h258q-17 40 -65 126.5t-71.5 152t-23.5 136.5q0 132 92 219.5t240 108.5v-10q-104 -25 -166.5 -99.5t-62.5 -195.5q0 -79 18.5 -150t56 -160t50.5 -128h399v-27h-389q28 -100 28 -193q0 -78 -34 -158t-107 -145h-8q100 117 100 277z
M999 1006q-51 416 -301 475v10q168 -15 299 -90l9 -391zM1120 217l10 -4l-67 -213h-981l53 92h574q143 0 230 16.5t123 41.5t58 67z" />
    <glyph glyph-name="yen" unicode="&#xa5;" horiz-adv-x="1177" 
d="M647 483v-168h459v-24h-459q0 -112 13.5 -173t34.5 -81.5t61 -30.5v-6h-310v6q29 8 46.5 20.5t33 42t22.5 84t7 138.5h-455v24h455v168h-459v25h459v53l-313 584q-95 178 -149.5 241.5t-123.5 81.5v7h355v-7q-149 -24 -43 -223l366 -684v-53h455v-25h-455zM848 1475h319
v-7q-57 -10 -99 -58.5t-99 -168.5l-258 -547l-4 11l237 555q41 97 17.5 146.5t-113.5 61.5v7z" />
    <glyph glyph-name="dieresis" unicode="&#xa8;" horiz-adv-x="526" 
d="M137 1417q37 0 60.5 -20.5t23.5 -53.5q0 -32 -23.5 -51.5t-60.5 -19.5q-38 0 -62 19.5t-24 51.5q0 34 24 54t62 20zM391 1417q37 0 60.5 -20.5t23.5 -53.5q0 -32 -23.5 -51.5t-60.5 -19.5q-38 0 -62 19.5t-24 51.5q0 34 24 54t62 20z" />
    <glyph glyph-name="copyright" unicode="&#xa9;" horiz-adv-x="1667" 
d="M82 743q0 191 89.5 356.5t245.5 270t345 121.5v-21q-181 -20 -331 -122t-236 -262t-86 -343q0 -140 50.5 -268.5t138 -225t208 -160t256.5 -77.5v-18q-189 17 -345 121t-245.5 270t-89.5 358zM905 -6v18q136 14 257 77.5t208 160t138 225t51 268.5q0 183 -86.5 343
t-236.5 262t-331 122v21q189 -17 345 -121.5t245.5 -270t89.5 -356.5q0 -192 -89.5 -358t-245.5 -270t-345 -121zM428 756q0 181 102.5 301.5t270.5 144.5v-10q-123 -29 -197 -142.5t-74 -293.5q0 -176 73.5 -290t195.5 -144v-11q-165 23 -268 146t-103 299zM944 1192v10
q111 -11 176 -53l8 -244h-6q-18 134 -56.5 201t-121.5 86zM942 319q93 17 139 84t68 209h6l-27 -254q-64 -39 -186 -49v10z" />
    <glyph glyph-name="guillemotleft" unicode="&#xab;" horiz-adv-x="796" 
d="M424 221l-342 332v8l342 332l4 -4l-240 -332l240 -332zM731 221l-342 332v8l342 332l4 -4l-239 -332l239 -332z" />
    <glyph glyph-name="uni00AD" unicode="&#xad;" 
d="M41 553l594 41v41l-594 -41v-41z" />
    <glyph glyph-name="registered" unicode="&#xae;" horiz-adv-x="788" 
d="M399 1495q135 0 221.5 -84t86.5 -217q0 -136 -86.5 -223.5t-221.5 -87.5q-138 0 -227.5 87.5t-89.5 223.5q0 133 89 217t228 84zM399 901q122 0 200.5 82t78.5 211q0 123 -78.5 202t-200.5 79q-126 0 -205 -79t-81 -204q-3 -127 78 -209t208 -82zM532 1073
q0 -28 11.5 -39t25.5 -4v-6q-12 -6 -28 -6q-27 0 -43.5 12.5t-16.5 36.5v43q0 41 -21 56.5t-81 15.5h-39v-88q0 -38 6 -51.5t19 -16.5v-6h-97v6q8 2 13 6.5t8.5 18.5t3.5 39v213q0 36 -6 48.5t-19 16.5v6h109q71 0 109 -26t38 -64q0 -39 -26.5 -63t-69.5 -29v-2
q51 -4 77.5 -27t26.5 -57v-33zM340 1196h39q46 0 68.5 20.5t23.5 67.5q2 38 -22 59t-72 21h-37v-168z" />
    <glyph glyph-name="acute" unicode="&#xb4;" horiz-adv-x="339" 
d="M41 1255q88 2 159.5 50.5t98.5 136.5l-74 37h-4q-29 -100 -68 -150.5t-112 -71.5v-2z" />
    <glyph glyph-name="cedilla" unicode="&#xb8;" horiz-adv-x="346" 
d="M98 -78l4 -2l-12 -41q215 -72 215 -209q0 -72 -59.5 -122t-136.5 -50l-3 4q56 12 87.5 47.5t31.5 88.5q0 105 -182 161l-2 4z" />
    <glyph glyph-name="guillemotright" unicode="&#xbb;" horiz-adv-x="796" 
d="M66 223l-5 4l240 332l-240 332l5 4l342 -332v-8zM373 223l-4 4l239 332l-239 332l4 4l342 -332v-8z" />
    <glyph glyph-name="circumflex" unicode="&#x2c6;" horiz-adv-x="512" 
d="M41 1288l211 193h8l211 -193l-4 -4l-211 113l-211 -113z" />
    <glyph glyph-name="ring" unicode="&#x2da;" horiz-adv-x="311" 
d="M27 1362q0 52 37.5 83.5t91.5 31.5t91.5 -31.5t37.5 -83.5q0 -54 -37 -85.5t-92 -31.5t-92 31.5t-37 85.5zM90 1364q0 -48 18 -75t48 -27t48.5 27t18.5 75q0 45 -18.5 71.5t-48.5 26.5q-27 0 -46.5 -27t-19.5 -71z" />
    <glyph glyph-name="tilde" unicode="&#x2dc;" horiz-adv-x="722" 
d="M223 1442q50 0 98 -23.5t97.5 -47t103.5 -23.5q50 0 72.5 31.5t9.5 72.5h4q13 -22 13 -55q0 -46 -36 -82.5t-102 -36.5q-49 0 -98 23.5t-95 47t-87 23.5q-55 0 -75.5 -31t-8.5 -73h-4q-13 22 -13 55q0 45 33 82t88 37z" />
    <glyph glyph-name="uni2000" unicode="&#x2000;" horiz-adv-x="866" 
 />
    <glyph glyph-name="uni2001" unicode="&#x2001;" horiz-adv-x="1733" 
 />
    <glyph glyph-name="uni2002" unicode="&#x2002;" horiz-adv-x="866" 
 />
    <glyph glyph-name="uni2003" unicode="&#x2003;" horiz-adv-x="1733" 
 />
    <glyph glyph-name="uni2004" unicode="&#x2004;" horiz-adv-x="577" 
 />
    <glyph glyph-name="uni2005" unicode="&#x2005;" horiz-adv-x="433" 
 />
    <glyph glyph-name="uni2006" unicode="&#x2006;" horiz-adv-x="288" 
 />
    <glyph glyph-name="uni2007" unicode="&#x2007;" horiz-adv-x="288" 
 />
    <glyph glyph-name="uni2008" unicode="&#x2008;" horiz-adv-x="216" 
 />
    <glyph glyph-name="uni2009" unicode="&#x2009;" horiz-adv-x="346" 
 />
    <glyph glyph-name="uni200A" unicode="&#x200a;" horiz-adv-x="96" 
 />
    <glyph glyph-name="uni2010" unicode="&#x2010;" 
d="M41 553l594 41v41l-594 -41v-41z" />
    <glyph glyph-name="uni2011" unicode="&#x2011;" 
d="M41 553l594 41v41l-594 -41v-41z" />
    <glyph glyph-name="figuredash" unicode="&#x2012;" 
d="M41 553l594 41v41l-594 -41v-41z" />
    <glyph glyph-name="endash" unicode="&#x2013;" horiz-adv-x="942" 
d="M41 573h860v25h-860v-25z" />
    <glyph glyph-name="emdash" unicode="&#x2014;" horiz-adv-x="1720" 
d="M41 573h1638v25h-1638v-25z" />
    <glyph glyph-name="quoteleft" unicode="&#x2018;" horiz-adv-x="276" 
d="M100 1337q55 16 95.5 -3t40.5 -72q0 -38 -26 -62t-65 -24q-49 0 -76.5 30t-27.5 82q0 60 42 123.5t99 83.5l2 -2q-48 -25 -69 -72.5t-17 -83.5h2z" />
    <glyph glyph-name="quoteright" unicode="&#x2019;" horiz-adv-x="276" 
d="M131 1495q49 0 77 -30.5t28 -82.5q0 -60 -42.5 -123t-99.5 -83l-2 2q48 25 69 72t17 83h-2q-54 -16 -94.5 3.5t-40.5 72.5q0 38 25.5 62t64.5 24z" />
    <glyph glyph-name="quotesinglbase" unicode="&#x201a;" horiz-adv-x="276" 
d="M139 160q43 0 70 -31t27 -82q0 -60 -42.5 -123.5t-99.5 -83.5l-2 2q48 25 69 72.5t17 83.5h-2q-54 -16 -94.5 3.5t-40.5 72.5q0 38 27 62t71 24z" />
    <glyph glyph-name="quotedblleft" unicode="&#x201c;" horiz-adv-x="563" 
d="M100 1337q55 16 95.5 -3t40.5 -72q0 -38 -26 -62t-65 -24q-49 0 -76.5 30t-27.5 82q0 60 42 123.5t99 83.5l2 -2q-48 -25 -69 -72.5t-17 -83.5h2zM387 1337q55 16 95 -3t40 -72q0 -38 -25.5 -62t-64.5 -24q-49 0 -76.5 30t-27.5 82q0 60 42 123.5t99 83.5l2 -2
q-48 -25 -69 -72.5t-17 -83.5h2z" />
    <glyph glyph-name="quotedblright" unicode="&#x201d;" horiz-adv-x="563" 
d="M131 1495q49 0 77 -30.5t28 -82.5q0 -60 -42.5 -123t-99.5 -83l-2 2q48 25 69 72t17 83h-2q-54 -16 -94.5 3.5t-40.5 72.5q0 38 25.5 62t64.5 24zM418 1495q49 0 76.5 -30.5t27.5 -82.5q0 -60 -42 -123t-99 -83l-2 2q48 25 69 72t17 83h-2q-54 -16 -94.5 3.5t-40.5 72.5
q0 38 25.5 62t64.5 24z" />
    <glyph glyph-name="quotedblbase" unicode="&#x201e;" horiz-adv-x="563" 
d="M139 160q43 0 70 -31t27 -82q0 -60 -42.5 -123.5t-99.5 -83.5l-2 2q48 25 69 72.5t17 83.5h-2q-54 -16 -94.5 3.5t-40.5 72.5q0 38 27 62t71 24zM426 160q43 0 69.5 -31t26.5 -82q0 -60 -42 -123.5t-99 -83.5l-2 2q48 25 69 72.5t17 83.5h-2q-54 -16 -94.5 3.5
t-40.5 72.5q0 38 27 62t71 24z" />
    <glyph glyph-name="ellipsis" unicode="&#x2026;" horiz-adv-x="1042" 
d="M190 152q40 0 66.5 -23.5t26.5 -58.5t-26.5 -57.5t-66.5 -22.5q-41 0 -67.5 22.5t-26.5 57.5t26.5 58.5t67.5 23.5zM543 152q40 0 66 -23.5t26 -58.5t-26 -57.5t-66 -22.5q-41 0 -67.5 22.5t-26.5 57.5t26.5 58.5t67.5 23.5zM895 152q40 0 66 -23.5t26 -58.5t-26 -57.5
t-66 -22.5q-41 0 -67.5 22.5t-26.5 57.5t26.5 58.5t67.5 23.5z" />
    <glyph glyph-name="uni202F" unicode="&#x202f;" horiz-adv-x="346" 
 />
    <glyph glyph-name="guilsinglleft" unicode="&#x2039;" horiz-adv-x="489" 
d="M424 221l-342 332v8l342 332l4 -4l-240 -332l240 -332z" />
    <glyph glyph-name="guilsinglright" unicode="&#x203a;" horiz-adv-x="489" 
d="M66 223l-5 4l240 332l-240 332l5 4l342 -332v-8z" />
    <glyph glyph-name="uni205F" unicode="&#x205f;" horiz-adv-x="433" 
 />
    <glyph glyph-name="Euro" unicode="&#x20ac;" horiz-adv-x="1452" 
d="M334 618q30 -256 172.5 -418.5t345.5 -195.5v-10q-238 25 -410.5 196.5t-208.5 427.5h-167v25h165q-6 49 -6 98q0 59 6 111h-170v25h175q38 256 208 422.5t408 191.5v-10q-202 -32 -343.5 -190t-172.5 -414h708v-25h-710q-6 -52 -6 -111q0 -32 4 -98h717v-25h-715z
M1341 1059q-17 104 -41 175t-63.5 125t-98.5 83t-143 39v10q208 -8 338 -92l15 -338zM1384 436l7 -2l-43 -354q-128 -76 -353 -86v10q178 19 265 117.5t124 314.5z" />
    <glyph glyph-name="trademark" unicode="&#x2122;" horiz-adv-x="1449" 
d="M606 1475l8 -164l-8 -4q-15 81 -49.5 110t-110.5 29h-57v-467q0 -65 9.5 -86t35.5 -29v-8h-151v8q17 6 25.5 14t15 32.5t6.5 68.5v467h-58q-78 0 -112 -28.5t-49 -110.5l-9 4l9 164h495zM1305 979q0 -64 9.5 -85.5t33.5 -29.5v-8h-146v8q24 9 34.5 30.5t10.5 84.5v455
l-256 -578h-12l-240 506v-346q0 -89 16.5 -118t59.5 -34v-8h-176v8q37 5 53.5 34.5t16.5 117.5v377q0 36 -16 51t-50 22v9h107l247 -539l240 539h106v-9q-22 -5 -30 -28t-8 -92v-367z" />
    <glyph glyph-name="uni25FC" unicode="&#x25fc;" horiz-adv-x="1075" 
d="M0 1075h1075v-1075h-1075v1075z" />
    </font>
</defs>
</svg>
