<?xml version="1.0" standalone="no"?>
<!DOCTYPE svg PUBLIC "-//W3C//DTD SVG 1.1//EN" "http://www.w3.org/Graphics/SVG/1.1/DTD/svg11.dtd" >
<svg xmlns="http://www.w3.org/2000/svg" xmlns:xlink="http://www.w3.org/1999/xlink" version="1.1">
<metadata>
Created by FontForge 20170731 at Tue Feb 14 07:00:00 2023
 By Aleksey,,,
Copyright (c) 2005-2009, Joshua Darden &#38; Phil's Fonts, Inc. All rights reserved. Published by Garagefonts USA 301-879-9222 www.garagefonts.com
</metadata>
<defs>
<font id="FreightBigProBook-Regular" horiz-adv-x="1536" >
  <font-face 
    font-family="FreightBigProBook-Regular"
    font-weight="400"
    font-stretch="normal"
    units-per-em="2048"
    panose-1="2 0 6 3 9 0 0 2 0 4"
    ascent="1485"
    descent="-563"
    x-height="864"
    cap-height="1280"
    bbox="-420 -571 2527 1982"
    underline-thickness="40"
    underline-position="-312"
    unicode-range="U+0020-FB04"
  />
<missing-glyph horiz-adv-x="1024" 
 />
    <glyph glyph-name="ff" unicode="ff" horiz-adv-x="1085" 
d="M41 0l6 12l37 2q29 2 41 3q8 1 24 5q13 3 17 9q4 5 4 14v748l-150 2l29 69h119l4 31q27 222 142 332q114 110 274 110q79 0 120 -29q42 -30 42 -77q0 -32 -25 -59q-24 -25 -61 -25q-48 0 -83 44q-34 43 -26 97l-61 21q-100 -27 -140 -117q-41 -91 -41 -252v-76h377l2 49
q18 214 130 329q111 114 249 114q58 0 92 -26q33 -26 33 -64q0 -34 -26 -58t-60 -24q-42 0 -76 34q-36 36 -43 80l-2 13l-28 4q-73 -34 -100 -118q-27 -85 -27 -239v-94h225l-29 -71h-196v-752q0 -9 5 -14q4 -4 26 -9q19 -4 65 -4l67 -2l7 -12h-441l6 12l37 2q29 2 41 3
q10 1 25 5q12 3 15 8q3 4 3 15v750h-377v-754q0 -10 4 -14q5 -5 25 -9q19 -4 66 -4l65 -2l6 -12h-438z" />
    <glyph glyph-name="fi" unicode="fi" horiz-adv-x="989" 
d="M41 0l6 12l37 2q29 2 41 3q18 2 25 4q10 3 16 10q4 5 4 14v746l-150 2l29 71h119l4 51q18 217 141 330q124 113 283 113q78 0 123 -33t45 -88q0 -32 -25 -57t-61 -25q-56 0 -90 46q-35 48 -25 108l-63 18q-187 -50 -187 -369v-94h377l144 23v-846q0 -13 18 -17
q23 -6 86 -10l29 -2l4 -12h-408l6 12l37 2q29 2 41 3q10 1 25 5q12 3 15 8q3 4 3 15v748h-377v-752q0 -10 4 -14q5 -5 25 -9q19 -4 66 -4l65 -2l6 -12h-438z" />
    <glyph glyph-name="fl" unicode="fl" horiz-adv-x="983" 
d="M713 1327l121 51v-1337q0 -13 18 -17q23 -6 86 -10l29 -2l4 -12h-408l6 12l35 2q29 2 41 3q18 2 25 4q10 3 16 10q4 5 4 14v748h-377v-752q0 -10 4 -14q5 -5 25 -9q19 -4 66 -4l65 -2l6 -12h-438l6 12l37 2q29 2 41 3q10 1 25 5q11 3 16 9q4 5 4 14v746l-150 2l29 71h119
l4 51q18 217 140 330t282 113q77 0 119 -31zM690 864v299q-8 -2 -16 -2q-55 0 -91 44q-36 43 -28 102l-57 20q-101 -27 -143 -118t-42 -251v-94h377z" />
    <glyph glyph-name="ffi" unicode="ffi" horiz-adv-x="1505" 
d="M41 0l6 12l37 2q29 2 41 3q16 2 24 4q12 3 17 10q4 5 4 14v748l-150 2l29 69h119l4 31q27 222 142 332q114 110 274 110q79 0 120 -29q42 -30 42 -77q0 -32 -25 -59q-24 -25 -61 -25q-48 0 -83 44q-34 43 -26 97l-61 21q-100 -27 -140 -117q-41 -91 -41 -252v-76h377
l2 51q18 217 142 330t284 113q77 0 123 -32q45 -32 45 -87q0 -35 -25 -59q-27 -25 -61 -25q-58 0 -92 46q-35 48 -25 108l-61 18q-188 -49 -188 -369v-94h376l144 23v-846q0 -13 18 -17q23 -6 86 -10l29 -2l6 -12h-408l7 12l36 2q42 4 67 10q17 4 17 23v748h-378v-754
q0 -10 4 -14q5 -5 25 -9q19 -4 65 -4l67 -2l4 -12h-436l6 12l37 2q29 2 41 3q10 1 25 5q12 3 15 8q3 4 3 15v750h-377v-754q0 -10 4 -14q5 -5 25 -9q19 -4 66 -4l65 -2l6 -12h-438z" />
    <glyph glyph-name="ffl" unicode="ffl" horiz-adv-x="1505" 
d="M1239 1329l115 49v-1337q0 -13 18 -17q23 -6 86 -10l29 -2l6 -12h-408l7 12l34 2q29 2 41 3q18 2 25 4q10 3 16 10q4 5 4 14v750h-378v-754q0 -10 4 -14q5 -5 25 -9q19 -4 65 -4l67 -2l4 -12h-436l6 12l37 2q29 2 41 3q18 2 25 4q11 3 15 9q3 4 3 15v750h-377v-754
q0 -10 4 -14q5 -5 25 -9q19 -4 66 -4l65 -2l6 -12h-438l6 12l37 2q29 2 41 3q10 1 25 5q11 3 16 9q4 5 4 14v748l-150 2l29 69h119l4 31q27 222 142 332q114 110 274 110q79 0 120 -29q42 -30 42 -77q0 -32 -25 -59q-24 -25 -61 -25q-49 0 -83 43q-34 42 -26 98l-61 21
q-100 -27 -140 -117q-41 -91 -41 -252v-76h377l2 51q18 216 141 330q122 113 283 113q77 0 123 -29zM1212 864v297h-8q-56 0 -90 43q-35 44 -29 103l-65 20q-100 -27 -143 -118q-43 -90 -43 -251v-94h378z" />
    <glyph glyph-name=".notdef" horiz-adv-x="1024" 
 />
    <glyph glyph-name=".null" horiz-adv-x="0" 
 />
    <glyph glyph-name="nonmarkingreturn" horiz-adv-x="681" 
 />
    <glyph glyph-name="space" unicode=" " horiz-adv-x="368" 
 />
    <glyph glyph-name="exclam" unicode="!" horiz-adv-x="481" 
d="M238 362l-82 832q-15 117 86 117h4q42 0 64 -19t22 -44q0 -16 -2 -54l-76 -832q0 -6 -8 -6t-8 6zM244 -31q-47 0 -79 32t-32 75q0 40 32 70q31 30 79 30q44 0 74 -30t30 -70q0 -44 -30 -75q-30 -32 -74 -32z" />
    <glyph glyph-name="quotedbl" unicode="&#x22;" horiz-adv-x="610" 
d="M289 825l239 498h2l93 -43l-328 -455h-6zM-4 825l240 498h4l92 -43l-330 -455h-6z" />
    <glyph glyph-name="numbersign" unicode="#" horiz-adv-x="1011" 
d="M147 -10l107 405h-285v17h289l119 452h-285v17h289l108 413h23l-109 -413h334l109 413h22l-108 -413h282v-17h-286l-119 -452h283v-17h-287l-107 -405h-22l106 405h-334l-106 -405h-23zM281 412h333l119 452h-334z" />
    <glyph glyph-name="dollar" unicode="$" horiz-adv-x="911" 
d="M279 -16q-137 22 -222 53l-20 297h14l82 -172q60 -95 156 -139l151 577l-18 6q-154 51 -241 131q-87 79 -87 217q0 142 107 247q108 106 278 106q73 0 144 -17l59 226h20l-59 -230q32 -9 88 -29l82 27l18 -311h-12l-135 241q-36 27 -51 35l-129 -489q177 -61 283 -153
q102 -89 102 -245q0 -154 -128 -273q-127 -118 -321 -118q-55 0 -141 11l-84 -318h-20zM307 14q64 -20 135 -20q134 0 222 81t88 210q0 114 -74 185q-75 72 -219 124l-37 -145q-26 -97 -78 -289zM614 1257q-68 31 -137 31q-114 0 -186 -71q-74 -72 -74 -177q0 -102 67 -163
q66 -60 199 -111z" />
    <glyph glyph-name="percent" unicode="%" horiz-adv-x="1083" 
d="M270 791q-116 0 -184 74q-70 76 -70 184q0 107 70 185q69 77 184 77q118 0 187 -77q69 -76 69 -185t-69 -184q-68 -74 -187 -74zM88 -29l877 1340h24l-876 -1340h-25zM811 -27q-115 0 -184 75q-70 76 -70 181q0 110 70 188q69 77 184 77q117 0 186 -77q70 -78 70 -188
q0 -105 -70 -181q-69 -75 -186 -75zM270 811q105 0 168 68q64 69 64 170q0 100 -65 171q-64 70 -167 70t-166 -69t-63 -172q0 -104 62 -170q63 -68 167 -68zM811 -6q105 0 168 67q63 68 63 170q0 101 -64 171q-65 71 -167 71t-166 -70q-63 -69 -63 -172q0 -104 62 -170
q63 -67 167 -67z" />
    <glyph glyph-name="ampersand" unicode="&#x26;" horiz-adv-x="1433" 
d="M389 -29q-167 0 -271 107t-104 258q0 150 102 268t281 178q-188 101 -188 248q0 101 98 192t217 91q143 0 227 -70q83 -69 83 -153q0 -76 -63 -141q-64 -65 -189 -105q104 -55 214 -171q109 -115 173 -231q202 256 202 326q0 66 -178 82l-22 2l-6 12h495l-6 -12l-24 -2
q-85 -8 -131 -42q-47 -35 -128 -138l-192 -246q108 -214 166 -286q57 -70 133 -70q97 0 176 104l14 -8q-51 -63 -74 -86q-36 -36 -89 -69q-61 -38 -117 -38q-96 0 -167 71q-72 72 -157 257q-77 -93 -111 -129q-42 -45 -107 -100q-59 -50 -124 -75q-63 -24 -133 -24zM561 850
q141 72 141 233q0 78 -50 145q-50 66 -130 66q-77 0 -127 -59q-51 -60 -51 -141q0 -85 50 -138q51 -54 167 -106zM479 92q103 0 186 53t191 170q-74 156 -189 279t-251 180q-248 -129 -248 -362q0 -140 87 -230t224 -90z" />
    <glyph glyph-name="quotesingle" unicode="'" horiz-adv-x="303" 
d="M-4 825l240 498h4l92 -43l-330 -455h-6z" />
    <glyph glyph-name="parenleft" unicode="(" horiz-adv-x="647" 
d="M639 -571q-86 48 -176 132q-90 83 -171 199q-83 118 -134 279q-52 165 -52 338q0 172 52 339q49 159 134 280q81 116 171 200t176 129l10 -16q-84 -46 -173 -130q-86 -82 -167 -199q-82 -119 -130 -274q-50 -161 -50 -329q0 -170 50 -331q49 -158 131 -273
q83 -117 166 -197q84 -81 173 -131z" />
    <glyph glyph-name="parenright" unicode=")" horiz-adv-x="647" 
d="M8 -571l-10 16q89 50 173 131q83 80 166 197q82 115 131 273q50 161 50 331q0 168 -50 329q-48 155 -130 274q-81 117 -167 199q-89 84 -173 130l10 16q86 -45 176 -129t171 -200q85 -121 134 -280q52 -167 52 -339q0 -173 -52 -338q-51 -161 -134 -279
q-81 -116 -171 -199q-90 -84 -176 -132z" />
    <glyph glyph-name="asterisk" unicode="*" horiz-adv-x="620" 
d="M399 674l-94 84l-6 215q0 4 -3 7q-4 4 -5 -1l-125 -172l-125 -14q-5 0 -4 6l49 116l199 68q6 6 0 12l-199 76l-53 113q-1 6 4 6l129 -10l123 -181q4 -5 10 5l12 223l92 78q7 7 7 0l30 -121l-133 -183q-5 -11 6 -12l213 66l105 -66v-4l-105 -63l-213 65q-6 2 -8 -6
q0 -4 2 -6l127 -182l-26 -117q-4 -4 -9 -2z" />
    <glyph glyph-name="plus" unicode="+" horiz-adv-x="886" 
d="M432 49v424h-418l4 25h414v415h25v-415h411l4 -25h-415v-424h-25z" />
    <glyph glyph-name="comma" unicode="," horiz-adv-x="331" 
d="M68 -221l-9 8q65 34 110 88q46 55 46 125t-48 97t-99 -7q-22 45 5 90t93 45q63 0 105 -43q42 -44 42 -114q0 -84 -72 -169t-173 -120z" />
    <glyph glyph-name="hyphen" unicode="-" horiz-adv-x="573" 
d="M37 459l6 61h494l-7 -61h-493z" />
    <glyph glyph-name="period" unicode="." horiz-adv-x="376" 
d="M190 -25q-46 0 -78 32t-32 75q0 41 32 73q31 31 78 31q46 0 76 -31q31 -33 31 -73q0 -42 -31 -75q-30 -32 -76 -32z" />
    <glyph glyph-name="slash" unicode="/" horiz-adv-x="509" 
d="M33 -506l430 1796h20l-430 -1796h-20z" />
    <glyph glyph-name="zero" unicode="0" horiz-adv-x="1083" 
d="M541 -23q-205 0 -342 142q-138 143 -138 360q0 218 140 366q139 146 344 146q201 0 339 -145q138 -146 138 -363q0 -220 -137 -363t-344 -143zM547 -8q135 0 222 138t87 337q0 218 -86 361t-231 143q-134 0 -223 -137t-89 -324q0 -237 84 -378q83 -140 236 -140z" />
    <glyph glyph-name="one" unicode="1" horiz-adv-x="659" 
d="M113 0l6 14l69 2q88 1 88 33v844l-213 29l7 10l344 49v-936q0 -25 110 -29l62 -2l6 -14h-479z" />
    <glyph glyph-name="two" unicode="2" horiz-adv-x="870" 
d="M37 0l-6 16q326 265 433 393q101 120 101 250q0 101 -58 163q-59 63 -151 63q-90 0 -154 -45t-122 -148l-14 8q153 289 370 289q114 0 189 -71t75 -177q0 -128 -105 -247t-398 -365v-2l493 -2q53 0 144 235l8 21l14 -2l-84 -379h-735z" />
    <glyph glyph-name="three" unicode="3" horiz-adv-x="804" 
d="M240 -412q-110 0 -170 42t-60 100q0 40 27 67t65 27q60 0 94 -54q34 -53 19 -130q60 -19 94 -19q124 0 218 91q96 93 96 247q0 141 -83 230q-84 90 -227 90q-67 0 -172 -39l-8 12q5 3 19 12.5t29 19.5l30 20q18 12 42 27.5t31 20.5t27.5 19t32.5 22q37 26 55 42
q38 35 43 39q26 23 37 42q4 7 12.5 22t11.5 21q12 21 17 49q4 21 4 54q0 100 -60 160q-61 61 -157 61q-175 0 -270 -187l-14 9q136 284 364 284q115 0 193 -75q77 -74 77 -181q0 -59 -22 -107q-23 -51 -71 -96q-49 -46 -88 -72q-92 -61 -107 -71v-2q177 6 279 -93t102 -255
q0 -177 -148 -313t-362 -136z" />
    <glyph glyph-name="four" unicode="4" horiz-adv-x="946" 
d="M545 -377v397h-527v7l629 942h29v-836l246 -2l-41 -111h-205v-397h-131zM117 133h428v641h-2z" />
    <glyph glyph-name="five" unicode="5" horiz-adv-x="772" 
d="M172 -412q-223 0 -223 131q0 38 25 63t67 25q51 0 85 -51q34 -50 40 -118q57 -15 90 -15q119 0 214 103t95 247q0 162 -132 273q-131 110 -353 145l147 567h498l-37 -141h-475l-76 -295q260 -44 404 -167q145 -124 145 -300q0 -184 -151 -325q-153 -142 -363 -142z" />
    <glyph glyph-name="six" unicode="6" horiz-adv-x="978" 
d="M506 -23q-202 0 -327 142q-124 140 -124 362q0 330 249 575q248 243 622 281l2 -14q-292 -46 -471 -245q-180 -200 -232 -453l2 -4q156 170 346 170q153 0 254 -107t101 -270q0 -194 -127 -315q-128 -122 -295 -122zM512 -2q122 0 195 96q73 95 73 266q0 148 -83 254
q-83 105 -208 105q-158 0 -266 -129q-14 -36 -14 -119q0 -205 81 -339t222 -134z" />
    <glyph glyph-name="seven" unicode="7" horiz-adv-x="837" 
d="M170 -377l582 1192l-2 10h-420q-135 0 -185 -31q-49 -30 -77 -135l-7 -18l-16 2l37 315h733l2 -8l-528 -1327h-119z" />
    <glyph glyph-name="eight" unicode="8" horiz-adv-x="940" 
d="M471 -29q-175 0 -295 97q-119 96 -119 241q0 112 88 200q89 89 234 126v4q-138 74 -206 144q-69 71 -69 175q0 133 108 244t261 111q158 0 263 -93q106 -94 106 -235q0 -83 -75 -160q-73 -74 -196 -120v-3q154 -80 233 -159t79 -207q0 -148 -121 -256
q-123 -109 -291 -109zM553 711q156 101 156 274q0 123 -72 215t-182 92q-101 0 -165 -72q-65 -73 -65 -171q0 -117 85 -193q84 -76 243 -145zM489 -6q124 0 200 73q75 72 75 185q0 127 -98 212q-97 84 -269 163q-93 -43 -149 -126q-55 -82 -55 -192q0 -133 81 -223
q83 -92 215 -92z" />
    <glyph glyph-name="nine" unicode="9" horiz-adv-x="978" 
d="M51 -360l-2 14q292 49 471 245q180 197 232 451l-2 2q-157 -172 -344 -172q-155 0 -255 109t-100 276q0 192 127 313t295 121q200 0 324 -143q125 -145 125 -364q0 -330 -248 -572q-247 -241 -623 -280zM487 256q162 0 267 127q16 48 16 121q0 206 -82 340
q-82 135 -223 135q-122 0 -195 -97t-73 -264q0 -151 83 -257q82 -105 207 -105z" />
    <glyph glyph-name="colon" unicode=":" horiz-adv-x="372" 
d="M190 598q-46 0 -78 33q-32 34 -32 76q0 41 32 71q33 31 78 31t76 -31t31 -71q0 -42 -31 -76q-30 -33 -76 -33zM190 -25q-45 0 -78 31q-32 30 -32 74q0 42 32 72t78 30t76 -30q31 -31 31 -72q0 -43 -31 -74t-76 -31z" />
    <glyph glyph-name="semicolon" unicode=";" horiz-adv-x="331" 
d="M188 598q-46 0 -78 32t-32 75q0 40 32 72t78 32t76 -32q31 -33 31 -72q0 -42 -31 -75q-30 -32 -76 -32zM68 -219l-9 8q156 83 156 211q0 70 -48 97t-99 -7q-22 43 5 88t93 45q63 0 105 -43q42 -44 42 -114q0 -82 -72 -165q-72 -82 -173 -120z" />
    <glyph glyph-name="less" unicode="&#x3c;" horiz-adv-x="860" 
d="M825 68l-815 403v23l815 401l11 -23l-793 -387v-4l793 -391z" />
    <glyph glyph-name="equal" unicode="=" horiz-adv-x="876" 
d="M37 647l-6 25h815l-6 -25h-803zM31 293l6 24h803l6 -24h-815z" />
    <glyph glyph-name="greater" unicode="&#x3e;" horiz-adv-x="860" 
d="M35 68l-10 22l792 391v4l-792 387l10 23l815 -401v-23z" />
    <glyph glyph-name="question" unicode="?" horiz-adv-x="612" 
d="M285 365q-64 53 -113 120q-53 73 -53 117q0 80 41 119q40 38 168 94q113 49 164 84q43 30 43 76q0 75 -76 138q-77 63 -238 63q-80 0 -149 -21q-21 27 -21 86q0 70 137 70q160 0 266 -115q105 -114 105 -264q0 -103 -37 -146t-157 -98q-1 0 -28 -13q-13 -6 -28 -12
l-10 -5l-14 -7q-18 -8 -23 -12l-18 -12q-11 -7 -18 -14q-8 -8 -13 -14q-8 -10 -11 -17q-4 -9 -5 -19q-2 -14 -2 -20q0 -72 106 -178h-16zM293 -29q-45 0 -77 32t-32 75q0 42 32 72t77 30q47 0 77 -30q29 -29 29 -72q0 -45 -29 -75q-30 -32 -77 -32z" />
    <glyph glyph-name="at" unicode="@" horiz-adv-x="1568" 
d="M795 -211q-326 0 -536 196q-208 195 -208 504q0 340 234 583t561 243q291 0 481 -178q191 -179 191 -453q0 -222 -147 -392q-147 -169 -322 -169q-103 0 -156 47t-53 125q0 91 49 190h-4q-128 -184 -207 -268q-78 -82 -152 -82q-67 0 -115 50q-49 51 -49 122
q0 127 97 276q94 145 221 259q116 106 211 106q48 0 75 -49q26 -49 25 -131h2l78 233l131 -8l-143 -366l-68 -176q-52 -151 -25 -209t138 -58q144 0 269 148q124 146 124 352q0 264 -184 438q-185 174 -467 174q-319 0 -547 -237q-227 -236 -227 -570q0 -298 201 -490
t522 -192q217 0 398 111q180 110 263 279l19 -9q-83 -169 -271 -285q-186 -114 -409 -114zM596 227q56 0 142 98q84 95 173 259q54 110 54 139q0 49 -50 99t-106 50q-48 0 -100 -47q-79 -73 -143 -211t-64 -252q0 -61 26 -97q27 -38 68 -38z" />
    <glyph glyph-name="A" unicode="A" horiz-adv-x="1280" 
d="M758 561h-381l-98 -276q-62 -170 -46 -212q17 -45 154 -57l43 -4l6 -12h-444l6 12l33 4q66 7 102 37q35 29 70 103t108 276l254 707l-20 57q66 23 104 107h19l372 -1088q44 -126 72 -160t98 -39l58 -4l6 -12h-537l6 12l66 4q128 6 84 140zM385 582h365l-43 131
q-39 117 -89 262l-43 131h-2z" />
    <glyph glyph-name="B" unicode="B" horiz-adv-x="1150" 
d="M49 0l6 12l74 8q98 7 98 33v1180q0 22 -118 29l-52 6l-6 12h486q235 0 351 -75t116 -197q0 -237 -388 -293v-6q221 -11 340 -110t119 -245q0 -160 -140 -257t-392 -97h-494zM535 18l47 7q156 7 236 99q79 91 79 220q0 153 -104 251q-105 99 -273 99q-80 0 -129 -6v-633z
M391 715l101 2q158 1 244 77q85 75 85 193q0 268 -323 268h-107v-540z" />
    <glyph glyph-name="C" unicode="C" horiz-adv-x="1374" 
d="M766 -31q-313 0 -512 184t-199 482q0 296 201 487q202 191 522 191q184 0 350 -90l111 53l16 -377h-12l-170 311q-100 80 -297 80q-250 0 -395 -181t-145 -458q0 -293 150 -476t386 -183q169 0 272 73t193 230l51 86h12l-73 -311l-70 -15q-62 -31 -177 -59
q-111 -27 -214 -27z" />
    <glyph glyph-name="D" unicode="D" horiz-adv-x="1333" 
d="M49 0l6 12l74 8q98 7 98 33v1180q0 22 -118 29l-52 6l-6 12l504 6q350 2 538 -166q189 -168 189 -452q0 -296 -210 -482t-576 -186h-447zM545 23q181 1 312 89q129 86 190 218q59 128 59 291q0 280 -147 460q-148 181 -435 181h-133v-1203z" />
    <glyph glyph-name="E" unicode="E" horiz-adv-x="1181" 
d="M45 0l6 12l74 8q102 8 102 33v1180q0 22 -118 29l-56 6l-6 12h946l39 -365h-10l-12 29q-63 176 -134 247t-221 71h-264v-582h166q137 6 188 37q50 30 80 129l11 28l12 -2l-41 -413l-12 2l-2 26q-8 107 -52 135q-44 27 -198 33l-152 4v-630l297 -9q84 1 154 27
q63 23 111 77q47 53 75 103q33 60 64 133l12 29l12 -2l-84 -387h-987z" />
    <glyph glyph-name="F" unicode="F" horiz-adv-x="1112" 
d="M45 0l6 12l82 8q94 7 94 33v1180q0 7 -6 12q-4 3 -31 8q-24 4 -77 9l-60 6l-6 12h957l40 -373l-12 -2l-10 27q-61 179 -134 255q-72 75 -247 75h-250v-594h146q140 6 188 35q50 30 80 131l10 26l12 -2l-41 -412l-12 3l-2 26q-7 108 -50 135q-42 27 -200 33l-131 4v-598
q0 -23 119 -29l100 -6l6 -14h-571z" />
    <glyph glyph-name="G" unicode="G" horiz-adv-x="1404" 
d="M758 -29q-309 0 -506 182t-197 476q0 297 201 490q202 194 522 194q189 0 346 -86l105 49l8 -373h-12l-156 307q-100 80 -297 80q-246 0 -391 -184t-145 -461q0 -290 155 -470q156 -181 387 -181q186 0 277 72v444q0 21 -125 29l-80 6l-6 12h547l-7 -12l-73 -8
q-99 -7 -99 -33v-412l115 12l2 -8q-336 -125 -571 -125z" />
    <glyph glyph-name="H" unicode="H" horiz-adv-x="1472" 
d="M49 0l6 12l74 8q98 7 98 33v1180q0 22 -118 29l-52 6l-6 12h527l-7 -12l-82 -8q-98 -7 -98 -33v-565h690v571q0 22 -118 29l-60 6l-6 12h526l-6 -12l-74 -8q-98 -7 -98 -33v-1180q0 -21 119 -29l51 -6l6 -12h-526l6 12l82 8q98 7 98 33v588h-690v-594q0 -21 119 -29
l59 -6l6 -12h-526z" />
    <glyph glyph-name="I" unicode="I" horiz-adv-x="659" 
d="M61 0l7 12l82 8q98 7 98 33v1180q0 21 -119 29l-59 6l-7 12h535l-6 -12l-82 -8q-98 -7 -98 -33v-1180q0 -22 118 -29l60 -6l6 -12h-535z" />
    <glyph glyph-name="J" unicode="J" horiz-adv-x="618" 
d="M20 -340q-65 0 -110 31q-43 30 -43 82q0 43 30 73q31 31 76 31q77 0 98 -70q21 -69 -36 -118q87 -10 140 85q52 94 52 279v1180q0 23 -118 29l-60 6l-6 12h535l-7 -12l-82 -8q-98 -7 -98 -33v-1207q0 -76 -124 -218t-247 -142z" />
    <glyph glyph-name="K" unicode="K" horiz-adv-x="1347" 
d="M49 0l6 12l78 8q94 7 94 33v1180q0 7 -6 12q-4 3 -31 8q-24 4 -77 9l-56 6l-6 12h537l-6 -12l-93 -8q-98 -7 -98 -33v-684l336 340q243 246 264 309q16 49 -53 61q-23 4 -68 9l-79 6l-5 12h500l-6 -12l-25 -2q-101 -7 -152 -43q-50 -35 -233 -224q-10 -10 -23.5 -24
t-17.5 -18t-17.5 -18t-23.5 -24q-19 -19 -49 -51l-30 -30l399 -660q67 -108 92 -129q28 -23 92 -29l47 -4l7 -12h-523l6 12l60 4q46 1 63 23q16 20 7 55q-10 39 -41 92l-318 537l-209 -209v-467q0 -21 119 -29l70 -6l6 -12h-537z" />
    <glyph glyph-name="L" unicode="L" horiz-adv-x="1110" 
d="M49 0l6 12l78 8q94 7 94 33v1180q0 7 -6 12q-4 3 -31 8q-24 4 -77 9l-56 6l-6 12h567l-6 -12l-123 -8q-98 -7 -98 -33v-1198l242 -11q87 0 150 24t109 79q48 57 72 104t66 146l12 26h13l-80 -397h-926z" />
    <glyph glyph-name="M" unicode="M" horiz-adv-x="1669" 
d="M41 0l6 12l47 2q152 11 152 72l28 1147q-36 24 -131 31l-55 4l-6 12h358l406 -1059h2l424 1059h352l-6 -12l-102 -8q-91 -8 -91 -33l21 -1180q0 -11 19 -15q35 -8 96 -14l59 -6l6 -12h-530l6 12l98 8q84 8 84 33l-22 1139h-2l-478 -1192h-14l-440 1139q-10 32 -37 69
l-21 -1126q0 -60 199 -68l37 -2l6 -12h-471z" />
    <glyph glyph-name="N" unicode="N" horiz-adv-x="1400" 
d="M1176 -10l-912 1157h-2l2 -1063q0 -53 170 -68l39 -4l6 -12h-430l6 12l41 4q146 15 146 72l4 1077q-78 84 -191 101l-26 4l-6 12h344l804 -1026h3l-3 942q0 49 -170 66l-38 4l-7 12h430l-6 -12l-41 -4q-145 -15 -145 -70l-4 -1204h-14z" />
    <glyph glyph-name="O" unicode="O" horiz-adv-x="1464" 
d="M729 -29q-291 0 -483 187q-191 186 -191 479q0 264 204 469t474 205q293 0 485 -189q191 -188 191 -483q0 -266 -204 -467t-476 -201zM737 -6q228 0 360 174t132 473q0 283 -142 467q-140 182 -360 182q-224 0 -358 -177q-133 -176 -133 -478q0 -286 140 -463
q141 -178 361 -178z" />
    <glyph glyph-name="P" unicode="P" horiz-adv-x="1103" 
d="M20 0l7 12l102 8q98 7 98 33v1180q0 22 -118 29l-80 6l-6 12h569q230 0 346 -79q117 -80 117 -226q0 -157 -135 -256q-134 -98 -351 -98q-84 0 -178 14v-588q0 -23 119 -29l100 -6l6 -12h-596zM569 643q147 0 230 80q82 79 82 227q0 158 -80 236q-79 78 -264 76l-146 -2
v-594q80 -23 178 -23z" />
    <glyph glyph-name="Q" unicode="Q" horiz-adv-x="1464" 
d="M1276 -367q-82 0 -160 13q-69 12 -150 45q-79 33 -142 103q-62 70 -103 177q-287 4 -477 191q-189 186 -189 475q0 264 204 469t474 205q291 0 484 -190q192 -189 192 -482q0 -217 -141 -396q-142 -180 -355 -243q91 -222 229 -286q136 -63 367 -36l4 -12
q-90 -33 -237 -33zM737 -6q228 0 360 174t132 473q0 282 -142 466q-141 183 -360 183q-225 0 -358 -178t-133 -477q0 -286 140 -463q141 -178 361 -178z" />
    <glyph glyph-name="R" unicode="R" horiz-adv-x="1280" 
d="M20 0l7 12l102 8q33 4 66 15q32 10 32 18v1180q0 22 -118 29l-80 6l-6 12h526q242 0 369 -85q126 -84 126 -243q0 -113 -90 -202t-229 -117l299 -457q63 -95 106 -126q44 -32 117 -36l27 -2l8 -12h-336l-14 27l-377 606q-66 7 -164 41v-627q0 -18 119 -29l80 -6l6 -12
h-576zM575 659q138 0 217 79q78 78 78 218q0 147 -98 229q-99 82 -278 75l-103 -5v-563q105 -33 184 -33z" />
    <glyph glyph-name="S" unicode="S" horiz-adv-x="991" 
d="M479 -29q-181 0 -383 72l-20 291h12l43 -101q102 -241 350 -241q139 0 224 84q86 84 86 215q0 120 -79 195q-80 75 -241 126q-157 51 -248 131q-90 79 -90 218q0 143 107 245q108 103 278 103q122 0 252 -47l82 24l18 -313h-12l-135 246q-90 71 -207 71q-114 0 -186 -68
q-74 -69 -74 -173q0 -108 75 -170q76 -62 222 -113q174 -60 276 -151q99 -88 99 -242q0 -159 -129 -281q-128 -121 -320 -121z" />
    <glyph glyph-name="T" unicode="T" horiz-adv-x="1294" 
d="M358 0l7 12l102 8q98 7 98 33v1209h-131q-192 -15 -342 -295l-14 -27h-15l84 340h1018l62 -340h-13l-12 27q-68 152 -146 220q-80 69 -198 75h-129v-1215q0 -21 119 -29l80 -6l6 -12h-576z" />
    <glyph glyph-name="U" unicode="U" horiz-adv-x="1363" 
d="M717 -29q-265 0 -383 109q-117 108 -117 360v793q0 23 -119 31l-80 6l-6 12h576l-6 -12l-103 -8q-98 -7 -98 -35v-760q0 -222 96 -325t303 -103q383 0 383 471l-2 688q0 50 -184 68l-39 4l-6 12h440l-6 -12l-41 -4q-141 -12 -141 -72l-2 -690q-5 -533 -465 -533z" />
    <glyph glyph-name="V" unicode="V" horiz-adv-x="1292" 
d="M647 -29l-420 1096q-50 134 -73 163q-24 30 -99 36l-59 4l-6 12h532l-6 -12l-72 -2q-70 -4 -89 -26q-18 -21 5 -95l361 -948h2l293 798q61 166 46 210t-153 59l-43 4l-6 12h443l-7 -12l-32 -4q-65 -7 -98 -31q-29 -21 -65 -89q-29 -56 -93 -233l-346 -942h-15z" />
    <glyph glyph-name="W" unicode="W" horiz-adv-x="2025" 
d="M637 -29l-408 1096q-50 130 -74 159q-26 32 -102 38l-59 4l-4 12h532l-6 -12l-65 -2q-68 -5 -86 -25q-19 -22 2 -94l350 -961h4l295 744l-51 137q-49 124 -77 158q-27 33 -104 39l-57 4l-6 12h530l-6 -12l-63 -2q-71 -4 -88 -26q-16 -21 6 -93l352 -957h4l285 795
q63 162 45 213t-158 66l-43 4l-6 12h442l-6 -12l-33 -4q-87 -10 -123 -63t-120 -288l-342 -942h-19l-350 934h-2l-369 -934h-20z" />
    <glyph glyph-name="X" unicode="X" horiz-adv-x="1298" 
d="M-16 0l6 12l37 2q94 6 153 54q58 48 172 215l228 336l-297 446q-15 21 -27 40q-4 7 -9.5 15t-9 13t-5.5 9q-9 14 -20 29q-4 6 -10.5 14.5t-8.5 11.5q-5 7 -17 20q-13 14 -17 17q-9 6 -17 12q-9 8 -18 9q-3 1 -10.5 3t-10.5 3q-12 3 -23 3l-57 4l-9 12h539l-4 -10l-80 -2
q-71 -1 -76 -36q-4 -33 62 -142l227 -349h2l182 273q69 107 80 155q12 52 -14 68q-29 18 -105 25l-57 6l-6 12h483l-6 -12l-37 -2q-97 -5 -149 -48q-55 -45 -166 -210l-193 -285l95 -141q112 -172 186 -283l94 -143l23 -34q6 -9 19 -30q5 -8 16 -22q13 -16 18 -20
q1 -1 6.5 -5.5t9.5 -7.5q11 -8 20 -11q16 -5 22 -6q4 0 14 -1.5t16 -2.5l55 -4l6 -12h-534l6 12l78 2q67 1 80 30q12 27 -27 87l-307 467h-2l-53 -80q-55 -80 -111 -162l-53 -80q-98 -156 -90 -202t120 -56l58 -6l6 -12h-483z" />
    <glyph glyph-name="Y" unicode="Y" horiz-adv-x="1249" 
d="M336 0l6 12l102 8q99 8 99 33v522l-303 535q-51 91 -83 119q-35 31 -102 35l-57 4l-6 12h540l-6 -12l-61 -2q-80 -2 -89 -33q-9 -30 38 -113l278 -493h4l193 364q84 157 76 208q-8 50 -127 65l-52 4l-6 12h451l-6 -12l-45 -4q-80 -6 -128 -52q-44 -43 -134 -213
l-211 -395v-557q0 -22 118 -29l80 -6l6 -12h-575z" />
    <glyph glyph-name="Z" unicode="Z" horiz-adv-x="1165" 
d="M68 0v6l813 1249v7h-336q-177 0 -265 -81q-90 -82 -151 -245l-10 -25h-13l44 369h927v-8l-811 -1245v-4l365 -5q105 0 177 24q74 25 123 78q53 58 81 112q31 61 65 155l13 29h16l-66 -416h-972z" />
    <glyph glyph-name="bracketleft" unicode="[" horiz-adv-x="626" 
d="M109 -506v1786h499v-20h-477v-1745h477v-21h-499z" />
    <glyph glyph-name="backslash" unicode="\" horiz-adv-x="475" 
d="M418 -506l-430 1796h20l430 -1796h-20z" />
    <glyph glyph-name="bracketright" unicode="]" horiz-adv-x="626" 
d="M18 -506v21h478v1745h-478v20h500v-1786h-500z" />
    <glyph glyph-name="asciicircum" unicode="^" horiz-adv-x="757" 
d="M102 983l275 383h4l274 -383h-8l-266 229h-4l-266 -229h-9z" />
    <glyph glyph-name="underscore" unicode="_" horiz-adv-x="913" 
d="M39 -57l6 59h823l6 -59h-835z" />
    <glyph glyph-name="grave" unicode="`" horiz-adv-x="757" 
d="M457 1006l-377 383h162l223 -383h-8z" />
    <glyph glyph-name="a" unicode="a" horiz-adv-x="813" 
d="M651 -20q-54 0 -89 38t-40 105v2q-150 -143 -262 -143q-89 0 -146 56q-59 57 -59 134q0 106 105 182q104 76 377 142l2 90q10 262 -199 262q-55 0 -114 -28q-56 -27 -56 -48q0 -1 26 -36q25 -34 25 -66q0 -33 -24 -57q-23 -23 -64 -23q-39 0 -63 21q-25 22 -25 59
q0 75 135 150t256 75q135 0 195 -65q59 -63 51 -234l-20 -442q-6 -93 67 -93q36 0 92 56l10 -6q-1 -3 -14 -19l-18 -21l-19 -22q-8 -11 -21 -21q-3 -3 -11.5 -9.5t-12.5 -9.5q-15 -12 -26 -16q-8 -3 -28 -9q-13 -4 -30 -4zM340 66q100 0 184 84l13 325q-202 -47 -269 -108
t-67 -150q0 -67 39 -109t100 -42z" />
    <glyph glyph-name="b" unicode="b" horiz-adv-x="962" 
d="M94 -39v1219q0 62 -16 84t-68 30l-47 9l2 10l271 67v-673l4 -5q158 181 321 181q153 0 258 -119q105 -118 105 -305q0 -216 -138 -351t-307 -135q-143 0 -274 72h-2l-97 -84h-12zM500 -2q120 0 191 116t71 294q0 162 -80 274q-79 111 -209 111q-125 0 -237 -121v-486
q38 -81 109 -134q72 -54 155 -54z" />
    <glyph glyph-name="c" unicode="c" horiz-adv-x="825" 
d="M444 -27q-171 0 -288 128t-117 313q0 202 128 342q127 139 327 139q124 0 209 -52t85 -136q0 -40 -28 -69q-28 -30 -64 -30q-37 0 -65 26q-27 26 -27 60q0 40 21 70q20 29 20 33q0 22 -47 52t-100 30q-126 0 -214 -114q-89 -115 -89 -286q0 -180 92 -292
q91 -111 229 -111q96 0 158 37q64 38 119 127l16 -7q-147 -260 -365 -260z" />
    <glyph glyph-name="d" unicode="d" horiz-adv-x="987" 
d="M727 -33l-2 185l-4 2q-154 -181 -320 -181q-153 0 -258 121q-104 120 -104 309q0 219 138 349q139 131 317 131q126 0 229 -54q2 -2 2 0v351q0 61 -15 85q-14 23 -67 29l-68 9l3 10l290 67v-1267q0 -34 11 -48q10 -13 41 -18l79 -12l-2 -10zM489 66q129 0 236 120v488
q-35 80 -107 133q-73 53 -153 53q-123 0 -194 -114q-70 -113 -70 -291q0 -164 80 -277q79 -112 208 -112z" />
    <glyph glyph-name="e" unicode="e" horiz-adv-x="845" 
d="M446 -27q-170 0 -289 128q-118 127 -118 313q0 201 121 341t311 140q149 0 237 -80q87 -79 87 -201l-4 -28l-588 2q-8 -66 -8 -111q0 -178 92 -290q91 -111 229 -111q97 0 162 37q66 38 123 127l14 -7q-150 -260 -369 -260zM207 606l428 4q0 112 -45 189q-44 75 -133 75
q-83 0 -154 -78q-72 -80 -96 -190z" />
    <glyph glyph-name="f" unicode="f" horiz-adv-x="565" 
d="M43 0l6 12l35 2q76 4 84 17q2 8 2 12v748l-150 2l29 71h119l4 54q18 211 130 325q111 113 247 113q61 0 94 -27t33 -65q0 -32 -26 -56t-62 -24q-41 0 -74 33q-32 33 -43 79l-4 15l-27 4q-72 -27 -99 -115q-28 -92 -28 -242v-94h224l-29 -73h-195v-750q0 -9 5 -14
q4 -4 27 -9q19 -4 65 -4l67 -2l6 -12h-440z" />
    <glyph glyph-name="g" unicode="g" horiz-adv-x="909" 
d="M348 -508q-155 0 -243 58q-89 59 -89 163q0 80 77 149q76 68 171 103v4q-104 10 -166 48q-61 37 -61 98q0 75 74 134q73 58 161 73v4q-78 27 -133 97t-55 161q0 131 98 219t240 88q123 0 223 -76l240 45l-17 -88l-192 19l-2 -7q86 -78 86 -184q0 -129 -100 -215t-246 -86
q-48 0 -115 14q-59 -10 -97 -42t-38 -74q0 -49 41 -69q39 -19 131 -19q24 0 107 3t122 3q142 0 222 -60q79 -60 79 -166q0 -169 -145 -283t-373 -114zM420 315q80 0 138 73q56 71 56 190q0 138 -48 217q-48 80 -146 80q-81 0 -133 -76q-54 -79 -54 -195q0 -129 52 -210
q51 -79 135 -79zM442 -471q137 0 237 77q99 76 99 185q0 175 -262 182q-110 4 -227 -12q-60 -23 -110 -83q-50 -61 -50 -128q0 -96 88 -159q87 -62 225 -62z" />
    <glyph glyph-name="h" unicode="h" horiz-adv-x="985" 
d="M10 0l6 12l35 2q27 2 39 3q10 1 25 5q11 3 16 9q4 5 4 14v1133q0 62 -15 84q-14 21 -67 32l-47 9l2 8l271 67v-665l2 -4q6 6 30 26q7 6 15.5 13t13.5 11.5t8 6.5t8.5 6.5t14 11t15.5 12.5q26 20 44 30q5 3 20 11.5t24 13.5q24 13 50 22t50 14q27 6 55 6q94 0 151 -57
q66 -68 66 -197v-596q0 -7 3 -12t27 -9q37 -7 72 -8l29 -2l6 -12h-410l7 12l36 2q86 5 86 31v565q0 181 -178 181q-132 0 -245 -107v-643q0 -13 18 -17q23 -6 86 -10l29 -2l6 -12h-408z" />
    <glyph glyph-name="i" unicode="i" horiz-adv-x="446" 
d="M209 1075q-49 0 -76 32q-27 31 -27 69q0 36 27 69t76 33t75 -33q25 -32 25 -69q0 -39 -26 -69q-27 -32 -74 -32zM27 0l6 12l37 2q29 2 41 3q8 1 24 5q13 3 17 9q4 5 4 14v596q0 90 -16 122q-15 30 -68 38l-47 8l2 8l272 72v-848q0 -13 17 -17q24 -6 85 -10l29 -2l6 -12
h-409z" />
    <glyph glyph-name="j" unicode="j" horiz-adv-x="417" 
d="M197 1075q-49 0 -76 32q-27 31 -27 69q0 36 27 69t76 33t74 -33q26 -34 26 -69q0 -38 -27 -69q-27 -32 -73 -32zM-33 -510q-66 0 -104 29q-37 28 -37 71q0 37 26 61q24 23 62 23q46 0 79 -36q32 -35 48 -101q102 23 102 270v834q0 92 -15 122t-69 38l-47 8l2 8l273 72
v-946q0 -165 -101 -310q-100 -143 -219 -143z" />
    <glyph glyph-name="k" unicode="k" horiz-adv-x="935" 
d="M10 0l6 12l35 2q27 2 39 3q10 1 25 5q11 3 16 9q4 5 4 14v1133q0 64 -15 86t-67 30l-47 9l2 8l271 67v-981l202 199q146 146 146 197q0 49 -109 57l-26 2l-5 12h387l-6 -12l-43 -4q-19 -1 -45 -10q-18 -6 -38 -18q-15 -9 -44 -35q-8 -8 -16.5 -15.5t-16.5 -15t-12 -10.5
q-16 -15 -61 -61q-30 -31 -72 -73l-6 -6l-13 -13q-8 -8 -14 -16l-6 -6l256 -422q51 -84 78 -105q29 -22 88 -28l23 -2l6 -12h-285l-10 25l-262 440l-96 -92v-332q0 -13 17 -17q24 -6 85 -10l29 -2l6 -12h-406z" />
    <glyph glyph-name="l" unicode="l" horiz-adv-x="436" 
d="M20 0l5 12l34 2q29 2 41 3q10 1 25 5q11 3 16 9q4 5 4 14v1088q0 93 -15 122q-15 28 -69 39l-45 9l2 8l271 67v-1337q0 -13 17 -17q24 -6 85 -10l29 -2l6 -12h-406z" />
    <glyph glyph-name="m" unicode="m" horiz-adv-x="1503" 
d="M27 0l6 12l37 2q29 2 41 3q16 2 24 4q12 3 17 10q4 5 4 14v594q0 92 -16 124q-15 30 -68 38l-47 8l2 8l274 72l-8 -172l4 -2q53 53 83 80q28 25 97 62q67 36 133 36q98 0 160 -62q46 -50 53 -118l2 -2q56 57 85 83q33 29 102 65q65 34 131 34q98 0 160 -62
q63 -63 63 -198v-590q0 -8 4 -11q6 -4 27 -8q33 -6 71 -10l27 -2l6 -12h-407l6 12l37 2q84 4 84 31v565q0 92 -41 136q-42 45 -131 45q-63 0 -128 -31q-61 -29 -85 -72l-5 -10v-635q0 -8 5 -11q6 -4 26 -8q32 -6 72 -10l29 -2l6 -12h-406l6 12l37 2q82 4 82 31v565
q0 181 -170 181q-116 0 -219 -97v-653q0 -13 17 -17q24 -6 85 -10l29 -2l6 -12h-409z" />
    <glyph glyph-name="n" unicode="n" horiz-adv-x="1005" 
d="M27 0l6 12l37 2q29 2 41 3q8 1 24 5q13 3 17 9q4 5 4 14v594q0 92 -16 124q-15 30 -68 38l-47 8l2 8l274 72l-6 -176l6 -4q8 6 16 14q55 49 93 78q40 30 105 60q70 32 132 32q99 0 154 -57q65 -65 65 -199v-594q0 -8 4 -11q6 -4 27 -8q32 -6 72 -10l28 -2l7 -12h-408
l6 12l37 2q84 4 84 31v565q0 181 -180 181q-131 0 -244 -107v-643q0 -13 17 -17q24 -6 85 -10l29 -2l6 -12h-409z" />
    <glyph glyph-name="o" unicode="o" horiz-adv-x="993" 
d="M498 -27q-197 0 -328 131t-131 326q0 192 132 329q132 136 327 136q194 0 325 -131t131 -326q0 -196 -132 -330q-133 -135 -324 -135zM500 -10q123 0 202 127q80 128 80 303q0 271 -112 383q-79 76 -176 76q-126 0 -206 -125q-79 -124 -79 -297q0 -282 117 -396
q71 -71 174 -71z" />
    <glyph glyph-name="p" unicode="p" horiz-adv-x="991" 
d="M-6 -518l6 12l37 2q29 2 41 3q16 2 24 4q11 3 17 9q4 4 4 13v1116q0 92 -15 122t-69 38l-47 8l2 8l274 72l-2 -182l4 -5q154 181 320 181q153 0 258 -119q104 -117 104 -305q0 -218 -136 -351q-138 -135 -306 -135q-125 0 -242 54h-2v-506q0 -23 103 -25l69 -2l6 -12
h-450zM530 -2q122 0 191 116q70 117 70 294q0 164 -79 274q-80 111 -210 111q-128 0 -236 -121v-494q33 -74 109 -128q73 -52 155 -52z" />
    <glyph glyph-name="q" unicode="q" horiz-adv-x="978" 
d="M549 -518l6 12l68 2q102 2 102 25v631l-4 2q-154 -181 -320 -181q-153 0 -258 121q-104 120 -104 309q0 219 138 349q139 131 317 131q150 0 268 -76h2l92 98h12v-1380q0 -17 18 -21q12 -3 68 -8l37 -2l6 -12h-448zM489 66q129 0 236 120v482q-34 80 -107 137
q-71 55 -153 55q-123 0 -194 -111q-70 -110 -70 -290q0 -164 80 -279q79 -114 208 -114z" />
    <glyph glyph-name="r" unicode="r" horiz-adv-x="708" 
d="M27 0l6 12l37 2q29 2 41 3q16 2 24 4q12 3 17 10q4 5 4 14v594q0 92 -16 124q-15 30 -68 38l-47 8l2 8l274 72l-6 -340h2q90 344 274 344q51 0 86 -32t35 -73q0 -38 -27 -70t-71 -32q-41 0 -73 32q-33 33 -34 93q-62 -12 -103 -84q-40 -71 -85 -235v-451q0 -9 5 -14
q4 -4 27 -9q19 -4 64 -4l66 -2l6 -12h-440z" />
    <glyph glyph-name="s" unicode="s" horiz-adv-x="710" 
d="M328 -27q-134 0 -260 47l-23 242l12 2l43 -92q84 -180 240 -180q90 0 145 51q56 51 56 129q0 81 -57 130q-57 50 -171 87q-109 38 -172 93q-65 56 -65 159q0 108 83 180t203 72q103 0 181 -37l65 23l10 -228l-12 -2l-104 168q-72 57 -142 57q-83 0 -127 -41
q-45 -42 -45 -116t50 -113t157 -78q65 -23 102 -41q33 -16 81 -49q41 -28 63 -77q21 -47 21 -107q0 -114 -94 -197q-92 -82 -240 -82z" />
    <glyph glyph-name="t" unicode="t" horiz-adv-x="628" 
d="M352 -27q-192 0 -190 199l12 619l-160 2l6 16l283 242l19 -2l-3 -183h273l-29 -71h-244l-14 -607q-1 -63 34 -97t97 -34q79 0 176 80l11 -6q-56 -56 -85 -80q-37 -30 -85 -53q-53 -25 -101 -25z" />
    <glyph glyph-name="u" unicode="u" horiz-adv-x="954" 
d="M692 -33l4 187h-2q-80 -70 -94 -81q-37 -29 -107 -64q-72 -36 -141 -36q-99 0 -159 60q-62 62 -62 196v596q0 9 -4 12q-3 2 -27 7q-14 3 -73 8l-29 2l-6 12h282v-610q0 -180 183 -180q126 0 233 98v574q0 61 -19 80t-83 24l-29 2l-6 12h283v-739q0 -35 10 -48t41 -18
l80 -12l-2 -10z" />
    <glyph glyph-name="v" unicode="v" horiz-adv-x="931" 
d="M453 -20l-306 743q-34 83 -52 104q-18 22 -62 23l-39 2l-6 12h415l-4 -12l-34 -2q-58 -2 -70 -26t12 -81l225 -555l166 430q56 146 42 185q-14 40 -115 47l-29 2l-6 12h342l-6 -12l-21 -2q-68 -5 -95 -43q-30 -43 -97 -211l-240 -616h-20z" />
    <glyph glyph-name="w" unicode="w" horiz-adv-x="1449" 
d="M434 -20l-278 720q-34 97 -55 123t-70 27l-37 2l-4 12h420l-7 -12l-32 -2q-61 -4 -76 -23q-15 -18 8 -75l217 -568l193 451l-39 98q-30 73 -50 93q-19 19 -73 24l-33 2l-8 12h416l-4 -12l-35 -2q-56 -1 -69 -25q-12 -22 9 -73l242 -572l150 428q51 140 35 188
q-15 46 -117 54l-27 2l-6 12h340l-6 -12l-19 -2q-70 -6 -97 -48q-27 -41 -87 -212l-213 -610h-23l-274 632l-268 -632h-23z" />
    <glyph glyph-name="x" unicode="x" horiz-adv-x="907" 
d="M0 0l6 12l49 6q48 6 92 41q43 34 107 127l141 207l-227 336q-46 66 -74 93t-65 28l-27 2l-6 12h412l-7 -12l-43 -4q-90 -8 -22 -111l153 -223h3l126 195q86 132 -24 139l-49 4l-6 12h338l-7 -12l-47 -4q-51 -5 -93 -41q-45 -39 -107 -133l-121 -176l250 -363
q47 -69 73 -93q28 -27 64 -28l29 -2l6 -12h-414l6 12l39 4q94 10 20 113l-169 250h-3l-145 -225q-86 -132 16 -138l58 -4l6 -12h-338z" />
    <glyph glyph-name="y" unicode="y" horiz-adv-x="917" 
d="M164 -524q-48 0 -83 27q-34 27 -34 67q0 37 27 64q28 28 65 28q89 0 107 -98q51 11 85 66q32 53 77 188l55 168l-2 2l-314 735q-34 83 -52 104q-18 22 -64 23l-39 2l-6 12h415l-4 -12l-35 -2q-56 -1 -68 -26q-11 -23 13 -81l232 -555l159 435q49 143 36 180t-118 47
l-28 2l-6 12h346l-6 -12l-27 -2q-67 -4 -93 -42q-27 -39 -89 -210l-228 -606l-67 -211q-51 -162 -108 -233q-58 -72 -146 -72z" />
    <glyph glyph-name="z" unicode="z" horiz-adv-x="837" 
d="M39 0v10l551 836q-38 0 -79 0.5t-62.5 1t-30.5 0.5q-133 -1 -191 -53q-57 -51 -110 -185l-19 -41h-10l6 295h668v-10l-555 -834l190 -4q130 1 207 59q78 58 146 175l28 47h8l-67 -297h-680z" />
    <glyph glyph-name="braceleft" unicode="{" horiz-adv-x="595" 
d="M573 -547q-178 11 -287 92q-112 83 -112 217q0 94 37 238t37 211q0 83 -72 121q-71 37 -225 49l-4 8l4 8q297 29 297 172q0 67 -37 211t-37 238q0 135 111 216q110 81 288 91l5 -12q-161 -21 -225 -72t-64 -151q0 -68 39 -217t39 -232q0 -201 -334 -250v-2
q334 -49 334 -250q0 -84 -39 -232q-39 -149 -39 -216q0 -101 64 -153q63 -52 225 -73z" />
    <glyph glyph-name="bar" unicode="|" horiz-adv-x="313" 
d="M147 -424v1796h19v-1796h-19z" />
    <glyph glyph-name="braceright" unicode="}" horiz-adv-x="595" 
d="M-8 -547l-4 12q160 21 224 73t64 153q0 71 -38 216q-39 148 -39 232q0 201 333 250v2q-333 49 -333 250q0 84 39 232q38 145 38 217q0 100 -64 151t-224 72l4 12q179 -11 289 -91t110 -216q0 -94 -37 -238t-37 -211q0 -143 297 -172l4 -8l-4 -8q-154 -12 -225 -49
q-72 -38 -72 -121q0 -67 37 -211t37 -238q0 -134 -111 -217q-109 -81 -288 -92z" />
    <glyph glyph-name="asciitilde" unicode="~" horiz-adv-x="757" 
d="M530 307q-55 0 -177 62q-121 61 -158 61q-45 0 -66 -20q-23 -22 -29 -86h-10q10 106 42 153t97 47q55 0 177 -60q124 -61 159 -61q40 0 65 22q23 20 29 83h11q-11 -108 -42 -154q-32 -47 -98 -47z" />
    <glyph glyph-name="nbspace" unicode="&#xa0;" horiz-adv-x="266" 
 />
    <glyph glyph-name="exclamdown" unicode="&#xa1;" horiz-adv-x="481" 
d="M240 1087q-46 0 -77 31q-30 30 -30 72q0 44 30 75t77 31q45 0 76 -31q32 -32 32 -75q0 -42 -32 -72q-33 -31 -76 -31zM238 -43q-59 0 -73 32q-13 31 -7 85l73 831q0 6 9 6q8 0 8 -6l74 -831v-55q0 -26 -20 -44t-60 -18h-4z" />
    <glyph glyph-name="cent" unicode="&#xa2;" horiz-adv-x="831" 
d="M293 -322q82 300 82 304q-149 27 -242 147q-94 121 -94 285q0 202 128 342q127 139 327 139q64 0 122 -16l97 358h20l-98 -363q143 -43 143 -145q0 -36 -27 -63t-65 -27q-36 0 -61 25q-25 24 -29 65l-172 -639q48 -14 92 -14q96 0 158 37q64 38 119 127l16 -7
q-147 -260 -365 -260q-18 0 -51 4l-80 -299h-20zM406 96l202 750q-40 33 -110 33q-126 0 -214 -114q-89 -115 -89 -286q0 -139 58 -240q59 -103 153 -143z" />
    <glyph glyph-name="sterling" unicode="&#xa3;" horiz-adv-x="1060" 
d="M346 596h-223l6 20h211q-21 102 -21 168q0 207 134 359q133 151 340 151q96 0 157 -38q60 -38 60 -105q0 -31 -28 -61q-27 -29 -64 -29q-61 0 -79 59q-18 60 17 105q-50 39 -123 39q-111 0 -190 -84q-80 -85 -80 -228q0 -52 7 -104q12 -92 18 -124q11 -60 16 -108h262
l6 -20h-264q8 -61 8 -131q0 -134 -88 -285q3 -1 67 -21q12 -4 37.5 -12t35.5 -11l18 -4.5l24 -6t24 -6.5q40 -11 75 -15q31 -4 69 -4q94 0 144 56q48 54 65 200h17q-6 -168 -88 -274q-81 -105 -197 -105q-66 0 -138 23q-68 22 -105 41q-36 19 -103 61q-105 -125 -217 -125
q-60 0 -99 31q-37 30 -37 80q0 60 50 98q49 37 141 37q71 0 184 -33q23 52 23 103q0 48 -10 92q-10 46 -32 114q-27 84 -30 97zM352 115q-112 69 -192 69q-55 0 -88 -24t-33 -72q0 -44 33 -69q32 -25 84 -25q108 0 196 121z" />
    <glyph glyph-name="currency" unicode="&#xa4;" horiz-adv-x="886" 
d="M758 436l-17 -16l-116 115q-78 -72 -183 -72q-104 0 -182 72l-117 -115l-16 16l115 117q-70 78 -70 181q0 105 70 184l-115 116l16 17l117 -115q78 72 183 72t182 -72l116 115l17 -17l-115 -116q70 -79 70 -184q0 -103 -70 -181zM268 561q72 -72 174 -72t174 72t72 174
t-72 174t-174 72t-174 -72q-71 -71 -71 -174t71 -174z" />
    <glyph glyph-name="yen" unicode="&#xa5;" horiz-adv-x="1218" 
d="M326 0l6 12l102 8q98 7 98 33v285h-387l7 20h380v246h-380l-7 21h377l-282 487q-50 87 -84 118q-32 29 -101 34l-57 4l-6 12h540l-6 -12l-61 -2q-80 -2 -89 -33q-9 -30 38 -113l274 -475h4l189 361q80 158 68 200q-12 43 -132 58l-51 4l-6 12h450l-6 -12l-45 -4
q-84 -6 -125 -44q-42 -39 -127 -206l-207 -389h371l-6 -21h-369v-246h369l6 -20h-375v-291q0 -21 119 -29l80 -6l6 -12h-575z" />
    <glyph glyph-name="brokenbar" unicode="&#xa6;" horiz-adv-x="313" 
d="M147 598v686h19v-686h-19zM147 -315v686h19v-686h-19z" />
    <glyph glyph-name="section" unicode="&#xa7;" horiz-adv-x="790" 
d="M350 -88q-106 0 -178 42t-72 101q0 31 21 57q21 25 53 25q60 0 75 -54t-20 -95q47 -60 144 -60q80 0 130 59t50 126q0 38 -17 68q-19 33 -62 64q-40 29 -75 50q-12 7 -100 55q-54 32 -103 63q-41 26 -85 64q-47 40 -67 84q-21 45 -21 96q0 149 186 238q-62 68 -62 152
q0 105 81 184q82 80 208 80q103 0 167 -41q63 -40 63 -103q0 -30 -24 -56t-58 -26q-58 0 -73 55t19 95q-46 59 -116 59q-82 0 -129 -57q-47 -58 -47 -127q0 -39 17 -69q18 -32 62 -64q40 -29 74 -49q35 -20 101 -56q82 -47 103 -60q47 -30 85 -62q49 -41 69 -84
q21 -45 21 -97q0 -144 -186 -243q61 -67 61 -152q0 -100 -85 -181q-86 -81 -210 -81zM573 336q105 63 105 160q0 79 -55 131q-56 53 -170 116q-47 27 -66 37t-66 37q-26 15 -51 32q-23 16 -49 38q-45 -22 -77 -67q-31 -43 -31 -91q0 -79 55 -131q59 -55 170 -117
q195 -111 235 -145z" />
    <glyph glyph-name="dieresis" unicode="&#xa8;" horiz-adv-x="757" 
d="M543 1042q-45 0 -70 31q-24 30 -24 62q0 34 24 67t70 33q45 0 69 -33q25 -34 25 -67q0 -31 -25 -62t-69 -31zM215 1042q-45 0 -70 31q-24 30 -24 62q0 34 24 67t70 33t70 -33t24 -67q0 -32 -24 -62q-25 -31 -70 -31z" />
    <glyph glyph-name="copyright" unicode="&#xa9;" horiz-adv-x="1441" 
d="M721 -29q-278 0 -474 196t-196 474q0 277 196 475q195 197 474 197t474 -197q196 -198 196 -475q0 -278 -196 -474t-474 -196zM721 -10q269 0 459 191t190 460q0 270 -190 461q-190 192 -459 192t-459 -192q-190 -191 -190 -461q0 -269 190 -460t459 -191zM739 233
q-185 0 -306 112q-120 111 -120 290q0 177 120 291t310 114q122 0 213 -53l68 31l10 -225h-6l-104 182q-73 53 -185 53q-143 0 -230 -108t-87 -275q0 -175 93 -287t233 -112q100 0 160 45q62 46 116 143l31 51h6l-45 -194l-41 -10q-102 -48 -236 -48z" />
    <glyph glyph-name="ordfeminine" unicode="&#xaa;" horiz-adv-x="628" 
d="M188 586q-67 0 -110 43t-43 102q0 163 381 258l2 68q4 200 -162 200q-48 0 -83 -19q-36 -19 -36 -34q0 -2 19 -34q18 -30 18 -48q0 -25 -20 -44t-52 -19q-30 0 -50 18q-19 18 -19 47q0 57 106 117q105 59 205 59q200 0 193 -210l-15 -357q-2 -78 51 -78q35 0 74 47l8 -4
q-78 -112 -145 -112q-92 0 -102 127v2q-112 -129 -220 -129zM268 657q66 0 140 74l8 240q-159 -39 -209 -88q-51 -49 -51 -111q0 -55 29 -84q31 -31 83 -31z" />
    <glyph glyph-name="guillemotleft" unicode="&#xab;" horiz-adv-x="823" 
d="M788 98l-413 351v12l413 350l7 -6l-263 -350l263 -351zM426 129l-403 320v12l403 317l6 -6l-252 -317l252 -320z" />
    <glyph glyph-name="logicalnot" unicode="&#xac;" horiz-adv-x="886" 
d="M831 629v-348h-24v323h-793l6 25h811z" />
    <glyph glyph-name="uni00AD" unicode="&#xad;" horiz-adv-x="573" 
d="M37 459l6 61h494l-7 -61h-493z" />
    <glyph glyph-name="registered" unicode="&#xae;" horiz-adv-x="1441" 
d="M721 -29q-278 0 -474 196t-196 474q0 277 196 475q195 197 474 197t474 -197q196 -198 196 -475q0 -278 -196 -474t-474 -196zM721 -10q269 0 459 191t190 460q0 270 -190 461q-190 192 -459 192t-459 -192q-190 -191 -190 -461q0 -269 190 -460t459 -191zM371 258l4 12
l61 6q14 1 39 10q21 8 21 13v694q0 11 -70 17l-49 4l-4 12h315q143 0 220 -51t77 -148q0 -67 -54 -120q-55 -54 -136 -70l178 -272q40 -56 62 -70q26 -17 75 -23l14 -2l4 -12h-202l-8 16l-226 363q-67 12 -98 22v-366q0 -15 72 -19l47 -4l4 -12h-346zM700 655q86 0 133 46
q48 47 48 130q0 89 -59 137t-167 42l-61 -2v-330q63 -23 106 -23z" />
    <glyph glyph-name="macron" unicode="&#xaf;" horiz-adv-x="755" 
d="M113 1067l14 51h516l-14 -51h-516z" />
    <glyph glyph-name="degree" unicode="&#xb0;" horiz-adv-x="581" 
d="M291 793q-113 0 -183 74q-71 76 -71 184q0 109 69 185q69 77 185 77q115 0 184 -77q70 -78 70 -185q0 -109 -69 -184q-68 -74 -185 -74zM291 813q104 0 169 68q64 67 64 170q0 101 -64 171t-169 70q-103 0 -166 -69q-64 -70 -64 -172q0 -103 63 -170q63 -68 167 -68z" />
    <glyph glyph-name="plusminus" unicode="&#xb1;" horiz-adv-x="886" 
d="M432 172v342h-418l4 25h414v354h25v-354h411l4 -25h-415v-342h-25zM852 76h-817l4 24h809z" />
    <glyph glyph-name="twosuperior" unicode="&#xb2;" horiz-adv-x="540" 
d="M14 518l-4 8q208 207 282 310q75 105 75 225q0 90 -46 135q-47 45 -106 45q-104 0 -182 -133l-8 4q107 199 249 199q77 0 135 -53q56 -52 56 -140q0 -101 -71 -198q-76 -104 -242 -271q-37 -35 -46 -45v-2h312q41 0 92 146l4 10l6 -2l-51 -238h-455z" />
    <glyph glyph-name="threesuperior" unicode="&#xb3;" horiz-adv-x="493" 
d="M166 475q-65 0 -106 24q-40 24 -40 62q0 24 17 41q16 16 41 16q38 0 58 -32q21 -34 14 -78q37 -10 61 -10q78 0 131 53t53 137q0 98 -48 150q-48 53 -138 53q-47 0 -109 -21l-4 7q45 28 80 49q53 31 71 45q25 19 45 38q27 25 35 47q9 24 9 54q0 59 -35 94t-92 35
q-115 0 -172 -115l-10 4q88 183 231 183q72 0 121 -45t49 -111q0 -25 -9 -47q-2 -5 -18 -37q-7 -13 -32 -34q-16 -13 -34 -25q-4 -3 -44 -27q-10 -6 -19.5 -11.5t-14.5 -8.5t-7 -4v-5q105 6 168 -55t63 -153q0 -108 -95 -191q-94 -82 -220 -82z" />
    <glyph glyph-name="acute" unicode="&#xb4;" horiz-adv-x="757" 
d="M293 1006l223 383h162l-377 -383h-8z" />
    <glyph glyph-name="mu" unicode="&#xb5;" horiz-adv-x="1003" 
d="M412 -518h-402l6 12l37 2q29 2 41 3q18 2 25 4q9 2 16 9q4 4 4 13v1300q0 9 -4 12t-26 7q-13 3 -74 8l-29 2l-6 12h283v-649q0 -75 60 -108t136 -33q133 0 240 98v574q0 60 -20 80q-19 19 -83 24l-28 2l-6 12h282v-739q0 -35 10 -48t41 -18l80 -12l-2 -10l-272 -72l4 187
h-2q-109 -181 -244 -181q-123 0 -190 133h-6v-581q0 -17 17 -21q12 -3 69 -8l37 -2z" />
    <glyph glyph-name="mu" unicode="&#x3bc;" horiz-adv-x="1003" 
d="M412 -518h-402l6 12l37 2q29 2 41 3q18 2 25 4q9 2 16 9q4 4 4 13v1300q0 9 -4 12t-26 7q-13 3 -74 8l-29 2l-6 12h283v-649q0 -75 60 -108t136 -33q133 0 240 98v574q0 60 -20 80q-19 19 -83 24l-28 2l-6 12h282v-739q0 -35 10 -48t41 -18l80 -12l-2 -10l-272 -72l4 187
h-2q-109 -181 -244 -181q-123 0 -190 133h-6v-581q0 -17 17 -21q12 -3 69 -8l37 -2z" />
    <glyph glyph-name="paragraph" unicode="&#xb6;" horiz-adv-x="847" 
d="M725 -66v644q-86 -11 -197 -11q-220 0 -350 96q-127 94 -127 269q0 348 477 348h217v-1346h-20z" />
    <glyph glyph-name="periodcentered" unicode="&#xb7;" horiz-adv-x="378" 
d="M190 336q-46 0 -78 32t-32 74q0 41 32 73t78 32t76 -32q31 -33 31 -73q0 -41 -31 -74q-30 -32 -76 -32z" />
    <glyph glyph-name="cedilla" unicode="&#xb8;" horiz-adv-x="757" 
d="M188 -522l-4 8q301 46 301 180q0 111 -157 111q-76 0 -140 -23v15l199 227h23l-119 -137q118 22 205 -20q86 -42 86 -124q0 -186 -394 -237z" />
    <glyph glyph-name="onesuperior" unicode="&#xb9;" horiz-adv-x="446" 
d="M80 518l4 8l43 2q53 0 53 21v694l-129 21l4 6l230 28v-753q0 -19 69 -19h35l4 -8h-313z" />
    <glyph glyph-name="ordmasculine" unicode="&#xba;" horiz-adv-x="770" 
d="M385 582q-154 0 -258 103t-104 251q0 151 105 259t257 108q153 0 257 -105q103 -104 103 -254q0 -153 -103 -257q-104 -105 -257 -105zM387 596q96 0 155 101q60 102 60 239q0 213 -80 293q-52 59 -139 59q-98 0 -158 -99q-59 -97 -59 -237q0 -217 86 -303
q53 -53 135 -53z" />
    <glyph glyph-name="guillemotright" unicode="&#xbb;" horiz-adv-x="831" 
d="M399 129l-6 6l252 320l-252 317l6 6l404 -317v-12zM37 98l-6 6l262 351l-262 350l6 6l414 -350v-12z" />
    <glyph glyph-name="onequarter" unicode="&#xbc;" horiz-adv-x="1280" 
d="M1030 -252v217h-321v4l385 572h34v-500h146l-27 -76h-119v-217h-98zM776 41h254v373h-2zM80 518l4 8l43 2q53 0 53 21v694l-129 21l4 6l230 28v-753q0 -19 69 -19h35l4 -8h-313zM27 -252l1228 1546h29l-1229 -1546h-28z" />
    <glyph glyph-name="onehalf" unicode="&#xbd;" horiz-adv-x="1241" 
d="M715 -252l-4 8q205 203 281 310q75 105 75 225q0 90 -46 135q-47 45 -106 45q-104 0 -182 -133l-8 4q107 199 250 199q76 0 134 -53q56 -52 56 -140q0 -103 -70 -198q-73 -100 -243 -271q-30 -29 -45 -45v-2h311q41 0 92 145l4 11l7 -2l-52 -238h-454zM80 518l4 8l43 2
q53 0 53 21v694l-129 21l4 6l230 28v-753q0 -19 69 -19h35l4 -8h-313zM-14 -252l1228 1546h29l-1229 -1546h-28z" />
    <glyph glyph-name="threequarters" unicode="&#xbe;" horiz-adv-x="1245" 
d="M995 -252v217h-321v4l385 572h35v-500h145l-27 -76h-118v-217h-99zM741 41h254v373h-2zM166 475q-65 0 -106 24q-40 24 -40 62q0 24 17 41q16 16 41 16q38 0 58 -32q21 -34 14 -78q37 -10 61 -10q78 0 131 53t53 137q0 98 -48 150q-48 53 -138 53q-47 0 -109 -21l-4 7
q45 28 80 49q53 31 71 45q25 19 45 38q27 25 35 47q9 24 9 54q0 59 -35 94t-92 35q-115 0 -172 -115l-10 4q88 183 231 183q72 0 121 -45t49 -111q0 -25 -9 -47q-2 -5 -18 -37q-7 -13 -32 -34q-16 -13 -34 -25q-4 -3 -44 -27q-10 -6 -19.5 -11.5t-14.5 -8.5t-7 -4v-5
q105 6 168 -55t63 -153q0 -108 -95 -191q-94 -82 -220 -82zM-8 -252l1229 1546h28l-1229 -1546h-28z" />
    <glyph glyph-name="questiondown" unicode="&#xbf;" horiz-adv-x="612" 
d="M319 1104q-45 0 -76 31q-30 30 -30 71q0 44 30 74q31 31 76 31q44 0 77 -31q32 -30 32 -74q0 -41 -32 -71q-33 -31 -77 -31zM424 -29q-159 0 -265 115t-106 266q0 103 37 146t158 98q4 2 27 13q5 2 11.5 5t10.5 5l6 3q7 3 25 11q15 7 22 12l19 12q8 5 17 14q8 8 13 14
q10 12 12 17q4 9 5 19q2 14 2 20q0 72 -107 179h17q60 -49 112 -121q54 -74 54 -117q0 -80 -41 -119q-40 -38 -168 -94q-113 -49 -164 -84q-43 -30 -43 -76q0 -75 76 -138q75 -62 237 -62q84 0 150 20q20 -26 20 -86q0 -72 -137 -72z" />
    <glyph glyph-name="Agrave" unicode="&#xc0;" horiz-adv-x="1280" 
d="M758 561h-381l-98 -276q-62 -170 -46 -212q17 -45 154 -57l43 -4l6 -12h-444l6 12l33 4q66 7 102 37q35 29 70 103t108 276l254 707l-20 57q66 23 104 107h19l372 -1088q44 -126 72 -160t98 -39l58 -4l6 -12h-537l6 12l66 4q128 6 84 140zM385 582h365l-43 131
q-39 117 -89 262l-43 131h-2zM690 1348l-377 383h162l223 -383h-8z" />
    <glyph glyph-name="Aacute" unicode="&#xc1;" horiz-adv-x="1280" 
d="M758 561h-381l-98 -276q-62 -170 -46 -212q17 -45 154 -57l43 -4l6 -12h-444l6 12l33 4q66 7 102 37q35 29 70 103t108 276l254 707l-20 57q66 23 104 107h19l372 -1088q44 -126 72 -160t98 -39l58 -4l6 -12h-537l6 12l66 4q128 6 84 140zM385 582h365l-43 131
q-39 117 -89 262l-43 131h-2zM567 1348l224 383h161l-377 -383h-8z" />
    <glyph glyph-name="Acircumflex" unicode="&#xc2;" horiz-adv-x="1280" 
d="M758 561h-381l-98 -276q-62 -170 -46 -212q17 -45 154 -57l43 -4l6 -12h-444l6 12l33 4q66 7 102 37q35 29 70 103t108 276l254 707l-20 57q66 23 104 107h19l372 -1088q44 -126 72 -160t98 -39l58 -4l6 -12h-537l6 12l66 4q128 6 84 140zM385 582h365l-43 131
q-39 117 -89 262l-43 131h-2zM383 1325l274 383h5l274 -383h-8l-266 229h-5l-266 -229h-8z" />
    <glyph glyph-name="Atilde" unicode="&#xc3;" horiz-adv-x="1280" 
d="M758 561h-381l-98 -276q-62 -170 -46 -212q17 -45 154 -57l43 -4l6 -12h-444l6 12l33 4q66 7 102 37q35 29 70 103t108 276l254 707l-20 57q66 23 104 107h19l372 -1088q44 -126 72 -160t98 -39l58 -4l6 -12h-537l6 12l66 4q128 6 84 140zM385 582h365l-43 131
q-39 117 -89 262l-43 131h-2zM795 1360q-58 0 -179 61q-122 62 -157 62q-43 0 -66 -21q-22 -21 -28 -86h-11q11 108 42 154q32 47 98 47q54 0 176 -60q124 -61 159 -61q40 0 65 22q24 21 30 83h10q-11 -108 -42 -154q-32 -47 -97 -47z" />
    <glyph glyph-name="Adieresis" unicode="&#xc4;" horiz-adv-x="1280" 
d="M758 561h-381l-98 -276q-62 -170 -46 -212q17 -45 154 -57l43 -4l6 -12h-444l6 12l33 4q66 7 102 37q35 29 70 103t108 276l254 707l-20 57q66 23 104 107h19l372 -1088q44 -126 72 -160t98 -39l58 -4l6 -12h-537l6 12l66 4q128 6 84 140zM385 582h365l-43 131
q-39 117 -89 262l-43 131h-2zM807 1384q-45 0 -70 31q-24 30 -24 62q0 34 24 67t70 33t70 -33t24 -67q0 -32 -24 -62q-25 -31 -70 -31zM479 1384q-44 0 -69 31t-25 62q0 33 25 67q24 33 69 33q46 0 70 -33t24 -67q0 -32 -24 -62q-25 -31 -70 -31z" />
    <glyph glyph-name="Aring" unicode="&#xc5;" horiz-adv-x="1280" 
d="M760 557h-383l-98 -272q-62 -170 -46 -212q17 -45 154 -57l43 -4l6 -12h-444l6 12l33 4q66 7 102 37q35 29 70 103t108 276l301 830q-71 12 -112 62t-41 120q0 76 50 129t132 53t132 -53t50 -129q0 -67 -38 -117q-36 -48 -103 -63l88 -263l180 -524l90 -262
q44 -126 72 -160t98 -39l58 -4l6 -12h-537l6 12l66 4q128 6 84 140zM641 1276q75 0 118 48q44 49 44 118t-44 118q-44 48 -118 48q-75 0 -118 -48q-44 -49 -44 -118t44 -118q43 -48 118 -48zM385 582h365l-43 131q-39 117 -89 262l-43 131h-2z" />
    <glyph glyph-name="AE" unicode="&#xc6;" horiz-adv-x="1736" 
d="M-109 0l7 12l79 8q59 6 120 70t169 250l498 850q24 40 -23 55q-33 11 -110 15l-80 4l-6 16h1003l39 -365h-10l-12 29q-29 78 -45 117q-14 34 -44 85q-24 42 -59 66q-27 19 -77 35q-46 15 -109 15h-254v-582h135q136 6 187 37t81 129l11 28l12 -2l-41 -413l-12 4l-2 24
q-8 108 -52 136q-42 26 -198 32l-121 4v-628l246 -11q166 1 262 91q96 89 162 249l12 29l12 -2l-84 -387h-981l6 14l103 9q98 7 98 32v502h-397l-142 -240q-40 -73 -61 -116q-20 -42 -31 -80q-10 -37 0 -56q11 -20 36 -32q27 -13 73 -17l65 -6l6 -10h-471zM430 582h383v649
h-4z" />
    <glyph glyph-name="Ccedilla" unicode="&#xc7;" horiz-adv-x="1374" 
d="M770 -31h-4q-313 0 -512 184t-199 482q0 296 201 487q202 191 522 191q184 0 350 -90l111 53l16 -377h-12l-170 311q-100 80 -297 80q-250 0 -395 -181t-145 -458q0 -293 150 -476t386 -183h16l5 4h22q-2 -2 -4 -2q152 7 247 81q93 72 179 220l51 86h12l-73 -311l-70 -15
q-156 -78 -364 -84l-97 -112q118 22 205 -20q86 -42 86 -124q0 -186 -393 -237l-4 8q301 46 301 180q0 111 -158 111q-75 0 -139 -23v15z" />
    <glyph glyph-name="Egrave" unicode="&#xc8;" horiz-adv-x="1181" 
d="M45 0l6 12l74 8q102 8 102 33v1180q0 22 -118 29l-56 6l-6 12h946l39 -365h-10l-12 29q-63 176 -134 247t-221 71h-264v-582h166q137 6 188 37q50 30 80 129l11 28l12 -2l-41 -413l-12 2l-2 26q-8 107 -52 135q-44 27 -198 33l-152 4v-630l297 -9q84 1 154 27
q63 23 111 77q47 53 75 103q33 60 64 133l12 29l12 -2l-84 -387h-987zM668 1348l-377 383h162l223 -383h-8z" />
    <glyph glyph-name="Eacute" unicode="&#xc9;" horiz-adv-x="1181" 
d="M45 0l6 12l74 8q102 8 102 33v1180q0 22 -118 29l-56 6l-6 12h946l39 -365h-10l-12 29q-63 176 -134 247t-221 71h-264v-582h166q137 6 188 37q50 30 80 129l11 28l12 -2l-41 -413l-12 2l-2 26q-8 107 -52 135q-44 27 -198 33l-152 4v-630l297 -9q84 1 154 27
q63 23 111 77q47 53 75 103q33 60 64 133l12 29l12 -2l-84 -387h-987zM539 1348l223 383h162l-377 -383h-8z" />
    <glyph glyph-name="Ecircumflex" unicode="&#xca;" horiz-adv-x="1181" 
d="M45 0l6 12l74 8q102 8 102 33v1180q0 22 -118 29l-56 6l-6 12h946l39 -365h-10l-12 29q-63 176 -134 247t-221 71h-264v-582h166q137 6 188 37q50 30 80 129l11 28l12 -2l-41 -413l-12 2l-2 26q-8 107 -52 135q-44 27 -198 33l-152 4v-630l297 -9q84 1 154 27
q63 23 111 77q47 53 75 103q33 60 64 133l12 29l12 -2l-84 -387h-987zM311 1325l275 383h4l274 -383h-8l-266 229h-4l-267 -229h-8z" />
    <glyph glyph-name="Edieresis" unicode="&#xcb;" horiz-adv-x="1181" 
d="M45 0l6 12l74 8q102 8 102 33v1180q0 22 -118 29l-56 6l-6 12h946l39 -365h-10l-12 29q-63 176 -134 247t-221 71h-264v-582h166q137 6 188 37q50 30 80 129l11 28l12 -2l-41 -413l-12 2l-2 26q-8 107 -52 135q-44 27 -198 33l-152 4v-630l297 -9q84 1 154 27
q63 23 111 77q47 53 75 103q33 60 64 133l12 29l12 -2l-84 -387h-987zM741 1384q-44 0 -69 31t-25 62q0 33 25 67q24 33 69 33q46 0 70 -33q25 -34 25 -67q0 -31 -25 -62t-70 -31zM414 1384q-45 0 -70 31t-25 62q0 33 25 67q24 33 70 33q45 0 69 -33q25 -34 25 -67
q0 -31 -25 -62t-69 -31z" />
    <glyph glyph-name="Igrave" unicode="&#xcc;" horiz-adv-x="659" 
d="M61 0l7 12l82 8q98 7 98 33v1180q0 21 -119 29l-59 6l-7 12h535l-6 -12l-82 -8q-98 -7 -98 -33v-1180q0 -22 118 -29l60 -6l6 -12h-535zM403 1348l-376 383h161l224 -383h-9z" />
    <glyph glyph-name="Iacute" unicode="&#xcd;" horiz-adv-x="659" 
d="M61 0l7 12l82 8q98 7 98 33v1180q0 21 -119 29l-59 6l-7 12h535l-6 -12l-82 -8q-98 -7 -98 -33v-1180q0 -22 118 -29l60 -6l6 -12h-535zM240 1348l223 383h162l-377 -383h-8z" />
    <glyph glyph-name="Icircumflex" unicode="&#xce;" horiz-adv-x="659" 
d="M61 0l7 12l82 8q98 7 98 33v1180q0 21 -119 29l-59 6l-7 12h535l-6 -12l-82 -8q-98 -7 -98 -33v-1180q0 -22 118 -29l60 -6l6 -12h-535zM53 1325l275 383h4l274 -383h-8l-266 229h-4l-267 -229h-8z" />
    <glyph glyph-name="Idieresis" unicode="&#xcf;" horiz-adv-x="659" 
d="M61 0l7 12l82 8q98 7 98 33v1180q0 21 -119 29l-59 6l-7 12h535l-6 -12l-82 -8q-98 -7 -98 -33v-1180q0 -22 118 -29l60 -6l6 -12h-535zM496 1384q-45 0 -70 31t-25 62q0 33 25 67q24 33 70 33q45 0 69 -33q25 -34 25 -67q0 -31 -25 -62t-69 -31zM168 1384q-45 0 -70 31
q-24 30 -24 62q0 34 24 67t70 33t70 -33t24 -67q0 -32 -24 -62q-25 -31 -70 -31z" />
    <glyph glyph-name="Eth" unicode="&#xd0;" horiz-adv-x="1363" 
d="M227 631h-176l6 24h170v578q0 19 -118 29l-66 6l-6 12l518 6q350 2 538 -166q189 -168 189 -452q0 -296 -210 -482t-576 -186h-461l6 12l88 8q98 7 98 33v578zM391 655h316l6 -24h-322v-572l154 -36q181 1 312 89q129 86 190 218q59 128 59 291q0 280 -147 460
q-148 181 -435 181h-133v-607z" />
    <glyph glyph-name="Ntilde" unicode="&#xd1;" horiz-adv-x="1400" 
d="M1176 -10l-912 1157h-2l2 -1063q0 -53 170 -68l39 -4l6 -12h-430l6 12l41 4q146 15 146 72l4 1077q-78 84 -191 101l-26 4l-6 12h344l804 -1026h3l-3 942q0 49 -170 66l-38 4l-7 12h430l-6 -12l-41 -4q-145 -15 -145 -70l-4 -1204h-14zM893 1360q-57 0 -178 61
q-122 62 -158 62q-43 0 -65 -21q-23 -22 -29 -86h-10q11 108 42 154q32 47 97 47q54 0 176 -60q124 -61 160 -61q39 0 64 22q24 21 30 83h10q-11 -108 -42 -154q-32 -47 -97 -47z" />
    <glyph glyph-name="Ograve" unicode="&#xd2;" horiz-adv-x="1464" 
d="M729 -29q-291 0 -483 187q-191 186 -191 479q0 264 204 469t474 205q293 0 485 -189q191 -188 191 -483q0 -266 -204 -467t-476 -201zM737 -6q228 0 360 174t132 473q0 283 -142 467q-140 182 -360 182q-224 0 -358 -177q-133 -176 -133 -478q0 -286 140 -463
q141 -178 361 -178zM784 1348l-376 383h161l224 -383h-9z" />
    <glyph glyph-name="Oacute" unicode="&#xd3;" horiz-adv-x="1464" 
d="M729 -29q-291 0 -483 187q-191 186 -191 479q0 264 204 469t474 205q293 0 485 -189q191 -188 191 -483q0 -266 -204 -467t-476 -201zM737 -6q228 0 360 174t132 473q0 283 -142 467q-140 182 -360 182q-224 0 -358 -177q-133 -176 -133 -478q0 -286 140 -463
q141 -178 361 -178zM672 1348l223 383h162l-377 -383h-8z" />
    <glyph glyph-name="Ocircumflex" unicode="&#xd4;" horiz-adv-x="1464" 
d="M729 -29q-291 0 -483 187q-191 186 -191 479q0 264 204 469t474 205q293 0 485 -189q191 -188 191 -483q0 -266 -204 -467t-476 -201zM737 -6q228 0 360 174t132 473q0 283 -142 467q-140 182 -360 182q-224 0 -358 -177q-133 -176 -133 -478q0 -286 140 -463
q141 -178 361 -178zM461 1325l274 383h4l275 -383h-8l-267 229h-4l-266 -229h-8z" />
    <glyph glyph-name="Otilde" unicode="&#xd5;" horiz-adv-x="1464" 
d="M729 -29q-291 0 -483 187q-191 186 -191 479q0 264 204 469t474 205q293 0 485 -189q191 -188 191 -483q0 -266 -204 -467t-476 -201zM737 -6q228 0 360 174t132 473q0 283 -142 467q-140 182 -360 182q-224 0 -358 -177q-133 -176 -133 -478q0 -286 140 -463
q141 -178 361 -178zM889 1360q-57 0 -178 61q-122 62 -158 62q-43 0 -66 -21q-22 -21 -28 -86h-10q11 109 41 154q32 47 98 47q54 0 176 -60q124 -61 160 -61q39 0 64 22q24 21 30 83h10q-11 -108 -42 -154q-32 -47 -97 -47z" />
    <glyph glyph-name="Odieresis" unicode="&#xd6;" horiz-adv-x="1464" 
d="M729 -29q-291 0 -483 187q-191 186 -191 479q0 264 204 469t474 205q293 0 485 -189q191 -188 191 -483q0 -266 -204 -467t-476 -201zM737 -6q228 0 360 174t132 473q0 283 -142 467q-140 182 -360 182q-224 0 -358 -177q-133 -176 -133 -478q0 -286 140 -463
q141 -178 361 -178zM901 1384q-45 0 -70 31q-24 30 -24 62q0 34 24 67t70 33t70 -33t24 -67q0 -32 -24 -62q-25 -31 -70 -31zM573 1384q-44 0 -69 31t-25 62q0 33 25 67q24 33 69 33q46 0 70 -33q25 -34 25 -67q0 -31 -25 -62t-70 -31z" />
    <glyph glyph-name="multiply" unicode="&#xd7;" horiz-adv-x="886" 
d="M799 115l-355 354l-354 -354l-16 16l354 354l-354 355l16 16l354 -354l355 354l16 -16l-354 -355l354 -354z" />
    <glyph glyph-name="Oslash" unicode="&#xd8;" horiz-adv-x="1464" 
d="M1085 1221q153 -86 238 -239q86 -154 86 -343q0 -266 -204 -467t-476 -201q-170 0 -323 72l-111 -193h-23q7 11 20 34q1 3 14 26t23 40q27 46 44 73l16 28q-156 84 -245 238t-89 348q0 264 204 469t474 205q182 0 336 -80l105 180h22zM426 117l606 1048
q-128 123 -305 123q-224 0 -358 -177q-133 -176 -133 -476q0 -338 190 -518zM1047 1151l-152 -262q-135 -231 -303 -524l-152 -263q128 -108 297 -108q228 0 360 174t132 473q0 325 -182 510z" />
    <glyph glyph-name="Ugrave" unicode="&#xd9;" horiz-adv-x="1363" 
d="M717 -29q-265 0 -383 109q-117 108 -117 360v793q0 23 -119 31l-80 6l-6 12h576l-6 -12l-103 -8q-98 -7 -98 -35v-760q0 -222 96 -325t303 -103q383 0 383 471l-2 688q0 50 -184 68l-39 4l-6 12h440l-6 -12l-41 -4q-141 -12 -141 -72l-2 -690q-5 -533 -465 -533z
M805 1348l-377 383h162l223 -383h-8z" />
    <glyph glyph-name="Uacute" unicode="&#xda;" horiz-adv-x="1363" 
d="M717 -29q-265 0 -383 109q-117 108 -117 360v793q0 23 -119 31l-80 6l-6 12h576l-6 -12l-103 -8q-98 -7 -98 -35v-760q0 -222 96 -325t303 -103q383 0 383 471l-2 688q0 50 -184 68l-39 4l-6 12h440l-6 -12l-41 -4q-141 -12 -141 -72l-2 -690q-5 -533 -465 -533z
M641 1348l223 383h162l-377 -383h-8z" />
    <glyph glyph-name="Ucircumflex" unicode="&#xdb;" horiz-adv-x="1363" 
d="M717 -29q-265 0 -383 109q-117 108 -117 360v793q0 23 -119 31l-80 6l-6 12h576l-6 -12l-103 -8q-98 -7 -98 -35v-760q0 -222 96 -325t303 -103q383 0 383 471l-2 688q0 50 -184 68l-39 4l-6 12h440l-6 -12l-41 -4q-141 -12 -141 -72l-2 -690q-5 -533 -465 -533z
M451 1325l274 383h4l275 -383h-9l-266 229h-4l-266 -229h-8z" />
    <glyph glyph-name="Udieresis" unicode="&#xdc;" horiz-adv-x="1363" 
d="M717 -29q-265 0 -383 109q-117 108 -117 360v793q0 23 -119 31l-80 6l-6 12h576l-6 -12l-103 -8q-98 -7 -98 -35v-760q0 -222 96 -325t303 -103q383 0 383 471l-2 688q0 50 -184 68l-39 4l-6 12h440l-6 -12l-41 -4q-141 -12 -141 -72l-2 -690q-5 -533 -465 -533z
M920 1384q-45 0 -70 31t-25 62q0 33 25 67q24 33 70 33q45 0 69 -33q25 -34 25 -67q0 -31 -25 -62t-69 -31zM592 1384q-45 0 -70 31q-24 30 -24 62q0 34 24 67t70 33t70 -33t24 -67q0 -32 -24 -62q-25 -31 -70 -31z" />
    <glyph glyph-name="Yacute" unicode="&#xdd;" horiz-adv-x="1249" 
d="M336 0l6 12l102 8q99 8 99 33v522l-303 535q-51 91 -83 119q-35 31 -102 35l-57 4l-6 12h540l-6 -12l-61 -2q-80 -2 -89 -33q-9 -30 38 -113l278 -493h4l193 364q84 157 76 208q-8 50 -127 65l-52 4l-6 12h451l-6 -12l-45 -4q-80 -6 -128 -52q-44 -43 -134 -213
l-211 -395v-557q0 -22 118 -29l80 -6l6 -12h-575zM618 1348l224 383h162l-377 -383h-9z" />
    <glyph glyph-name="Thorn" unicode="&#xde;" horiz-adv-x="1103" 
d="M20 0l7 12l102 8q98 7 98 33v1180q0 22 -118 29l-80 6l-6 12h575l-6 -12l-103 -8q-98 -7 -98 -33v-221l201 -2q226 0 345 -84q118 -84 118 -234q0 -155 -136 -260q-135 -104 -350 -104q-67 0 -178 16v-291q0 -23 119 -29l100 -6l6 -12h-596zM569 346q148 0 230 85t82 233
q0 325 -344 319l-146 -2v-610q89 -25 178 -25z" />
    <glyph glyph-name="germandbls" unicode="&#xdf;" horiz-adv-x="1009" 
d="M604 842q139 -73 251 -215q114 -144 114 -291t-91 -251q-92 -105 -223 -105q-89 0 -153 44t-64 109q0 47 29 78t72 31q67 0 82 -62q15 -58 -33 -92q-26 -20 -68 -14q30 -78 139 -78q85 0 134 62t49 173q0 159 -102 313q-103 156 -289 267v6q134 24 202 93q68 70 68 198
q0 98 -56 164q-57 67 -141 67q-108 0 -159 -82q-52 -84 -52 -260v-995h-272l6 12l37 2q76 4 84 17q2 8 2 12v746l-150 2l29 71h119l4 51q18 207 118 327q99 118 251 118q144 0 231 -70q86 -69 86 -186q0 -193 -254 -262z" />
    <glyph glyph-name="agrave" unicode="&#xe0;" horiz-adv-x="813" 
d="M651 -20q-54 0 -89 38t-40 105v2q-150 -143 -262 -143q-89 0 -146 56q-59 57 -59 134q0 106 105 182q104 76 377 142l2 90q10 262 -199 262q-55 0 -114 -28q-56 -27 -56 -48q0 -1 26 -36q25 -34 25 -66q0 -33 -24 -57q-23 -23 -64 -23q-39 0 -63 21q-25 22 -25 59
q0 75 135 150t256 75q135 0 195 -65q59 -63 51 -234l-20 -442q-6 -93 67 -93q36 0 92 56l10 -6q-1 -3 -14 -19l-18 -21l-19 -22q-8 -11 -21 -21q-3 -3 -11.5 -9.5t-12.5 -9.5q-15 -12 -26 -16q-8 -3 -28 -9q-13 -4 -30 -4zM340 66q100 0 184 84l13 325q-202 -47 -269 -108
t-67 -150q0 -67 39 -109t100 -42zM481 1006l-377 383h162l223 -383h-8z" />
    <glyph glyph-name="aacute" unicode="&#xe1;" horiz-adv-x="813" 
d="M651 -20q-54 0 -89 38t-40 105v2q-150 -143 -262 -143q-89 0 -146 56q-59 57 -59 134q0 106 105 182q104 76 377 142l2 90q10 262 -199 262q-55 0 -114 -28q-56 -27 -56 -48q0 -1 26 -36q25 -34 25 -66q0 -33 -24 -57q-23 -23 -64 -23q-39 0 -63 21q-25 22 -25 59
q0 75 135 150t256 75q135 0 195 -65q59 -63 51 -234l-20 -442q-6 -93 67 -93q36 0 92 56l10 -6q-1 -3 -14 -19l-18 -21l-19 -22q-8 -11 -21 -21q-3 -3 -11.5 -9.5t-12.5 -9.5q-15 -12 -26 -16q-8 -3 -28 -9q-13 -4 -30 -4zM340 66q100 0 184 84l13 325q-202 -47 -269 -108
t-67 -150q0 -67 39 -109t100 -42zM338 1006l223 383h162l-377 -383h-8z" />
    <glyph glyph-name="acircumflex" unicode="&#xe2;" horiz-adv-x="813" 
d="M651 -20q-54 0 -89 38t-40 105v2q-150 -143 -262 -143q-89 0 -146 56q-59 57 -59 134q0 106 105 182q104 76 377 142l2 90q10 262 -199 262q-55 0 -114 -28q-56 -27 -56 -48q0 -1 26 -36q25 -34 25 -66q0 -33 -24 -57q-23 -23 -64 -23q-39 0 -63 21q-25 22 -25 59
q0 75 135 150t256 75q135 0 195 -65q59 -63 51 -234l-20 -442q-6 -93 67 -93q36 0 92 56l10 -6q-1 -3 -14 -19l-18 -21l-19 -22q-8 -11 -21 -21q-3 -3 -11.5 -9.5t-12.5 -9.5q-15 -12 -26 -16q-8 -3 -28 -9q-13 -4 -30 -4zM340 66q100 0 184 84l13 325q-202 -47 -269 -108
t-67 -150q0 -67 39 -109t100 -42zM117 983l274 383h4l275 -383h-8l-267 229h-4l-266 -229h-8z" />
    <glyph glyph-name="atilde" unicode="&#xe3;" horiz-adv-x="813" 
d="M651 -20q-54 0 -89 38t-40 105v2q-150 -143 -262 -143q-89 0 -146 56q-59 57 -59 134q0 106 105 182q104 76 377 142l2 90q10 262 -199 262q-55 0 -114 -28q-56 -27 -56 -48q0 -1 26 -36q25 -34 25 -66q0 -33 -24 -57q-23 -23 -64 -23q-39 0 -63 21q-25 22 -25 59
q0 75 135 150t256 75q135 0 195 -65q59 -63 51 -234l-20 -442q-6 -93 67 -93q36 0 92 56l10 -6q-1 -3 -14 -19l-18 -21l-19 -22q-8 -11 -21 -21q-3 -3 -11.5 -9.5t-12.5 -9.5q-15 -12 -26 -16q-8 -3 -28 -9q-13 -4 -30 -4zM340 66q100 0 184 84l13 325q-202 -47 -269 -108
t-67 -150q0 -67 39 -109t100 -42zM547 1018q-55 0 -176 61q-122 62 -160 62q-43 0 -66 -21q-22 -21 -28 -86h-11q11 108 42 154q32 47 98 47q54 0 176 -60q124 -61 160 -61q39 0 64 22q24 21 30 83h10q-11 -108 -42 -154q-32 -47 -97 -47z" />
    <glyph glyph-name="adieresis" unicode="&#xe4;" horiz-adv-x="813" 
d="M651 -20q-54 0 -89 38t-40 105v2q-150 -143 -262 -143q-89 0 -146 56q-59 57 -59 134q0 106 105 182q104 76 377 142l2 90q10 262 -199 262q-55 0 -114 -28q-56 -27 -56 -48q0 -1 26 -36q25 -34 25 -66q0 -33 -24 -57q-23 -23 -64 -23q-39 0 -63 21q-25 22 -25 59
q0 75 135 150t256 75q135 0 195 -65q59 -63 51 -234l-20 -442q-6 -93 67 -93q36 0 92 56l10 -6q-1 -3 -14 -19l-18 -21l-19 -22q-8 -11 -21 -21q-3 -3 -11.5 -9.5t-12.5 -9.5q-15 -12 -26 -16q-8 -3 -28 -9q-13 -4 -30 -4zM340 66q100 0 184 84l13 325q-202 -47 -269 -108
t-67 -150q0 -67 39 -109t100 -42zM547 1042q-45 0 -70 31q-24 30 -24 62q0 34 24 67t70 33q45 0 69 -33q25 -34 25 -67q0 -31 -25 -62t-69 -31zM219 1042q-44 0 -69 31t-25 62q0 33 25 67q24 33 69 33q46 0 70 -33t24 -67q0 -32 -24 -62q-25 -31 -70 -31z" />
    <glyph glyph-name="aring" unicode="&#xe5;" horiz-adv-x="813" 
d="M416 1020q-82 0 -132 53q-51 54 -51 131q0 74 51 130q50 55 132 55t132 -55t50 -130q0 -78 -50 -131t-132 -53zM651 -20q-54 0 -89 38t-40 105v2q-150 -143 -262 -143q-89 0 -146 56q-59 57 -59 134q0 106 105 182q104 76 377 142l2 90q10 262 -199 262q-55 0 -114 -28
q-56 -27 -56 -48q0 -1 26 -36q25 -34 25 -66q0 -33 -24 -57q-23 -23 -64 -23q-39 0 -63 21q-25 22 -25 59q0 75 135 150t256 75q135 0 195 -65q59 -63 51 -234l-20 -442q-6 -93 67 -93q36 0 92 56l10 -6q-1 -3 -14 -19l-18 -21l-19 -22q-8 -11 -21 -21q-3 -3 -11.5 -9.5
t-12.5 -9.5q-15 -12 -26 -16q-8 -3 -28 -9q-13 -4 -30 -4zM416 1038q74 0 118 48q44 49 44 118t-44 118q-44 48 -118 48t-118 -48q-44 -49 -44 -118t44 -118q43 -48 118 -48zM340 66q100 0 184 84l13 325q-202 -47 -269 -108t-67 -150q0 -67 39 -109t100 -42z" />
    <glyph glyph-name="ae" unicode="&#xe6;" horiz-adv-x="1339" 
d="M266 -27q-89 0 -150 58t-61 137q0 106 105 185q106 80 375 143l6 90q6 138 -52 200q-57 62 -149 62q-55 0 -114 -28q-56 -27 -56 -48q0 -1 26 -36q25 -34 25 -66q0 -33 -24 -57q-23 -23 -64 -23q-39 0 -63 21q-25 22 -25 59q0 75 135 150t264 75q172 0 211 -135
q119 135 308 135q148 0 236 -80q87 -79 87 -201q0 -5 -1 -8q-1 -2 -1 -5t-1 -4q-1 -3 -1 -11q-109 0 -209.5 0.5t-166.5 0.5t-116.5 0.5t-74.5 0.5h-25q-6 -46 -6 -111q0 -178 92 -290q92 -111 228 -111q96 0 164 37q70 38 122 127l17 -7q-153 -260 -371 -260
q-115 0 -208 60t-142 155q-106 -111 -177 -163q-70 -52 -143 -52zM694 606l430 6q0 110 -44 187q-43 75 -134 75q-82 0 -153 -77q-72 -78 -99 -191zM344 57q59 0 109 35q46 32 120 117q-43 95 -43 211q0 31 2 53q-199 -50 -266 -113q-65 -61 -65 -149q0 -67 41 -111
q40 -43 102 -43z" />
    <glyph glyph-name="ccedilla" unicode="&#xe7;" horiz-adv-x="825" 
d="M459 -27h-15q-171 0 -288 128t-117 313q0 202 128 342q127 139 327 139q124 0 209 -52t85 -136q0 -40 -28 -69q-28 -30 -64 -30q-37 0 -65 26q-27 26 -27 60q0 40 21 70q20 29 20 33q0 22 -47 52t-100 30q-126 0 -214 -114q-89 -115 -89 -286q0 -180 92 -292
q91 -111 229 -111q96 0 158 37q64 38 119 127l16 -7q-133 -240 -326 -258l-100 -116q118 22 205 -20q86 -42 86 -124q0 -186 -393 -237l-5 8q302 47 302 180q0 111 -158 111q-75 0 -139 -23v15z" />
    <glyph glyph-name="egrave" unicode="&#xe8;" horiz-adv-x="845" 
d="M446 -27q-170 0 -289 128q-118 127 -118 313q0 201 121 341t311 140q149 0 237 -80q87 -79 87 -201l-4 -28l-588 2q-8 -66 -8 -111q0 -178 92 -290q91 -111 229 -111q97 0 162 37q66 38 123 127l14 -7q-150 -260 -369 -260zM207 606l428 4q0 112 -45 189q-44 75 -133 75
q-83 0 -154 -78q-72 -80 -96 -190zM530 1006l-376 383h161l224 -383h-9z" />
    <glyph glyph-name="eacute" unicode="&#xe9;" horiz-adv-x="845" 
d="M446 -27q-170 0 -289 128q-118 127 -118 313q0 201 121 341t311 140q149 0 237 -80q87 -79 87 -201l-4 -28l-588 2q-8 -66 -8 -111q0 -178 92 -290q91 -111 229 -111q97 0 162 37q66 38 123 127l14 -7q-150 -260 -369 -260zM207 606l428 4q0 112 -45 189q-44 75 -133 75
q-83 0 -154 -78q-72 -80 -96 -190zM377 1006l223 383h162l-377 -383h-8z" />
    <glyph glyph-name="ecircumflex" unicode="&#xea;" horiz-adv-x="845" 
d="M446 -27q-170 0 -289 128q-118 127 -118 313q0 201 121 341t311 140q149 0 237 -80q87 -79 87 -201l-4 -28l-588 2q-8 -66 -8 -111q0 -178 92 -290q91 -111 229 -111q97 0 162 37q66 38 123 127l14 -7q-150 -260 -369 -260zM207 606l428 4q0 112 -45 189q-44 75 -133 75
q-83 0 -154 -78q-72 -80 -96 -190zM180 983l275 383h4l274 -383h-8l-266 229h-4l-267 -229h-8z" />
    <glyph glyph-name="edieresis" unicode="&#xeb;" horiz-adv-x="845" 
d="M446 -27q-170 0 -289 128q-118 127 -118 313q0 201 121 341t311 140q149 0 237 -80q87 -79 87 -201l-4 -28l-588 2q-8 -66 -8 -111q0 -178 92 -290q91 -111 229 -111q97 0 162 37q66 38 123 127l14 -7q-150 -260 -369 -260zM207 606l428 4q0 112 -45 189q-44 75 -133 75
q-83 0 -154 -78q-72 -80 -96 -190zM606 1042q-44 0 -69 31t-25 62q0 33 25 67q24 33 69 33q46 0 70 -33t24 -67q0 -32 -24 -62q-25 -31 -70 -31zM279 1042q-45 0 -70 31t-25 62q0 33 25 67q24 33 70 33q45 0 69 -33q25 -34 25 -67q0 -31 -25 -62t-69 -31z" />
    <glyph glyph-name="igrave" unicode="&#xec;" horiz-adv-x="446" 
d="M27 0l6 12l37 2q29 2 41 3q8 1 24 5q13 3 17 9q4 5 4 14v596q0 90 -16 122q-15 30 -68 38l-47 8l2 8l272 72v-848q0 -13 17 -17q24 -6 85 -10l29 -2l6 -12h-409zM299 1006l-377 383h162l223 -383h-8z" />
    <glyph glyph-name="iacute" unicode="&#xed;" horiz-adv-x="446" 
d="M27 0l6 12l37 2q29 2 41 3q8 1 24 5q13 3 17 9q4 5 4 14v596q0 90 -16 122q-15 30 -68 38l-47 8l2 8l272 72v-848q0 -13 17 -17q24 -6 85 -10l29 -2l6 -12h-409zM145 1006l224 383h161l-376 -383h-9z" />
    <glyph glyph-name="icircumflex" unicode="&#xee;" horiz-adv-x="446" 
d="M-12 983l243 383h5l241 -383h-10l-231 227h-5l-235 -227h-8zM27 0l6 12l37 2q29 2 41 3q8 1 24 5q13 3 17 9q4 5 4 14v596q0 90 -16 122q-15 30 -68 38l-47 8l2 8l272 72v-848q0 -13 17 -17q24 -6 85 -10l29 -2l6 -12h-409z" />
    <glyph glyph-name="idieresis" unicode="&#xef;" horiz-adv-x="446" 
d="M27 0l6 12l37 2q29 2 41 3q8 1 24 5q13 3 17 9q4 5 4 14v596q0 90 -16 122q-15 30 -68 38l-47 8l2 8l272 72v-848q0 -13 17 -17q24 -6 85 -10l29 -2l6 -12h-409zM395 1042q-44 0 -69 31t-25 62q0 33 25 67q24 33 69 33q46 0 70 -33t24 -67q0 -32 -24 -62q-25 -31 -70 -31
zM68 1042q-45 0 -70 31t-25 62q0 33 25 67q24 33 70 33q45 0 69 -33q25 -34 25 -67q0 -31 -25 -62t-69 -31z" />
    <glyph glyph-name="eth" unicode="&#xf0;" horiz-adv-x="978" 
d="M410 1139l-66 -21l-135 -45l-68 -20l4 24l238 78q-120 73 -291 100l2 15q197 -18 352 -94l246 81l4 -24l-217 -72q215 -108 334 -295t119 -379q0 -221 -127 -367q-127 -147 -320 -147q-192 0 -319 130t-127 327q0 196 128 330q127 133 318 133q95 0 172 -25
q-96 177 -247 271zM489 -10q124 0 198 113q75 114 75 317q0 209 -76 333t-203 124q-121 0 -198 -116q-76 -115 -76 -304q0 -224 74 -346q73 -121 206 -121z" />
    <glyph glyph-name="ntilde" unicode="&#xf1;" horiz-adv-x="1005" 
d="M27 0l6 12l37 2q29 2 41 3q8 1 24 5q13 3 17 9q4 5 4 14v594q0 92 -16 124q-15 30 -68 38l-47 8l2 8l274 72l-6 -176l6 -4q8 6 16 14q55 49 93 78q40 30 105 60q70 32 132 32q99 0 154 -57q65 -65 65 -199v-594q0 -8 4 -11q6 -4 27 -8q32 -6 72 -10l28 -2l7 -12h-408
l6 12l37 2q84 4 84 31v565q0 181 -180 181q-131 0 -244 -107v-643q0 -13 17 -17q24 -6 85 -10l29 -2l6 -12h-409zM664 1018q-58 0 -179 61q-122 62 -157 62q-44 0 -66 -21q-23 -22 -29 -86h-10q11 108 42 154q32 47 97 47q56 0 177 -60q124 -61 159 -61q40 0 65 22
q24 21 30 83h10q-11 -108 -42 -154q-32 -47 -97 -47z" />
    <glyph glyph-name="ograve" unicode="&#xf2;" horiz-adv-x="993" 
d="M498 -27q-197 0 -328 131t-131 326q0 192 132 329q132 136 327 136q194 0 325 -131t131 -326q0 -196 -132 -330q-133 -135 -324 -135zM500 -10q123 0 202 127q80 128 80 303q0 271 -112 383q-79 76 -176 76q-126 0 -206 -125q-79 -124 -79 -297q0 -282 117 -396
q71 -71 174 -71zM528 1006l-376 383h161l224 -383h-9z" />
    <glyph glyph-name="oacute" unicode="&#xf3;" horiz-adv-x="993" 
d="M498 -27q-197 0 -328 131t-131 326q0 192 132 329q132 136 327 136q194 0 325 -131t131 -326q0 -196 -132 -330q-133 -135 -324 -135zM500 -10q123 0 202 127q80 128 80 303q0 271 -112 383q-79 76 -176 76q-126 0 -206 -125q-79 -124 -79 -297q0 -282 117 -396
q71 -71 174 -71zM446 1006l224 383h161l-376 -383h-9z" />
    <glyph glyph-name="ocircumflex" unicode="&#xf4;" horiz-adv-x="993" 
d="M498 -27q-197 0 -328 131t-131 326q0 192 132 329q132 136 327 136q194 0 325 -131t131 -326q0 -196 -132 -330q-133 -135 -324 -135zM500 -10q123 0 202 127q80 128 80 303q0 271 -112 383q-79 76 -176 76q-126 0 -206 -125q-79 -124 -79 -297q0 -282 117 -396
q71 -71 174 -71zM219 983l275 383h4l274 -383h-8l-266 229h-4l-267 -229h-8z" />
    <glyph glyph-name="otilde" unicode="&#xf5;" horiz-adv-x="993" 
d="M498 -27q-197 0 -328 131t-131 326q0 192 132 329q132 136 327 136q194 0 325 -131t131 -326q0 -196 -132 -330q-133 -135 -324 -135zM500 -10q123 0 202 127q80 128 80 303q0 271 -112 383q-79 76 -176 76q-126 0 -206 -125q-79 -124 -79 -297q0 -282 117 -396
q71 -71 174 -71zM647 1018q-57 0 -178 61q-122 62 -158 62q-43 0 -65 -21q-23 -22 -29 -86h-10q11 108 42 154q32 47 97 47q54 0 176 -60q124 -61 160 -61q39 0 64 22q24 21 30 83h10q-11 -108 -42 -154q-32 -47 -97 -47z" />
    <glyph glyph-name="odieresis" unicode="&#xf6;" horiz-adv-x="993" 
d="M498 -27q-197 0 -328 131t-131 326q0 192 132 329q132 136 327 136q194 0 325 -131t131 -326q0 -196 -132 -330q-133 -135 -324 -135zM500 -10q123 0 202 127q80 128 80 303q0 271 -112 383q-79 76 -176 76q-126 0 -206 -125q-79 -124 -79 -297q0 -282 117 -396
q71 -71 174 -71zM659 1042q-44 0 -69 31t-25 62q0 33 25 67q24 33 69 33q46 0 70 -33q25 -34 25 -67q0 -31 -25 -62t-70 -31zM332 1042q-45 0 -70 31q-24 30 -24 62q0 34 24 67t70 33q45 0 69 -33q25 -34 25 -67q0 -31 -25 -62t-69 -31z" />
    <glyph glyph-name="divide" unicode="&#xf7;" horiz-adv-x="886" 
d="M541 774q0 -38 -29 -69t-70 -31q-39 0 -70 31q-30 30 -30 69q0 37 29 66q28 28 71 28q42 0 70 -28q29 -29 29 -66zM852 473h-817l4 25h809zM541 195q0 -38 -29 -69q-28 -30 -70 -30t-71 30q-29 31 -29 69q0 36 29 65t71 29q40 0 70 -28q29 -27 29 -66z" />
    <glyph glyph-name="oslash" unicode="&#xf8;" horiz-adv-x="993" 
d="M248 43q-96 62 -153 163q-56 100 -56 224q0 192 132 329q132 136 327 136q116 0 215 -51l196 338h23l-203 -348q106 -60 165 -164q60 -105 60 -232q0 -196 -132 -330q-133 -135 -324 -135q-126 0 -234 60l-170 -295h-22zM694 772l-100 -170l-197 -340l-98 -170
q15 -19 27 -31q71 -71 174 -71q123 0 202 127q80 128 80 303q0 236 -88 352zM287 109l395 679l-12 15q-79 76 -176 76q-126 0 -206 -125q-79 -124 -79 -297q0 -225 78 -348z" />
    <glyph glyph-name="ugrave" unicode="&#xf9;" horiz-adv-x="954" 
d="M692 -33l4 187h-2q-80 -70 -94 -81q-37 -29 -107 -64q-72 -36 -141 -36q-99 0 -159 60q-62 62 -62 196v596q0 9 -4 12q-3 2 -27 7q-14 3 -73 8l-29 2l-6 12h282v-610q0 -180 183 -180q126 0 233 98v574q0 61 -19 80t-83 24l-29 2l-6 12h283v-739q0 -35 10 -48t41 -18
l80 -12l-2 -10zM578 1006l-377 383h161l224 -383h-8z" />
    <glyph glyph-name="uacute" unicode="&#xfa;" horiz-adv-x="954" 
d="M692 -33l4 187h-2q-80 -70 -94 -81q-37 -29 -107 -64q-72 -36 -141 -36q-99 0 -159 60q-62 62 -62 196v596q0 9 -4 12q-3 2 -27 7q-14 3 -73 8l-29 2l-6 12h282v-610q0 -180 183 -180q126 0 233 98v574q0 61 -19 80t-83 24l-29 2l-6 12h283v-739q0 -35 10 -48t41 -18
l80 -12l-2 -10zM414 1006l223 383h162l-377 -383h-8z" />
    <glyph glyph-name="ucircumflex" unicode="&#xfb;" horiz-adv-x="954" 
d="M692 -33l4 187h-2q-80 -70 -94 -81q-37 -29 -107 -64q-72 -36 -141 -36q-99 0 -159 60q-62 62 -62 196v596q0 9 -4 12q-3 2 -27 7q-14 3 -73 8l-29 2l-6 12h282v-610q0 -180 183 -180q126 0 233 98v574q0 61 -19 80t-83 24l-29 2l-6 12h283v-739q0 -35 10 -48t41 -18
l80 -12l-2 -10zM201 983l274 383h4l275 -383h-9l-266 229h-4l-266 -229h-8z" />
    <glyph glyph-name="udieresis" unicode="&#xfc;" horiz-adv-x="954" 
d="M692 -33l4 187h-2q-80 -70 -94 -81q-37 -29 -107 -64q-72 -36 -141 -36q-99 0 -159 60q-62 62 -62 196v596q0 9 -4 12q-3 2 -27 7q-14 3 -73 8l-29 2l-6 12h282v-610q0 -180 183 -180q126 0 233 98v574q0 61 -19 80t-83 24l-29 2l-6 12h283v-739q0 -35 10 -48t41 -18
l80 -12l-2 -10zM322 1042q-45 0 -70 31t-25 62q0 33 25 67q24 33 70 33q45 0 69 -33q25 -34 25 -67q0 -31 -25 -62t-69 -31zM649 1042q-44 0 -69 31t-25 62q0 33 25 67q24 33 69 33q46 0 70 -33t24 -67q0 -32 -24 -62q-25 -31 -70 -31z" />
    <glyph glyph-name="yacute" unicode="&#xfd;" horiz-adv-x="917" 
d="M164 -524q-48 0 -83 27q-34 27 -34 67q0 37 27 64q28 28 65 28q89 0 107 -98q51 11 85 66q32 53 77 188l55 168l-2 2l-314 735q-34 83 -52 104q-18 22 -64 23l-39 2l-6 12h415l-4 -12l-35 -2q-56 -1 -68 -26q-11 -23 13 -81l232 -555l159 435q49 143 36 180t-118 47
l-28 2l-6 12h346l-6 -12l-27 -2q-67 -4 -93 -42q-27 -39 -89 -210l-228 -606l-67 -211q-51 -162 -108 -233q-58 -72 -146 -72zM401 954l211 365h154l-356 -365h-9z" />
    <glyph glyph-name="thorn" unicode="&#xfe;" horiz-adv-x="962" 
d="M-35 -518l6 12l37 2q29 2 41 3q18 2 25 4q10 3 16 10q4 5 4 14v1651q0 62 -16 84t-68 30l-47 8l2 11l271 67v-671l4 -5q158 181 321 181q153 0 258 -119q105 -118 105 -305q0 -217 -139 -351q-140 -135 -310 -135q-118 0 -235 54h-4v-506q0 -24 104 -25l70 -2l6 -12h-451
zM496 -2q124 0 195 115t71 293q0 166 -79 276q-79 111 -210 111q-125 0 -237 -121v-494q37 -76 109 -128q71 -52 151 -52z" />
    <glyph glyph-name="ydieresis" unicode="&#xff;" horiz-adv-x="917" 
d="M164 -524q-48 0 -83 27q-34 27 -34 67q0 37 27 64q28 28 65 28q89 0 107 -98q51 11 85 66q32 53 77 188l55 168l-2 2l-314 735q-34 83 -52 104q-18 22 -64 23l-39 2l-6 12h415l-4 -12l-35 -2q-56 -1 -68 -26q-11 -23 13 -81l232 -555l159 435q49 143 36 180t-118 47
l-28 2l-6 12h346l-6 -12l-27 -2q-67 -4 -93 -42q-27 -39 -89 -210l-228 -606l-67 -211q-51 -162 -108 -233q-58 -72 -146 -72zM641 1042q-45 0 -70 31q-24 30 -24 62q0 34 24 67t70 33t70 -33t24 -67q0 -32 -24 -62q-25 -31 -70 -31zM313 1042q-44 0 -69 31t-25 62
q0 33 25 67q24 33 69 33q46 0 70 -33q25 -34 25 -67q0 -31 -25 -62t-70 -31z" />
    <glyph glyph-name="Amacron" unicode="&#x100;" horiz-adv-x="1280" 
d="M758 561h-381l-98 -276q-62 -170 -46 -212q17 -45 154 -57l43 -4l6 -12h-444l6 12l33 4q66 7 102 37q35 29 70 103t108 276l254 707l-20 57q66 23 104 107h19l372 -1088q44 -126 72 -160t98 -39l58 -4l6 -12h-537l6 12l66 4q128 6 84 140zM385 582h365l-43 131
q-39 117 -89 262l-43 131h-2zM356 1483l15 51h516l-15 -51h-516z" />
    <glyph glyph-name="amacron" unicode="&#x101;" horiz-adv-x="813" 
d="M651 -20q-54 0 -89 38t-40 105v2q-150 -143 -262 -143q-89 0 -146 56q-59 57 -59 134q0 106 105 182q104 76 377 142l2 90q10 262 -199 262q-55 0 -114 -28q-56 -27 -56 -48q0 -1 26 -36q25 -34 25 -66q0 -33 -24 -57q-23 -23 -64 -23q-39 0 -63 21q-25 22 -25 59
q0 75 135 150t256 75q135 0 195 -65q59 -63 51 -234l-20 -442q-6 -93 67 -93q36 0 92 56l10 -6q-1 -3 -14 -19l-18 -21l-19 -22q-8 -11 -21 -21q-3 -3 -11.5 -9.5t-12.5 -9.5q-15 -12 -26 -16q-8 -3 -28 -9q-13 -4 -30 -4zM340 66q100 0 184 84l13 325q-202 -47 -269 -108
t-67 -150q0 -67 39 -109t100 -42zM141 1067l15 51h516l-15 -51h-516z" />
    <glyph glyph-name="Abreve" unicode="&#x102;" horiz-adv-x="1280" 
d="M758 561h-381l-98 -276q-62 -170 -46 -212q17 -45 154 -57l43 -4l6 -12h-444l6 12l33 4q66 7 102 37q35 29 70 103t108 276l254 707l-20 57q66 23 104 107h19l372 -1088q44 -126 72 -160t98 -39l58 -4l6 -12h-537l6 12l66 4q128 6 84 140zM385 582h365l-43 131
q-39 117 -89 262l-43 131h-2zM616 1411q-48 0 -85 21q-39 22 -62 49t-45 79q-19 44 -31 88q-4 14 -12.5 49.5t-11.5 47.5h10q92 -236 242 -236q152 0 241 236h10q-3 -12 -11.5 -47.5t-12.5 -49.5q-10 -37 -32 -88q-21 -49 -46 -79q-24 -28 -64 -49t-90 -21z" />
    <glyph glyph-name="abreve" unicode="&#x103;" horiz-adv-x="813" 
d="M651 -20q-54 0 -89 38t-40 105v2q-150 -143 -262 -143q-89 0 -146 56q-59 57 -59 134q0 106 105 182q104 76 377 142l2 90q10 262 -199 262q-55 0 -114 -28q-56 -27 -56 -48q0 -1 26 -36q25 -34 25 -66q0 -33 -24 -57q-23 -23 -64 -23q-39 0 -63 21q-25 22 -25 59
q0 75 135 150t256 75q135 0 195 -65q59 -63 51 -234l-20 -442q-6 -93 67 -93q36 0 92 56l10 -6q-1 -3 -14 -19l-18 -21l-19 -22q-8 -11 -21 -21q-3 -3 -11.5 -9.5t-12.5 -9.5q-15 -12 -26 -16q-8 -3 -28 -9q-13 -4 -30 -4zM340 66q100 0 184 84l13 325q-202 -47 -269 -108
t-67 -150q0 -67 39 -109t100 -42zM391 995q-47 0 -85 21q-39 22 -62 49t-45 79q-19 44 -31 88q-7 25 -25 97h11q91 -235 241 -235q154 0 242 235h10q-3 -12 -11.5 -47.5t-12.5 -49.5q-10 -37 -32 -88q-21 -49 -46 -79q-23 -27 -65 -49q-40 -21 -89 -21z" />
    <glyph glyph-name="Aogonek" unicode="&#x104;" horiz-adv-x="1280" 
d="M1085 -473q-70 0 -116 46q-47 47 -47 120q0 95 97 186q100 93 191 121h-473l6 12l66 4q128 6 84 140l-135 405h-381l-25 -69l-49 -140l-24 -67q-62 -170 -46 -212q17 -45 154 -57l43 -4l6 -12h-444l6 12l33 4q66 7 102 37q35 29 70 103t108 276l254 707l-20 57
q64 26 104 107h19l372 -1088q44 -126 72 -160t98 -39l58 -4l6 -12q-128 -33 -190 -98t-62 -174q0 -62 34 -96q33 -33 93 -33q30 0 51 10q22 11 34 22q9 9 30 37l8 -6q-24 -50 -74 -93q-50 -42 -113 -42zM385 582h367l-174 524h-5z" />
    <glyph glyph-name="aogonek" unicode="&#x105;" horiz-adv-x="813" 
d="M616 -463q-68 0 -115 47q-46 46 -46 121q0 154 200 275h-4q-54 0 -89 38t-40 105v2q-150 -143 -262 -143q-89 0 -146 56q-59 57 -59 134q0 106 105 182q104 76 377 142l2 92q10 262 -199 262q-56 0 -114 -29q-56 -28 -56 -49q0 -1 26 -36q25 -34 25 -64q0 -34 -24 -58
t-64 -24t-63 22q-25 23 -25 60q0 73 135 148t256 75q135 0 195 -65q59 -63 51 -232l-20 -444q-6 -93 67 -93q36 0 92 56l10 -6q-52 -76 -116 -117q-160 -92 -160 -252q0 -64 33 -98q33 -35 92 -35q30 0 51 10t34 23q12 12 30 36l8 -6q-24 -50 -74 -93q-50 -42 -113 -42z
M340 66q96 0 184 84l13 325q-202 -47 -269 -108t-67 -150q0 -67 39 -109t100 -42z" />
    <glyph glyph-name="Cacute" unicode="&#x106;" horiz-adv-x="1374" 
d="M651 1421l223 383h162l-377 -383h-8zM766 -31q-313 0 -512 184t-199 482q0 296 201 487q202 191 522 191q184 0 350 -90l111 53l16 -377h-12l-170 311q-100 80 -297 80q-250 0 -395 -181t-145 -458q0 -293 150 -476t386 -183q169 0 272 73t193 230l51 86h12l-73 -311
l-70 -15q-62 -31 -177 -59q-111 -27 -214 -27z" />
    <glyph glyph-name="cacute" unicode="&#x107;" horiz-adv-x="825" 
d="M367 1006l223 383h162l-377 -383h-8zM444 -27q-171 0 -288 128t-117 313q0 202 128 342q127 139 327 139q124 0 209 -52t85 -136q0 -40 -28 -69q-28 -30 -64 -30q-37 0 -65 26q-27 26 -27 60q0 40 21 70q20 29 20 33q0 22 -47 52t-100 30q-126 0 -214 -114
q-89 -115 -89 -286q0 -180 92 -292q91 -111 229 -111q96 0 158 37q64 38 119 127l16 -7q-147 -260 -365 -260z" />
    <glyph glyph-name="Ccircumflex" unicode="&#x108;" horiz-adv-x="1374" 
d="M473 1399l275 383h4l274 -383h-8l-266 229h-4l-267 -229h-8zM766 -31q-313 0 -512 184t-199 482q0 296 201 487q202 191 522 191q184 0 350 -90l111 53l16 -377h-12l-170 311q-100 80 -297 80q-250 0 -395 -181t-145 -458q0 -293 150 -476t386 -183q169 0 272 73t193 230
l51 86h12l-73 -311l-70 -15q-62 -31 -177 -59q-111 -27 -214 -27z" />
    <glyph glyph-name="ccircumflex" unicode="&#x109;" horiz-adv-x="825" 
d="M184 983l275 383h4l274 -383h-8l-266 229h-4l-266 -229h-9zM444 -27q-171 0 -288 128t-117 313q0 202 128 342q127 139 327 139q124 0 209 -52t85 -136q0 -40 -28 -69q-28 -30 -64 -30q-37 0 -65 26q-27 26 -27 60q0 40 21 70q20 29 20 33q0 22 -47 52t-100 30
q-126 0 -214 -114q-89 -115 -89 -286q0 -180 92 -292q91 -111 229 -111q96 0 158 37q64 38 119 127l16 -7q-147 -260 -365 -260z" />
    <glyph glyph-name="Cdotaccent" unicode="&#x10a;" horiz-adv-x="1374" 
d="M766 -31q-313 0 -512 184t-199 482q0 296 201 487q202 191 522 191q184 0 350 -90l111 53l16 -377h-12l-170 311q-100 80 -297 80q-250 0 -395 -181t-145 -458q0 -293 150 -476t386 -183q169 0 272 73t193 230l51 86h12l-73 -311l-70 -15q-62 -31 -177 -59
q-111 -27 -214 -27zM754 1491q-45 0 -70 31t-25 61q0 34 25 67q24 31 70 31q45 0 69 -31q25 -33 25 -67q0 -30 -25 -61t-69 -31z" />
    <glyph glyph-name="cdotaccent" unicode="&#x10b;" horiz-adv-x="825" 
d="M444 -27q-171 0 -288 128t-117 313q0 202 128 342q127 139 327 139q124 0 209 -52t85 -136q0 -40 -28 -69q-28 -30 -64 -30q-37 0 -65 26q-27 26 -27 60q0 40 21 70q20 29 20 33q0 22 -47 52t-100 30q-126 0 -214 -114q-89 -115 -89 -286q0 -180 92 -292
q91 -111 229 -111q96 0 158 37q64 38 119 127l16 -7q-147 -260 -365 -260zM461 1075q-45 0 -70 31q-24 30 -24 61q0 35 24 67t70 32q45 0 69 -32q25 -33 25 -67q0 -30 -25 -61t-69 -31z" />
    <glyph glyph-name="Ccaron" unicode="&#x10c;" horiz-adv-x="1374" 
d="M762 1399l-275 383h9l266 -230h4l266 230h8l-274 -383h-4zM766 -31q-313 0 -512 184t-199 482q0 296 201 487q202 191 522 191q184 0 350 -90l111 53l16 -377h-12l-170 311q-100 80 -297 80q-250 0 -395 -181t-145 -458q0 -293 150 -476t386 -183q169 0 272 73t193 230
l51 86h12l-73 -311l-70 -15q-62 -31 -177 -59q-111 -27 -214 -27z" />
    <glyph glyph-name="ccaron" unicode="&#x10d;" horiz-adv-x="825" 
d="M461 983l-275 383h9l266 -229h4l266 229h8l-274 -383h-4zM444 -27q-171 0 -288 128t-117 313q0 202 128 342q127 139 327 139q124 0 209 -52t85 -136q0 -40 -28 -69q-28 -30 -64 -30q-37 0 -65 26q-27 26 -27 60q0 40 21 70q20 29 20 33q0 22 -47 52t-100 30
q-126 0 -214 -114q-89 -115 -89 -286q0 -180 92 -292q91 -111 229 -111q96 0 158 37q64 38 119 127l16 -7q-147 -260 -365 -260z" />
    <glyph glyph-name="Dcaron" unicode="&#x10e;" horiz-adv-x="1333" 
d="M584 1399l-275 383h8l267 -230h4l266 230h8l-274 -383h-4zM49 0l6 12l74 8q98 7 98 33v1180q0 22 -118 29l-52 6l-6 12l504 6q350 2 538 -166q189 -168 189 -452q0 -296 -210 -482t-576 -186h-447zM545 23q181 1 312 89q129 86 190 218q59 128 59 291q0 280 -147 460
q-148 181 -435 181h-133v-1203z" />
    <glyph glyph-name="dcaron" unicode="&#x10f;" horiz-adv-x="1327" 
d="M727 -33l-2 185l-4 2q-154 -181 -320 -181q-153 0 -258 121q-104 120 -104 309q0 219 138 349q139 131 317 131q126 0 229 -54q2 -2 2 0v351q0 61 -15 85q-14 23 -67 29l-68 9l3 10l290 67v-1267q0 -34 11 -48q10 -13 41 -18l79 -12l-2 -10zM489 66q129 0 236 120v488
q-35 80 -107 133q-73 53 -153 53q-123 0 -194 -114q-70 -113 -70 -291q0 -164 80 -277q79 -112 208 -112zM1036 934l-8 10q160 92 160 213q0 52 -32 79q-34 29 -64 33q-37 5 -62 1q-10 37 20 76q29 38 85 38q63 0 105 -46t42 -121q0 -82 -70 -163q-69 -79 -176 -120z" />
    <glyph glyph-name="Dcroat" unicode="&#x110;" horiz-adv-x="1363" 
d="M227 631h-176l6 24h170v578q0 19 -118 29l-66 6l-6 12l518 6q350 2 538 -166q189 -168 189 -452q0 -296 -210 -482t-576 -186h-461l6 12l88 8q98 7 98 33v578zM391 655h316l6 -24h-322v-572l154 -36q181 1 312 89q129 86 190 218q59 128 59 291q0 280 -147 460
q-148 181 -435 181h-133v-607z" />
    <glyph glyph-name="dcroat" unicode="&#x111;" horiz-adv-x="987" 
d="M465 1067l14 51h246v62q0 61 -15 85q-14 23 -67 29l-68 9l3 10l290 67v-262h127l-14 -51h-113v-954q0 -34 11 -48q10 -13 41 -18l79 -12l-2 -10l-270 -58l-2 185l-4 2q-154 -181 -320 -181q-153 0 -258 121q-104 120 -104 309q0 219 138 349q139 131 317 131
q126 0 229 -54q2 -2 2 0v238h-260zM489 66q129 0 236 120v488q-35 80 -107 133q-73 53 -153 53q-123 0 -194 -114q-70 -113 -70 -291q0 -164 80 -277q79 -112 208 -112z" />
    <glyph glyph-name="Emacron" unicode="&#x112;" horiz-adv-x="1181" 
d="M45 0l6 12l74 8q102 8 102 33v1180q0 22 -118 29l-56 6l-6 12h946l39 -365h-10l-12 29q-63 176 -134 247t-221 71h-264v-582h166q137 6 188 37q50 30 80 129l11 28l12 -2l-41 -413l-12 2l-2 26q-8 107 -52 135q-44 27 -198 33l-152 4v-630l297 -9q84 1 154 27
q63 23 111 77q47 53 75 103q33 60 64 133l12 29l12 -2l-84 -387h-987zM305 1483l14 51h517l-15 -51h-516z" />
    <glyph glyph-name="emacron" unicode="&#x113;" horiz-adv-x="845" 
d="M446 -27q-170 0 -289 128q-118 127 -118 313q0 201 121 341t311 140q149 0 237 -80q87 -79 87 -201l-4 -28l-588 2q-8 -66 -8 -111q0 -178 92 -290q91 -111 229 -111q97 0 162 37q66 38 123 127l14 -7q-150 -260 -369 -260zM207 606l428 4q0 112 -45 189q-44 75 -133 75
q-83 0 -154 -78q-72 -80 -96 -190zM203 1067l14 51h516l-14 -51h-516z" />
    <glyph glyph-name="Ebreve" unicode="&#x114;" horiz-adv-x="1181" 
d="M45 0l6 12l74 8q102 8 102 33v1180q0 22 -118 29l-56 6l-6 12h946l39 -365h-10l-12 29q-63 176 -134 247t-221 71h-264v-582h166q137 6 188 37q50 30 80 129l11 28l12 -2l-41 -413l-12 2l-2 26q-8 107 -52 135q-44 27 -198 33l-152 4v-630l297 -9q84 1 154 27
q63 23 111 77q47 53 75 103q33 60 64 133l12 29l12 -2l-84 -387h-987zM586 1411q-48 0 -85 21q-41 23 -63 49q-23 27 -45 79q-19 44 -31 88q-4 14 -12.5 49.5t-11.5 47.5h10q92 -236 242 -236q152 0 241 236h11q-18 -72 -25 -97q-10 -37 -32 -88q-21 -49 -46 -79
q-24 -28 -64 -49q-41 -21 -89 -21z" />
    <glyph glyph-name="ebreve" unicode="&#x115;" horiz-adv-x="845" 
d="M446 -27q-170 0 -289 128q-118 127 -118 313q0 201 121 341t311 140q149 0 237 -80q87 -79 87 -201l-4 -28l-588 2q-8 -66 -8 -111q0 -178 92 -290q91 -111 229 -111q97 0 162 37q66 38 123 127l14 -7q-150 -260 -369 -260zM207 606l428 4q0 112 -45 189q-44 75 -133 75
q-83 0 -154 -78q-72 -80 -96 -190zM465 995q-47 0 -85 21q-41 23 -63 49q-23 27 -45 79q-16 37 -30 88q-7 25 -25 97h10q91 -235 242 -235q154 0 242 235h10q-18 -72 -25 -97q-12 -44 -31 -88q-20 -47 -47 -79q-24 -28 -64 -49t-89 -21z" />
    <glyph glyph-name="Edotaccent" unicode="&#x116;" horiz-adv-x="1181" 
d="M45 0l6 12l74 8q102 8 102 33v1180q0 22 -118 29l-56 6l-6 12h946l39 -365h-10l-12 29q-63 176 -134 247t-221 71h-264v-582h166q137 6 188 37q50 30 80 129l11 28l12 -2l-41 -413l-12 2l-2 26q-8 107 -52 135q-44 27 -198 33l-152 4v-630l297 -9q84 1 154 27
q63 23 111 77q47 53 75 103q33 60 64 133l12 29l12 -2l-84 -387h-987zM584 1491q-45 0 -70 31t-25 61q0 34 25 67q24 31 70 31q45 0 69 -31q25 -33 25 -67q0 -30 -25 -61t-69 -31z" />
    <glyph glyph-name="edotaccent" unicode="&#x117;" horiz-adv-x="845" 
d="M446 -27q-170 0 -289 128q-118 127 -118 313q0 201 121 341t311 140q149 0 237 -80q87 -79 87 -201l-4 -28l-588 2q-8 -66 -8 -111q0 -178 92 -290q91 -111 229 -111q97 0 162 37q66 38 123 127l14 -7q-150 -260 -369 -260zM207 606l428 4q0 112 -45 189q-44 75 -133 75
q-83 0 -154 -78q-72 -80 -96 -190zM465 1075q-45 0 -70 31q-24 30 -24 61q0 35 24 67t70 32t70 -32t24 -67q0 -31 -24 -61q-25 -31 -70 -31z" />
    <glyph glyph-name="Eogonek" unicode="&#x118;" horiz-adv-x="1181" 
d="M848 -463q-71 0 -118 47q-46 46 -46 121q0 161 236 295h-875l6 12l74 8q102 8 102 33v1182q0 20 -118 27l-56 6l-6 12h946l39 -362h-10l-12 26q-63 175 -134 248q-70 72 -221 72h-264v-584l166 2q138 6 188 36q50 31 80 128l11 28l12 -2l-41 -411l-12 2l-2 24
q-8 109 -52 137q-44 27 -198 33l-152 5v-633l297 -9q84 1 154 27q63 23 111 77q47 53 75 103q33 60 64 133l12 29l12 -2l-84 -387h-82q-166 -105 -166 -258q0 -62 34 -97q34 -36 91 -36q66 0 117 69l8 -6q-69 -135 -186 -135z" />
    <glyph glyph-name="eogonek" unicode="&#x119;" horiz-adv-x="845" 
d="M479 -463q-71 0 -118 47q-46 46 -46 121q0 148 203 277q-32 -9 -72 -9q-170 0 -289 129q-118 128 -118 314q0 201 121 340t311 139q149 0 237 -80q87 -79 87 -199q0 -5 -1 -8q-1 -2 -1.5 -5t-0.5 -5q-1 -4 -1 -12l-588 2q-8 -66 -8 -111q0 -178 92 -290q91 -111 229 -111
q97 0 162 37q66 38 123 127l14 -7q-94 -166 -221 -229q-86 -44 -132 -115t-46 -147q0 -62 34 -97q34 -36 91 -36q65 0 116 69l9 -6q-69 -135 -187 -135zM207 608l428 2q0 112 -45 189q-44 75 -133 75q-83 0 -154 -77q-72 -78 -96 -189z" />
    <glyph glyph-name="Ecaron" unicode="&#x11a;" horiz-adv-x="1181" 
d="M586 1399l-275 383h8l267 -230h4l266 230h8l-274 -383h-4zM45 0l6 12l74 8q102 8 102 33v1180q0 22 -118 29l-56 6l-6 12h946l39 -365h-10l-12 29q-63 176 -134 247t-221 71h-264v-582h166q137 6 188 37q50 30 80 129l11 28l12 -2l-41 -413l-12 2l-2 26q-8 107 -52 135
q-44 27 -198 33l-152 4v-630l297 -9q84 1 154 27q63 23 111 77q47 53 75 103q33 60 64 133l12 29l12 -2l-84 -387h-987z" />
    <glyph glyph-name="ecaron" unicode="&#x11b;" horiz-adv-x="845" 
d="M465 983l-275 383h9l266 -229h4l266 229h8l-274 -383h-4zM446 -27q-170 0 -289 128q-118 127 -118 313q0 201 121 341t311 140q149 0 237 -80q87 -79 87 -201l-4 -28l-588 2q-8 -66 -8 -111q0 -178 92 -290q91 -111 229 -111q97 0 162 37q66 38 123 127l14 -7
q-150 -260 -369 -260zM207 606l428 4q0 112 -45 189q-44 75 -133 75q-83 0 -154 -78q-72 -80 -96 -190z" />
    <glyph glyph-name="Gcircumflex" unicode="&#x11c;" horiz-adv-x="1404" 
d="M479 1399l275 383h4l274 -383h-8l-266 229h-4l-267 -229h-8zM758 -29q-309 0 -506 182t-197 476q0 297 201 490q202 194 522 194q189 0 346 -86l105 49l8 -373h-12l-156 307q-100 80 -297 80q-246 0 -391 -184t-145 -461q0 -290 155 -470q156 -181 387 -181q186 0 277 72
v444q0 21 -125 29l-80 6l-6 12h547l-7 -12l-73 -8q-99 -7 -99 -33v-412l115 12l2 -8q-336 -125 -571 -125z" />
    <glyph glyph-name="gcircumflex" unicode="&#x11d;" horiz-adv-x="909" 
d="M156 983l274 383h4l275 -383h-9l-266 229h-4l-266 -229h-8zM348 -508q-155 0 -243 58q-89 59 -89 163q0 80 77 149q76 68 171 103v4q-104 10 -166 48q-61 37 -61 98q0 75 74 134q73 58 161 73v4q-78 27 -133 97t-55 161q0 131 98 219t240 88q123 0 223 -76l240 45
l-17 -88l-192 19l-2 -7q86 -78 86 -184q0 -129 -100 -215t-246 -86q-48 0 -115 14q-59 -10 -97 -42t-38 -74q0 -49 41 -69q39 -19 131 -19q24 0 107 3t122 3q142 0 222 -60q79 -60 79 -166q0 -169 -145 -283t-373 -114zM420 315q80 0 138 73q56 71 56 190q0 138 -48 217
q-48 80 -146 80q-81 0 -133 -76q-54 -79 -54 -195q0 -129 52 -210q51 -79 135 -79zM442 -471q137 0 237 77q99 76 99 185q0 175 -262 182q-110 4 -227 -12q-60 -23 -110 -83q-50 -61 -50 -128q0 -96 88 -159q87 -62 225 -62z" />
    <glyph glyph-name="Gbreve" unicode="&#x11e;" horiz-adv-x="1404" 
d="M758 -29q-309 0 -506 182t-197 476q0 297 201 490q202 194 522 194q189 0 346 -86l105 49l8 -373h-12l-156 307q-100 80 -297 80q-246 0 -391 -184t-145 -461q0 -290 155 -470q156 -181 387 -181q186 0 277 72v444q0 21 -125 29l-80 6l-6 12h547l-7 -12l-73 -8
q-99 -7 -99 -33v-412l115 12l2 -8q-336 -125 -571 -125zM745 1411q-47 0 -85 21q-39 22 -62 49t-45 79q-19 44 -31 88q-4 14 -12.5 49.5t-11.5 47.5h10q92 -236 242 -236q152 0 241 236h10q-3 -12 -11.5 -47.5t-12.5 -49.5q-10 -37 -32 -88q-21 -49 -46 -79q-24 -28 -64 -49
q-41 -21 -90 -21z" />
    <glyph glyph-name="gbreve" unicode="&#x11f;" horiz-adv-x="909" 
d="M348 -508q-155 0 -243 58q-89 59 -89 163q0 80 77 149q76 68 171 103v4q-104 10 -166 48q-61 37 -61 98q0 75 74 134q73 58 161 73v4q-78 27 -133 97t-55 161q0 131 98 219t240 88q123 0 223 -76l240 45l-17 -88l-192 19l-2 -7q86 -78 86 -184q0 -129 -100 -215t-246 -86
q-48 0 -115 14q-59 -10 -97 -42t-38 -74q0 -49 41 -69q39 -19 131 -19q24 0 107 3t122 3q142 0 222 -60q79 -60 79 -166q0 -169 -145 -283t-373 -114zM420 315q80 0 138 73q56 71 56 190q0 138 -48 217q-48 80 -146 80q-81 0 -133 -76q-54 -79 -54 -195q0 -129 52 -210
q51 -79 135 -79zM442 -471q137 0 237 77q99 76 99 185q0 175 -262 182q-110 4 -227 -12q-60 -23 -110 -83q-50 -61 -50 -128q0 -96 88 -159q87 -62 225 -62zM422 995q-48 0 -85 21q-41 23 -63 49q-23 27 -45 79q-16 37 -30 88q-7 25 -25 97h10q91 -235 242 -235
q154 0 242 235h10q-18 -72 -25 -97q-12 -44 -31 -88q-20 -47 -47 -79q-24 -28 -64 -49q-41 -21 -89 -21z" />
    <glyph glyph-name="Gdotaccent" unicode="&#x120;" horiz-adv-x="1404" 
d="M758 -29q-309 0 -506 182t-197 476q0 297 201 490q202 194 522 194q189 0 346 -86l105 49l8 -373h-12l-156 307q-100 80 -297 80q-246 0 -391 -184t-145 -461q0 -290 155 -470q156 -181 387 -181q186 0 277 72v444q0 21 -125 29l-80 6l-6 12h547l-7 -12l-73 -8
q-99 -7 -99 -33v-412l115 12l2 -8q-336 -125 -571 -125zM750 1491q-45 0 -70 31t-25 61q0 34 25 67q24 31 70 31q45 0 69 -31q25 -33 25 -67q0 -30 -25 -61t-69 -31z" />
    <glyph glyph-name="gdotaccent" unicode="&#x121;" horiz-adv-x="909" 
d="M348 -508q-155 0 -243 58q-89 59 -89 163q0 80 77 149q76 68 171 103v4q-104 10 -166 48q-61 37 -61 98q0 75 74 134q73 58 161 73v4q-78 27 -133 97t-55 161q0 131 98 219t240 88q123 0 223 -76l240 45l-17 -88l-192 19l-2 -7q86 -78 86 -184q0 -129 -100 -215t-246 -86
q-48 0 -115 14q-59 -10 -97 -42t-38 -74q0 -49 41 -69q39 -19 131 -19q24 0 107 3t122 3q142 0 222 -60q79 -60 79 -166q0 -169 -145 -283t-373 -114zM420 315q80 0 138 73q56 71 56 190q0 138 -48 217q-48 80 -146 80q-81 0 -133 -76q-54 -79 -54 -195q0 -129 52 -210
q51 -79 135 -79zM442 -471q137 0 237 77q99 76 99 185q0 175 -262 182q-110 4 -227 -12q-60 -23 -110 -83q-50 -61 -50 -128q0 -96 88 -159q87 -62 225 -62zM434 1075q-44 0 -69 31t-25 61q0 34 25 67q24 32 69 32q46 0 70 -32t24 -67q0 -31 -24 -61q-25 -31 -70 -31z" />
    <glyph glyph-name="Gcommaaccent" unicode="&#x122;" horiz-adv-x="1404" 
d="M635 -557l-6 8q60 22 107 75q46 52 46 122q0 65 -48 92t-99 -6q-22 43 5 88t93 45q64 0 106 -42t42 -112q0 -81 -74 -163q-72 -80 -172 -107zM758 -29q-309 0 -506 182t-197 476q0 297 201 490q202 194 522 194q189 0 346 -86l105 49l8 -373h-12l-156 307
q-100 80 -297 80q-246 0 -391 -184t-145 -461q0 -290 155 -470q156 -181 387 -181q186 0 277 72v444q0 21 -125 29l-80 6l-6 12h547l-7 -12l-73 -8q-99 -7 -99 -33v-412l115 12l2 -8q-336 -125 -571 -125z" />
    <glyph glyph-name="gcommaaccent" unicode="&#x123;" horiz-adv-x="909" 
d="M545 1421l6 -8q-61 -23 -108 -75q-46 -52 -46 -121q0 -66 48 -93q49 -27 100 6q22 -43 -5 -88t-94 -45q-63 0 -105 42t-42 112q0 81 74 163q72 80 172 107zM348 -508q-155 0 -243 58q-89 59 -89 163q0 80 77 149q76 68 171 103v4q-104 10 -166 48q-61 37 -61 98
q0 75 74 134q73 58 161 73v4q-78 27 -133 97t-55 161q0 131 98 219t240 88q123 0 223 -76l240 45l-17 -88l-192 19l-2 -7q86 -78 86 -184q0 -129 -100 -215t-246 -86q-48 0 -115 14q-59 -10 -97 -42t-38 -74q0 -49 41 -69q39 -19 131 -19q24 0 107 3t122 3q142 0 222 -60
q79 -60 79 -166q0 -169 -145 -283t-373 -114zM420 315q80 0 138 73q56 71 56 190q0 138 -48 217t-146 79q-82 0 -133 -75q-54 -79 -54 -195q0 -129 52 -210q51 -79 135 -79zM442 -471q137 0 237 77q99 76 99 185q0 175 -262 182q-110 4 -227 -12q-60 -23 -110 -83
q-50 -61 -50 -128q0 -96 88 -159q87 -62 225 -62z" />
    <glyph glyph-name="Hcircumflex" unicode="&#x124;" horiz-adv-x="1472" 
d="M461 1399l274 383h4l275 -383h-8l-267 229h-4l-266 -229h-8zM49 0l6 12l74 8q98 7 98 33v1180q0 22 -118 29l-52 6l-6 12h527l-7 -12l-82 -8q-98 -7 -98 -33v-565h690v571q0 22 -118 29l-60 6l-6 12h526l-6 -12l-74 -8q-98 -7 -98 -33v-1180q0 -21 119 -29l51 -6l6 -12
h-526l6 12l82 8q98 7 98 33v588h-690v-594q0 -21 119 -29l59 -6l6 -12h-526z" />
    <glyph glyph-name="hcircumflex" unicode="&#x125;" horiz-adv-x="985" 
d="M10 0l6 12l35 2q27 2 39 3q10 1 25 5q11 3 16 9q4 5 4 14v1133q0 62 -15 84q-14 21 -67 32l-47 9l2 8l271 67v-665l2 -4q6 6 30 26q7 6 15.5 13t13.5 11.5t8 6.5t8.5 6.5t14 11t15.5 12.5q26 20 44 30q5 3 20 11.5t24 13.5q24 13 50 22t50 14q27 6 55 6q94 0 151 -57
q66 -68 66 -197v-596q0 -7 3 -12t27 -9q37 -7 72 -8l29 -2l6 -12h-410l7 12l36 2q86 5 86 31v565q0 181 -178 181q-132 0 -245 -107v-643q0 -13 18 -17q23 -6 86 -10l29 -2l6 -12h-408zM-78 1399l275 383h4l274 -383h-8l-266 229h-4l-267 -229h-8z" />
    <glyph glyph-name="Hbar" unicode="&#x126;" horiz-adv-x="1472" 
d="M49 926l14 51h164v258q0 20 -118 27l-52 6l-6 12h527l-7 -12l-82 -8q-98 -7 -98 -31v-252h690v258q0 20 -118 27l-60 6l-6 12h526l-6 -12l-74 -8q-98 -7 -98 -31v-252h189l-15 -51h-174v-879q0 -21 119 -29l51 -6l6 -12h-526l6 12l82 8q98 7 98 33v588h-690v-594
q0 -21 119 -29l59 -6l6 -12h-526l6 12l74 8q98 7 98 33v873h-178zM391 662h690v264h-690v-264z" />
    <glyph glyph-name="hbar" unicode="&#x127;" horiz-adv-x="985" 
d="M-4 1067l14 51h125v60q0 62 -15 84q-14 21 -67 32l-47 9l2 8l271 67v-260h247l-14 -51h-233v-354l2 -4q6 6 30 26q7 6 15.5 13t13.5 11.5t8 6.5t8.5 6.5t14 11t15.5 12.5q26 20 44 30q5 3 20 11.5t24 13.5q24 13 50 22t50 14q27 6 55 6q94 0 151 -57q66 -68 66 -197v-596
q0 -7 3 -12t27 -9q37 -7 72 -8l29 -2l6 -12h-410l7 12l36 2q86 5 86 31v565q0 181 -178 181q-132 0 -245 -107v-643q0 -13 18 -17q23 -6 86 -10l29 -2l6 -12h-408l6 12l35 2q27 2 39 3q10 1 25 5q11 3 16 9q4 5 4 14v1022h-139z" />
    <glyph glyph-name="Imacron" unicode="&#x12a;" horiz-adv-x="659" 
d="M61 0l7 12l82 8q98 7 98 33v1180q0 21 -119 29l-59 6l-7 12h535l-6 -12l-82 -8q-98 -7 -98 -33v-1180q0 -22 118 -29l60 -6l6 -12h-535zM63 1483l15 51h516l-14 -51h-517z" />
    <glyph glyph-name="imacron" unicode="&#x12b;" horiz-adv-x="446" 
d="M27 0l6 12l37 2q29 2 41 3q8 1 24 5q13 3 17 9q4 5 4 14v596q0 90 -16 122q-15 30 -68 38l-47 8l2 8l272 72v-848q0 -13 17 -17q24 -6 85 -10l29 -2l6 -12h-409zM-47 1067l14 51h516l-14 -51h-516z" />
    <glyph glyph-name="Ibreve" unicode="&#x12c;" horiz-adv-x="659" 
d="M61 0l7 12l82 8q98 7 98 33v1180q0 21 -119 29l-59 6l-7 12h535l-6 -12l-82 -8q-98 -7 -98 -33v-1180q0 -22 118 -29l60 -6l6 -12h-535zM334 1411q-48 0 -85 21q-41 23 -63 49q-23 27 -45 79q-16 37 -30 88q-7 25 -25 97h10q92 -236 242 -236q153 0 242 236h10
q-18 -72 -25 -97q-12 -44 -31 -88q-20 -47 -47 -79q-24 -28 -64 -49q-41 -21 -89 -21z" />
    <glyph glyph-name="ibreve" unicode="&#x12d;" horiz-adv-x="446" 
d="M27 0l6 12l37 2q29 2 41 3q8 1 24 5q13 3 17 9q4 5 4 14v596q0 90 -16 122q-15 30 -68 38l-47 8l2 8l272 72v-848q0 -13 17 -17q24 -6 85 -10l29 -2l6 -12h-409zM217 995q-47 0 -85 21q-39 22 -62 49t-45 79q-19 44 -31 88q-7 25 -25 97h11q91 -235 241 -235
q154 0 242 235h10q-3 -12 -11.5 -47.5t-12.5 -49.5q-10 -37 -32 -88q-21 -49 -46 -79q-23 -27 -65 -49q-41 -21 -89 -21z" />
    <glyph glyph-name="Iogonek" unicode="&#x12e;" horiz-adv-x="659" 
d="M410 -463q-73 0 -120 43q-48 44 -48 117q0 102 92 186q91 84 209 117h-482l7 12l82 8q98 7 98 33v1182q0 19 -119 27l-59 6l-7 12h535l-6 -12l-82 -8q-98 -7 -98 -31v-1182q0 -22 118 -29l60 -6l6 -12q-254 -78 -254 -266q0 -59 36 -92t95 -33q30 0 51 10t34 23
q12 12 30 36l8 -6q-24 -50 -74 -93q-49 -42 -112 -42z" />
    <glyph glyph-name="iogonek" unicode="&#x12f;" horiz-adv-x="446" 
d="M250 -463q-73 0 -119 43q-47 44 -47 119q0 97 77 179q77 81 185 122h-319l6 12l37 2q29 2 41 3q8 1 24 5q13 3 17 9q4 5 4 14v598q0 91 -16 121t-68 37l-47 8l2 8l272 72v-848q0 -13 17 -17q24 -6 85 -10l29 -2l6 -12q-252 -68 -252 -264q0 -127 129 -127q31 0 52 10
q19 9 33 23q12 12 30 36l8 -6q-24 -50 -74 -93q-49 -42 -112 -42zM209 1075q-49 0 -76 33t-27 68q0 36 27 69t76 33t75 -33q25 -32 25 -69q0 -36 -26 -68q-27 -33 -74 -33z" />
    <glyph glyph-name="Idotaccent" unicode="&#x130;" horiz-adv-x="659" 
d="M61 0l7 12l82 8q98 7 98 33v1180q0 21 -119 29l-59 6l-7 12h535l-6 -12l-82 -8q-98 -7 -98 -33v-1180q0 -22 118 -29l60 -6l6 -12h-535zM332 1489q-45 0 -70 31q-24 30 -24 61q0 35 24 67q24 31 70 31q45 0 69 -31q25 -33 25 -67q0 -30 -25 -61t-69 -31z" />
    <glyph glyph-name="dotlessi" unicode="&#x131;" horiz-adv-x="446" 
d="M27 0l6 12l37 2q29 2 41 3q8 1 24 5q13 3 17 9q4 5 4 14v596q0 90 -16 122q-15 30 -68 38l-47 8l2 8l272 72v-848q0 -13 17 -17q24 -6 85 -10l29 -2l6 -12h-409z" />
    <glyph glyph-name="Jcircumflex" unicode="&#x134;" horiz-adv-x="618" 
d="M35 1399l274 383h4l275 -383h-8l-267 229h-4l-266 -229h-8zM20 -340q-65 0 -110 31q-43 30 -43 82q0 43 30 73q31 31 76 31q77 0 98 -70q21 -69 -36 -118q87 -10 140 85q52 94 52 279v1180q0 23 -118 29l-60 6l-6 12h535l-7 -12l-82 -8q-98 -7 -98 -33v-1207
q0 -76 -124 -218t-247 -142z" />
    <glyph glyph-name="jcircumflex" unicode="&#x135;" horiz-adv-x="417" 
d="M-33 -510q-68 0 -105 29q-36 29 -36 71q0 37 26 60q25 22 62 22q45 0 79 -37q33 -35 48 -100q102 27 102 272v836q0 93 -15 121q-15 29 -69 37l-47 8l2 8l273 72v-946q0 -168 -101 -311q-100 -142 -219 -142zM-68 983l275 383h4l274 -383h-8l-266 229h-4l-266 -229h-9z
" />
    <glyph glyph-name="Kcommaaccent" unicode="&#x136;" horiz-adv-x="1347" 
d="M573 -557l-6 8q61 23 108 75q46 52 46 122q0 65 -48 92q-49 27 -100 -6q-22 42 6 88q27 45 93 45q63 0 105 -42t42 -112q0 -81 -74 -163q-72 -80 -172 -107zM49 0l6 12l78 8q94 7 94 33v1180q0 7 -6 12q-4 3 -31 8q-24 4 -77 9l-56 6l-6 12h537l-6 -12l-93 -8
q-98 -7 -98 -33v-684l336 340q243 246 264 309q16 49 -53 61q-23 4 -68 9l-79 6l-5 12h500l-6 -12l-25 -2q-101 -7 -152 -43q-50 -35 -233 -224q-10 -10 -23.5 -24t-17.5 -18t-17.5 -18t-23.5 -24q-19 -19 -49 -51l-30 -30l399 -660q67 -108 92 -129q28 -23 92 -29l47 -4
l7 -12h-523l6 12l60 4q46 1 63 23q16 20 7 55q-10 39 -41 92l-318 537l-209 -209v-467q0 -21 119 -29l70 -6l6 -12h-537z" />
    <glyph glyph-name="kcommaaccent" unicode="&#x137;" horiz-adv-x="935" 
d="M352 -557l-6 8q62 23 108 75t46 122q0 65 -48 92q-49 27 -100 -6q-22 43 5 88t94 45q63 0 105 -42t42 -112q0 -81 -74 -163q-72 -80 -172 -107zM10 0l6 12l35 2q27 2 39 3q10 1 25 5q11 3 16 9q4 5 4 14v1133q0 64 -15 86t-67 30l-47 9l2 8l271 67v-981l202 199
q146 146 146 197q0 49 -109 57l-26 2l-5 12h387l-6 -12l-43 -4q-19 -1 -45 -10q-18 -6 -38 -18q-15 -9 -44 -35q-8 -8 -16.5 -15.5t-16.5 -15t-12 -10.5q-16 -15 -61 -61q-30 -31 -72 -73l-6 -6l-13 -13q-8 -8 -14 -16l-6 -6l256 -422q51 -84 78 -105q29 -22 88 -28l23 -2
l6 -12h-285l-10 25l-262 440l-96 -92v-332q0 -13 17 -17q24 -6 85 -10l29 -2l6 -12h-406z" />
    <glyph glyph-name="Lacute" unicode="&#x139;" horiz-adv-x="1110" 
d="M240 1421l223 383h162l-377 -383h-8zM49 0l6 12l78 8q94 7 94 33v1180q0 7 -6 12q-4 3 -31 8q-24 4 -77 9l-56 6l-6 12h567l-6 -12l-123 -8q-98 -7 -98 -33v-1198l242 -11q87 0 150 24t109 79q48 57 72 104t66 146l12 26h13l-80 -397h-926z" />
    <glyph glyph-name="lacute" unicode="&#x13a;" horiz-adv-x="436" 
d="M80 1413l223 383h162l-377 -383h-8zM20 0l5 12l34 2q29 2 41 3q10 1 25 5q11 3 16 9q4 5 4 14v1088q0 93 -15 122q-15 28 -69 39l-45 9l2 8l271 67v-1337q0 -13 17 -17q24 -6 85 -10l29 -2l6 -12h-406z" />
    <glyph glyph-name="Lcommaaccent" unicode="&#x13b;" horiz-adv-x="1110" 
d="M463 -557l-6 8q60 22 107 75q46 52 46 122q0 65 -48 92t-99 -6q-22 43 5 88t93 45q64 0 106 -42t42 -112q0 -81 -74 -163q-72 -80 -172 -107zM49 0l6 12l78 8q94 7 94 33v1180q0 7 -6 12q-4 3 -31 8q-24 4 -77 9l-56 6l-6 12h567l-6 -12l-123 -8q-98 -7 -98 -33v-1198
l242 -11q87 0 150 24t109 79q48 57 72 104t66 146l12 26h13l-80 -397h-926z" />
    <glyph glyph-name="lcommaaccent" unicode="&#x13c;" horiz-adv-x="436" 
d="M104 -557l-6 8q62 23 108 75t46 122q0 65 -48 92q-49 27 -100 -6q-22 42 6 88q27 45 93 45q63 0 105 -42t42 -112q0 -81 -74 -163q-72 -80 -172 -107zM20 0l5 12l34 2q29 2 41 3q10 1 25 5q11 3 16 9q4 5 4 14v1088q0 93 -15 122q-15 28 -69 39l-45 9l2 8l271 67v-1337
q0 -13 17 -17q24 -6 85 -10l29 -2l6 -12h-406z" />
    <glyph glyph-name="Lcaron" unicode="&#x13d;" horiz-adv-x="1282" 
d="M1010 854l-9 10q160 95 160 213q0 52 -32 79q-34 29 -64 33q-36 5 -61 1q-11 38 19 76q30 39 85 39q63 0 105 -47t42 -121q0 -83 -69 -163q-69 -79 -176 -120zM49 0l6 12l78 8q94 7 94 33v1180q0 7 -6 12q-4 3 -31 8q-24 4 -77 9l-56 6l-6 12h567l-6 -12l-123 -8
q-98 -7 -98 -33v-1198l242 -11q87 0 150 24t109 79q48 57 72 104t66 146l12 26h13l-80 -397h-926z" />
    <glyph glyph-name="lcaron" unicode="&#x13e;" horiz-adv-x="751" 
d="M459 938l-8 10q159 92 159 213q0 52 -31 79q-33 29 -65 33q-36 5 -61 1q-11 38 19 76q30 39 85 39q64 0 106 -47q42 -46 42 -121q0 -82 -70 -163q-69 -79 -176 -120zM20 0l5 12l34 2q29 2 41 3q10 1 25 5q11 3 16 9q4 5 4 14v1088q0 93 -15 122q-15 28 -69 39l-45 9l2 8
l271 67v-1337q0 -13 17 -17q24 -6 85 -10l29 -2l6 -12h-406z" />
    <glyph glyph-name="Ldot" unicode="&#x13f;" horiz-adv-x="1241" 
d="M49 0l6 12l78 8q94 7 94 33v1180q0 7 -6 12q-4 3 -31 8q-24 4 -77 9l-56 6l-6 12h567l-6 -12l-123 -8q-98 -7 -98 -33v-1198l242 -11q87 0 150 24t109 79q48 57 72 104t66 146l12 26h13l-80 -397h-926zM1235 535q-48 0 -79 31q-32 32 -32 75q0 41 32 73q31 31 79 31
q46 0 76 -31q30 -32 30 -73q0 -43 -30 -75q-30 -31 -76 -31z" />
    <glyph glyph-name="ldotaccent" unicode="&#x140;" horiz-adv-x="735" 
d="M20 0l5 12l34 2q29 2 41 3q10 1 25 5q11 3 16 9q4 5 4 14v1088q0 93 -15 122q-15 28 -69 39l-45 9l2 8l271 67v-1337q0 -13 17 -17q24 -6 85 -10l29 -2l6 -12h-406zM600 494q-48 0 -79 31q-32 32 -32 75q0 41 32 73t79 32q46 0 76 -32q31 -33 31 -73q0 -42 -31 -75
q-30 -31 -76 -31z" />
    <glyph glyph-name="Lslash" unicode="&#x141;" horiz-adv-x="1118" 
d="M227 584l-204 -68v25l204 67v625q0 22 -118 29l-66 6l-6 12h581l-6 -12l-123 -8q-98 -7 -98 -33v-565l207 67l4 -24l-211 -68v-608l242 -11q70 0 127 20q53 19 91 44q36 24 71 77q34 53 54 93q14 28 52 119l12 26h15l-80 -397h-940l6 12l88 8q98 7 98 33v531z" />
    <glyph glyph-name="lslash" unicode="&#x142;" horiz-adv-x="428" 
d="M145 535l-143 -46l4 23l139 45v576q0 94 -15 121t-69 38l-45 8l2 11l271 67v-774l133 45l4 -22l-137 -45v-541q0 -13 17 -17q24 -6 85 -10l29 -2l6 -12h-406l5 12l34 2q29 2 41 3q10 1 25 5q11 3 16 9q4 5 4 14v490z" />
    <glyph glyph-name="Nacute" unicode="&#x143;" horiz-adv-x="1400" 
d="M678 1421l223 383h162l-377 -383h-8zM1176 -10l-912 1157h-2l2 -1063q0 -53 170 -68l39 -4l6 -12h-430l6 12l41 4q146 15 146 72l4 1077q-78 84 -191 101l-26 4l-6 12h344l804 -1026h3l-3 942q0 49 -170 66l-38 4l-7 12h430l-6 -12l-41 -4q-145 -15 -145 -70l-4 -1204
h-14z" />
    <glyph glyph-name="nacute" unicode="&#x144;" horiz-adv-x="1005" 
d="M393 1006l223 383h162l-377 -383h-8zM27 0l6 12l37 2q29 2 41 3q8 1 24 5q13 3 17 9q4 5 4 14v594q0 92 -16 124q-15 30 -68 38l-47 8l2 8l274 72l-6 -176l6 -4q8 6 16 14q55 49 93 78q40 30 105 60q70 32 132 32q99 0 154 -57q65 -65 65 -199v-594q0 -8 4 -11
q6 -4 27 -8q32 -6 72 -10l28 -2l7 -12h-408l6 12l37 2q84 4 84 31v565q0 181 -180 181q-131 0 -244 -107v-643q0 -13 17 -17q24 -6 85 -10l29 -2l6 -12h-409z" />
    <glyph glyph-name="Ncommaaccent" unicode="&#x145;" horiz-adv-x="1400" 
d="M586 -557l-6 8q60 22 107 75q46 52 46 122q0 65 -48 92t-99 -6q-22 43 5 88t93 45q64 0 106 -42q41 -41 41 -112q0 -83 -73 -163q-72 -80 -172 -107zM1176 -10l-912 1157h-2l2 -1063q0 -53 170 -68l39 -4l6 -12h-430l6 12l41 4q146 15 146 72l4 1077q-78 84 -191 101
l-26 4l-6 12h344l804 -1026h3l-3 942q0 49 -170 66l-38 4l-7 12h430l-6 -12l-41 -4q-145 -15 -145 -70l-4 -1204h-14z" />
    <glyph glyph-name="ncommaaccent" unicode="&#x146;" horiz-adv-x="1005" 
d="M27 0l6 12l37 2q29 2 41 3q8 1 24 5q13 3 17 9q4 5 4 14v594q0 92 -16 124q-15 30 -68 38l-47 8l2 8l274 72l-6 -176l6 -4q8 6 16 14q55 49 93 78q40 30 105 60q70 32 132 32q99 0 154 -57q65 -65 65 -199v-594q0 -8 4 -11q6 -4 27 -8q32 -6 72 -10l28 -2l7 -12h-408
l6 12l37 2q84 4 84 31v565q0 181 -180 181q-131 0 -244 -107v-643q0 -13 17 -17q24 -6 85 -10l29 -2l6 -12h-409zM395 -557l-6 8q61 23 108 75q46 52 46 122q0 65 -48 92q-49 27 -100 -6q-22 43 5 88t94 45q63 0 105 -42t42 -112q0 -81 -74 -163q-72 -80 -172 -107z" />
    <glyph glyph-name="Ncaron" unicode="&#x147;" horiz-adv-x="1400" 
d="M743 1399l-274 383h8l266 -230h5l266 230h8l-274 -383h-5zM1176 -10l-912 1157h-2l2 -1063q0 -53 170 -68l39 -4l6 -12h-430l6 12l41 4q146 15 146 72l4 1077q-78 84 -191 101l-26 4l-6 12h344l804 -1026h3l-3 942q0 49 -170 66l-38 4l-7 12h430l-6 -12l-41 -4
q-145 -15 -145 -70l-4 -1204h-14z" />
    <glyph glyph-name="ncaron" unicode="&#x148;" horiz-adv-x="1005" 
d="M479 983l-274 383h8l266 -229h4l267 229h8l-275 -383h-4zM27 0l6 12l37 2q29 2 41 3q8 1 24 5q13 3 17 9q4 5 4 14v594q0 92 -16 124q-15 30 -68 38l-47 8l2 8l274 72l-6 -176l6 -4q8 6 16 14q55 49 93 78q40 30 105 60q70 32 132 32q99 0 154 -57q65 -65 65 -199v-594
q0 -8 4 -11q6 -4 27 -8q32 -6 72 -10l28 -2l7 -12h-408l6 12l37 2q84 4 84 31v565q0 181 -180 181q-131 0 -244 -107v-643q0 -13 17 -17q24 -6 85 -10l29 -2l6 -12h-409z" />
    <glyph glyph-name="Omacron" unicode="&#x14c;" horiz-adv-x="1464" 
d="M500 1483l14 51h516l-14 -51h-516zM729 -29q-291 0 -483 187q-191 186 -191 479q0 264 204 469t474 205q293 0 485 -189q191 -188 191 -483q0 -266 -204 -467t-476 -201zM737 -6q228 0 360 174t132 473q0 283 -142 467q-140 182 -360 182q-224 0 -358 -177
q-133 -176 -133 -478q0 -286 140 -463q141 -178 361 -178z" />
    <glyph glyph-name="omacron" unicode="&#x14d;" horiz-adv-x="993" 
d="M236 1067l14 51h516l-14 -51h-516zM498 -27q-197 0 -328 131t-131 326q0 192 132 329q132 136 327 136q194 0 325 -131t131 -326q0 -196 -132 -330q-133 -135 -324 -135zM500 -10q123 0 202 127q80 128 80 303q0 271 -112 383q-79 76 -176 76q-126 0 -206 -125
q-79 -124 -79 -297q0 -282 117 -396q71 -71 174 -71z" />
    <glyph glyph-name="Obreve" unicode="&#x14e;" horiz-adv-x="1464" 
d="M729 -29q-291 0 -483 187q-191 186 -191 479q0 264 204 469t474 205q293 0 485 -189q191 -188 191 -483q0 -266 -204 -467t-476 -201zM737 -6q228 0 360 174t132 473q0 283 -142 467q-140 182 -360 182q-224 0 -358 -177q-133 -176 -133 -478q0 -286 140 -463
q141 -178 361 -178zM774 1411q-48 0 -85 21q-39 22 -62 49t-45 79q-19 44 -31 88q-7 25 -25 97h11q92 -236 241 -236q153 0 242 236h10q-3 -12 -11.5 -47.5t-12.5 -49.5q-10 -37 -32 -88q-21 -49 -46 -79q-23 -27 -65 -49q-40 -21 -89 -21z" />
    <glyph glyph-name="obreve" unicode="&#x14f;" horiz-adv-x="993" 
d="M498 -27q-197 0 -328 131t-131 326q0 192 132 329q132 136 327 136q194 0 325 -131t131 -326q0 -196 -132 -330q-133 -135 -324 -135zM500 -10q123 0 202 127q80 128 80 303q0 271 -112 383q-79 76 -176 76q-126 0 -206 -125q-79 -124 -79 -297q0 -282 117 -396
q71 -71 174 -71zM496 995q-48 0 -85 21q-41 23 -63 49q-23 27 -45 79q-19 44 -31 88q-4 14 -12.5 49.5t-11.5 47.5h10q91 -235 242 -235q153 0 241 235h11q-18 -72 -25 -97q-10 -37 -32 -88q-21 -49 -46 -79q-24 -28 -64 -49q-41 -21 -89 -21z" />
    <glyph glyph-name="Ohungarumlaut" unicode="&#x150;" horiz-adv-x="1464" 
d="M831 1421l216 383h149l-350 -383h-15zM539 1421l217 383h149l-352 -383h-14zM729 -29q-291 0 -483 187q-191 186 -191 479q0 264 204 469t474 205q293 0 485 -189q191 -188 191 -483q0 -266 -204 -467t-476 -201zM737 -6q228 0 360 174t132 473q0 283 -142 467
q-140 182 -360 182q-224 0 -358 -177q-133 -176 -133 -478q0 -286 140 -463q141 -178 361 -178z" />
    <glyph glyph-name="ohungarumlaut" unicode="&#x151;" horiz-adv-x="993" 
d="M573 1006l215 383h150l-350 -383h-15zM281 1006l217 383h149l-352 -383h-14zM498 -27q-197 0 -328 131t-131 326q0 192 132 329q132 136 327 136q194 0 325 -131t131 -326q0 -196 -132 -330q-133 -135 -324 -135zM500 -10q123 0 202 127q80 128 80 303q0 271 -112 383
q-79 76 -176 76q-126 0 -206 -125q-79 -124 -79 -297q0 -282 117 -396q71 -71 174 -71z" />
    <glyph glyph-name="OE" unicode="&#x152;" horiz-adv-x="1880" 
d="M784 0q-348 -2 -538 166q-191 168 -191 452q0 295 210 478q209 182 579 182l848 2l39 -365h-11l-12 29q-63 173 -138 245q-76 73 -227 73h-233v-582h135q141 6 195 37t84 129l10 28l12 -2l-41 -413l-12 2l-2 26q-8 107 -55 135q-46 27 -205 33l-121 4v-628l266 -11
q86 1 156 28q68 26 115 76q45 48 78 103q32 53 65 133l12 29l13 -2l-84 -387h-947zM815 25l131 2v1200l-151 28q-272 -4 -418 -174t-146 -415q0 -280 148 -461q147 -180 436 -180z" />
    <glyph glyph-name="oe" unicode="&#x153;" horiz-adv-x="1591" 
d="M498 -27q-198 0 -328 130q-131 131 -131 325t132 330q132 137 327 137q120 0 218 -54q96 -53 152 -149q119 203 351 203q146 0 234 -80q87 -79 87 -201q0 -5 -1 -8q-1 -2 -1 -5t-1 -4q-1 -3 -1 -11q-109 0 -209 0.5t-165.5 0.5t-115.5 0.5t-74 0.5h-24q-8 -66 -8 -111
q0 -178 92 -290q92 -111 230 -111q97 0 162 37q68 39 124 127l15 -7q-150 -260 -375 -260q-205 0 -324 199q-61 -94 -154 -145q-97 -54 -212 -54zM952 606l428 6q0 110 -45 187q-44 75 -133 75q-85 0 -154 -78q-73 -82 -96 -190zM500 -10q122 0 202 126q80 127 80 304
q0 268 -110 379q-80 80 -178 80q-129 0 -207 -124q-78 -125 -78 -304q0 -265 117 -388q69 -73 174 -73z" />
    <glyph glyph-name="Racute" unicode="&#x154;" horiz-adv-x="1280" 
d="M453 1421l223 383h162l-377 -383h-8zM20 0l7 12l102 8q33 4 66 15q32 10 32 18v1180q0 22 -118 29l-80 6l-6 12h526q242 0 369 -85q126 -84 126 -243q0 -113 -90 -202t-229 -117l299 -457q63 -95 106 -126q44 -32 117 -36l27 -2l8 -12h-336l-14 27l-377 606
q-66 7 -164 41v-627q0 -18 119 -29l80 -6l6 -12h-576zM575 659q138 0 217 79q78 78 78 218q0 147 -98 229q-99 82 -278 75l-103 -5v-563q105 -33 184 -33z" />
    <glyph glyph-name="racute" unicode="&#x155;" horiz-adv-x="708" 
d="M27 0l6 12l37 2q29 2 41 3q16 2 24 4q12 3 17 10q4 5 4 14v594q0 92 -16 124q-15 30 -68 38l-47 8l2 8l274 72l-6 -340h2q90 344 274 344q51 0 86 -32t35 -73q0 -38 -27 -70t-71 -32q-41 0 -73 32q-33 33 -34 93q-62 -12 -103 -84q-40 -71 -85 -235v-451q0 -9 5 -14
q4 -4 27 -9q19 -4 64 -4l66 -2l6 -12h-440zM270 1006l224 383h161l-376 -383h-9z" />
    <glyph glyph-name="Rcommaaccent" unicode="&#x156;" horiz-adv-x="1280" 
d="M578 -557l-7 8q61 23 108 75q46 52 46 122q0 65 -48 92t-99 -6q-22 43 5 88t93 45q63 0 105 -42t42 -112q0 -83 -73 -163q-72 -80 -172 -107zM20 0l7 12l102 8q33 4 66 15q32 10 32 18v1180q0 22 -118 29l-80 6l-6 12h526q242 0 369 -85q126 -84 126 -243
q0 -113 -90 -202t-229 -117l299 -457q63 -95 106 -126q44 -32 117 -36l27 -2l8 -12h-336l-14 27l-377 606q-66 7 -164 41v-627q0 -18 119 -29l80 -6l6 -12h-576zM575 659q138 0 217 79q78 78 78 218q0 147 -98 229q-99 82 -278 75l-103 -5v-563q105 -33 184 -33z" />
    <glyph glyph-name="rcommaaccent" unicode="&#x157;" horiz-adv-x="708" 
d="M125 -557l-6 8q60 22 107 75q46 52 46 122q0 65 -48 92t-99 -6q-22 43 5 88t93 45q64 0 106 -42t42 -112q0 -81 -74 -163q-72 -80 -172 -107zM27 0l6 12l37 2q29 2 41 3q16 2 24 4q12 3 17 10q4 5 4 14v594q0 92 -16 124q-15 30 -68 38l-47 8l2 8l274 72l-6 -340h2
q90 344 274 344q51 0 86 -32t35 -73q0 -38 -27 -70t-71 -32q-41 0 -73 32q-33 33 -34 93q-62 -12 -103 -84q-40 -71 -85 -235v-451q0 -9 5 -14q4 -4 27 -9q19 -4 64 -4l66 -2l6 -12h-440z" />
    <glyph glyph-name="Rcaron" unicode="&#x158;" horiz-adv-x="1280" 
d="M541 1399l-275 383h8l267 -230h4l266 230h8l-274 -383h-4zM20 0l7 12l102 8q33 4 66 15q32 10 32 18v1180q0 22 -118 29l-80 6l-6 12h526q242 0 369 -85q126 -84 126 -243q0 -113 -90 -202t-229 -117l299 -457q63 -95 106 -126q44 -32 117 -36l27 -2l8 -12h-336l-14 27
l-377 606q-66 7 -164 41v-627q0 -18 119 -29l80 -6l6 -12h-576zM575 659q138 0 217 79q78 78 78 218q0 147 -98 229q-99 82 -278 75l-103 -5v-563q105 -33 184 -33z" />
    <glyph glyph-name="rcaron" unicode="&#x159;" horiz-adv-x="708" 
d="M27 0l6 12l37 2q29 2 41 3q16 2 24 4q12 3 17 10q4 5 4 14v594q0 92 -16 124q-15 30 -68 38l-47 8l2 8l274 72l-6 -340h2q90 344 274 344q51 0 86 -32t35 -73q0 -38 -27 -70t-71 -32q-41 0 -73 32q-33 33 -34 93q-62 -12 -103 -84q-40 -71 -85 -235v-451q0 -9 5 -14
q4 -4 27 -9q19 -4 64 -4l66 -2l6 -12h-440zM362 983l-274 383h8l266 -229h5l266 229h8l-274 -383h-5z" />
    <glyph glyph-name="Sacute" unicode="&#x15a;" horiz-adv-x="991" 
d="M424 1409l223 383h162l-377 -383h-8zM479 -29q-181 0 -383 72l-20 291h12l43 -101q102 -241 350 -241q139 0 224 84q86 84 86 215q0 120 -79 195q-80 75 -241 126q-157 51 -248 131q-90 79 -90 218q0 143 107 245q108 103 278 103q122 0 252 -47l82 24l18 -313h-12
l-135 246q-90 71 -207 71q-114 0 -186 -68q-74 -69 -74 -173q0 -108 75 -170q76 -62 222 -113q174 -60 276 -151q99 -88 99 -242q0 -159 -129 -281q-128 -121 -320 -121z" />
    <glyph glyph-name="sacute" unicode="&#x15b;" horiz-adv-x="710" 
d="M236 975l223 383h162l-377 -383h-8zM328 -27q-134 0 -260 47l-23 242l12 2l43 -92q84 -180 240 -180q90 0 145 51q56 51 56 129q0 81 -57 130q-57 50 -171 87q-109 38 -172 93q-65 56 -65 159q0 108 83 180t203 72q103 0 181 -37l65 23l10 -228l-12 -2l-104 168
q-72 57 -142 57q-83 0 -127 -41q-45 -42 -45 -116t50 -113t157 -78q65 -23 102 -41q33 -16 81 -49q41 -28 63 -77q21 -47 21 -107q0 -114 -94 -197q-92 -82 -240 -82z" />
    <glyph glyph-name="Scircumflex" unicode="&#x15c;" horiz-adv-x="991" 
d="M250 1378l274 383h4l275 -383h-8l-267 230h-4l-266 -230h-8zM479 -29q-181 0 -383 72l-20 291h12l43 -101q102 -241 350 -241q139 0 224 84q86 84 86 215q0 120 -79 195q-80 75 -241 126q-157 51 -248 131q-90 79 -90 218q0 143 107 245q108 103 278 103q122 0 252 -47
l82 24l18 -313h-12l-135 246q-90 71 -207 71q-114 0 -186 -68q-74 -69 -74 -173q0 -108 75 -170q76 -62 222 -113q174 -60 276 -151q99 -88 99 -242q0 -159 -129 -281q-128 -121 -320 -121z" />
    <glyph glyph-name="scircumflex" unicode="&#x15d;" horiz-adv-x="710" 
d="M94 983l275 383h4l274 -383h-8l-266 229h-4l-267 -229h-8zM328 -27q-134 0 -260 47l-23 242l12 2l43 -92q84 -180 240 -180q90 0 145 51q56 51 56 129q0 81 -57 130q-57 50 -171 87q-109 38 -172 93q-65 56 -65 159q0 108 83 180t203 72q103 0 181 -37l65 23l10 -228
l-12 -2l-104 168q-72 57 -142 57q-83 0 -127 -41q-45 -42 -45 -116t50 -113t157 -78q65 -23 102 -41q33 -16 81 -49q41 -28 63 -77q21 -47 21 -107q0 -114 -94 -197q-92 -82 -240 -82z" />
    <glyph glyph-name="Scedilla" unicode="&#x15e;" horiz-adv-x="991" 
d="M279 -526l-5 8q301 46 301 180q0 111 -157 111q-75 0 -139 -23v14l180 207q-179 6 -363 72l-20 291h12l43 -101q102 -241 350 -241h13q132 4 215 87q82 82 82 212q0 120 -79 195q-80 75 -241 126q-157 51 -248 131q-90 79 -90 218q0 143 107 245q108 103 278 103
q122 0 252 -47l82 24l18 -313h-12l-135 246q-90 71 -207 71q-114 0 -186 -68q-74 -69 -74 -173q0 -108 75 -170q76 -62 222 -113q174 -60 276 -151q99 -88 99 -242q0 -160 -128 -280t-319 -122l-100 -116q118 22 205 -20q86 -42 86 -124q0 -186 -393 -237z" />
    <glyph glyph-name="scedilla" unicode="&#x15f;" horiz-adv-x="710" 
d="M328 -27q-134 0 -260 47l-23 242l12 2l43 -92q84 -180 240 -180h12l2 2h23q77 11 120 59q44 50 44 119q0 81 -57 130q-57 50 -171 87q-109 38 -172 93q-65 56 -65 159q0 108 83 180t203 72q103 0 181 -37l65 23l10 -228l-12 -2l-104 168q-73 58 -142 58q-82 0 -127 -42
t-45 -116t50 -113t157 -78q65 -23 102 -41q33 -16 81 -49q41 -28 63 -77q21 -47 21 -107q0 -109 -83 -189q-84 -80 -219 -88l-102 -118q118 22 205 -20q86 -42 86 -124q0 -186 -393 -237l-4 8q301 46 301 180q0 111 -158 111q-75 0 -139 -23v15l180 206h-8z" />
    <glyph glyph-name="Scaron" unicode="&#x160;" horiz-adv-x="991" 
d="M479 -29q-181 0 -383 72l-20 291h12l43 -101q102 -241 350 -241q139 0 224 84q86 84 86 215q0 120 -79 195q-80 75 -241 126q-157 51 -248 131q-90 79 -90 218q0 143 107 245q108 103 278 103q122 0 252 -47l82 24l18 -313h-12l-135 246q-90 71 -207 71q-114 0 -186 -68
q-74 -69 -74 -173q0 -108 75 -170q76 -62 222 -113q174 -60 276 -151q99 -88 99 -242q0 -159 -129 -281q-128 -121 -320 -121zM518 1366l-274 383h8l266 -229h4l266 229h9l-275 -383h-4z" />
    <glyph glyph-name="scaron" unicode="&#x161;" horiz-adv-x="710" 
d="M328 -27q-134 0 -260 47l-23 242l12 2l43 -92q84 -180 240 -180q90 0 145 51q56 51 56 129q0 81 -57 130q-57 50 -171 87q-109 38 -172 93q-65 56 -65 159q0 108 83 180t203 72q103 0 181 -37l65 23l10 -228l-12 -2l-104 168q-72 57 -142 57q-83 0 -127 -41
q-45 -42 -45 -116t50 -113t157 -78q65 -23 102 -41q33 -16 81 -49q41 -28 63 -77q21 -47 21 -107q0 -114 -94 -197q-92 -82 -240 -82zM352 963l-274 383h8l266 -230h4l267 230h8l-275 -383h-4z" />
    <glyph glyph-name="Tcommaaccent" unicode="&#x162;" horiz-adv-x="1294" 
d="M532 -557l-6 8q62 23 108 75t46 122q0 65 -48 92q-49 27 -100 -6q-22 42 6 88q27 45 93 45q63 0 105 -42t42 -112q0 -83 -73 -163q-72 -79 -173 -107zM358 0l7 12l102 8q98 7 98 33v1209h-131q-192 -15 -342 -295l-14 -27h-15l84 340h1018l62 -340h-13l-12 27
q-68 152 -146 220q-80 69 -198 75h-129v-1215q0 -21 119 -29l80 -6l6 -12h-576z" />
    <glyph glyph-name="tcommaaccent" unicode="&#x163;" horiz-adv-x="628" 
d="M254 -557l-6 8q60 22 107 75q46 52 46 122q0 65 -48 92t-99 -6q-22 43 5 88t93 45q64 0 106 -42t42 -112q0 -81 -74 -163q-72 -80 -172 -107zM352 -27q-192 0 -190 199l12 619l-160 2l6 16l283 242l19 -2l-3 -183h273l-29 -71h-244l-14 -607q-1 -63 34 -97t97 -34
q79 0 176 80l11 -6q-56 -56 -85 -80q-37 -30 -85 -53q-53 -25 -101 -25z" />
    <glyph glyph-name="Tcaron" unicode="&#x164;" horiz-adv-x="1294" 
d="M645 1399l-274 383h8l266 -230h4l266 230h9l-275 -383h-4zM358 0l7 12l102 8q98 7 98 33v1209h-131q-192 -15 -342 -295l-14 -27h-15l84 340h1018l62 -340h-13l-12 27q-68 152 -146 220q-80 69 -198 75h-129v-1215q0 -21 119 -29l80 -6l6 -12h-576z" />
    <glyph glyph-name="tcaron" unicode="&#x165;" horiz-adv-x="651" 
d="M442 924l-6 10q131 78 131 174q0 44 -26 66q-25 21 -54 26q-23 4 -51 2q-7 28 17 62q23 32 69 32q53 0 88 -38t35 -101q0 -67 -57 -133q-56 -65 -146 -100zM352 -27q-192 0 -190 199l12 619l-160 2l6 16l283 242l19 -2l-3 -183h273l-29 -71h-244l-14 -607q-1 -63 34 -97
t97 -34q79 0 176 80l11 -6q-56 -56 -85 -80q-37 -30 -85 -53q-53 -25 -101 -25z" />
    <glyph glyph-name="Umacron" unicode="&#x16a;" horiz-adv-x="1363" 
d="M717 -29q-265 0 -383 109q-117 108 -117 360v793q0 23 -119 31l-80 6l-6 12h576l-6 -12l-103 -8q-98 -7 -98 -35v-760q0 -222 96 -325t303 -103q383 0 383 471l-2 688q0 50 -184 68l-39 4l-6 12h440l-6 -12l-41 -4q-141 -12 -141 -72l-2 -690q-5 -533 -465 -533z
M479 1483l15 51h516l-15 -51h-516z" />
    <glyph glyph-name="umacron" unicode="&#x16b;" horiz-adv-x="954" 
d="M692 -33l4 187h-2q-80 -70 -94 -81q-37 -29 -107 -64q-72 -36 -141 -36q-99 0 -159 60q-62 62 -62 196v596q0 9 -4 12q-3 2 -27 7q-14 3 -73 8l-29 2l-6 12h282v-610q0 -180 183 -180q126 0 233 98v574q0 61 -19 80t-83 24l-29 2l-6 12h283v-739q0 -35 10 -48t41 -18
l80 -12l-2 -10zM193 1067l14 51h516l-14 -51h-516z" />
    <glyph glyph-name="Ubreve" unicode="&#x16c;" horiz-adv-x="1363" 
d="M717 -29q-265 0 -383 109q-117 108 -117 360v793q0 23 -119 31l-80 6l-6 12h576l-6 -12l-103 -8q-98 -7 -98 -35v-760q0 -222 96 -325t303 -103q383 0 383 471l-2 688q0 50 -184 68l-39 4l-6 12h440l-6 -12l-41 -4q-141 -12 -141 -72l-2 -690q-5 -533 -465 -533z
M762 1411q-48 0 -85 21q-41 23 -63 49q-23 27 -45 79q-16 37 -30 88q-7 25 -25 97h10q92 -236 242 -236q153 0 242 236h10q-18 -72 -25 -97q-12 -44 -31 -88q-20 -47 -47 -79q-24 -28 -64 -49q-41 -21 -89 -21z" />
    <glyph glyph-name="ubreve" unicode="&#x16d;" horiz-adv-x="954" 
d="M692 -33l4 187h-2q-80 -70 -94 -81q-37 -29 -107 -64q-72 -36 -141 -36q-99 0 -159 60q-62 62 -62 196v596q0 9 -4 12q-3 2 -27 7q-14 3 -73 8l-29 2l-6 12h282v-610q0 -180 183 -180q126 0 233 98v574q0 61 -19 80t-83 24l-29 2l-6 12h283v-739q0 -35 10 -48t41 -18
l80 -12l-2 -10zM475 995q-47 0 -85 21q-39 22 -62 49t-45 79q-19 44 -31 88q-7 25 -25 97h11q91 -235 241 -235q154 0 242 235h10q-3 -12 -11.5 -47.5t-12.5 -49.5q-10 -37 -32 -88q-21 -49 -46 -79q-23 -27 -65 -49q-41 -21 -89 -21z" />
    <glyph glyph-name="Uring" unicode="&#x16e;" horiz-adv-x="1363" 
d="M752 1436q-82 0 -132 53q-51 54 -51 131q0 74 51 130q50 54 132 54t132 -54q50 -55 50 -130q0 -78 -50 -131t-132 -53zM752 1454q74 0 117 48q44 49 44 118t-44 118q-43 48 -117 48t-118 -48q-44 -49 -44 -118t44 -118q43 -48 118 -48zM717 -29q-265 0 -383 109
q-117 108 -117 360v793q0 23 -119 31l-80 6l-6 12h576l-6 -12l-103 -8q-98 -7 -98 -35v-760q0 -222 96 -325t303 -103q383 0 383 471l-2 688q0 50 -184 68l-39 4l-6 12h440l-6 -12l-41 -4q-141 -12 -141 -72l-2 -690q-5 -533 -465 -533z" />
    <glyph glyph-name="uring" unicode="&#x16f;" horiz-adv-x="954" 
d="M692 -33l4 187h-2q-80 -70 -94 -81q-37 -29 -107 -64q-72 -36 -141 -36q-99 0 -159 60q-62 62 -62 196v596q0 9 -4 12q-3 2 -27 7q-14 3 -73 8l-29 2l-6 12h282v-610q0 -180 183 -180q126 0 233 98v574q0 61 -19 80t-83 24l-29 2l-6 12h283v-739q0 -35 10 -48t41 -18
l80 -12l-2 -10zM455 1020q-82 0 -132 53q-51 54 -51 131q0 74 51 130q50 55 132 55t132 -55t50 -130q0 -78 -50 -131t-132 -53zM455 1038q73 0 117 48q44 49 44 118t-44 118q-44 48 -117 48q-75 0 -118 -48q-44 -49 -44 -118t44 -118q43 -48 118 -48z" />
    <glyph glyph-name="Uhungarumlaut" unicode="&#x170;" horiz-adv-x="1363" 
d="M717 -29q-265 0 -383 109q-117 108 -117 360v793q0 23 -119 31l-80 6l-6 12h576l-6 -12l-103 -8q-98 -7 -98 -35v-760q0 -222 96 -325t303 -103q383 0 383 471l-2 688q0 50 -184 68l-39 4l-6 12h440l-6 -12l-41 -4q-141 -12 -141 -72l-2 -690q-5 -533 -465 -533z
M817 1421l215 383h150l-351 -383h-14zM524 1421l217 383h150l-352 -383h-15z" />
    <glyph glyph-name="uhungarumlaut" unicode="&#x171;" horiz-adv-x="954" 
d="M692 -33l4 187h-2q-80 -70 -94 -81q-37 -29 -107 -64q-72 -36 -141 -36q-99 0 -159 60q-62 62 -62 196v596q0 9 -4 12q-3 2 -27 7q-14 3 -73 8l-29 2l-6 12h282v-610q0 -180 183 -180q126 0 233 98v574q0 61 -19 80t-83 24l-29 2l-6 12h283v-739q0 -35 10 -48t41 -18
l80 -12l-2 -10zM240 1006l217 383h149l-352 -383h-14zM532 1006l216 383h149l-350 -383h-15z" />
    <glyph glyph-name="Uogonek" unicode="&#x172;" horiz-adv-x="1363" 
d="M831 -463q-69 0 -115 43t-46 115q0 83 58 163q59 82 140 132q-82 -19 -151 -19q-265 0 -383 109q-117 108 -117 360v793q0 23 -119 31l-80 6l-6 12h576l-6 -12l-103 -8q-98 -7 -98 -35v-760q0 -222 96 -325t303 -103q383 0 383 471l-2 690q0 51 -184 66l-39 4l-6 12h440
l-6 -12l-41 -4q-141 -12 -141 -72l-2 -690q-1 -376 -246 -498q-86 -45 -126 -105q-40 -59 -40 -159q0 -64 33 -98q33 -35 92 -35q30 0 51 10t34 23q12 12 30 36l8 -6q-24 -50 -74 -93q-50 -42 -113 -42z" />
    <glyph glyph-name="uogonek" unicode="&#x173;" horiz-adv-x="954" 
d="M780 -463q-70 0 -117 47t-47 121q0 88 70 169q67 77 164 134l-158 -41l4 187h-2q-80 -70 -94 -81q-37 -29 -107 -64q-72 -36 -141 -36q-99 0 -159 60q-62 62 -62 196v596q0 9 -4 12q-3 2 -27 7q-14 3 -73 8l-29 2l-6 12h282v-610q0 -180 183 -180q126 0 233 98v574
q0 61 -19 80t-83 24l-29 2l-6 12h283v-739q0 -35 10 -48t41 -18l80 -12l-2 -10q-248 -95 -248 -297q0 -62 34 -97q35 -36 91 -36q65 0 116 69l9 -6q-69 -135 -187 -135z" />
    <glyph glyph-name="Wcircumflex" unicode="&#x174;" horiz-adv-x="2025" 
d="M737 1399l275 383h4l274 -383h-8l-266 229h-4l-267 -229h-8zM637 -29l-408 1096q-50 130 -74 159q-26 32 -102 38l-59 4l-4 12h532l-6 -12l-65 -2q-68 -5 -86 -25q-19 -22 2 -94l350 -961h4l295 744l-51 137q-49 124 -77 158q-27 33 -104 39l-57 4l-6 12h530l-6 -12
l-63 -2q-71 -4 -88 -26q-16 -21 6 -93l352 -957h4l285 795q63 162 45 213t-158 66l-43 4l-6 12h442l-6 -12l-33 -4q-87 -10 -123 -63t-120 -288l-342 -942h-19l-350 934h-2l-369 -934h-20z" />
    <glyph glyph-name="wcircumflex" unicode="&#x175;" horiz-adv-x="1449" 
d="M461 983l274 383h4l275 -383h-8l-267 229h-4l-266 -229h-8zM434 -20l-278 720q-34 97 -55 123t-70 27l-37 2l-4 12h420l-7 -12l-32 -2q-61 -4 -76 -23q-15 -18 8 -75l217 -568l193 451l-39 98q-30 73 -50 93q-19 19 -73 24l-33 2l-8 12h416l-4 -12l-35 -2q-56 -1 -69 -25
q-12 -22 9 -73l242 -572l150 428q51 140 35 188q-15 46 -117 54l-27 2l-6 12h340l-6 -12l-19 -2q-70 -6 -97 -48q-27 -41 -87 -212l-213 -610h-23l-274 632l-268 -632h-23z" />
    <glyph glyph-name="Ycircumflex" unicode="&#x176;" horiz-adv-x="1249" 
d="M336 0l6 12l102 8q99 8 99 33v522l-303 535q-51 91 -83 119q-35 31 -102 35l-57 4l-6 12h540l-6 -12l-61 -2q-80 -2 -89 -33q-9 -30 38 -113l278 -493h4l193 364q84 157 76 208q-8 50 -127 65l-52 4l-6 12h451l-6 -12l-45 -4q-80 -6 -128 -52q-44 -43 -134 -213
l-211 -395v-557q0 -22 118 -29l80 -6l6 -12h-575zM377 1399l274 383h4l275 -383h-8l-267 229h-4l-266 -229h-8z" />
    <glyph glyph-name="ycircumflex" unicode="&#x177;" horiz-adv-x="917" 
d="M164 -524q-48 0 -83 27q-34 27 -34 67q0 37 27 64q28 28 65 28q89 0 107 -98q51 11 85 66q32 53 77 188l55 168l-2 2l-314 735q-34 83 -52 104q-18 22 -64 23l-39 2l-6 12h415l-4 -12l-35 -2q-56 -1 -68 -26q-11 -23 13 -81l232 -555l159 435q49 143 36 180t-118 47
l-28 2l-6 12h346l-6 -12l-27 -2q-67 -4 -93 -42q-27 -39 -89 -210l-228 -606l-67 -211q-51 -162 -108 -233q-58 -72 -146 -72zM219 983l275 383h4l274 -383h-8l-266 229h-4l-267 -229h-8z" />
    <glyph glyph-name="Ydieresis" unicode="&#x178;" horiz-adv-x="1249" 
d="M336 0l6 12l102 8q99 8 99 33v522l-303 535q-51 91 -83 119q-35 31 -102 35l-57 4l-6 12h540l-6 -12l-61 -2q-80 -2 -89 -33q-9 -30 38 -113l278 -493h4l193 364q84 157 76 208q-8 50 -127 65l-52 4l-6 12h451l-6 -12l-45 -4q-80 -6 -128 -52q-44 -43 -134 -213
l-211 -395v-557q0 -22 118 -29l80 -6l6 -12h-575zM797 1384q-45 0 -70 31t-25 62q0 33 25 67q24 33 70 33q45 0 69 -33q25 -34 25 -67q0 -31 -25 -62t-69 -31zM469 1384q-45 0 -70 31q-24 30 -24 62q0 34 24 67t70 33t70 -33t24 -67q0 -32 -24 -62q-25 -31 -70 -31z" />
    <glyph glyph-name="Zacute" unicode="&#x179;" horiz-adv-x="1165" 
d="M516 1421l223 383h162l-377 -383h-8zM68 0v6l813 1249v7h-336q-177 0 -265 -81q-90 -82 -151 -245l-10 -25h-13l44 369h927v-8l-811 -1245v-4l365 -5q105 0 177 24q74 25 123 78q53 58 81 112q31 61 65 155l13 29h16l-66 -416h-972z" />
    <glyph glyph-name="zacute" unicode="&#x17a;" horiz-adv-x="837" 
d="M365 1006l223 383h162l-377 -383h-8zM39 0v10l551 836q-38 0 -79 0.5t-62.5 1t-30.5 0.5q-133 -1 -191 -53q-57 -51 -110 -185l-19 -41h-10l6 295h668v-10l-555 -834l190 -4q130 1 207 59q78 58 146 175l28 47h8l-67 -297h-680z" />
    <glyph glyph-name="Zdotaccent" unicode="&#x17b;" horiz-adv-x="1165" 
d="M68 0v6l813 1249v7h-336q-177 0 -265 -81q-90 -82 -151 -245l-10 -25h-13l44 369h927v-8l-811 -1245v-4l365 -5q105 0 177 24q74 25 123 78q53 58 81 112q31 61 65 155l13 29h16l-66 -416h-972zM602 1491q-45 0 -70 31q-24 30 -24 61q0 35 24 67q24 31 70 31t70 -31
q24 -32 24 -67q0 -31 -24 -61q-25 -31 -70 -31z" />
    <glyph glyph-name="zdotaccent" unicode="&#x17c;" horiz-adv-x="837" 
d="M39 0v10l551 836q-38 0 -79 0.5t-62.5 1t-30.5 0.5q-133 -1 -191 -53q-57 -51 -110 -185l-19 -41h-10l6 295h668v-10l-555 -834l190 -4q130 1 207 59q78 58 146 175l28 47h8l-67 -297h-680zM428 1075q-45 0 -70 31q-24 30 -24 61q0 35 24 67t70 32t70 -32t24 -67
q0 -31 -24 -61q-25 -31 -70 -31z" />
    <glyph glyph-name="Zcaron" unicode="&#x17d;" horiz-adv-x="1165" 
d="M68 0v6l813 1249v7h-336q-177 0 -265 -81q-90 -82 -151 -245l-10 -25h-13l44 369h927v-8l-811 -1245v-4l365 -5q105 0 177 24q74 25 123 78q53 58 81 112q31 61 65 155l13 29h16l-66 -416h-972zM590 1335l-275 383h9l266 -229h4l266 229h8l-274 -383h-4z" />
    <glyph glyph-name="zcaron" unicode="&#x17e;" horiz-adv-x="837" 
d="M39 0v10l551 836q-38 0 -79 0.5t-62.5 1t-30.5 0.5q-133 -1 -191 -53q-57 -51 -110 -185l-19 -41h-10l6 295h668v-10l-555 -834l190 -4q130 1 207 59q78 58 146 175l28 47h8l-67 -297h-680zM412 963l-275 383h8l267 -230h4l266 230h8l-274 -383h-4z" />
    <glyph glyph-name="florin" unicode="&#x192;" horiz-adv-x="987" 
d="M147 -145q-71 0 -114 30t-43 80q0 38 25 64t65 26q54 0 76 -49q22 -48 -23 -108q46 -19 60 -19q53 0 89 46q35 45 74 178q43 146 93 401l49 254l-219 4l24 61l215 4q69 277 184 390q94 94 224 94q75 0 121 -33q47 -33 47 -84q0 -39 -29 -66q-27 -26 -64 -26q-60 0 -77 53
t41 109q-34 28 -76 28q-83 0 -129 -104q-47 -107 -98 -363l251 -2l-10 -65h-256l-59 -258q-99 -423 -244 -568q-76 -77 -197 -77z" />
    <glyph glyph-name="Aringacute" unicode="&#x1fa;" horiz-adv-x="1280" 
d="M463 1599l223 383h162l-377 -383h-8zM760 557h-383l-98 -272q-62 -170 -46 -212q17 -45 154 -57l43 -4l6 -12h-444l6 12l33 4q66 7 102 37q35 29 70 103t108 276l301 830q-71 12 -112 62t-41 120q0 76 50 129t132 53t132 -53t50 -129q0 -67 -38 -117q-36 -48 -103 -63
l88 -263l180 -524l90 -262q44 -126 72 -160t98 -39l58 -4l6 -12h-537l6 12l66 4q128 6 84 140zM641 1276q75 0 118 48q44 49 44 118t-44 118q-44 48 -118 48q-75 0 -118 -48q-44 -49 -44 -118t44 -118q43 -48 118 -48zM385 582h365l-43 131q-39 117 -89 262l-43 131h-2z" />
    <glyph glyph-name="aringacute" unicode="&#x1fb;" horiz-adv-x="813" 
d="M227 1364l224 383h161l-376 -383h-9zM416 1020q-82 0 -132 53q-51 54 -51 131q0 74 51 130q50 55 132 55t132 -55t50 -130q0 -78 -50 -131t-132 -53zM651 -20q-54 0 -89 38t-40 105v2q-150 -143 -262 -143q-89 0 -146 56q-59 57 -59 134q0 106 105 182q104 76 377 142
l2 90q10 262 -199 262q-55 0 -114 -28q-56 -27 -56 -48q0 -1 26 -36q25 -34 25 -66q0 -33 -24 -57q-23 -23 -64 -23q-39 0 -63 21q-25 22 -25 59q0 75 135 150t256 75q135 0 195 -65q59 -63 51 -234l-20 -442q-6 -93 67 -93q36 0 92 56l10 -6q-1 -3 -14 -19l-18 -21l-19 -22
q-8 -11 -21 -21q-3 -3 -11.5 -9.5t-12.5 -9.5q-15 -12 -26 -16q-8 -3 -28 -9q-13 -4 -30 -4zM416 1038q74 0 118 48q44 49 44 118t-44 118q-44 48 -118 48t-118 -48q-44 -49 -44 -118t44 -118q43 -48 118 -48zM340 66q100 0 184 84l13 325q-202 -47 -269 -108t-67 -150
q0 -67 39 -109t100 -42z" />
    <glyph glyph-name="AEacute" unicode="&#x1fc;" horiz-adv-x="1736" 
d="M-109 0l7 12l79 8q59 6 120 70t169 250l498 850q24 40 -23 55q-33 11 -110 15l-80 4l-6 16h1003l39 -365h-10l-12 29q-29 78 -45 117q-14 34 -44 85q-24 42 -59 66q-27 19 -77 35q-46 15 -109 15h-254v-582h135q136 6 187 37t81 129l11 28l12 -2l-41 -413l-12 4l-2 24
q-8 108 -52 136q-42 26 -198 32l-121 4v-628l246 -11q166 1 262 91q96 89 162 249l12 29l12 -2l-84 -387h-981l6 14l103 9q98 7 98 32v502h-397l-142 -240q-40 -73 -61 -116q-20 -42 -31 -80q-10 -37 0 -56q11 -20 36 -32q27 -13 73 -17l65 -6l6 -10h-471zM430 582h383v649
h-4zM934 1421l223 383h162l-377 -383h-8z" />
    <glyph glyph-name="aeacute" unicode="&#x1fd;" horiz-adv-x="1339" 
d="M612 1006l224 383h161l-376 -383h-9zM266 -27q-89 0 -150 58t-61 137q0 106 105 185q106 80 375 143l6 90q6 138 -52 200q-57 62 -149 62q-55 0 -114 -28q-56 -27 -56 -48q0 -1 26 -36q25 -34 25 -66q0 -33 -24 -57q-23 -23 -64 -23q-39 0 -63 21q-25 22 -25 59
q0 75 135 150t264 75q172 0 211 -135q119 135 308 135q148 0 236 -80q87 -79 87 -201q0 -5 -1 -8q-1 -2 -1 -5t-1 -4q-1 -3 -1 -11q-109 0 -209.5 0.5t-166.5 0.5t-116.5 0.5t-74.5 0.5h-25q-6 -46 -6 -111q0 -178 92 -290q92 -111 228 -111q96 0 164 37q70 38 122 127
l17 -7q-153 -260 -371 -260q-115 0 -208 60t-142 155q-106 -111 -177 -163q-70 -52 -143 -52zM694 606l430 6q0 110 -44 187q-43 75 -134 75q-82 0 -153 -77q-72 -78 -99 -191zM344 57q59 0 109 35q46 32 120 117q-43 95 -43 211q0 31 2 53q-199 -50 -266 -113
q-65 -61 -65 -149q0 -67 41 -111q40 -43 102 -43z" />
    <glyph glyph-name="Oslashacute" unicode="&#x1fe;" horiz-adv-x="1464" 
d="M1085 1221q153 -86 238 -239q86 -154 86 -343q0 -266 -204 -467t-476 -201q-170 0 -323 72l-111 -193h-23q7 11 20 34q1 3 14 26t23 40q27 46 44 73l16 28q-156 84 -245 238t-89 348q0 264 204 469t474 205q182 0 336 -80l105 180h22zM426 117l606 1048
q-128 123 -305 123q-224 0 -358 -177q-133 -176 -133 -476q0 -338 190 -518zM1047 1151l-152 -262q-135 -231 -303 -524l-152 -263q128 -108 297 -108q228 0 360 174t132 473q0 325 -182 510zM731 1401l223 383h162l-377 -383h-8z" />
    <glyph glyph-name="oslashacute" unicode="&#x1ff;" horiz-adv-x="993" 
d="M248 43q-96 62 -153 163q-56 100 -56 224q0 192 132 329q132 136 327 136q116 0 215 -51l196 338h23l-203 -348q106 -60 165 -164q60 -105 60 -232q0 -196 -132 -330q-133 -135 -324 -135q-126 0 -234 60l-170 -295h-22zM694 772l-100 -170l-197 -340l-98 -170
q15 -19 27 -31q71 -71 174 -71q123 0 202 127q80 128 80 303q0 236 -88 352zM287 109l395 679l-12 15q-79 76 -176 76q-126 0 -206 -125q-79 -124 -79 -297q0 -225 78 -348zM469 969l223 383h162l-377 -383h-8z" />
    <glyph glyph-name="Scommaaccent" unicode="&#x218;" horiz-adv-x="991" 
d="M406 -557l-7 8q61 23 108 75q46 52 46 122q0 65 -48 92t-99 -6q-22 43 5 88t93 45q63 0 105 -42t42 -112q0 -83 -73 -163q-72 -80 -172 -107zM479 -29q-181 0 -383 72l-20 291h12l43 -101q102 -241 350 -241q139 0 224 84q86 84 86 215q0 120 -79 195q-80 75 -241 126
q-157 51 -248 131q-90 79 -90 218q0 143 107 245q108 103 278 103q122 0 252 -47l82 24l18 -313h-12l-135 246q-90 71 -207 71q-114 0 -186 -68q-74 -69 -74 -173q0 -108 75 -170q76 -62 222 -113q174 -60 276 -151q99 -88 99 -242q0 -159 -129 -281q-128 -121 -320 -121z
" />
    <glyph glyph-name="scommaaccent" unicode="&#x219;" horiz-adv-x="710" 
d="M240 -557l-7 8q61 23 108 75q46 52 46 122q0 65 -48 92t-99 -6q-22 43 5 88t93 45q63 0 105 -42t42 -112q0 -83 -73 -163q-72 -80 -172 -107zM328 -27q-134 0 -260 47l-23 242l12 2l43 -92q84 -180 240 -180q90 0 145 51q56 51 56 129q0 81 -57 130q-57 50 -171 87
q-109 38 -172 93q-65 56 -65 159q0 108 83 180t203 72q103 0 181 -37l65 23l10 -228l-12 -2l-104 168q-72 57 -142 57q-83 0 -127 -41q-45 -42 -45 -116t50 -113t157 -78q65 -23 102 -41q33 -16 81 -49q41 -28 63 -77q21 -47 21 -107q0 -114 -94 -197q-92 -82 -240 -82z" />
    <glyph glyph-name="uni021A" unicode="&#x21a;" horiz-adv-x="1294" 
d="M532 -557l-6 8q62 23 108 75t46 122q0 65 -48 92q-49 27 -100 -6q-22 42 6 88q27 45 93 45q63 0 105 -42t42 -112q0 -83 -73 -163q-72 -79 -173 -107zM358 0l7 12l102 8q98 7 98 33v1209h-131q-192 -15 -342 -295l-14 -27h-15l84 340h1018l62 -340h-13l-12 27
q-68 152 -146 220q-80 69 -198 75h-129v-1215q0 -21 119 -29l80 -6l6 -12h-576z" />
    <glyph glyph-name="uni021B" unicode="&#x21b;" horiz-adv-x="628" 
d="M254 -557l-6 8q60 22 107 75q46 52 46 122q0 65 -48 92t-99 -6q-22 43 5 88t93 45q64 0 106 -42t42 -112q0 -81 -74 -163q-72 -80 -172 -107zM352 -27q-192 0 -190 199l12 619l-160 2l6 16l283 242l19 -2l-3 -183h273l-29 -71h-244l-14 -607q-1 -63 34 -97t97 -34
q79 0 176 80l11 -6q-56 -56 -85 -80q-37 -30 -85 -53q-53 -25 -101 -25z" />
    <glyph glyph-name="dotlessj" unicode="&#x237;" horiz-adv-x="417" 
d="M-33 -510q-68 0 -105 29q-36 29 -36 71q0 37 26 60q25 22 62 22q45 0 79 -37q33 -35 48 -100q102 27 102 272v836q0 93 -15 121q-15 29 -69 37l-47 8l2 8l273 72v-946q0 -168 -101 -311q-100 -142 -219 -142z" />
    <glyph glyph-name="circumflex" unicode="&#x2c6;" horiz-adv-x="757" 
d="M102 983l275 383h4l274 -383h-8l-266 229h-4l-266 -229h-9z" />
    <glyph glyph-name="caron" unicode="&#x2c7;" horiz-adv-x="757" 
d="M377 983l-275 383h9l266 -229h4l266 229h8l-274 -383h-4z" />
    <glyph glyph-name="breve" unicode="&#x2d8;" horiz-adv-x="757" 
d="M379 995q-47 0 -85 21q-41 23 -63 49q-23 27 -45 79q-16 37 -30 88q-7 25 -25 97h10q91 -235 242 -235q154 0 242 235h10q-18 -72 -25 -97q-12 -44 -31 -88q-20 -47 -47 -79q-24 -28 -64 -49q-41 -21 -89 -21z" />
    <glyph glyph-name="dotaccent" unicode="&#x2d9;" horiz-adv-x="757" 
d="M379 1075q-45 0 -70 31q-24 30 -24 61q0 35 24 67t70 32t70 -32t24 -67q0 -31 -24 -61q-25 -31 -70 -31z" />
    <glyph glyph-name="ring" unicode="&#x2da;" horiz-adv-x="757" 
d="M379 1020q-82 0 -132 53t-50 131q0 75 50 130t132 55t132 -55t50 -130q0 -78 -50 -131t-132 -53zM379 1038q75 0 118 48q44 49 44 118t-44 118q-43 48 -118 48t-118 -48q-44 -49 -44 -118t44 -118q43 -48 118 -48z" />
    <glyph glyph-name="ogonek" unicode="&#x2db;" horiz-adv-x="757" 
d="M387 -463q-71 0 -118 47q-46 46 -46 121t58 148q55 70 118 111q62 41 127 69h23q-225 -111 -225 -291q0 -63 33 -97q35 -36 92 -36q65 0 116 69l8 -6q-69 -135 -186 -135z" />
    <glyph glyph-name="tilde" unicode="&#x2dc;" horiz-adv-x="757" 
d="M530 1018q-56 0 -177 61q-122 62 -158 62q-43 0 -66 -21q-23 -22 -29 -86h-10q11 108 42 154q32 47 97 47q55 0 177 -60q124 -61 159 -61q40 0 65 22q23 20 29 83h11q-11 -108 -42 -154q-32 -47 -98 -47z" />
    <glyph glyph-name="hungarumlaut" unicode="&#x2dd;" horiz-adv-x="757" 
d="M438 1006l215 383h150l-350 -383h-15zM145 1006l217 383h150l-352 -383h-15z" />
    <glyph glyph-name="Wgrave" unicode="&#x1e80;" horiz-adv-x="2025" 
d="M637 -29l-408 1096q-50 130 -74 159q-26 32 -102 38l-59 4l-4 12h532l-6 -12l-65 -2q-68 -5 -86 -25q-19 -22 2 -94l350 -961h4l295 744l-51 137q-49 124 -77 158q-27 33 -104 39l-57 4l-6 12h530l-6 -12l-63 -2q-71 -4 -88 -26q-16 -21 6 -93l352 -957h4l285 795
q63 162 45 213t-158 66l-43 4l-6 12h442l-6 -12l-33 -4q-87 -10 -123 -63t-120 -288l-342 -942h-19l-350 934h-2l-369 -934h-20zM1110 1421l-377 383h162l223 -383h-8z" />
    <glyph glyph-name="wgrave" unicode="&#x1e81;" horiz-adv-x="1449" 
d="M434 -20l-278 720q-34 97 -55 123t-70 27l-37 2l-4 12h420l-7 -12l-32 -2q-61 -4 -76 -23q-15 -18 8 -75l217 -568l193 451l-39 98q-30 73 -50 93q-19 19 -73 24l-33 2l-8 12h416l-4 -12l-35 -2q-56 -1 -69 -25q-12 -22 9 -73l242 -572l150 428q51 140 35 188
q-15 46 -117 54l-27 2l-6 12h340l-6 -12l-19 -2q-70 -6 -97 -48q-27 -41 -87 -212l-213 -610h-23l-274 632l-268 -632h-23zM813 1006l-377 383h162l223 -383h-8z" />
    <glyph glyph-name="Wacute" unicode="&#x1e82;" horiz-adv-x="2025" 
d="M897 1421l223 383h162l-377 -383h-8zM637 -29l-408 1096q-50 130 -74 159q-26 32 -102 38l-59 4l-4 12h532l-6 -12l-65 -2q-68 -5 -86 -25q-19 -22 2 -94l350 -961h4l295 744l-51 137q-49 124 -77 158q-27 33 -104 39l-57 4l-6 12h530l-6 -12l-63 -2q-71 -4 -88 -26
q-16 -21 6 -93l352 -957h4l285 795q63 162 45 213t-158 66l-43 4l-6 12h442l-6 -12l-33 -4q-87 -10 -123 -63t-120 -288l-342 -942h-19l-350 934h-2l-369 -934h-20z" />
    <glyph glyph-name="wacute" unicode="&#x1e83;" horiz-adv-x="1449" 
d="M631 1006l223 383h162l-377 -383h-8zM434 -20l-278 720q-34 97 -55 123t-70 27l-37 2l-4 12h420l-7 -12l-32 -2q-61 -4 -76 -23q-15 -18 8 -75l217 -568l193 451l-39 98q-30 73 -50 93q-19 19 -73 24l-33 2l-8 12h416l-4 -12l-35 -2q-56 -1 -69 -25q-12 -22 9 -73
l242 -572l150 428q51 140 35 188q-15 46 -117 54l-27 2l-6 12h340l-6 -12l-19 -2q-70 -6 -97 -48q-27 -41 -87 -212l-213 -610h-23l-274 632l-268 -632h-23z" />
    <glyph glyph-name="Wdieresis" unicode="&#x1e84;" horiz-adv-x="2025" 
d="M1188 1458q-45 0 -70 31q-24 30 -24 61q0 35 24 68t70 33q45 0 69 -33q25 -34 25 -68q0 -30 -25 -61t-69 -31zM860 1458q-44 0 -69 31t-25 61q0 34 25 68q24 33 69 33q46 0 70 -33t24 -68q0 -31 -24 -61q-25 -31 -70 -31zM637 -29l-408 1096q-50 130 -74 159
q-26 32 -102 38l-59 4l-4 12h532l-6 -12l-65 -2q-68 -5 -86 -25q-19 -22 2 -94l350 -961h4l295 744l-51 137q-49 124 -77 158q-27 33 -104 39l-57 4l-6 12h530l-6 -12l-63 -2q-71 -4 -88 -26q-16 -21 6 -93l352 -957h4l285 795q63 162 45 213t-158 66l-43 4l-6 12h442
l-6 -12l-33 -4q-87 -10 -123 -63t-120 -288l-342 -942h-19l-350 934h-2l-369 -934h-20z" />
    <glyph glyph-name="wdieresis" unicode="&#x1e85;" horiz-adv-x="1449" 
d="M897 1042q-45 0 -70 31q-24 30 -24 62q0 34 24 67t70 33t70 -33t24 -67q0 -32 -24 -62q-25 -31 -70 -31zM569 1042q-44 0 -69 31t-25 62q0 33 25 67q24 33 69 33q46 0 70 -33q25 -34 25 -67q0 -31 -25 -62t-70 -31zM434 -20l-278 720q-34 97 -55 123t-70 27l-37 2l-4 12
h420l-7 -12l-32 -2q-61 -4 -76 -23q-15 -18 8 -75l217 -568l193 451l-39 98q-30 73 -50 93q-19 19 -73 24l-33 2l-8 12h416l-4 -12l-35 -2q-56 -1 -69 -25q-12 -22 9 -73l242 -572l150 428q51 140 35 188q-15 46 -117 54l-27 2l-6 12h340l-6 -12l-19 -2q-70 -6 -97 -48
q-27 -41 -87 -212l-213 -610h-23l-274 632l-268 -632h-23z" />
    <glyph glyph-name="thinspace" unicode="&#x2009;" horiz-adv-x="122" 
 />
    <glyph glyph-name="endash" unicode="&#x2013;" horiz-adv-x="870" 
d="M8 459l6 61h848l-6 -61h-848z" />
    <glyph glyph-name="emdash" unicode="&#x2014;" horiz-adv-x="1835" 
d="M8 459l6 61h1813l-6 -61h-1813z" />
    <glyph glyph-name="quoteleft" unicode="&#x2018;" horiz-adv-x="342" 
d="M193 877q-64 0 -106 44q-42 43 -42 117q0 83 70 164q69 79 176 123l8 -8q-160 -100 -160 -217q0 -71 55 -95q53 -24 103 -16q12 -38 -17 -75q-30 -37 -87 -37z" />
    <glyph glyph-name="quoteright" unicode="&#x2019;" horiz-adv-x="339" 
d="M57 872l-8 11q160 92 160 213q0 52 -32 79q-32 28 -64 32q-37 5 -62 1q-10 37 20 76t85 39q63 0 105 -46t42 -122q0 -82 -70 -163q-69 -79 -176 -120z" />
    <glyph glyph-name="quotesinglbase" unicode="&#x201a;" horiz-adv-x="339" 
d="M57 -223l-8 10q160 95 160 215q0 52 -32 79q-34 29 -64 33q-37 5 -62 1q-10 36 20 75t85 39q63 0 105 -46q42 -47 42 -122q0 -81 -70 -162q-67 -78 -176 -122z" />
    <glyph glyph-name="quotedblleft" unicode="&#x201c;" horiz-adv-x="659" 
d="M510 877q-64 0 -106 44q-42 43 -42 117q0 83 70 164q69 79 176 123l8 -8q-159 -99 -159 -217q0 -71 54 -95q53 -24 103 -16q12 -38 -17 -75q-30 -37 -87 -37zM193 877q-64 0 -106 44q-42 43 -42 117q0 83 70 164q69 79 176 123l8 -8q-160 -100 -160 -217q0 -71 55 -95
q53 -24 103 -16q12 -38 -17 -75q-30 -37 -87 -37z" />
    <glyph glyph-name="quotedblright" unicode="&#x201d;" horiz-adv-x="657" 
d="M375 872l-8 11q159 91 159 213q0 72 -52 96t-103 16q-12 38 17 76q30 39 85 39q64 0 106 -46t42 -122q0 -82 -70 -163q-69 -79 -176 -120zM57 872l-8 11q160 92 160 213q0 52 -32 79q-32 28 -64 32q-37 5 -62 1q-10 37 20 76t85 39q63 0 105 -46t42 -122q0 -82 -70 -163
q-69 -79 -176 -120z" />
    <glyph glyph-name="quotedblbase" unicode="&#x201e;" horiz-adv-x="657" 
d="M375 -223l-8 10q159 94 159 215q0 72 -52 96q-53 24 -103 17q-12 37 17 75q30 39 85 39q64 0 106 -46q42 -47 42 -122q0 -81 -70 -162q-67 -78 -176 -122zM57 -223l-8 10q160 95 160 215q0 52 -32 79q-34 29 -64 33q-37 5 -62 1q-10 36 20 75t85 39q63 0 105 -46
q42 -47 42 -122q0 -81 -70 -162q-67 -78 -176 -122z" />
    <glyph glyph-name="dagger" unicode="&#x2020;" horiz-adv-x="886" 
d="M432 -319v1167h-414l-2 20h416v412h23v-412h415l-2 -20h-413v-1167h-23z" />
    <glyph glyph-name="daggerdbl" unicode="&#x2021;" horiz-adv-x="886" 
d="M432 -319v393h-416l2 20h414v770h-414l-2 21h416v395h23v-395h415l-2 -21h-413v-770h413l2 -20h-415v-393h-23z" />
    <glyph glyph-name="bullet" unicode="&#x2022;" horiz-adv-x="870" 
d="M434 80q-44 0 -145 43q-102 44 -131 74q-32 35 -74 134q-43 101 -43 144q0 46 43 147t74 132q29 29 133 72q102 42 145 42q45 0 147 -42t132 -72t72 -132t42 -147q0 -43 -41 -145q-40 -100 -73 -133q-29 -32 -133 -75q-102 -42 -148 -42z" />
    <glyph glyph-name="ellipsis" unicode="&#x2026;" horiz-adv-x="1134" 
d="M956 -25q-44 0 -76 32t-32 75q0 41 32 73q31 31 76 31q46 0 76 -31q31 -33 31 -73q0 -46 -30 -76q-31 -31 -77 -31zM569 -25q-47 0 -79 32q-31 31 -31 75q0 42 31 73t79 31q46 0 76 -31q31 -33 31 -73q0 -42 -31 -75q-30 -32 -76 -32zM180 -25q-47 0 -79 32
q-31 31 -31 75q0 42 31 73t79 31q46 0 76 -31q31 -33 31 -73q0 -46 -30 -76q-31 -31 -77 -31z" />
    <glyph glyph-name="perthousand" unicode="&#x2030;" horiz-adv-x="1673" 
d="M270 791q-116 0 -184 74q-70 76 -70 184q0 107 70 185q69 77 184 77q118 0 187 -77q69 -76 69 -185t-69 -184q-68 -74 -187 -74zM88 -29l877 1340h24l-876 -1340h-25zM1401 -27q-115 0 -184 75q-70 76 -70 181q0 110 70 188q69 77 184 77q117 0 186 -77q70 -78 70 -188
q0 -105 -70 -181q-69 -75 -186 -75zM811 -27q-115 0 -184 75q-70 76 -70 181q0 110 70 188q69 77 184 77q117 0 186 -77q70 -78 70 -188q0 -105 -70 -181q-69 -75 -186 -75zM270 809q105 0 168 69q64 70 64 171q0 102 -65 173q-64 70 -167 70t-166 -70t-63 -173t62 -171
q63 -69 167 -69zM1401 -8q105 0 168 67t63 170t-64 174q-64 72 -167 72t-166 -72q-64 -73 -64 -174q0 -103 63 -170t167 -67zM811 -8q105 0 168 67q63 68 63 170q0 103 -64 174q-64 72 -167 72t-166 -72t-63 -174q0 -104 62 -170q63 -67 167 -67z" />
    <glyph glyph-name="guilsinglleft" unicode="&#x2039;" horiz-adv-x="477" 
d="M436 98l-413 351v12l413 350l6 -6l-262 -350l262 -351z" />
    <glyph glyph-name="guilsinglright" unicode="&#x203a;" horiz-adv-x="477" 
d="M41 98l-6 6l262 351l-260 350l6 6l412 -350v-12z" />
    <glyph glyph-name="fraction" unicode="&#x2044;" horiz-adv-x="940" 
d="M-25 -27l961 1340h29l-961 -1340h-29z" />
    <glyph glyph-name="zerosuperior" unicode="&#x2070;" horiz-adv-x="647" 
d="M322 504q-124 0 -203 114q-80 115 -80 283q0 167 81 286q81 118 204 118q120 0 202 -118t82 -284q0 -178 -78 -289q-77 -110 -208 -110zM326 516q78 0 124 96q46 95 46 277q0 403 -174 403q-77 0 -124 -95q-46 -93 -46 -269q0 -412 174 -412z" />
    <glyph glyph-name="foursuperior" unicode="&#x2074;" horiz-adv-x="579" 
d="M330 518v217h-322v4l385 572h35v-500h145l-26 -76h-119v-217h-98zM76 811h254v373h-2z" />
    <glyph glyph-name="fivesuperior" unicode="&#x2075;" horiz-adv-x="487" 
d="M150 477q-142 0 -142 82q0 24 17 41q16 16 41 16q34 0 54 -33q21 -35 27 -75q29 -10 54 -10q69 0 121 57q53 58 53 145q0 98 -89 164q-88 66 -227 84l88 346h310l-25 -96h-295l-39 -160q166 -23 260 -98q97 -77 97 -186q0 -112 -89 -195q-88 -82 -216 -82z" />
    <glyph glyph-name="sixsuperior" unicode="&#x2076;" horiz-adv-x="602" 
d="M311 504q-124 0 -200 85t-76 216q0 206 151 353q151 146 383 169l2 -10q-175 -27 -279 -139q-106 -114 -145 -269l3 -2q90 90 202 90q92 0 155 -63q62 -62 62 -166q0 -117 -77 -190q-79 -74 -181 -74zM317 516q70 0 113 58t43 161q0 94 -52 156q-52 63 -128 63
q-87 0 -148 -65q-12 -24 -12 -86q0 -124 47 -206q46 -81 137 -81z" />
    <glyph glyph-name="sevensuperior" unicode="&#x2077;" horiz-adv-x="526" 
d="M104 518l367 678l-2 6h-227q-109 0 -142 -15t-57 -85l-4 -12h-10l24 202h467l2 -4l-344 -770h-74z" />
    <glyph glyph-name="eightsuperior" unicode="&#x2078;" horiz-adv-x="579" 
d="M289 502q-108 0 -179 58q-73 59 -73 145q0 66 53 119q52 52 139 73v2q-80 44 -124 89q-42 44 -42 108q0 78 65 148q65 69 163 69q95 0 162 -58q65 -56 65 -143q0 -51 -46 -94t-120 -70v-2q96 -52 143 -99q48 -48 48 -126q0 -87 -75 -153t-179 -66zM342 950q88 67 88 162
q0 71 -41 130q-40 58 -108 58q-62 0 -98 -45t-36 -102q0 -69 51 -115q48 -44 144 -88zM301 514q75 0 119 44q43 43 43 112q0 76 -60 126q-63 52 -163 95q-115 -62 -115 -186q0 -78 49 -134q50 -57 127 -57z" />
    <glyph glyph-name="ninesuperior" unicode="&#x2079;" horiz-adv-x="602" 
d="M31 487v11q173 28 279 140t143 267h-2q-95 -90 -201 -90q-92 0 -155 65q-62 63 -62 164q0 120 76 193q77 74 180 74q123 0 199 -87q77 -88 77 -216q0 -208 -150 -352q-151 -145 -384 -169zM307 862q90 0 148 64q14 27 14 86q0 124 -47 206q-46 80 -137 80q-71 0 -114 -58
q-44 -59 -44 -161q0 -91 52 -153q53 -64 128 -64z" />
    <glyph glyph-name="plussuperior" unicode="&#x207a;" horiz-adv-x="647" 
d="M315 588v311h-305l4 14h301v306h17v-306h301l4 -14h-303l-2 -311h-17z" />
    <glyph glyph-name="minussuperior" unicode="&#x207b;" horiz-adv-x="647" 
d="M592 897h-537l2 14h533z" />
    <glyph glyph-name="zeroinferior" unicode="&#x2080;" horiz-adv-x="647" 
d="M322 -266q-124 0 -203 114q-80 115 -80 283q0 167 81 286q81 118 204 118q120 0 202 -118t82 -284q0 -178 -78 -289q-77 -110 -208 -110zM326 -254q78 0 124 96q46 95 46 277q0 403 -174 403q-77 0 -124 -95q-46 -93 -46 -269q0 -412 174 -412z" />
    <glyph glyph-name="oneinferior" unicode="&#x2081;" horiz-adv-x="446" 
d="M80 -252l4 8l43 2q53 0 53 21v694l-129 21l4 6l230 28v-753q0 -19 69 -19h35l4 -8h-313z" />
    <glyph glyph-name="twoinferior" unicode="&#x2082;" horiz-adv-x="540" 
d="M14 -252l-4 8q208 207 282 310q75 105 75 225q0 90 -46 135q-47 45 -106 45q-104 0 -182 -133l-8 4q107 199 249 199q77 0 135 -53q56 -52 56 -140q0 -101 -71 -198q-76 -104 -242 -271q-37 -35 -46 -45v-2h312q41 0 92 145l4 11l6 -2l-51 -238h-455z" />
    <glyph glyph-name="threeinferior" unicode="&#x2083;" horiz-adv-x="493" 
d="M166 -295q-65 0 -106 24q-40 24 -40 62q0 24 17 41q16 16 41 16q38 0 58 -32q21 -34 14 -78q37 -10 61 -10q78 0 131 53t53 137q0 98 -48 150q-48 53 -138 53q-47 0 -109 -21l-4 6q68 43 80 50q53 31 71 45q25 19 45 38q27 25 35 47q9 24 9 54q0 59 -35 94t-92 35
q-115 0 -172 -115l-10 4q89 183 231 183q72 0 121 -45t49 -111q0 -25 -9 -47q-2 -5 -18 -37q-7 -13 -32 -34q-16 -13 -34 -25q-4 -2 -44 -27l-41 -25v-4q105 6 168 -55t63 -154q0 -107 -95 -190q-94 -82 -220 -82z" />
    <glyph glyph-name="fourinferior" unicode="&#x2084;" horiz-adv-x="579" 
d="M330 -252v217h-322v4l385 572h35v-500h145l-26 -76h-119v-217h-98zM76 41h254v373h-2z" />
    <glyph glyph-name="fiveinferior" unicode="&#x2085;" horiz-adv-x="487" 
d="M150 -293q-142 0 -142 82q0 24 17 41q16 16 41 16q34 0 54 -33q21 -35 27 -75q29 -10 54 -10q69 0 121 57q53 58 53 145q0 98 -89 164q-88 66 -227 84l88 346h310l-25 -96h-295l-39 -160q166 -23 260 -98q97 -77 97 -186q0 -112 -89 -195q-88 -82 -216 -82z" />
    <glyph glyph-name="sixinferior" unicode="&#x2086;" horiz-adv-x="602" 
d="M311 -266q-124 0 -200 85t-76 216q0 206 151 353q151 146 383 169l2 -10q-175 -27 -279 -139q-106 -114 -145 -269l3 -2q90 90 202 90q92 0 155 -63q62 -62 62 -166q0 -118 -77 -191t-181 -73zM317 -254q70 0 113 58t43 161q0 94 -52 156q-52 63 -128 63q-87 0 -148 -65
q-12 -24 -12 -86q0 -124 47 -206q46 -81 137 -81z" />
    <glyph glyph-name="seveninferior" unicode="&#x2087;" horiz-adv-x="526" 
d="M104 -252l367 678l-2 6h-227q-109 0 -142 -15t-57 -85l-4 -13h-10l24 203h467l2 -4l-344 -770h-74z" />
    <glyph glyph-name="eightinferior" unicode="&#x2088;" horiz-adv-x="579" 
d="M289 -268q-108 0 -179 58q-73 59 -73 144q0 67 53 120q52 52 139 73v2q-80 44 -124 89q-42 44 -42 108q0 78 65 148q65 69 163 69q95 0 162 -58q65 -56 65 -143q0 -51 -46 -94t-120 -70v-2q96 -52 143 -99q48 -48 48 -126q0 -87 -75 -153t-179 -66zM342 180q88 67 88 162
q0 71 -41 130q-40 58 -108 58q-62 0 -98 -45t-36 -102q0 -69 51 -115q48 -44 144 -88zM301 -256q75 0 119 44q43 43 43 112q0 76 -60 126q-63 52 -163 95q-115 -62 -115 -187q0 -77 49 -133q50 -57 127 -57z" />
    <glyph glyph-name="nineinferior" unicode="&#x2089;" horiz-adv-x="602" 
d="M31 -283v11q173 28 279 140t143 267h-2q-95 -90 -201 -90q-92 0 -155 65q-62 63 -62 164q0 120 76 193q77 74 180 74q123 0 199 -87q77 -88 77 -216q0 -208 -150 -352q-151 -145 -384 -169zM307 92q90 0 148 64q14 27 14 86q0 123 -47 205q-47 81 -137 81q-71 0 -114 -58
q-44 -59 -44 -161q0 -91 52 -153q53 -64 128 -64z" />
    <glyph glyph-name="Euro" unicode="&#x20ac;" horiz-adv-x="978" 
d="M592 -29q-172 0 -302 133t-163 353h-129l6 20h119q-6 67 -6 123q0 70 8 123h-127l6 20h125q40 249 195 405q153 155 346 155q121 0 200 -48q76 -46 76 -122q0 -38 -29 -65q-30 -28 -65 -28q-71 0 -88 68q-16 67 29 100q-44 74 -138 74q-143 0 -252 -154
q-108 -154 -131 -385h408l6 -20h-416q0 -21 -1 -39t-1 -39q0 -75 13 -168h399l6 -20h-399q33 -177 135 -282t233 -105q197 0 303 188l15 -10q-157 -277 -381 -277z" />
    <glyph glyph-name="trademark" unicode="&#x2122;" horiz-adv-x="827" 
d="M383 958l2 7h10q25 0 32 6t7 30l6 252q-10 15 -34 19l-15 2l-2 6h111l88 -238h2l90 238h115l-2 -6l-25 -2q-23 -2 -23 -8l7 -291q0 -2 28 -6l15 -2l2 -7h-156v7l25 2q20 1 20 8l-4 280h-2l-115 -297h-6l-110 285l-3 2l-4 -248q0 -19 9 -26q7 -6 38 -6h11l2 -7h-119z
M119 958l2 7l22 2q25 2 25 8v299h-25q-53 -2 -94 -82l-4 -6h-4l16 94h287l10 -94h-2l-4 8q-35 80 -92 80h-25v-301q0 -1 29 -6l16 -2v-7h-157z" />
    <glyph glyph-name="minus" unicode="&#x2212;" horiz-adv-x="886" 
d="M811 473h-735l4 25h727z" />
    <glyph glyph-name="uni2215" unicode="&#x2215;" horiz-adv-x="940" 
d="M-25 -27l961 1340h29l-961 -1340h-29z" />
    <glyph glyph-name="approxequal" unicode="&#x2248;" horiz-adv-x="886" 
d="M242 707q-148 0 -183 -158h-24q33 182 207 182q67 0 203 -68q138 -69 200 -69q147 0 182 158h25q-33 -183 -207 -183q-66 0 -204 69t-199 69zM242 371q-148 0 -183 -158h-24q33 182 207 182q67 0 203 -68q138 -69 200 -69q147 0 182 158h25q-33 -183 -207 -183
q-66 0 -204 69t-199 69z" />
    <glyph glyph-name="notequal" unicode="&#x2260;" horiz-adv-x="876" 
d="M37 647l-6 25h450l90 317h27l-90 -317h338l-6 -25h-340l-92 -330h432l6 -24h-447l-94 -338h-26l94 338h-342l6 24h344l92 330h-436z" />
    <glyph glyph-name="lessequal" unicode="&#x2264;" horiz-adv-x="860" 
d="M829 211l-806 342v22l806 340l11 -22l-781 -326v-4l781 -330zM840 76h-817l4 24h809z" />
    <glyph glyph-name="greaterequal" unicode="&#x2265;" horiz-adv-x="860" 
d="M840 553l-807 -342l-10 22l780 330v4l-780 326l10 22l807 -340v-22zM840 76h-817l4 24h809z" />
    <glyph glyph-name="pcircle" unicode="&#x24df;" horiz-adv-x="1441" 
d="M721 -29q-278 0 -474 196t-196 474q0 277 196 475q195 197 474 197t474 -197q196 -198 196 -475q0 -278 -196 -474t-474 -196zM721 -10q269 0 459 191t190 460q0 270 -190 461q-190 192 -459 192t-459 -192q-190 -191 -190 -461q0 -269 190 -460t459 -191zM436 244l2 12
l62 6q59 6 59 21v694q0 12 -72 18l-47 4l-4 13h342q138 0 208 -51q71 -51 71 -142t-84 -153q-85 -62 -207 -62q-48 0 -107 10v-335q0 -14 70 -19l62 -4l4 -12h-359zM766 618q92 0 140 50t48 141q0 188 -209 188h-86v-364q57 -15 107 -15z" />
    <glyph glyph-name="commaaccent" unicode="&#xf6c3;" horiz-adv-x="757" 
d="M283 -557l-7 8q62 23 108 75t46 122q0 65 -48 92t-99 -6q-22 43 5 88t93 45q63 0 105 -42t42 -112q0 -83 -73 -163q-72 -80 -172 -107z" />
    <glyph glyph-name="J.alt" horiz-adv-x="909" 
d="M315 -23q-142 0 -209 53q-65 52 -65 115q0 45 29 76t75 31q44 0 71 -29q28 -30 28 -65q0 -79 -88 -95q49 -67 161 -67q113 0 160 70t47 237v932q0 23 -118 29l-80 6l-7 12h576l-6 -12l-103 -8q-98 -7 -98 -33v-973q0 -81 -116 -180t-257 -99z" />
    <glyph glyph-name="Jcircumflex.alt" horiz-adv-x="909" 
d="M328 1399l274 383h4l275 -383h-9l-266 229h-4l-266 -229h-8zM315 -23q-143 -1 -209 51q-65 52 -65 117q0 45 29 76t75 31q44 0 71 -29q28 -30 28 -65q0 -79 -88 -95q51 -69 161 -69q113 0 160 71t47 238v932q0 23 -118 29l-80 6l-7 14h576l-6 -14l-103 -8q-98 -7 -98 -33
v-973q0 -81 -116 -180t-257 -99z" />
    <glyph glyph-name="zero.alt" horiz-adv-x="1114" 
d="M555 -20q-212 0 -353 142t-141 359t143 365q142 147 355 147q212 0 352 -146q142 -148 142 -362q0 -216 -143 -361q-142 -144 -355 -144zM555 -2q204 0 340 140q137 142 137 347q0 207 -137 349q-136 141 -336 141q-201 0 -339 -144t-138 -350q0 -207 135 -345t338 -138z
" />
    <glyph glyph-name="one.alt" horiz-adv-x="645" 
d="M82 0l6 14l70 2q96 2 96 33v864q0 10 -5 15q-3 3 -28 8q-23 4 -69 6l-62 2l-6 14h479l-6 -14l-70 -2q-96 -2 -96 -33v-864q0 -9 5 -14q3 -3 28 -8q28 -6 70 -7l61 -2l6 -14h-479z" />
    <glyph glyph-name="dot" horiz-adv-x="378" 
d="M190 336q-46 0 -78 32t-32 74q0 41 32 73t78 32t76 -32q31 -33 31 -73q0 -41 -31 -74q-30 -32 -76 -32z" />
    <glyph glyph-name="ampersand.smallcap" horiz-adv-x="1089" 
d="M301 -20q-131 0 -209 78q-80 80 -80 194q0 113 76 198t209 128q-143 77 -143 186q0 83 78 148q81 67 171 67q111 0 176 -51q64 -51 64 -117q0 -57 -50 -104q-52 -48 -140 -72q75 -38 159 -126q82 -86 129 -173q133 173 133 225q0 60 -141 60h-8l-6 14h383l-6 -14h-17
q-63 -6 -102 -33q-40 -28 -103 -107l-124 -162q79 -155 121 -206q43 -52 106 -52q68 0 129 76l10 -10q-48 -55 -60 -68q-17 -18 -68 -50q-46 -29 -91 -29q-83 0 -139 57t-107 172q-91 -113 -174 -171q-82 -58 -176 -58zM438 641q90 45 90 164q0 62 -34 109q-35 49 -93 49
q-57 0 -93 -43q-36 -44 -36 -103t39 -98t127 -78zM377 82q131 0 264 143q-52 114 -139 208q-84 92 -191 136q-166 -91 -166 -258q0 -98 66 -164q65 -65 166 -65z" />
    <glyph glyph-name="at.smallcap" horiz-adv-x="1179" 
d="M598 -158q-248 0 -402 147q-155 147 -155 378q0 254 175 436t419 182q218 0 361 -134t143 -339q0 -167 -110 -295q-109 -127 -245 -127q-73 0 -115 36t-42 93q0 59 35 137h-3q-96 -141 -152 -199q-59 -61 -118 -61q-53 0 -91 39q-38 40 -38 94q0 92 69 200
q70 110 158 192q96 90 177 90q37 0 58 -41q22 -41 17 -103h2l62 183l117 -7l-105 -266l-57 -151q-35 -98 -15 -139q21 -42 101 -42q101 0 190 109q88 107 88 258q0 198 -138 329q-137 130 -349 130q-238 0 -409 -178q-171 -179 -171 -426q0 -225 152 -368q151 -142 391 -142
q161 0 297 83t197 207l14 -6q-62 -128 -203 -214q-139 -85 -305 -85zM451 174q40 0 102 68t123 184q41 84 41 106q0 39 -36 78t-77 39q-29 0 -65 -31q-56 -52 -105 -158q-49 -107 -49 -190q0 -42 18 -69t48 -27z" />
    <glyph glyph-name="a.smallcap" horiz-adv-x="970" 
d="M555 414h-276l-64 -183q-51 -136 -40 -172q12 -38 116 -45l33 -2l4 -12h-338l6 12l24 2q72 6 102 53q27 41 105 261l183 508l-17 47q72 22 101 96h16l274 -797q37 -106 60 -136t76 -32l43 -2l4 -12h-428l6 12l47 2q49 1 61 31q12 29 -6 90zM287 434h262l-125 375h-2z" />
    <glyph glyph-name="b.smallcap" horiz-adv-x="884" 
d="M33 0l4 12l57 6q72 8 72 23v881q0 12 -86 20l-41 4l-4 12h377q190 0 277 -56q89 -57 89 -150q0 -174 -291 -217v-5q164 -8 253 -80t89 -180q0 -123 -106 -196q-107 -74 -303 -74h-387zM410 18l32 2q110 6 171 76t61 166q0 110 -77 181t-198 71q-56 0 -86 -2v-469z
M313 535l64 2q117 1 180 57q64 56 64 143q0 201 -242 201h-66v-403z" />
    <glyph glyph-name="c.smallcap" horiz-adv-x="1036" 
d="M580 -23q-237 0 -389 138q-150 137 -150 358t152 364q151 142 399 142q135 0 260 -64l88 39l10 -295h-10l-135 246q-79 56 -215 56q-179 0 -285 -136q-104 -134 -104 -342q0 -216 110 -351q111 -136 277 -136q124 0 200 55q77 56 146 174l41 70h8l-53 -246l-51 -10
q-135 -62 -299 -62z" />
    <glyph glyph-name="d.smallcap" horiz-adv-x="1015" 
d="M33 0l4 12l57 6q72 8 72 23v881q0 12 -86 20l-41 4l-4 12h66q71 0 129 1q116 2 145 2h57q266 2 406 -124q141 -126 141 -341t-158 -356q-156 -140 -430 -140h-358zM422 20q188 1 295 131q104 126 104 312q0 214 -103 345q-104 132 -312 132h-93v-893z" />
    <glyph glyph-name="e.smallcap" horiz-adv-x="921" 
d="M31 0l4 12l55 6q76 7 76 23v881q0 12 -86 20l-43 4l-4 12h753l25 -286l-12 -2l-8 22q-53 137 -110 193q-56 55 -177 55h-191v-436l121 4q111 5 150 28q41 24 63 101l6 22h15l-35 -329l-12 2l-3 22q-7 82 -43 105q-33 21 -153 26l-109 4v-464l219 -7q130 1 199 69
q68 66 119 196l10 20l12 -2l-57 -301h-784z" />
    <glyph glyph-name="f.smallcap" horiz-adv-x="860" 
d="M31 0l4 12l61 6q70 8 70 23v881q0 12 -84 20l-45 4l-4 12h749l27 -290l-12 -2l-9 20q-50 141 -106 197q-57 57 -190 57h-179v-444l103 4q110 5 148 27q41 24 65 100l6 22h12l-33 -327h-12l-2 22q-7 81 -43 106q-32 22 -154 27l-90 2v-442q0 -17 88 -21l72 -4l6 -12h-448z
" />
    <glyph glyph-name="g.smallcap" horiz-adv-x="1067" 
d="M571 -25q-232 0 -382 138q-148 136 -148 358t150 366t401 144q148 0 258 -61l84 34l6 -292h-10l-125 243q-74 56 -217 56q-180 0 -284 -137q-103 -136 -103 -343q0 -218 112 -351q113 -134 275 -134q125 0 196 49v346q0 11 -96 19l-59 6l-4 12h432l-4 -12l-58 -6
q-71 -7 -71 -23v-315l84 10l2 -8q-243 -99 -439 -99z" />
    <glyph glyph-name="h.smallcap" horiz-adv-x="1118" 
d="M33 0l4 12l57 6q72 8 72 23v881q0 12 -86 20l-41 4l-4 12h416l-5 -12l-59 -6q-74 -8 -74 -22v-418h490v422q0 12 -86 20l-45 4l-4 12h415l-4 -12l-55 -6q-74 -8 -74 -22v-881q0 -11 88 -21l39 -4l4 -12h-415l4 12l61 6q72 7 72 23v434h-490v-438q0 -14 88 -21l43 -4
l7 -12h-418z" />
    <glyph glyph-name="i.smallcap" horiz-adv-x="512" 
d="M43 0l6 12l62 6q73 7 73 23v881q0 10 -90 20l-45 4l-4 12h422l-4 -12l-62 -6q-71 -7 -71 -22v-881q0 -14 88 -21l43 -4l6 -12h-424z" />
    <glyph glyph-name="j.smallcap" horiz-adv-x="485" 
d="M12 -260q-54 0 -88 27q-35 27 -35 69q0 37 25 62q24 24 63 24q61 0 79 -57q18 -58 -27 -103q66 -6 103 70q38 78 38 215v875q0 13 -88 20l-43 4l-4 12h420l-4 -12l-62 -6q-74 -8 -74 -22v-889q0 -63 -102 -176t-201 -113z" />
    <glyph glyph-name="j.smallcap.alt" horiz-adv-x="698" 
d="M246 -18q-111 0 -164 41t-53 96q0 37 24 62q24 26 62 26q33 0 58 -25q24 -24 24 -57q0 -60 -64 -78q33 -49 115 -49q83 0 117 52t34 179v693q0 14 -90 20l-59 4l-4 12h450l-4 -12l-76 -6q-73 -6 -73 -22v-717q0 -63 -96 -142q-93 -77 -201 -77z" />
    <glyph glyph-name="k.smallcap" horiz-adv-x="1028" 
d="M33 0l4 12l59 6q70 8 70 23v881q0 12 -84 20l-43 4l-4 12h426l-4 -12l-70 -6q-74 -6 -74 -23v-503l244 247q188 191 193 238q2 24 -33 35q-23 7 -64 8l-55 4v12h383l-4 -12l-23 -2q-86 -10 -129 -45q-41 -33 -256 -252l-18 -18l297 -488q51 -82 75 -105q22 -21 70 -22
l33 -2l4 -12h-414l5 12l41 2q37 4 49 19t2 44q-11 32 -43 87l-217 362l-140 -141v-348q0 -15 88 -21l54 -4l4 -12h-426z" />
    <glyph glyph-name="l.smallcap" horiz-adv-x="847" 
d="M31 0l4 12l61 6q70 8 70 23v881q0 12 -84 20l-45 4l-4 12h448l-6 -12l-88 -6q-74 -6 -74 -22v-895l158 -7q127 0 191 67q61 64 124 214l9 20l12 -2l-55 -315h-721z" />
    <glyph glyph-name="m.smallcap" horiz-adv-x="1261" 
d="M27 0l4 12l35 2q66 6 91 20q23 13 23 38l23 843q-31 24 -101 29l-41 2l-4 12h291l285 -759h2l301 759h293l-4 -12l-78 -6q-68 -6 -68 -22l15 -881q0 -15 86 -21l45 -4l4 -12h-420l4 12l74 6q63 4 63 23l-16 848h-2l-350 -889h-17l-325 850q-16 34 -21 41l-14 -825
q0 -42 143 -52l27 -2l4 -12h-352z" />
    <glyph glyph-name="n.smallcap" horiz-adv-x="1069" 
d="M899 -8l-682 848h-2v-772q0 -47 127 -54l31 -2l4 -12h-328l4 12l31 2q109 11 109 58l6 786q-67 78 -148 84l-20 2l-4 14h284l580 -731h2v664q0 43 -127 53l-29 2l-4 12h326l-4 -12l-31 -2q-109 -6 -109 -59l-4 -893h-12z" />
    <glyph glyph-name="o.smallcap" horiz-adv-x="1110" 
d="M551 -20q-222 0 -366 138t-144 357q0 198 155 351q154 153 361 153q224 0 367 -140t143 -362q0 -197 -154 -348q-152 -149 -362 -149zM559 -2q164 0 257 127t93 354q0 214 -100 347q-102 135 -258 135q-163 0 -257 -130q-93 -129 -93 -356q0 -217 98 -346
q99 -131 260 -131z" />
    <glyph glyph-name="p.smallcap" horiz-adv-x="870" 
d="M14 0l6 12l74 6q72 6 72 23v881q0 14 -86 20l-60 4l-4 12h449q181 0 274 -59q95 -60 95 -172q0 -117 -108 -190q-109 -74 -277 -74q-63 0 -136 10v-436q0 -17 88 -21l72 -4l6 -12h-465zM446 483q105 0 169 61q63 60 63 167q0 115 -60 173q-59 57 -192 56l-113 -2v-440
q51 -15 133 -15z" />
    <glyph glyph-name="q.smallcap" horiz-adv-x="1110" 
d="M946 -276q-70 0 -124 9q-52 9 -111 35q-58 26 -104 78t-77 134q-214 6 -351 145q-138 139 -138 350q0 198 155 350t361 152q224 0 367 -140t143 -360q0 -159 -103 -292t-264 -183q69 -166 169 -213q102 -48 274 -27l4 -12q-74 -26 -201 -26zM559 -2q164 0 257 127t93 354
q0 214 -100 347q-102 135 -258 135q-164 0 -257 -131q-93 -130 -93 -357q0 -215 98 -344q99 -131 260 -131z" />
    <glyph glyph-name="r.smallcap" horiz-adv-x="985" 
d="M14 0l6 12l74 6q72 8 72 23v881q0 14 -86 20l-60 4l-4 12h414q187 2 284 -61t97 -186q0 -83 -67 -150q-66 -66 -171 -84l215 -332q49 -76 82 -100q34 -25 91 -31l20 -2l6 -12h-276l-13 23l-272 450q-66 11 -113 31v-467q0 -14 88 -21l60 -4l4 -12h-451zM432 500
q104 0 164 57q59 56 59 160q0 107 -69 165q-68 58 -201 56l-72 -2v-416q64 -20 119 -20z" />
    <glyph glyph-name="s.smallcap" horiz-adv-x="755" 
d="M365 -20q-145 0 -295 51l-15 229h8l43 -88q80 -176 261 -176q100 0 163 60q64 61 64 155q0 88 -58 139q-59 52 -180 92q-123 43 -193 104q-69 60 -69 165q0 108 83 188t214 80q87 0 199 -37l61 19l8 -248h-8l-106 192q-70 56 -156 56q-78 0 -137 -51q-57 -50 -57 -122
q0 -78 56 -121q60 -46 169 -85q135 -46 212 -114q75 -66 75 -183q0 -119 -99 -212t-243 -93z" />
    <glyph glyph-name="t.smallcap" horiz-adv-x="991" 
d="M270 0l6 12l74 6q74 6 74 23v901h-84q-138 -11 -268 -233l-15 -21h-10l59 270h793l41 -270h-8l-10 21q-52 113 -117 172q-62 56 -154 61h-82v-905q0 -15 88 -21l58 -4l4 -12h-449z" />
    <glyph glyph-name="u.smallcap" horiz-adv-x="1038" 
d="M543 -25q-203 0 -293 81t-90 268v598q0 14 -88 20l-56 4l-6 12h449l-6 -12l-74 -6q-72 -6 -72 -22v-566q0 -162 70 -240q69 -77 219 -77q281 0 281 350v506q0 45 -132 53l-28 2l-4 12h329l-4 -12l-30 -2q-109 -11 -109 -59l-2 -504q-5 -406 -354 -406z" />
    <glyph glyph-name="v.smallcap" horiz-adv-x="976" 
d="M489 -20l-311 800q-46 116 -63 139q-18 23 -76 25l-41 2l-6 12h424l-6 -12l-56 -2q-57 -4 -67 -19q-11 -15 12 -81l256 -660h2l203 545q53 135 43 170q-11 37 -117 45l-31 2l-4 12h334l-4 -12l-25 -2q-69 -5 -95 -44q-28 -42 -95 -216l-262 -704h-15z" />
    <glyph glyph-name="w.smallcap" horiz-adv-x="1519" 
d="M481 -23l-305 803q-46 112 -63 134q-22 29 -76 30l-43 2l-4 12h422l-6 -12l-48 -2q-54 -4 -66 -19q-11 -14 7 -75l250 -670h2l211 525l-31 75q-44 109 -64 134q-22 28 -75 30l-43 2l-6 12h422l-4 -12l-46 -2q-58 -5 -69 -20q-13 -17 8 -76l246 -668h4l199 551
q52 129 40 167q-12 39 -118 46l-33 2l-4 12h338l-6 -12l-25 -2q-65 -6 -92 -45q-25 -36 -92 -213l-260 -709h-17l-260 697h-2l-276 -697h-15z" />
    <glyph glyph-name="x.smallcap" horiz-adv-x="987" 
d="M526 565l121 176q79 123 75 157q-4 33 -93 44l-41 4l-4 12h362l-4 -12l-29 -2q-71 -6 -113 -42q-41 -35 -136 -171l-127 -182l278 -422q3 -4 16 -26q10 -17 15 -22q2 -2 12 -18q8 -12 12 -15q3 -2 12 -11t12 -10q1 0 5 -2.5t7 -3.5q4 -2 16 -4q5 -1 18 -1l39 -2l6 -12
h-422l4 12l58 2q50 1 60 21q9 18 -19 63l-226 340h-2l-37 -53l-73 -111l-35 -53q-54 -81 -70 -123q-15 -40 5 -58q19 -18 77 -24l43 -4l4 -12h-362l4 12l31 2q68 6 112 45q42 37 137 172l154 224l-211 325q-6 8 -18 27t-17 26q-8 12 -28 44q-3 5 -22 28q-15 18 -22 23
t-23 10q-13 4 -30 6l-43 2l-6 12h424l-2 -12l-55 -2q-53 -2 -58 -28q-4 -23 48 -107z" />
    <glyph glyph-name="y.smallcap" horiz-adv-x="954" 
d="M252 0l4 12l74 6q73 6 73 23v391l-221 391q-42 75 -65 95q-28 25 -76 26l-39 2l-4 12h424l-4 -12l-39 -2q-65 -5 -72 -26q-8 -23 27 -80l203 -365h2l135 254q69 130 64 169q-5 38 -95 46l-37 4l-4 12h338l-4 -12l-37 -4q-59 -5 -95 -44q-41 -45 -108 -175l-147 -277v-409
q0 -15 90 -21l57 -4l4 -12h-448z" />
    <glyph glyph-name="z.smallcap" horiz-adv-x="888" 
d="M47 0v8l600 930v2h-207q-150 0 -224 -61q-75 -61 -120 -185l-8 -20h-8l29 284h712v-10l-600 -928v-2h228q162 -2 241 67q81 71 133 218l8 23h13l-49 -326h-748z" />
    <glyph glyph-name="fi.smallcap" horiz-adv-x="1372" 
d="M905 0l6 12l60 6q73 7 73 23v881q0 10 -88 20l-45 4l-4 12h420l-4 -12l-61 -6q-72 -8 -72 -22v-881q0 -14 88 -21l43 -4l6 -12h-422zM31 0l4 12l61 6q70 8 70 23v881q0 12 -84 20l-45 4l-4 12h749l27 -290l-12 -2l-9 20q-50 141 -106 197q-57 57 -190 57h-179v-444l103 4
q110 5 148 27q41 24 65 100l6 22h12l-33 -327h-12l-2 22q-7 81 -43 106q-32 22 -154 27l-90 2v-442q0 -17 88 -21l72 -4l6 -12h-448z" />
    <glyph glyph-name="fl.smallcap" horiz-adv-x="1708" 
d="M893 0l4 12l61 6q70 8 70 23v881q0 12 -84 20l-45 4l-4 12h446l-6 -12l-88 -6q-73 -6 -73 -22v-895l159 -7q63 0 115 19q48 17 85 59q32 36 59 85q26 48 55 118l8 20l12 -2l-55 -315h-719zM31 0l4 12l61 6q70 8 70 23v881q0 12 -84 20l-45 4l-4 12h749l27 -290l-12 -2
l-9 20q-50 141 -106 197q-57 57 -190 57h-179v-444l103 4q110 5 148 27q41 24 65 100l6 22h12l-33 -327h-12l-2 22q-7 81 -43 106q-32 22 -154 27l-90 2v-442q0 -17 88 -21l72 -4l6 -12h-448z" />
    <glyph glyph-name="ff.smallcap" horiz-adv-x="1720" 
d="M893 0l4 12l61 6q70 8 70 23v881q0 12 -84 20l-45 4l-4 12h747l27 -290l-12 -2l-8 22q-50 137 -107 196q-57 58 -190 58h-178v-444l102 2q110 5 148 27q41 24 65 100l6 22h12l-32 -327l-13 2l-2 22q-7 82 -43 105q-34 22 -153 28l-90 2v-442q0 -17 88 -21l71 -4l6 -14
h-446zM33 0l4 12l61 6q70 8 70 23v881q0 12 -84 20l-45 4l-4 12h747l27 -290l-12 -2l-9 22q-50 139 -106 196q-57 58 -190 58h-179v-444l103 2q110 5 148 27q41 24 65 100l6 22h12l-33 -327l-12 2l-2 22q-7 82 -43 105q-34 22 -154 28l-90 2v-442q0 -17 88 -21l72 -4l6 -14
h-446z" />
    <glyph glyph-name="ffi.smallcap" horiz-adv-x="2232" 
d="M893 0l4 12l61 6q70 8 70 23v881q0 12 -84 20l-45 4l-4 12h747l27 -290l-12 -2l-8 22q-50 137 -107 196q-57 58 -190 58h-178v-444l102 2q110 5 148 27q41 24 65 100l6 22h12l-32 -327l-13 2l-2 22q-7 82 -43 105q-34 22 -153 28l-90 2v-442q0 -17 88 -21l71 -4l6 -14
h-446zM1765 0l7 12l59 6q74 8 74 23v881q0 10 -88 20l-45 4l-5 12h420l-4 -12l-61 -6q-72 -8 -72 -23v-880q0 -14 88 -21l43 -4l6 -12h-422zM33 0l4 12l61 6q70 8 70 23v881q0 12 -84 20l-45 4l-4 12h747l27 -290l-12 -2l-9 22q-50 139 -106 196q-57 58 -190 58h-179v-444
l103 2q110 5 148 27q41 24 65 100l6 22h12l-33 -327l-12 2l-2 22q-7 82 -43 105q-34 22 -154 28l-90 2v-442q0 -17 88 -21l72 -4l6 -14h-446z" />
    <glyph glyph-name="ffl.smallcap" horiz-adv-x="2568" 
d="M893 0l4 12l61 6q70 8 70 23v881q0 12 -84 20l-45 4l-4 12h747l27 -290l-12 -2l-8 22q-50 137 -107 196q-57 58 -190 58h-178v-444l102 2q110 5 148 27q41 24 65 100l6 22h12l-32 -327l-13 2l-2 22q-7 82 -43 105q-34 22 -153 28l-90 2v-442q0 -17 88 -21l71 -4l6 -14
h-446zM1753 0l4 14l62 6q69 8 69 23v879q0 12 -84 20l-45 4l-4 12h447l-7 -12l-88 -6q-73 -6 -73 -23v-894l159 -5q125 0 190 66q64 65 124 213l8 20l12 -2l-55 -315h-719zM33 0l4 12l61 6q70 8 70 23v881q0 12 -84 20l-45 4l-4 12h747l27 -290l-12 -2l-9 22
q-50 139 -106 196q-57 58 -190 58h-179v-444l103 2q110 5 148 27q41 24 65 100l6 22h12l-33 -327l-12 2l-2 22q-7 82 -43 105q-34 22 -154 28l-90 2v-442q0 -17 88 -21l72 -4l6 -14h-446z" />
    <glyph glyph-name="germandbls.smallcap" horiz-adv-x="1511" 
d="M1120 -20q-148 0 -293 51l-14 229h8l41 -88q80 -176 260 -176q100 0 165 60t65 155q0 88 -60 139q-62 53 -180 92q-123 45 -192 105q-70 61 -70 164q0 108 83 188t214 80q87 0 199 -37l61 19l8 -248h-8l-107 192q-70 56 -155 56q-78 0 -137 -51q-58 -50 -58 -122
q0 -78 57 -121q60 -46 169 -85q135 -46 212 -114q74 -65 74 -183q0 -120 -98 -212q-99 -93 -244 -93zM365 -20q-145 0 -295 51l-15 229h8l43 -88q80 -176 261 -176q100 0 163 60q64 61 64 155q0 88 -58 139q-59 52 -180 92q-123 43 -193 104q-69 60 -69 165q0 108 83 188
t214 80q87 0 199 -37l61 18l8 -247h-8l-106 192q-68 55 -156 55q-79 0 -137 -50q-57 -50 -57 -122q0 -78 56 -121q60 -46 169 -85q135 -46 212 -114q75 -66 75 -183q0 -119 -99 -212t-243 -93z" />
    <glyph glyph-name="agrave.smallcap" horiz-adv-x="970" 
d="M555 414h-276l-64 -183q-51 -136 -40 -172q12 -38 116 -45l33 -2l4 -12h-338l6 12l24 2q72 6 102 53q27 41 105 261l183 508l-17 47q72 22 101 96h16l274 -797q37 -106 60 -136t76 -32l43 -2l4 -12h-428l6 12l47 2q49 1 61 31q12 29 -6 90zM287 434h262l-125 375h-2z
M537 1067l-377 383h162l223 -383h-8z" />
    <glyph glyph-name="aacute.smallcap" horiz-adv-x="970" 
d="M555 414h-276l-64 -183q-51 -136 -40 -172q12 -38 116 -45l33 -2l4 -12h-338l6 12l24 2q72 6 102 53q27 41 105 261l183 508l-17 47q72 22 101 96h16l274 -797q37 -106 60 -136t76 -32l43 -2l4 -12h-428l6 12l47 2q49 1 61 31q12 29 -6 90zM287 434h262l-125 375h-2z
M414 1067l223 383h162l-377 -383h-8z" />
    <glyph glyph-name="acircumflex.smallcap" horiz-adv-x="970" 
d="M555 414h-276l-64 -183q-51 -136 -40 -172q12 -38 116 -45l33 -2l4 -12h-338l6 12l24 2q72 6 102 53q27 41 105 261l183 508l-17 47q72 22 101 96h16l274 -797q37 -106 60 -136t76 -32l43 -2l4 -12h-428l6 12l47 2q49 1 61 31q12 29 -6 90zM287 434h262l-125 375h-2z
M229 1044l275 383h4l274 -383h-8l-266 230h-4l-266 -230h-9z" />
    <glyph glyph-name="atilde.smallcap" horiz-adv-x="970" 
d="M555 414h-276l-64 -183q-51 -136 -40 -172q12 -38 116 -45l33 -2l4 -12h-338l6 12l24 2q72 6 102 53q27 41 105 261l183 508l-17 47q72 22 101 96h16l274 -797q37 -106 60 -136t76 -32l43 -2l4 -12h-428l6 12l47 2q49 1 61 31q12 29 -6 90zM287 434h262l-125 375h-2z
M641 1079q-54 0 -176 62q-121 61 -160 61q-43 0 -66 -20q-24 -21 -30 -86h-8q11 106 42 153q32 47 97 47q54 0 176 -60t160 -60q41 0 65 21q25 22 31 83h8q-11 -108 -42 -154q-32 -47 -97 -47z" />
    <glyph glyph-name="adieresis.smallcap" horiz-adv-x="970" 
d="M555 414h-276l-64 -183q-51 -136 -40 -172q12 -38 116 -45l33 -2l4 -12h-338l6 12l24 2q72 6 102 53q27 41 105 261l183 508l-17 47q72 22 101 96h16l274 -797q37 -106 60 -136t76 -32l43 -2l4 -12h-428l6 12l47 2q49 1 61 31q12 29 -6 90zM287 434h262l-125 375h-2z
M674 1104q-45 0 -70 31q-24 30 -24 61q0 35 24 68q23 32 70 32q46 0 69 -32q25 -34 25 -68q0 -30 -25 -61t-69 -31zM305 1104q-44 0 -69 31t-25 61q0 34 25 68q23 32 69 32q47 0 70 -32q24 -33 24 -68q0 -31 -24 -61q-25 -31 -70 -31z" />
    <glyph glyph-name="aring.smallcap" horiz-adv-x="970" 
d="M555 414h-276l-64 -183q-51 -136 -40 -172q12 -38 116 -45l33 -2l4 -12h-338l6 12l24 2q72 6 103 54t104 260l222 618q-65 12 -105 64q-39 51 -39 116q0 75 50 130t132 55q83 0 133 -55t50 -130q0 -68 -40 -117q-42 -51 -108 -63l66 -190q24 -71 69 -201.5t62 -181.5
l65 -191q37 -106 60 -136t76 -32l43 -2l4 -12h-428l6 12l47 2q49 1 61 31q12 29 -6 90zM487 961q75 0 118 48q44 49 44 117q0 69 -44 118q-44 48 -118 48q-73 0 -117 -48q-44 -49 -44 -118q0 -68 44 -117q44 -48 117 -48zM287 434h262l-125 375h-2z" />
    <glyph glyph-name="aringacute.smallcap" horiz-adv-x="970" 
d="M289 1264l223 383h162l-377 -383h-8zM555 414h-276l-64 -183q-51 -136 -40 -172q12 -38 116 -45l33 -2l4 -12h-338l6 12l24 2q72 6 103 54t104 260l222 618q-65 12 -105 64q-39 51 -39 116q0 75 50 130t132 55q83 0 133 -55t50 -130q0 -68 -40 -117q-42 -51 -108 -63
l66 -190q24 -71 69 -201.5t62 -181.5l65 -191q37 -106 60 -136t76 -32l43 -2l4 -12h-428l6 12l47 2q49 1 61 31q12 29 -6 90zM487 961q75 0 118 48q44 49 44 117q0 69 -44 118q-44 48 -118 48q-73 0 -117 -48q-44 -49 -44 -118q0 -68 44 -117q44 -48 117 -48zM287 434h262
l-125 375h-2z" />
    <glyph glyph-name="amacron.smallcap" horiz-adv-x="970" 
d="M555 414h-276l-64 -183q-51 -136 -40 -172q12 -38 116 -45l33 -2l4 -12h-338l6 12l24 2q72 6 102 53q27 41 105 261l183 508l-17 47q72 22 101 96h16l274 -797q37 -106 60 -136t76 -32l43 -2l4 -12h-428l6 12l47 2q49 1 61 31q12 29 -6 90zM287 434h262l-125 375h-2z
M209 1067l14 51h516l-14 -51h-516z" />
    <glyph glyph-name="abreve.smallcap" horiz-adv-x="970" 
d="M555 414h-276l-64 -183q-51 -136 -40 -172q12 -38 116 -45l33 -2l4 -12h-338l6 12l24 2q72 6 102 53q27 41 105 261l183 508l-17 47q72 22 101 96h16l274 -797q37 -106 60 -136t76 -32l43 -2l4 -12h-428l6 12l47 2q49 1 61 31q12 29 -6 90zM287 434h262l-125 375h-2z
M479 1006q-47 0 -85 21q-36 20 -60 49q-23 27 -44 79q-24 57 -31 87q-3 12 -10.5 44t-12.5 53h6q91 -235 241 -235q154 0 242 235h8q-23 -95 -24 -98q-11 -41 -31 -87q-22 -52 -45 -79t-65 -49q-39 -20 -89 -20z" />
    <glyph glyph-name="aogonek.smallcap" horiz-adv-x="970" 
d="M780 -463q-70 0 -117 47t-47 121q0 91 74 171q72 78 170 124h-319l4 12l47 2q51 1 63 31q13 30 -8 90l-92 279h-274l-66 -183q-51 -136 -40 -172q12 -38 116 -45l33 -2l4 -12h-338l6 12l24 2q72 6 102 53q27 41 105 261l183 510l-17 45q69 21 101 96h16l274 -797
q37 -106 60 -136t76 -32l43 -2l4 -12q-124 -23 -187 -90q-63 -68 -63 -168q0 -62 34 -97q35 -36 91 -36q65 0 116 69l9 -6q-69 -135 -187 -135zM287 434h260l-31 94q-19 63 -59 189l-31 94h-4q-134 -377 -135 -377z" />
    <glyph glyph-name="ae.smallcap" horiz-adv-x="1308" 
d="M600 414h-293l-98 -172q-48 -86 -62 -129q-15 -44 4 -68q19 -23 72 -29l45 -4l6 -12h-358l6 12l58 6q44 4 87 54q44 50 126 190l360 621q9 20 10 24q2 8 -6 16q-6 6 -30 11q-21 4 -62 6l-62 4l-4 14h775l24 -286l-10 -2l-8 22q-25 64 -46 111q-11 24 -47 71
q-30 39 -71 53q-39 13 -105 13h-166v-436l97 4q103 1 138 26q33 23 56 103l6 22h13l-33 -329h-12l-2 24q-5 85 -33 106q-28 20 -146 25l-84 4v-464l193 -7q65 0 116 19q48 18 84 63q34 42 52 77q10 19 49 106l10 20l13 -2l-58 -301h-758l5 12l75 6q74 6 74 23v373zM319 434
h281v486h-2z" />
    <glyph glyph-name="aeacute.smallcap" horiz-adv-x="1308" 
d="M690 1006l223 383h162l-377 -383h-8zM600 414h-293l-98 -172q-48 -86 -62 -129q-15 -44 4 -68q19 -23 72 -29l45 -4l6 -12h-358l6 12l58 6q44 4 87 54q44 50 126 190l360 621q9 20 10 24q2 8 -6 16q-6 6 -30 11q-21 4 -62 6l-62 4l-4 14h775l24 -286l-10 -2l-8 22
q-25 64 -46 111q-11 24 -47 71q-30 39 -71 53q-39 13 -105 13h-166v-436l97 4q103 1 138 26q33 23 56 103l6 22h13l-33 -329h-12l-2 24q-5 85 -33 106q-28 20 -146 25l-84 4v-464l193 -7q65 0 116 19q48 18 84 63q34 42 52 77q10 19 49 106l10 20l13 -2l-58 -301h-758l5 12
l75 6q74 6 74 23v373zM319 434h281v486h-2z" />
    <glyph glyph-name="ccedilla.smallcap" horiz-adv-x="1036" 
d="M578 -23q-235 0 -387 138q-150 137 -150 358t152 364q151 142 399 142q135 0 260 -64l88 39l10 -295h-10l-135 246q-79 56 -215 56q-179 0 -285 -136q-104 -134 -104 -342q0 -216 110 -351q111 -136 277 -136q124 0 200 55q77 56 146 174l41 70h8l-53 -246l-51 -10
q-120 -56 -279 -62l-102 -118q118 22 204 -20t86 -124q0 -186 -393 -237l-4 8q301 46 301 180q0 111 -157 111q-76 0 -140 -23v15z" />
    <glyph glyph-name="cacute.smallcap" horiz-adv-x="1036" 
d="M475 1006l223 383h162l-377 -383h-8zM580 -23q-237 0 -389 138q-150 137 -150 358t152 364q151 142 399 142q135 0 260 -64l88 39l10 -295h-10l-135 246q-79 56 -215 56q-179 0 -285 -136q-104 -134 -104 -342q0 -216 110 -351q111 -136 277 -136q124 0 200 55
q77 56 146 174l41 70h8l-53 -246l-51 -10q-135 -62 -299 -62z" />
    <glyph glyph-name="ccircumflex.smallcap" horiz-adv-x="1036" 
d="M293 983l274 383h4l275 -383h-8l-267 229h-4l-266 -229h-8zM580 -23q-237 0 -389 138q-150 137 -150 358t152 364q151 142 399 142q135 0 260 -64l88 39l10 -295h-10l-135 246q-79 56 -215 56q-179 0 -285 -136q-104 -134 -104 -342q0 -216 110 -351q111 -136 277 -136
q124 0 200 55q77 56 146 174l41 70h8l-53 -246l-51 -10q-135 -62 -299 -62z" />
    <glyph glyph-name="cdotaccent.smallcap" horiz-adv-x="1036" 
d="M580 -23q-237 0 -389 138q-150 137 -150 358t152 364q151 142 399 142q135 0 260 -64l88 39l10 -295h-10l-135 246q-79 56 -215 56q-179 0 -285 -136q-104 -134 -104 -342q0 -216 110 -351q111 -136 277 -136q124 0 200 55q77 56 146 174l41 70h8l-53 -246l-51 -10
q-135 -62 -299 -62zM580 1075q-45 0 -70 31t-25 61q0 34 25 67q24 32 70 32q45 0 69 -32q25 -33 25 -67q0 -30 -25 -61t-69 -31z" />
    <glyph glyph-name="ccaron.smallcap" horiz-adv-x="1036" 
d="M588 1024l-275 383h9l266 -229h4l266 229h8l-274 -383h-4zM580 -23q-237 0 -389 138q-150 137 -150 358t152 364q151 142 399 142q135 0 260 -64l88 39l10 -295h-10l-135 246q-79 56 -215 56q-179 0 -285 -136q-104 -134 -104 -342q0 -216 110 -351q111 -136 277 -136
q124 0 200 55q77 56 146 174l41 70h8l-53 -246l-51 -10q-135 -62 -299 -62z" />
    <glyph glyph-name="dcaron.smallcap" horiz-adv-x="1021" 
d="M444 1047l-274 383h8l266 -230h5l266 230h8l-274 -383h-5zM33 0l4 12l57 6q72 8 72 23v881q0 12 -86 20l-41 4l-4 12h66q71 0 129 1q116 2 145 2h57q266 2 406 -124q141 -126 141 -341t-158 -356q-156 -140 -430 -140h-358zM422 20q188 1 295 131q104 126 104 312
q0 214 -103 345q-104 132 -312 132h-93v-893z" />
    <glyph glyph-name="eth.smallcap" horiz-adv-x="1030" 
d="M166 471h-135l4 21h131v430q0 14 -86 20l-53 4l-4 12h68q72 0 132 1q120 2 150 2h59q266 2 406 -124q141 -126 141 -341t-158 -356q-156 -140 -430 -140h-371l7 12l67 6q72 6 72 23v430zM313 492h226l4 -21h-230v-424l109 -27q188 1 295 131q104 126 104 312
q0 214 -103 345q-104 132 -312 132h-93v-448z" />
    <glyph glyph-name="dcroat.smallcap" horiz-adv-x="1030" 
d="M166 471h-135l4 21h131v430q0 14 -86 20l-53 4l-4 12h68q72 0 132 1q120 2 150 2h59q266 2 406 -124q141 -126 141 -341t-158 -356q-156 -140 -430 -140h-371l7 12l67 6q72 6 72 23v430zM313 492h226l4 -21h-230v-424l109 -27q188 1 295 131q104 126 104 312
q0 214 -103 345q-104 132 -312 132h-93v-448z" />
    <glyph glyph-name="egrave.smallcap" horiz-adv-x="921" 
d="M31 0l4 12l55 6q76 7 76 23v881q0 12 -86 20l-43 4l-4 12h753l25 -286l-12 -2l-8 22q-53 137 -110 193q-56 55 -177 55h-191v-436l121 4q111 5 150 28q41 24 63 101l6 22h15l-35 -329l-12 2l-3 22q-7 82 -43 105q-33 21 -153 26l-109 4v-464l219 -7q130 1 199 69
q68 66 119 196l10 20l12 -2l-57 -301h-784zM518 1067l-377 383h162l223 -383h-8z" />
    <glyph glyph-name="eacute.smallcap" horiz-adv-x="921" 
d="M31 0l4 12l55 6q76 7 76 23v881q0 12 -86 20l-43 4l-4 12h753l25 -286l-12 -2l-8 22q-53 137 -110 193q-56 55 -177 55h-191v-436l121 4q111 5 150 28q41 24 63 101l6 22h15l-35 -329l-12 2l-3 22q-7 82 -43 105q-33 21 -153 26l-109 4v-464l219 -7q130 1 199 69
q68 66 119 196l10 20l12 -2l-57 -301h-784zM408 1067l223 383h162l-377 -383h-8z" />
    <glyph glyph-name="ecircumflex.smallcap" horiz-adv-x="921" 
d="M31 0l4 12l55 6q76 7 76 23v881q0 12 -86 20l-43 4l-4 12h753l25 -286l-12 -2l-8 22q-53 137 -110 193q-56 55 -177 55h-191v-436l121 4q111 5 150 28q41 24 63 101l6 22h15l-35 -329l-12 2l-3 22q-7 82 -43 105q-33 21 -153 26l-109 4v-464l219 -7q130 1 199 69
q68 66 119 196l10 20l12 -2l-57 -301h-784zM172 1044l274 383h5l274 -383h-8l-266 230h-5l-266 -230h-8z" />
    <glyph glyph-name="edieresis.smallcap" horiz-adv-x="921" 
d="M31 0l4 12l55 6q76 7 76 23v881q0 12 -86 20l-43 4l-4 12h753l25 -286l-12 -2l-8 22q-53 137 -110 193q-56 55 -177 55h-191v-436l121 4q111 5 150 28q41 24 63 101l6 22h15l-35 -329l-12 2l-3 22q-7 82 -43 105q-33 21 -153 26l-109 4v-464l219 -7q130 1 199 69
q68 66 119 196l10 20l12 -2l-57 -301h-784zM633 1104q-45 0 -70 31q-24 30 -24 61q0 35 24 68q23 32 70 32q46 0 69 -32q25 -34 25 -68q0 -30 -25 -61t-69 -31zM264 1104q-44 0 -69 31t-25 61q0 34 25 68q23 32 69 32q47 0 70 -32q24 -33 24 -68q0 -31 -24 -61
q-25 -31 -70 -31z" />
    <glyph glyph-name="emacron.smallcap" horiz-adv-x="921" 
d="M31 0l4 12l55 6q76 7 76 23v881q0 12 -86 20l-43 4l-4 12h753l25 -286l-12 -2l-8 22q-53 137 -110 193q-56 55 -177 55h-191v-436l121 4q111 5 150 28q41 24 63 101l6 22h15l-35 -329l-12 2l-3 22q-7 82 -43 105q-33 21 -153 26l-109 4v-464l219 -7q130 1 199 69
q68 66 119 196l10 20l12 -2l-57 -301h-784zM184 1067l15 51h516l-15 -51h-516z" />
    <glyph glyph-name="ebreve.smallcap" horiz-adv-x="921" 
d="M31 0l4 12l55 6q76 7 76 23v881q0 12 -86 20l-43 4l-4 12h753l25 -286l-12 -2l-8 22q-53 137 -110 193q-56 55 -177 55h-191v-436l121 4q111 5 150 28q41 24 63 101l6 22h15l-35 -329l-12 2l-3 22q-7 82 -43 105q-33 21 -153 26l-109 4v-464l219 -7q130 1 199 69
q68 66 119 196l10 20l12 -2l-57 -301h-784zM449 1004q-47 0 -85 21t-61 49q-23 27 -44 79q-24 57 -31 87q-3 12 -10.5 44t-12.5 53h6q91 -235 242 -235q153 0 241 235h8q-23 -95 -24 -98q-11 -41 -31 -87q-22 -52 -45 -79q-24 -28 -64 -49q-39 -20 -89 -20z" />
    <glyph glyph-name="edotaccent.smallcap" horiz-adv-x="921" 
d="M31 0l4 12l55 6q76 7 76 23v881q0 12 -86 20l-43 4l-4 12h753l25 -286l-12 -2l-8 22q-53 137 -110 193q-56 55 -177 55h-191v-436l121 4q111 5 150 28q41 24 63 101l6 22h15l-35 -329l-12 2l-3 22q-7 82 -43 105q-33 21 -153 26l-109 4v-464l219 -7q130 1 199 69
q68 66 119 196l10 20l12 -2l-57 -301h-784zM449 1075q-45 0 -70 31t-25 61q0 34 25 67q24 32 70 32q45 0 69 -32q25 -33 25 -67q0 -30 -25 -61t-69 -31z" />
    <glyph glyph-name="eogonek.smallcap" horiz-adv-x="921" 
d="M647 -463q-69 0 -116 47q-46 46 -46 121q0 164 236 295h-688l4 12l53 6q78 8 78 23v881q0 13 -88 20l-41 4l-4 12h751l25 -286h-12l-8 20q-52 136 -109 194q-55 56 -176 56l-193 -2v-434l123 4q107 2 148 26t63 101l6 22h15l-35 -329l-12 2l-3 22q-8 85 -41 107
q-33 21 -153 26l-111 5v-467l219 -7q130 1 199 69q68 66 119 196l10 20l12 -2l-57 -301h-65q-164 -102 -164 -258q0 -65 32 -98q33 -35 93 -35q30 0 51 10t34 23q8 8 29 36l9 -6q-24 -50 -74 -93q-49 -42 -113 -42z" />
    <glyph glyph-name="ecaron.smallcap" horiz-adv-x="921" 
d="M440 993l-274 383h8l266 -229h4l267 229h8l-275 -383h-4zM31 0l4 12l55 6q76 7 76 23v881q0 12 -86 20l-43 4l-4 12h753l25 -286l-12 -2l-8 22q-53 137 -110 193q-56 55 -177 55h-191v-436l121 4q111 5 150 28q41 24 63 101l6 22h15l-35 -329l-12 2l-3 22q-7 82 -43 105
q-33 21 -153 26l-109 4v-464l219 -7q130 1 199 69q68 66 119 196l10 20l12 -2l-57 -301h-784z" />
    <glyph glyph-name="gcircumflex.smallcap" horiz-adv-x="1067" 
d="M287 993l274 383h4l275 -383h-9l-266 230h-4l-266 -230h-8zM571 -25q-232 0 -382 138q-148 136 -148 358t150 366t401 144q148 0 258 -61l84 34l6 -292h-10l-125 243q-74 56 -217 56q-180 0 -284 -137q-103 -136 -103 -343q0 -218 112 -351q113 -134 275 -134
q125 0 196 49v346q0 11 -96 19l-59 6l-4 12h432l-4 -12l-58 -6q-71 -7 -71 -23v-315l84 10l2 -8q-243 -99 -439 -99z" />
    <glyph glyph-name="gbreve.smallcap" horiz-adv-x="1067" 
d="M571 -25q-232 0 -382 138q-148 136 -148 358t150 366t401 144q148 0 258 -61l84 34l6 -292h-10l-125 243q-74 56 -217 56q-180 0 -284 -137q-103 -136 -103 -343q0 -218 112 -351q113 -134 275 -134q125 0 196 49v346q0 11 -96 19l-59 6l-4 12h432l-4 -12l-58 -6
q-71 -7 -71 -23v-315l84 10l2 -8q-243 -99 -439 -99zM573 1008q-47 0 -85 21q-36 20 -60 49q-23 27 -44 79q-24 57 -31 87q-3 12 -10.5 44t-12.5 53h6q91 -235 242 -235q153 0 241 235h8q-23 -95 -24 -98q-11 -41 -31 -87q-22 -52 -45 -79q-24 -28 -64 -49q-39 -20 -90 -20z
" />
    <glyph glyph-name="gdotaccent.smallcap" horiz-adv-x="1067" 
d="M571 -25q-232 0 -382 138q-148 136 -148 358t150 366t401 144q148 0 258 -61l84 34l6 -292h-10l-125 243q-74 56 -217 56q-180 0 -284 -137q-103 -136 -103 -343q0 -218 112 -351q113 -134 275 -134q125 0 196 49v346q0 11 -96 19l-59 6l-4 12h432l-4 -12l-58 -6
q-71 -7 -71 -23v-315l84 10l2 -8q-243 -99 -439 -99zM580 1075q-45 0 -70 31t-25 61q0 34 25 67q24 32 70 32q45 0 69 -32q25 -33 25 -67q0 -30 -25 -61t-69 -31z" />
    <glyph glyph-name="gcommaaccent.smallcap" horiz-adv-x="1067" 
d="M461 -557l-6 8q60 22 107 75q46 52 46 122q0 65 -48 92t-99 -6q-22 43 5 88t93 45q64 0 106 -42t42 -112q0 -81 -74 -163q-72 -80 -172 -107zM571 -25q-232 0 -382 138q-148 136 -148 358t150 366t401 144q148 0 258 -61l84 34l6 -292h-10l-125 243q-74 56 -217 56
q-180 0 -284 -137q-103 -136 -103 -343q0 -218 112 -351q113 -134 275 -134q125 0 196 49v346q0 11 -96 19l-59 6l-4 12h432l-4 -12l-58 -6q-71 -7 -71 -23v-315l84 10l2 -8q-243 -99 -439 -99z" />
    <glyph glyph-name="hcircumflex.smallcap" horiz-adv-x="1118" 
d="M281 1010l274 383h4l275 -383h-9l-266 229h-4l-266 -229h-8zM33 0l4 12l57 6q72 8 72 23v881q0 12 -86 20l-41 4l-4 12h416l-5 -12l-59 -6q-74 -8 -74 -22v-418h490v422q0 12 -86 20l-45 4l-4 12h415l-4 -12l-55 -6q-74 -8 -74 -22v-881q0 -11 88 -21l39 -4l4 -12h-415
l4 12l61 6q72 7 72 23v434h-490v-438q0 -14 88 -21l43 -4l7 -12h-418z" />
    <glyph glyph-name="hbar.smallcap" horiz-adv-x="1118" 
d="M14 682l15 51h139v189q0 13 -88 20l-39 4l-4 12h414l-5 -12l-59 -6q-74 -8 -74 -22v-185h492v189q0 13 -88 20l-45 4l-4 12h415l-4 -12l-55 -6q-74 -8 -74 -23v-184h148l-15 -51h-133v-645q0 -11 88 -21l39 -4l4 -12h-415l4 12l61 6q74 8 74 23v436h-492v-440
q0 -14 88 -21l43 -4l7 -12h-416l4 12l55 6q74 8 74 23v641h-154zM313 500h492v182h-492v-182z" />
    <glyph glyph-name="igrave.smallcap" horiz-adv-x="512" 
d="M43 0l6 12l62 6q73 7 73 23v881q0 10 -90 20l-45 4l-4 12h422l-4 -12l-62 -6q-71 -7 -71 -22v-881q0 -14 88 -21l43 -4l6 -12h-424zM319 1067l-376 383h161l224 -383h-9z" />
    <glyph glyph-name="iacute.smallcap" horiz-adv-x="512" 
d="M43 0l6 12l62 6q73 7 73 23v881q0 10 -90 20l-45 4l-4 12h422l-4 -12l-62 -6q-71 -7 -71 -22v-881q0 -14 88 -21l43 -4l6 -12h-424zM176 1067l223 383h162l-377 -383h-8z" />
    <glyph glyph-name="icircumflex.smallcap" horiz-adv-x="512" 
d="M43 0l6 12l62 6q73 7 73 23v881q0 10 -90 20l-45 4l-4 12h422l-4 -12l-62 -6q-71 -7 -71 -22v-881q0 -14 88 -21l43 -4l6 -12h-424zM-20 1044l274 383h4l274 -383h-8l-266 230h-4l-266 -230h-8z" />
    <glyph glyph-name="idieresis.smallcap" horiz-adv-x="512" 
d="M43 0l6 12l62 6q73 7 73 23v881q0 10 -90 20l-45 4l-4 12h422l-4 -12l-62 -6q-71 -7 -71 -22v-881q0 -14 88 -21l43 -4l6 -12h-424zM442 1104q-44 0 -69 31t-25 61q0 34 25 68q23 32 69 32q47 0 70 -32q25 -34 25 -68q0 -30 -25 -61t-70 -31zM74 1104q-45 0 -70 31
q-24 30 -24 61q0 35 24 68q23 32 70 32q46 0 69 -32q25 -34 25 -68q0 -30 -25 -61t-69 -31z" />
    <glyph glyph-name="imacron.smallcap" horiz-adv-x="512" 
d="M43 0l6 12l62 6q73 7 73 23v881q0 10 -90 20l-45 4l-4 12h422l-4 -12l-62 -6q-71 -7 -71 -22v-881q0 -14 88 -21l43 -4l6 -12h-424zM-8 1067l14 51h516l-14 -51h-516z" />
    <glyph glyph-name="ibreve.smallcap" horiz-adv-x="512" 
d="M43 0l6 12l62 6q73 7 73 23v881q0 10 -90 20l-45 4l-4 12h422l-4 -12l-62 -6q-71 -7 -71 -22v-881q0 -14 88 -21l43 -4l6 -12h-424zM254 1001q-46 0 -85 22q-36 20 -60 49q-23 27 -44 79q-24 57 -31 87q-14 56 -24 97h6q91 -235 242 -235q154 0 242 235h8
q-16 -68 -25 -98q-13 -48 -30 -87q-22 -52 -45 -79t-65 -49q-41 -21 -89 -21z" />
    <glyph glyph-name="iogonek.smallcap" horiz-adv-x="512" 
d="M283 -463q-74 0 -120 43t-46 119q0 94 77 177q78 84 171 124h-320l6 12l60 6q73 7 73 23v881q0 10 -88 20l-45 4l-4 12h420l-4 -12l-62 -6q-71 -7 -71 -22v-881q0 -14 88 -21l43 -4l6 -12q-250 -69 -250 -264q0 -127 127 -127q66 0 117 69l8 -6q-69 -135 -186 -135z" />
    <glyph glyph-name="idotaccent.smallcap" horiz-adv-x="512" 
d="M43 0l6 12l62 6q73 7 73 23v881q0 10 -90 20l-45 4l-4 12h422l-4 -12l-62 -6q-71 -7 -71 -22v-881q0 -14 88 -21l43 -4l6 -12h-424zM258 1075q-45 0 -70 31q-24 30 -24 61q0 35 24 67t70 32t70 -32t24 -67q0 -31 -24 -61q-25 -31 -70 -31z" />
    <glyph glyph-name="dotlessi.smallcap" horiz-adv-x="512" 
d="M43 0l6 12l62 6q73 7 73 23v881q0 10 -90 20l-45 4l-4 12h422l-4 -12l-62 -6q-71 -7 -71 -22v-881q0 -14 88 -21l43 -4l6 -12h-424z" />
    <glyph glyph-name="jcircumflex.smallcap" horiz-adv-x="485" 
d="M12 -260q-54 0 -88 27q-35 27 -35 67q0 34 25 61q24 25 63 25q61 0 79 -57t-27 -101q66 -6 103 70q38 78 38 215v875q0 13 -88 20l-43 4l-4 12h420l-4 -12l-62 -6q-74 -8 -74 -22v-889q0 -63 -102 -176t-201 -113zM-33 983l275 383h4l274 -383h-8l-266 229h-4l-267 -229
h-8z" />
    <glyph glyph-name="jcircumflex.smallcap.alt" horiz-adv-x="698" 
d="M193 983l274 383h4l274 -383h-8l-266 229h-4l-266 -229h-8zM246 -18q-111 0 -164 41t-53 96q0 37 24 62q24 26 62 26q33 0 58 -25q24 -24 24 -57q0 -60 -64 -78q33 -49 115 -49q83 0 117 52t34 179v693q0 14 -90 20l-59 4l-4 12h450l-4 -12l-76 -6q-73 -6 -73 -22v-717
q0 -63 -96 -142q-93 -77 -201 -77z" />
    <glyph glyph-name="dotlessj.smallcap" horiz-adv-x="485" 
d="M12 -260q-54 0 -88 27q-35 27 -35 67q0 34 25 61q24 25 63 25q61 0 79 -57t-27 -101q66 -6 103 70q38 78 38 215v875q0 13 -88 20l-43 4l-4 12h420l-4 -12l-62 -6q-74 -8 -74 -22v-889q0 -63 -102 -176t-201 -113z" />
    <glyph glyph-name="kcommaaccent.smallcap" horiz-adv-x="1028" 
d="M403 -567l-6 8q61 23 108 75q46 52 46 122q0 65 -48 92q-49 27 -100 -6q-22 42 6 88q27 45 93 45q63 0 105 -42t42 -112q0 -81 -74 -163q-72 -80 -172 -107zM33 0l4 12l59 6q70 8 70 23v881q0 12 -84 20l-43 4l-4 12h426l-4 -12l-70 -6q-74 -6 -74 -23v-503l244 247
q188 191 193 238q2 24 -33 35q-23 7 -64 8l-55 4v12h383l-4 -12l-23 -2q-86 -10 -129 -45q-41 -33 -256 -252l-18 -18l297 -488q51 -82 75 -105q22 -21 70 -22l33 -2l4 -12h-414l5 12l41 2q37 4 49 19t2 44q-11 32 -43 87l-217 362l-140 -141v-348q0 -15 88 -21l54 -4l4 -12
h-426z" />
    <glyph glyph-name="lacute.smallcap" horiz-adv-x="847" 
d="M166 1010l223 383h162l-377 -383h-8zM31 0l4 12l61 6q70 8 70 23v881q0 12 -84 20l-45 4l-4 12h448l-6 -12l-88 -6q-74 -6 -74 -22v-895l158 -7q127 0 191 67q61 64 124 214l9 20l12 -2l-55 -315h-721z" />
    <glyph glyph-name="lcommaaccent.smallcap" horiz-adv-x="847" 
d="M319 -567l-6 8q61 23 108 75q46 52 46 122q0 65 -48 92q-49 27 -100 -6q-22 42 6 88q27 45 93 45q63 0 105 -42t42 -112q0 -83 -73 -163q-72 -79 -173 -107zM31 0l4 12l61 6q70 8 70 23v881q0 12 -84 20l-45 4l-4 12h448l-6 -12l-88 -6q-74 -6 -74 -22v-895l158 -7
q127 0 191 67q61 64 124 214l9 20l12 -2l-55 -315h-721z" />
    <glyph glyph-name="lcaron.smallcap" horiz-adv-x="1187" 
d="M862 535l-8 10q160 95 160 213q0 52 -32 79q-32 28 -64 32q-37 5 -62 1q-10 37 20 76t85 39q63 0 105 -46q42 -47 42 -122q0 -82 -70 -163q-67 -78 -176 -119zM31 0l4 12l61 6q70 8 70 23v881q0 12 -84 20l-45 4l-4 12h448l-6 -12l-88 -6q-74 -6 -74 -22v-895l158 -7
q127 0 191 67q61 64 124 214l9 20l12 -2l-55 -315h-721z" />
    <glyph glyph-name="ldotaccent.smallcap" horiz-adv-x="1146" 
d="M1018 401q-47 0 -79 32t-32 75q0 41 32 73q31 31 79 31q46 0 76 -31t30 -73q0 -44 -30 -75q-30 -32 -76 -32zM31 0l4 12l61 6q70 8 70 23v881q0 12 -84 20l-45 4l-4 12h448l-6 -12l-88 -6q-74 -6 -74 -22v-895l158 -7q127 0 191 67q61 64 124 214l9 20l12 -2l-55 -315
h-721z" />
    <glyph glyph-name="lslash.smallcap" horiz-adv-x="851" 
d="M168 432l-154 -49l2 20l152 50v467q0 14 -88 20l-53 4l-4 14h458l-4 -14l-90 -6q-74 -6 -74 -23v-413l156 51l2 -23l-158 -51v-456l160 -7q127 0 187 65t126 216l9 20l12 -2l-55 -315h-732l5 14l69 6q74 6 74 23v389z" />
    <glyph glyph-name="ntilde.smallcap" horiz-adv-x="1069" 
d="M899 -8l-682 848h-2v-772q0 -47 127 -54l31 -2l4 -12h-328l4 12l31 2q109 11 109 58l6 786q-67 78 -148 84l-20 2l-4 14h284l580 -731h2v664q0 43 -127 53l-29 2l-4 12h326l-4 -12l-31 -2q-109 -6 -109 -59l-4 -893h-12zM727 1079q-54 0 -176 62q-121 61 -160 61
q-43 0 -66 -20q-24 -21 -30 -86h-8q11 106 42 153q32 47 97 47q54 0 176 -60t160 -60q41 0 65 21q25 22 31 83h8q-11 -108 -42 -154q-32 -47 -97 -47z" />
    <glyph glyph-name="nacute.smallcap" horiz-adv-x="1069" 
d="M516 1006l223 383h162l-377 -383h-8zM899 -8l-682 848h-2v-772q0 -47 127 -54l31 -2l4 -12h-328l4 12l31 2q109 11 109 58l6 786q-67 78 -148 84l-20 2l-4 14h284l580 -731h2v664q0 43 -127 53l-29 2l-4 12h326l-4 -12l-31 -2q-109 -6 -109 -59l-4 -893h-12z" />
    <glyph glyph-name="ncommaaccent.smallcap" horiz-adv-x="1069" 
d="M451 -557l-7 8q62 23 108 75t46 122q0 65 -48 92t-99 -6q-22 43 5 88t93 45q63 0 105 -42t42 -112q0 -83 -73 -163q-72 -80 -172 -107zM899 -8l-682 848h-2v-772q0 -47 127 -54l31 -2l4 -12h-328l4 12l31 2q109 11 109 58l6 786q-67 78 -148 84l-20 2l-4 14h284l580 -731
h2v664q0 43 -127 53l-29 2l-4 12h326l-4 -12l-31 -2q-109 -6 -109 -59l-4 -893h-12z" />
    <glyph glyph-name="ncaron.smallcap" horiz-adv-x="1069" 
d="M582 983l-275 383h8l267 -229h4l266 229h8l-274 -383h-4zM899 -8l-682 848h-2v-772q0 -47 127 -54l31 -2l4 -12h-328l4 12l31 2q109 11 109 58l6 786q-67 78 -148 84l-20 2l-4 14h284l580 -731h2v664q0 43 -127 53l-29 2l-4 12h326l-4 -12l-31 -2q-109 -6 -109 -59
l-4 -893h-12z" />
    <glyph glyph-name="ograve.smallcap" horiz-adv-x="1110" 
d="M551 -20q-222 0 -366 138t-144 357q0 198 155 351q154 153 361 153q224 0 367 -140t143 -362q0 -197 -154 -348q-152 -149 -362 -149zM559 -2q164 0 257 127t93 354q0 214 -100 347q-102 135 -258 135q-163 0 -257 -130q-93 -129 -93 -356q0 -217 98 -346
q99 -131 260 -131zM608 1067l-377 383h162l223 -383h-8z" />
    <glyph glyph-name="oacute.smallcap" horiz-adv-x="1110" 
d="M551 -20q-222 0 -366 138t-144 357q0 198 155 351q154 153 361 153q224 0 367 -140t143 -362q0 -197 -154 -348q-152 -149 -362 -149zM559 -2q164 0 257 127t93 354q0 214 -100 347q-102 135 -258 135q-163 0 -257 -130q-93 -129 -93 -356q0 -217 98 -346
q99 -131 260 -131zM496 1067l223 383h162l-377 -383h-8z" />
    <glyph glyph-name="ocircumflex.smallcap" horiz-adv-x="1110" 
d="M551 -20q-222 0 -366 138t-144 357q0 198 155 351q154 153 361 153q224 0 367 -140t143 -362q0 -197 -154 -348q-152 -149 -362 -149zM559 -2q164 0 257 127t93 354q0 214 -100 347q-102 135 -258 135q-163 0 -257 -130q-93 -129 -93 -356q0 -217 98 -346
q99 -131 260 -131zM283 1044l274 383h4l275 -383h-9l-266 230h-4l-266 -230h-8z" />
    <glyph glyph-name="otilde.smallcap" horiz-adv-x="1110" 
d="M551 -20q-222 0 -366 138t-144 357q0 198 155 351q154 153 361 153q224 0 367 -140t143 -362q0 -197 -154 -348q-152 -149 -362 -149zM559 -2q164 0 257 127t93 354q0 214 -100 347q-102 135 -258 135q-163 0 -257 -130q-93 -129 -93 -356q0 -217 98 -346
q99 -131 260 -131zM713 1079q-56 0 -178 62q-121 61 -158 61q-44 0 -67 -20t-29 -86h-9q10 106 42 153t98 47q55 0 176 -60q122 -60 160 -60q41 0 65 21q25 22 31 83h8q-11 -108 -42 -154q-32 -47 -97 -47z" />
    <glyph glyph-name="odieresis.smallcap" horiz-adv-x="1110" 
d="M551 -20q-222 0 -366 138t-144 357q0 198 155 351q154 153 361 153q224 0 367 -140t143 -362q0 -197 -154 -348q-152 -149 -362 -149zM559 -2q164 0 257 127t93 354q0 214 -100 347q-102 135 -258 135q-163 0 -257 -130q-93 -129 -93 -356q0 -217 98 -346
q99 -131 260 -131zM745 1104q-44 0 -69 31t-25 61q0 34 25 68q23 32 69 32q47 0 70 -32q25 -34 25 -68q0 -30 -25 -61t-70 -31zM377 1104q-45 0 -70 31q-24 30 -24 61q0 35 24 68q23 32 70 32q46 0 69 -32q25 -34 25 -68q0 -30 -25 -61t-69 -31z" />
    <glyph glyph-name="omacron.smallcap" horiz-adv-x="1110" 
d="M299 1067l14 51h516l-14 -51h-516zM551 -20q-222 0 -366 138t-144 357q0 198 155 351q154 153 361 153q224 0 367 -140t143 -362q0 -197 -154 -348q-152 -149 -362 -149zM559 -2q164 0 257 127t93 354q0 214 -100 347q-102 135 -258 135q-163 0 -257 -130
q-93 -129 -93 -356q0 -217 98 -346q99 -131 260 -131z" />
    <glyph glyph-name="obreve.smallcap" horiz-adv-x="1110" 
d="M551 -20q-222 0 -366 138t-144 357q0 198 155 351q154 153 361 153q224 0 367 -140t143 -362q0 -197 -154 -348q-152 -149 -362 -149zM559 -2q164 0 257 127t93 354q0 214 -100 347q-102 135 -258 135q-163 0 -257 -130q-93 -129 -93 -356q0 -217 98 -346
q99 -131 260 -131zM549 1006q-47 0 -85 21t-61 49q-23 27 -44 79q-21 51 -30 87q-14 56 -24 97h6q91 -235 242 -235q154 0 242 235h8q-16 -68 -25 -98q-13 -48 -30 -87q-21 -49 -46 -79q-24 -28 -64 -49q-39 -20 -89 -20z" />
    <glyph glyph-name="ohungarumlaut.smallcap" horiz-adv-x="1110" 
d="M633 1006l217 383h149l-350 -383h-16zM342 1006l217 383h150l-353 -383h-14zM551 -20q-222 0 -366 138t-144 357q0 198 155 351q154 153 361 153q224 0 367 -140t143 -362q0 -197 -154 -348q-152 -149 -362 -149zM559 -2q164 0 257 127t93 354q0 214 -100 347
q-102 135 -258 135q-163 0 -257 -130q-93 -129 -93 -356q0 -217 98 -346q99 -131 260 -131z" />
    <glyph glyph-name="oslash.smallcap" horiz-adv-x="1110" 
d="M823 913q115 -63 179 -177q65 -115 65 -259q0 -197 -154 -348q-152 -149 -362 -149q-126 0 -236 49l-82 -142h-26l88 152q-119 63 -186 177q-68 115 -68 259q0 198 155 351q154 153 361 153q133 0 246 -55l76 131h26zM328 96l444 772q-94 90 -221 90q-164 0 -257 -128
t-93 -355q0 -246 127 -379zM788 852l-444 -772q91 -80 215 -80q164 0 257 127t93 352q0 237 -121 373z" />
    <glyph glyph-name="oslashacute.smallcap" horiz-adv-x="1110" 
d="M823 913q115 -63 179 -177q65 -115 65 -259q0 -197 -154 -348q-152 -149 -362 -149q-126 0 -236 49l-82 -142h-26l88 152q-119 63 -186 177q-68 115 -68 259q0 198 155 351q154 153 361 153q133 0 246 -55l76 131h26zM328 96l444 772q-94 90 -221 90q-164 0 -257 -128
t-93 -355q0 -246 127 -379zM788 852l-444 -772q91 -80 215 -80q164 0 257 127t93 352q0 237 -121 373zM528 1006l224 383h161l-376 -383h-9z" />
    <glyph glyph-name="oe.smallcap" horiz-adv-x="1425" 
d="M588 0q-264 0 -406 125q-141 125 -141 340t158 356t428 140l663 -3l23 -286l-10 -2l-9 22q-45 140 -100 195t-178 53h-164v-436l96 4q99 1 139 27q37 24 64 102l6 22h12l-32 -329l-13 2l-2 22q-7 84 -39 106q-29 20 -149 25l-82 4v-464l192 -7q69 0 120 20q50 20 86 60
q35 40 57 80q17 31 47 105l10 20l12 -2l-57 -301h-731zM614 20h93v893l-109 29q-190 -1 -295 -131q-104 -128 -104 -311q0 -216 103 -347q104 -133 312 -133z" />
    <glyph glyph-name="thorn.smallcap" horiz-adv-x="851" 
d="M16 0l7 14l73 6q72 6 72 23v877q0 14 -88 20l-57 4l-5 14h449l-4 -14l-74 -6q-74 -6 -74 -23v-161h134q179 0 272 -64q92 -63 92 -176q0 -119 -105 -197q-104 -77 -274 -77q-50 0 -119 10v-211q0 -17 88 -21l72 -4l6 -14h-465zM432 260q104 0 165 64q60 63 60 172
q0 246 -247 239l-95 -2v-459q43 -14 117 -14z" />
    <glyph glyph-name="racute.smallcap" horiz-adv-x="985" 
d="M319 1006l224 383h162l-377 -383h-9zM14 0l6 12l74 6q72 8 72 23v881q0 14 -86 20l-60 4l-4 12h414q187 2 284 -61t97 -186q0 -83 -67 -150q-66 -66 -171 -84l215 -332q49 -76 82 -100q34 -25 91 -31l20 -2l6 -12h-276l-13 23l-272 450q-66 11 -113 31v-467q0 -14 88 -21
l60 -4l4 -12h-451zM432 500q104 0 164 57q59 56 59 160q0 107 -69 165q-68 58 -201 56l-72 -2v-416q64 -20 119 -20z" />
    <glyph glyph-name="rcommaaccent.smallcap" horiz-adv-x="985" 
d="M414 -567l-6 8q60 22 107 75q46 52 46 122q0 65 -48 92t-99 -6q-22 43 5 88t93 45q63 0 105 -42t42 -112q0 -83 -73 -163q-72 -80 -172 -107zM14 0l6 12l74 6q72 8 72 23v881q0 14 -86 20l-60 4l-4 12h414q187 2 284 -61t97 -186q0 -83 -67 -150q-66 -66 -171 -84
l215 -332q49 -76 82 -100q34 -25 91 -31l20 -2l6 -12h-276l-13 23l-272 450q-66 11 -113 31v-467q0 -14 88 -21l60 -4l4 -12h-451zM432 500q104 0 164 57q59 56 59 160q0 107 -69 165q-68 58 -201 56l-72 -2v-416q64 -20 119 -20z" />
    <glyph glyph-name="rcaron.smallcap" horiz-adv-x="985" 
d="M410 1004l-275 382h8l267 -229h4l266 229h8l-274 -382h-4zM14 0l6 12l74 6q72 8 72 23v881q0 14 -86 20l-60 4l-4 12h414q187 2 284 -61t97 -186q0 -83 -67 -150q-66 -66 -171 -84l215 -332q49 -76 82 -100q34 -25 91 -31l20 -2l6 -12h-276l-13 23l-272 450
q-66 11 -113 31v-467q0 -14 88 -21l60 -4l4 -12h-451zM432 500q104 0 164 57q59 56 59 160q0 107 -69 165q-68 58 -201 56l-72 -2v-416q64 -20 119 -20z" />
    <glyph glyph-name="sacute.smallcap" horiz-adv-x="755" 
d="M248 995l223 383h162l-377 -383h-8zM365 -20q-145 0 -295 51l-15 229h8l43 -88q80 -176 261 -176q100 0 163 60q64 61 64 155q0 88 -58 139q-59 52 -180 92q-123 43 -193 104q-69 60 -69 165q0 108 83 188t214 80q87 0 199 -37l61 19l8 -248h-8l-106 192q-70 56 -156 56
q-78 0 -137 -51q-57 -50 -57 -122q0 -78 56 -121q60 -46 169 -85q135 -46 212 -114q75 -66 75 -183q0 -119 -99 -212t-243 -93z" />
    <glyph glyph-name="scircumflex.smallcap" horiz-adv-x="755" 
d="M135 983l275 383h4l274 -383h-8l-266 229h-4l-267 -229h-8zM365 -20q-145 0 -295 51l-15 229h8l43 -88q80 -176 261 -176q100 0 163 60q64 61 64 155q0 88 -58 139q-59 52 -180 92q-123 43 -193 104q-69 60 -69 165q0 108 83 188t214 80q87 0 199 -37l61 19l8 -248h-8
l-106 192q-70 56 -156 56q-78 0 -137 -51q-57 -50 -57 -122q0 -78 56 -121q60 -46 169 -85q135 -46 212 -114q75 -66 75 -183q0 -119 -99 -212t-243 -93z" />
    </font>
</defs>
</svg>
