<?xml version="1.0" encoding="UTF-8"?><svg xmlns="http://www.w3.org/2000/svg" viewBox="0 0 181.9972 119.782"><defs><style>.e{fill:#fff;}</style></defs><g id="a"/><g id="b"><g id="c"><g id="d"><path class="e" d="M0,0H179.5614c-3.2442,2.5919-5.0273,4.0777-6.88,5.4872-23.0126,17.5079-46.0198,38.2087-69.0623,55.6838-11.1963,8.4911-16.4855,8.4884-27.6039,.0498C52.98,43.7376,29.9675,23.0427,6.9544,5.5353,5.0913,4.1179,3.2952,2.627,0,0Z"/><path class="e" d="M181.9972,119.782H.1071c22.1646-16.696,42.7811-36.408,63.6754-52.1472,9.0783,4.5621,14.9588,13.9721,26.8725,14.1133,12.1282,.1438,18.2385-8.8945,27.4912-14.2036,20.7042,15.5824,41.4812,35.4016,63.851,52.2375Z"/><path class="e" d="M.1071,104.4584V14.1787c18.4438,15.3206,36.0222,29.9223,54.2701,45.0802C36.4168,74.2174,18.8191,88.8739,.1071,104.4584Z"/><path class="e" d="M181.9972,104.3045c-18.4629-15.3709-35.9661-29.9429-54.0716-45.0162,18.084-15.049,35.6664-29.6806,54.0716-44.9968V104.3045Z"/></g></g></g></svg>