<?xml version="1.0" encoding="UTF-8"?><svg xmlns="http://www.w3.org/2000/svg" viewBox="0 0 511.0045 511.0063"><defs><style>.d{fill:#fff;}</style></defs><g id="a"/><g id="b"><g id="c"><path class="d" d="M511.0045,43.9142V467.0877c-.2887,.5682-.718,1.1065-.8459,1.7089-5.4412,25.6248-25.6547,42.1825-51.8556,42.1892-135.2125,.0341-270.4251,.0312-405.6376-.0501-4.6075-.0027-9.343-.4654-13.8002-1.5844C15.3557,503.4492,.0164,483.0211,.0125,457.8406-.0083,322.9607,.0025,188.0808,.0054,53.2009c0-1.4966-.019-2.9967,.0717-4.4891C.9468,34.3981,6.9331,22.5964,17.4675,12.9464,25.0358,6.0136,34.2683,2.6138,43.9167,0,184.9746,0,326.0324,0,467.0902,0c.7321,.3114,1.4365,.7587,2.2003,.914,12.1731,2.4763,22.075,8.6208,30.0792,18.0999,6.1532,7.2871,9.1293,15.9602,11.6347,24.9003Zm-76.9288,390.1719c.0821-1.4928,.1826-2.4691,.1828-3.4454,.0063-47.2334,.2181-94.4681-.0734-141.6997-.1923-31.1643-13.7791-55.8656-39.1064-73.5627-27.329-19.0958-61.2162-22.9361-91.431-2.2017-8.0619,5.5323-14.9526,12.7714-22.4607,19.2962v-27.7005h-76.2708v229.2269h76.1935v-6.1198c0-41.2464-.0093-82.4928,.0178-123.7391,.0022-3.3214,.0978-6.6577,.4169-9.9613,2.1412-22.1679,26.7825-38.5,47.9843-31.8575,17.7318,5.5554,28.0738,19.9841,28.1003,39.5519,.0571,42.0779,.0183,84.1559,.0188,126.2338,0,1.9356,0,3.8711,0,5.9791h76.4279Zm-281.094,.0013V204.851H77.0858v229.2364h75.8959Zm7.8438-319.0391c.0505-25.3577-20.6445-46.1276-45.8962-46.0621-25.2461,.0654-46.1661,21.0777-45.9444,46.1472,.2234,25.2591,20.5161,45.512,45.774,45.6841,25.4144,.1732,46.0159-20.2952,46.0666-45.7692Z"/></g></g></svg>