<?xml version="1.0" encoding="UTF-8"?><svg xmlns="http://www.w3.org/2000/svg" viewBox="0 0 177.0142 177.1471"><defs><style>.e{fill:#fff;}</style></defs><g id="a"/><g id="b"><g id="c"><path id="d" class="e" d="M130.7446,177.1471c-3.3596-.6908-6.7641-1.2142-10.0719-2.0987-29.1747-7.8015-54.1126-22.6872-74.9495-44.5873-9.5238-10.0097-18.7601-20.2165-26.0409-32.0083-2.5714-4.1646-5.0818-8.4495-6.9255-12.9632-3.706-9.0725-7.1943-18.2532-10.3009-27.5469C-2.4961,43.1278,.361,29.3442,8.1518,16.0394,13.4871,6.9279,21.0068,1.9046,31.3115,.6783c1.3085-.1557,2.6245-.2792,3.919-.5162,3.8734-.7091,6.4191,.9422,8.2484,4.2778,4.5085,8.2205,9.0618,16.4175,13.7004,24.565,1.737,3.0509,3.8553,5.883,5.6297,8.9145,2.325,3.972,2.1683,6.3712-.9859,9.7453-2.6429,2.8271-5.6145,5.354-8.5102,7.9357-2.6788,2.3882-5.5723,4.5458-8.1534,7.0312-4.3157,4.1557-4.5883,6.2109-1.6262,11.4371,2.6364,4.6515,5.3507,9.2659,8.2132,13.7809,11.1015,17.5099,25.8697,31.1604,43.8751,41.359,3.1823,1.8025,6.3642,3.6088,9.5934,5.3247,2.9888,1.5882,5.7425,.9916,7.9721-1.4354,3.0208-3.2883,5.854-6.7482,8.8449-10.0648,2.4499-2.7167,4.8722-5.4847,7.5616-7.9523,3.2308-2.9643,5.5791-3.114,9.3906-.9119,9.1918,5.3103,18.3401,10.6959,27.5085,16.0468,2.5917,1.5126,5.2146,2.9731,7.7813,4.5268,1.987,1.2028,2.8642,2.9815,2.7262,5.3615-.3556,6.1344-1.4003,12.2112-4.2349,17.6033-1.6312,3.103-4.4806,5.813-7.3285,7.9818-7.9248,6.0352-16.7769,10.1323-26.8488,11.1442-.275,.0276-.5349,.2059-.8019,.3139h-7.0415Z"/></g></g></svg>